<?xml version="1.0" encoding="UTF-8"?>
<svg id="Layer_1" data-name="Layer 1" xmlns="http://www.w3.org/2000/svg" viewBox="0 0 383.48 215.89">
	<path
		d="M383.48,215.77c-1.49,.04-2.99,.12-4.48,.12-124.61,0-249.22,0-373.84,0H0C7.5,149.14,39.7,99.02,97.6,65.07c-.44-.9-.86-1.89-1.39-2.81-9.47-16.41-18.95-32.8-28.42-49.2-.44-.75-.86-1.52-1.27-2.28-2.19-4.08-1.46-7.82,1.91-9.79,3.43-2.01,7.14-.91,9.48,3.06,4.31,7.29,8.51,14.66,12.74,22,6.35,11,12.69,22,19.17,33.24,26.19-11.94,53.59-17.59,82.08-17.58,28.38,.01,55.69,5.57,81.9,17.55,1.68-2.87,3.32-5.62,4.92-8.38,8.73-15.11,17.45-30.22,26.17-45.33,.37-.65,.73-1.3,1.14-1.93,2.34-3.55,6.06-4.58,9.34-2.58,3.08,1.88,4.08,5.62,2.09,9.18-4.38,7.83-8.92,15.57-13.41,23.34-5.54,9.61-11.1,19.21-16.63,28.81-.48,.84-.89,1.72-1.47,2.85,1.96,1.14,3.8,2.15,5.58,3.24,50.41,30.85,80.27,75.59,90.33,133.71,.57,3.28,1.08,6.57,1.61,9.85v3.74ZM119.49,145.29c-.04-8.97-6.93-15.79-15.93-15.76-8.89,.03-15.83,7.02-15.8,15.93,.03,8.85,7.07,15.81,15.98,15.77,8.93-.03,15.8-6.98,15.76-15.95Zm160.2,15.94c8.93,.12,16.12-6.75,16.25-15.51,.13-8.93-6.72-16.06-15.56-16.18-9.03-.13-16.02,6.56-16.18,15.5-.16,8.99,6.62,16.08,15.49,16.2Z"
		style="fill: #62bf7f;" />
</svg>