<?xml version="1.0" encoding="UTF-8"?>
<svg id="Layer_1" data-name="Layer 1" xmlns="http://www.w3.org/2000/svg" viewBox="0 0 351.59 361.51">
    <path
        d="M.39,278.47c-.13,.03-.26,.06-.39,.08C0,200.36,0,122.16,0,43.97c.11,0,.22,.02,.33,.02,.01,.87,.03,1.74,.03,2.61,0,76.17,0,152.35,0,228.52,0,1.11,.02,2.23,.03,3.34Z"
        style="fill: #fabca5;" />
    <path
        d="M.39,278.47c-.01-1.11-.03-2.23-.03-3.34,0-76.17,0-152.35,0-228.52,0-.87-.02-1.74-.03-2.61,.42-2.21,1.83-3.6,3.72-4.68C26.21,26.57,48.38,13.81,70.52,1.02c2.37-1.37,4.59-1.35,6.93,0,22.2,12.79,44.4,25.58,66.62,38.34,2.48,1.42,3.59,3.39,3.59,6.28-.04,47.39-.03,94.78-.03,142.17v2.29c.56-.29,1.01-.51,1.44-.76,14.61-8.41,29.21-16.82,43.82-25.23,3.4-1.96,6.78-3.95,10.21-5.85,.94-.52,1.22-1.12,1.22-2.16-.03-23.62-.02-47.24-.02-70.87,0-.58,.02-1.17,0-1.75-.11-2.37,1.06-4.02,2.95-5.24,.73-.47,1.5-.89,2.26-1.32,21.65-12.46,43.3-24.9,64.92-37.4,2.44-1.41,4.66-1.35,7.04,.02,22.11,12.75,44.24,25.48,66.36,38.21,.46,.27,.91,.55,1.35,.85,1.61,1.09,2.24,2.71,2.4,4.56,.02,.19,0,.39,0,.58,0,25.51,0,51.03,.01,76.54,0,2.08-.63,3.8-2.31,5.07-.42,.32-.9,.57-1.36,.84-20.23,11.65-40.46,23.3-60.69,34.95-.97,.56-1.91,1.15-2.9,1.66-.55,.29-.78,.67-.73,1.27,.03,.38,0,.78,0,1.16,0,23.38,0,46.76,0,70.14,0,.68,0,1.36-.01,2.04-.02,2.34-1.06,4.06-3.1,5.22-3.87,2.21-7.72,4.45-11.59,6.67-11.75,6.77-23.51,13.53-35.26,20.3-29.28,16.86-58.57,33.71-87.85,50.58-1.48,.85-2.99,1.53-4.75,1.27-.36-.05-.74-.15-1.05-.32-4.85-2.74-9.7-5.47-14.52-8.25-40.51-23.32-81.01-46.65-121.53-69.94-1.84-1.06-3.08-2.42-3.57-4.47ZM216.25,93.44c-.37-.37-.43-.37-.57,.02-.02,.14-.05,.29-.05,.43,0,20.9,0,41.8-.02,62.69,0,.73,.25,1.13,.87,1.48,2.99,1.68,5.95,3.41,8.92,5.12,15.15,8.72,30.29,17.44,45.44,26.16,.43,.25,.88,.47,1.44,.76v-.97c0-20.75,0-41.5,.03-62.26,0-.99-.36-1.45-1.16-1.91-15.28-8.77-30.55-17.57-45.83-26.36-3.02-1.74-6.06-3.44-9.09-5.16Zm-79.96,252.59v-1.76c0-20.66,0-41.32,.02-61.98,0-1.05-.3-1.62-1.23-2.15-14-7.88-27.98-15.81-41.96-23.72-7.29-4.13-14.6-8.23-21.86-12.4-1.78-1.02-2.96-2.55-2.9-4.78,.02-.63,0-1.26,0-1.89,0-49.42,0-98.84,0-148.26v-1.85c-3.02-2.12-55.44-32.11-56.6-32.36v219.45c41.41,23.84,82.83,47.68,124.54,71.7Zm11.41-.06c.7-.38,1.17-.62,1.63-.88,36.88-21.23,73.75-42.46,110.63-63.69,3.73-2.15,7.44-4.33,11.19-6.42,.88-.49,1.3-1.07,1.15-2.06-.01-.09,0-.19,0-.29,0-20.47,0-40.93,0-61.4,0-.42,0-.84,0-1.52-41.73,23.82-83.22,47.51-124.6,71.13v65.13Zm62.26-178.61c-41.54,23.92-82.95,47.77-124.52,71.7,18.96,10.73,37.74,21.36,56.55,32.01,41.44-23.68,82.83-47.34,124.22-71,.03-.02,.04-.09,.04-.13,0-.04,0-.09-.01-.18-18.77-10.81-37.57-21.63-56.28-32.4ZM79.76,87.08V229.23c18.95-10.91,37.74-21.73,56.44-32.49V54.59c-18.91,10.89-37.65,21.68-56.44,32.5Zm50.82-42.39c-18.95-10.91-37.77-21.74-56.58-32.57-18.9,10.88-37.69,21.7-56.58,32.57,.47,.29,.83,.52,1.2,.74,18.05,10.39,36.1,20.78,54.13,31.19,.91,.53,1.56,.54,2.48,0,17.99-10.4,36-20.76,54-31.13,.41-.24,.81-.49,1.35-.82Zm147.36,5.9c-18.89,10.88-37.66,21.69-56.57,32.57,.61,.38,1.04,.67,1.5,.93,17.83,10.27,35.67,20.52,53.48,30.83,1.16,.67,2.02,.68,3.18,0,10.32-6.01,20.68-11.95,31.03-17.91,7.51-4.33,15.02-8.65,22.53-12.97,.45-.26,.88-.55,1.41-.88-18.92-10.89-37.7-21.71-56.56-32.57Zm62.23,42.54c-.48,.24-.86,.41-1.23,.62-18.09,10.41-36.17,20.83-54.27,31.22-.84,.48-1.09,1.01-1.09,1.95,.02,20.61,.01,41.22,0,61.83,0,.41,.05,.82,.09,1.36,18.94-10.9,37.71-21.71,56.49-32.52V93.13Z"
        style="fill: #ef382c;" />
</svg>