<?xml version="1.0" encoding="UTF-8"?>
<svg id="Layer_1" data-name="Layer 1" xmlns="http://www.w3.org/2000/svg" viewBox="0 0 480.95 480.95">
 
  <path d="M404.48,121.54c26.91,12.81,41.5,35,47.28,63.38,5.63,27.65,2,54.9-6.79,81.28-6.73,20.2-14.45,40.16-23.2,59.56-10.79,23.92-25.76,45.26-45.76,62.59-22.11,19.16-47.44,32.44-75.71,40.03-2.97,.8-6.05,1.21-9.08,1.81,7.39-4.48,12.43-10.69,13.9-19.64,4.95,0,9.62-.01,14.29,0,3.15,.01,5.82-.9,5.81-4.53-.01-3.7-2.8-4.44-5.9-4.44-4.48,0-8.96,0-13.57,0v-17.56c4.13,0,8,.02,11.87,0,3.45-.02,7.63,.41,7.54-4.61-.08-4.58-3.99-4.38-7.34-4.36-4.01,.02-8.02,0-13.37,0,1.26-10.85,1.67-21.17,3.78-31.13,3.37-15.93,12.63-28.39,24.67-39.34,36.91-33.56,51.36-75.43,43.72-124.6-3.88-24.97-15.46-46.59-31.83-65.69,6.76-.62,13.6-2.16,20.27-1.63,9.49,.76,18.86,3.04,28.28,4.67-2.77,1.69-5.48,3.49-8.32,5.05-2.78,1.52-4.75,3.58-3.1,6.68,1.81,3.41,4.78,2.65,7.62,1.01,4.96-2.87,9.95-5.69,14.92-8.53Zm-2.43,182.35c1.13-1.1,3.21-2.19,3.41-3.55,.23-1.59-.69-4.16-1.98-5.03-4.75-3.2-9.7-6.19-14.89-8.58-1.67-.77-5.15-.23-6.31,1.06-2.12,2.35-.68,4.9,2,6.45,4.83,2.8,9.66,5.6,14.52,8.36,.79,.45,1.71,.69,3.25,1.29Zm14.75-91.03c2.95,0,6.03,.52,8.8-.19,1.77-.45,3.07-2.72,4.58-4.18-1.54-1.43-2.99-3.97-4.63-4.1-6.01-.49-12.11-.45-18.13,.01-1.52,.12-4.17,2.81-3.97,3.87,.32,1.71,2.37,3.95,4.08,4.37,2.93,.72,6.16,.2,9.27,.21Z" style="fill: #fee7b6;"/>
  <path d="M213.6,434.17c-21.23-1.71-41.66-6.99-61.68-14.02-34.44-12.09-64.86-30.52-89.19-58.01-18.61-21.03-30.3-45.44-33.85-73.57-2.62-20.72-1.05-40.87,6.44-60.49,9.08-23.78,25.37-41.24,47.41-53.3,9.11-4.98,18.98-8.59,28.58-12.64,1.78-.75,3.93-.64,5.92-.93-.34,1.51-.6,3.04-1.03,4.53-7.54,26.05-7.44,52.02,.62,77.95,7.76,24.98,21.99,45.58,41.57,62.79,20.62,18.13,27.14,41.66,25.32,68.57-4.7,0-9.05,.04-13.4-.01-3.36-.04-6.23,.9-6.11,4.74,.11,3.6,3.01,4.28,6.1,4.25,4.46-.04,8.91-.01,13.32-.01v17.56c-3.31,0-6.28-.22-9.21,.05-3.83,.36-9.14-2.02-10.22,4.32-.58,3.4,2.29,4.59,10,4.59,3.4,0,6.81,0,10.08,0,3.67,14.62,11.44,20.9,26.35,21.9,1.03,.07,2,1.12,3,1.71Zm-126.4-130.5c1.21-.24,1.56-.22,1.81-.37,5.91-3.39,11.92-6.64,17.61-10.36,.98-.64,1.43-3.86,.71-4.88-.9-1.28-3.8-2.57-4.93-2.01-5.95,2.95-11.71,6.33-17.31,9.93-.99,.63-1.55,3.2-1.11,4.45,.51,1.45,2.35,2.44,3.22,3.25Zm-14.53-90.8s0-.01,0-.02c3.1,0,6.3,.46,9.27-.18,1.63-.35,4.15-2.76,3.97-3.86-.28-1.7-2.43-4.25-3.97-4.38-6.01-.51-12.11-.52-18.12-.02-1.63,.13-3.06,2.7-4.58,4.14,1.53,1.44,2.85,3.68,4.63,4.14,2.77,.7,5.85,.19,8.8,.19Z" style="fill: #fee7b6;"/>
  <path d="M213.6,434.17c-1-.59-1.97-1.64-3-1.71-14.91-1-22.69-7.28-26.35-21.9-3.27,0-6.67,0-10.08,0-7.71,0-10.58-1.19-10-4.59,1.08-6.35,6.4-3.97,10.22-4.32,2.93-.27,5.9-.05,9.21-.05v-17.56c-4.4,0-8.86-.03-13.32,.01-3.09,.03-6-.65-6.1-4.25-.12-3.84,2.76-4.78,6.11-4.74,4.35,.06,8.7,.01,13.4,.01,1.82-26.92-4.7-50.45-25.32-68.57-19.59-17.22-33.81-37.82-41.57-62.79-8.06-25.93-8.16-51.9-.62-77.95,.43-1.48,.69-3.02,1.03-4.53,0,0-.05,.03-.05,.03,.22-.33,.43-.66,.65-.98,14.31-39.14,40.54-67.06,79.48-81.99,51.47-19.73,108.31-5.93,145.85,34.42,.52,.56,1.1,1.07,1.65,1.6,16.37,19.11,27.95,40.72,31.83,65.69,7.64,49.18-6.82,91.04-43.72,124.6-12.04,10.95-21.3,23.4-24.67,39.34-2.11,9.96-2.52,20.28-3.78,31.13,5.35,0,9.36,.01,13.37,0,3.36-.01,7.26-.22,7.34,4.36,.09,5.02-4.09,4.59-7.54,4.61-3.87,.02-7.74,0-11.87,0v17.56c4.61,0,9.09,0,13.57,0,3.09,0,5.88,.74,5.9,4.44,.01,3.63-2.66,4.55-5.81,4.53-4.67-.02-9.34,0-14.29,0-1.47,8.95-6.51,15.16-13.9,19.64-4.95,1.04-9.89,2.07-15.27,3.2-2.36,9.62-7.92,17.56-17.47,22.22-16.55,8.08-36.38,.2-43.26-17.09-.57-1.44-1.08-2.91-1.62-4.36Zm10.3,1.74c3.91,9.19,11.22,13.53,20.84,13.88,9.32,.34,17.29-5.44,21.25-14.73,1.17-1.85,.92-2.75-1.53-2.75-13.78,.05-27.56,.02-42.02,.02,.61,1.5,1.03,2.54,1.45,3.57ZM129.32,156.4c-.21,.3-.42,.6-.64,.9-9.79,23.66-11.55,48.08-6.25,72.97,5.74,26.95,19.14,49.6,39.91,67.72,12.55,10.95,21.7,24.04,26.51,40.01,1.47,4.89,2.43,9.94,3.64,15h104.47c.3-1.1,.64-1.98,.78-2.9,3.28-21.09,13.6-37.92,29.36-52.28,36.84-33.57,49.62-75.36,39.14-123.86-4.83-22.37-15.94-41.81-32.54-57.86-.48-.59-.92-1.24-1.46-1.77-48.62-48.17-128.55-47.59-176.39,1.35-11.54,11.81-20.93,25.1-26.62,40.77l.08-.05Zm166.9,227.93h-102.96v16.85h102.96v-16.85Zm-103.1-9.52h103.01v-12.59h-103.01v12.59Zm.43,35.89c2.18,7.92,7.65,12.81,15.22,12.87,24.04,.19,48.09,.21,72.13-.03,7.87-.08,13.95-5.94,14.54-13-33.11,0-66.21,0-99.3,0-.77,0-1.54,.09-2.6,.16Z" style="fill: #35446a;"/>
  <path d="M249.28,36.74c0,2.8,.56,5.76-.19,8.35-.56,1.94-2.81,3.39-4.31,5.06-1.55-1.63-4.25-3.14-4.42-4.9-.57-5.7-.3-11.49-.19-17.25,.05-2.8,1.37-4.86,4.48-4.86,3.36,0,4.58,2.16,4.62,5.2,.04,2.8,0,5.6,0,8.4Z" style="fill: #3a476e;"/>
  <path d="M340.16,51.87c-1.54,2.82-2.69,5.01-3.91,7.14-2.08,3.63-3.88,7.51-6.49,10.72-1.03,1.27-4.24,1.86-5.83,1.22-1.12-.45-2.21-3.98-1.58-5.3,2.67-5.58,5.78-10.99,9.25-16.11,.86-1.27,3.79-1.86,5.55-1.54,1.22,.23,2.06,2.55,3.02,3.88Z" style="fill: #36446c;"/>
  <path d="M436.41,74.18c-.08,4.8-3.89,8.43-8.75,8.32-4.74-.1-8.55-4.13-8.34-8.79,.21-4.48,4.08-8.17,8.57-8.17,4.7,0,8.6,3.94,8.52,8.64Z" style="fill: #55b94c;"/>
  <path d="M108.1,126.33c-.19,4.23-3.35,6.29-6.46,4.67-5.5-2.86-10.93-5.91-16.01-9.45-1.24-.86-1.92-4.54-1.11-5.77,.82-1.25,4.26-2.06,5.76-1.35,5.32,2.49,10.36,5.6,15.35,8.72,1.27,.79,1.96,2.5,2.46,3.17Z" style="fill: #35446c;"/>
  <path d="M155.03,47.3c.69,.54,2.37,1.28,3.17,2.56,3.04,4.86,5.81,9.89,8.67,14.87,1.58,2.75,1.2,5.17-1.68,6.69-2.79,1.48-4.74,.03-6.14-2.38-2.81-4.82-5.69-9.61-8.33-14.52-1.94-3.6-.18-7.09,4.32-7.22Z" style="fill: #36446c;"/>
  <path d="M410.78,405.58c.27-4.64,4.48-8.36,9.13-8.06,4.72,.3,8.25,4.4,7.9,9.18-.35,4.77-4.36,8.13-9.25,7.74-4.46-.35-8.04-4.43-7.78-8.86Z" style="fill: #f26552;"/>
  <path d="M58.12,93.5c.03,4.72-3.82,8.61-8.5,8.58-4.46-.03-8.29-3.79-8.43-8.25-.14-4.78,3.55-8.62,8.36-8.69,4.97-.07,8.54,3.41,8.57,8.36Z" style="fill: #f05e93;"/>
  <path d="M404.48,121.54c-4.98,2.84-9.96,5.66-14.92,8.53-2.84,1.64-5.81,2.41-7.62-1.01-1.65-3.1,.32-5.16,3.1-6.68,2.84-1.55,5.55-3.36,8.32-5.05,1.5-.79,2.92-1.96,4.52-2.27,2.17-.42,4.47-.17,6.71-.21-.03,2.23-.07,4.46-.1,6.69Z" style="fill: #34446b;"/>
  <path d="M117.82,160.26c-.22,.33-.43,.66-.65,.98,.22-.33,.43-.66,.65-.98Z" style="fill: #fee7b6;"/>
  <path d="M402.05,303.89c-1.54-.6-2.46-.84-3.25-1.29-4.86-2.76-9.69-5.56-14.52-8.36-2.68-1.55-4.13-4.1-2-6.45,1.16-1.29,4.64-1.83,6.31-1.06,5.19,2.39,10.15,5.37,14.89,8.58,1.28,.87,2.21,3.43,1.98,5.03-.2,1.36-2.28,2.46-3.41,3.55Z" style="fill: #35446b;"/>
  <path d="M416.81,212.86c-3.1,0-6.34,.51-9.27-.2-1.71-.42-3.76-2.65-4.08-4.37-.2-1.07,2.45-3.76,3.97-3.87,6.02-.46,12.12-.5,18.13-.01,1.64,.13,3.09,2.67,4.63,4.1-1.51,1.46-2.82,3.73-4.58,4.18-2.77,.71-5.85,.19-8.8,.18Z" style="fill: #33426a;"/>
  <path d="M87.21,303.67c-.87-.82-2.7-1.8-3.22-3.25-.44-1.25,.12-3.81,1.11-4.45,5.6-3.59,11.35-6.98,17.31-9.93,1.13-.56,4.03,.74,4.93,2.01,.72,1.02,.27,4.24-.71,4.88-5.7,3.72-11.7,6.97-17.61,10.36-.25,.15-.6,.13-1.81,.37Z" style="fill: #35446b;"/>
  <path d="M72.68,212.86c-2.95,0-6.03,.52-8.8-.19-1.78-.45-3.1-2.7-4.63-4.14,1.52-1.45,2.95-4.01,4.58-4.14,6.01-.5,12.11-.49,18.12,.02,1.53,.13,3.69,2.68,3.97,4.38,.18,1.1-2.34,3.51-3.97,3.86-2.97,.64-6.17,.18-9.27,.18,0,0,0,.01,0,.02Z" style="fill: #32426a;"/>
  <path d="M333.71,116.1c16.6,16.05,27.71,35.49,32.54,57.86,10.48,48.5-2.3,90.29-39.14,123.86-15.76,14.36-26.08,31.19-29.36,52.28-.14,.91-.48,1.8-.78,2.9h-104.47c-1.21-5.06-2.17-10.1-3.64-15-4.81-15.98-13.96-29.07-26.51-40.01-20.77-18.12-34.17-40.77-39.91-67.72-5.3-24.89-3.54-49.31,6.25-72.97,.21-.3,.42-.6,.64-.9,0,0-.08,.05-.08,.05,1.38-.07,2.78-.01,4.14-.22,11.52-1.73,23.04-3.5,34.56-5.27-.78,1.52-1.52,3.05-2.34,4.54-9.13,16.47-12.72,34.21-10.74,52.81,5.84,54.9,58.15,91.48,111.79,78.46,44.55-10.81,74.57-55.84,67.44-100.74-3.86-24.3-15.64-43.74-34.67-59.02,11.43-3.64,22.86-7.28,34.28-10.92Z" style="fill: #fce6b6;"/>

  <path d="M296.23,384.33v16.85h-102.96v-16.85h102.96Z" style="fill: #fdcb4e;"/>
  <path d="M193.13,374.81v-12.59h103.01v12.59h-103.01Z" style="fill: #f9c94e;"/>
  <path d="M193.56,410.7c1.06-.07,1.83-.16,2.6-.16,33.1,0,66.19,0,99.3,0-.59,7.06-6.68,12.92-14.54,13-24.04,.24-48.09,.22-72.13,.03-7.57-.06-13.04-4.95-15.22-12.87Z" style="fill: #fac94e;"/>
 
  <path d="M265.99,435.06c-14.03,.28-28.06,.57-42.1,.85-.42-1.04-.84-2.07-1.45-3.57,14.46,0,28.24,.03,42.02-.02,2.44,0,2.7,.89,1.53,2.75Z" style="fill: #e8d7b0;"/>
  <path d="M129.32,156.4c-.21,.3-.42,.6-.64,.9,.21-.3,.42-.6,.64-.9Z" style="fill: #fcfcfc;"/>
  <path d="M167.94,150.97c11.85-17.62,27.3-30.86,47.64-37.48,30.14-9.81,58.17-5.06,83.84,13.54,19.03,15.28,30.81,34.72,34.67,59.02,7.13,44.9-22.89,89.93-67.44,100.74-53.64,13.02-105.95-23.56-111.79-78.46-1.98-18.6,1.6-36.33,10.74-52.81,.83-1.49,1.57-3.03,2.34-4.54Zm76.64,129.55c44.91,.11,81.53-36.27,81.63-81.09,.11-45.13-36.18-81.71-81.35-82.01-44.47-.29-81.55,36.6-81.68,81.25-.13,45.13,36.28,81.74,81.4,81.85Z" style="fill: #344369;"/>
  <path d="M244.58,280.52c-45.12-.11-81.53-36.71-81.4-81.85,.13-44.65,37.21-81.54,81.68-81.25,45.17,.3,81.45,36.87,81.35,82.01-.1,44.82-36.72,81.2-81.63,81.09Zm25.9-126.82c-.89-1.15-1.71-3.2-3.07-3.67-1.4-.48-3.49,.27-4.96,1.06-.92,.49-1.31,2.04-1.83,3.17-13.25,28.57-26.48,57.15-39.71,85.73-.46,.99-1.42,2.09-1.25,2.96,.36,1.8,.9,4.32,2.17,4.96,1.29,.66,3.75-.23,5.31-1.12,1.02-.58,1.41-2.34,2-3.61,13.11-28.29,26.21-56.58,39.31-84.87,.59-1.27,1.13-2.55,2.03-4.61Zm13.46,68.79c-5.6,4.65-10.61,8.86-15.68,13-2.34,1.91-3.65,4.21-1.57,6.82,2.25,2.84,4.88,1.93,7.33-.12,6.12-5.09,12.31-10.09,18.4-15.22,4.06-3.42,4.03-5.58-.1-9.06-5.97-5.02-12.06-9.91-18.06-14.9-2.39-1.99-4.99-3.29-7.37-.53-2.58,3-.72,5.4,1.83,7.48,4.96,4.02,9.85,8.11,15.21,12.53Zm-78.38-46.95c5.49-4.54,10.53-8.7,15.57-12.86,2.43-2.01,3.91-4.37,1.44-7.17-2.24-2.53-4.69-1.65-7,.27-6.12,5.09-12.31,10.11-18.42,15.2-4.1,3.41-4.13,5.61-.07,9.02,5.97,5.03,12.05,9.93,18.01,14.96,2.56,2.16,5.29,3.39,7.71,.38,2.29-2.85,.46-5.16-1.95-7.12-4.95-4.04-9.84-8.16-15.28-12.68Z" style="fill: #fbca4e;"/>
  <path d="M270.49,153.71c-.91,2.06-1.45,3.34-2.03,4.61-13.1,28.29-26.2,56.58-39.31,84.87-.59,1.27-.97,3.03-2,3.61-1.56,.89-4.02,1.77-5.31,1.12-1.27-.64-1.81-3.17-2.17-4.96-.17-.87,.79-1.97,1.25-2.96,13.23-28.58,26.47-57.15,39.71-85.73,.52-1.12,.92-2.67,1.83-3.17,1.47-.79,3.57-1.55,4.96-1.06,1.36,.47,2.18,2.52,3.07,3.67Z" style="fill: #344368;"/>
  <path d="M283.94,222.5c-5.36-4.42-10.26-8.51-15.21-12.53-2.56-2.07-4.41-4.48-1.83-7.48,2.38-2.76,4.98-1.46,7.37,.53,5.99,5,12.08,9.88,18.06,14.9,4.14,3.48,4.16,5.64,.1,9.06-6.09,5.13-12.28,10.13-18.4,15.22-2.45,2.04-5.08,2.96-7.33,.12-2.08-2.62-.76-4.91,1.57-6.82,5.07-4.15,10.08-8.36,15.68-13Z" style="fill: #354368;"/>
  <path d="M205.56,175.55c5.44,4.52,10.32,8.64,15.28,12.68,2.41,1.96,4.24,4.27,1.95,7.12-2.42,3.01-5.15,1.78-7.71-.38-5.97-5.03-12.04-9.94-18.01-14.96-4.05-3.41-4.02-5.61,.07-9.02,6.12-5.1,12.3-10.11,18.42-15.2,2.31-1.92,4.76-2.79,7-.27,2.47,2.79,.99,5.16-1.44,7.17-5.04,4.16-10.07,8.32-15.57,12.86Z" style="fill: #354368;"/>
</svg>