<?xml version="1.0" encoding="UTF-8"?>
<svg id="Layer_1" data-name="Layer 1" xmlns="http://www.w3.org/2000/svg" viewBox="0 0 409.6 409.6">
    <path
        d="M197.21,0c4.52,0,9.05,0,13.57,0,.54,.25,1.07,.5,1.61,.76,.8,0,1.61-.02,2.41-.03,.52-.24,1.04-.49,1.57-.73,1.06,0,2.13,0,3.19,0,.84,.27,1.66,.66,2.53,.78,5.4,.74,10.78,1.76,16.21,2.05,10.3,.54,14.17,5.16,7.24,16.42-13.8,22.42-18.31,47.23-12.75,72.92,9.49,43.81,36.44,71.71,80,82.92,7.63,1.96,11.87,5.86,14.84,13.16,9.6,23.63,27.12,37.99,52.61,41.71,5.45,.79,11.11,.29,16.67,.09,6.97-.24,9.89,2.82,8.73,9.63-.42,2.49-.89,4.97-1.41,7.44-5.54,26.23-16.05,50.39-31.15,72.46-4.98,7.28-11.17,13.74-16.81,20.57-.93,.5-1.97,.87-2.79,1.52-13.91,11.11-29.32,19.59-45.64,26.59-21.61,9.26-44.23,14.34-67.58,15.55-11.73,.61-23.61-.39-35.35-1.41-23.3-2.04-45.34-9.03-66.19-19.35-22.3-11.04-42.01-25.71-59-44.08-16.97-18.36-30.36-38.88-39.85-61.98-8.76-21.33-13.67-43.58-14.99-66.53-.8-13.78,.08-27.57,2.15-41.29,4.22-28.01,13.92-53.93,29-77.85,4.02-6.39,8.39-12.56,12.59-18.83,1-1.21,1.84-2.6,3.02-3.59C101.72,23.8,135.96,7.83,174.86,2.18,179.4,1.53,183.91,.73,188.43,0c1.06,0,2.13,0,3.19,0,.52,.24,1.04,.48,1.56,.72,.8,0,1.61,.02,2.41,.02,.54-.25,1.08-.5,1.61-.74Zm11.97,177.25c2.81-6.61,1.82-11.13-3.47-15.9-4.13-3.72-9.31-4.08-14.98-1.02-4.88,2.99-7.25,8.38-6.1,13.87,1.06,5.07,5.61,9.51,10.43,10.19,6.3,.88,11.02-1.51,14.11-7.13Zm-91.88,75.16c-7.77,3.11-12.83,11.74-11.78,20.07,1.08,8.48,8.1,16.12,15.89,17.28,9.76,1.45,17.85-2.72,21.54-11.1,3.39-7.07,2.03-16.18-3.27-21.88-5.58-6-14.36-7.72-22.38-4.37Zm156.69,49.48c5.54-11.65,2.64-22.9-5.12-30.66-7.8-7.8-20.13-9.44-30.16-4.58-10.82,5.85-16.14,16.44-14.2,28.24,1.68,10.21,11.22,19.71,21.28,21.19,12.15,1.79,22.94-3.65,28.19-14.2ZM135.87,149.32c4.54-10.23,2.52-21.74-5.16-29.41-7.85-7.83-19.7-9.81-30.16-5.03-8.54,3.7-16.97,15.03-14.34,28.7,1.95,10.15,11.57,19.81,21.44,20.86,13.12,1.4,23.86-4.35,28.22-15.13Zm-55.79,61.74c-3.47-6.35-6.36-12.47-10.15-17.98-.9-1.32-5.24-1.49-7.16-.52-1.68,.85-3.56,4.55-2.97,6.09,2.19,5.78,5,11.43,8.39,16.6,.96,1.46,4.92,1.91,7.08,1.31,1.79-.5,2.95-3.23,4.82-5.5Zm183.72-1.25c-6.56,3.84-12.77,7.05-18.39,11.1-1.13,.81-.85,5.32,.33,7.09,1.03,1.54,4.63,2.77,6.41,2.15,5.23-1.83,10.22-4.44,15.08-7.14,2.94-1.63,3.61-4.91,2.27-7.7-.95-1.98-3.32-3.28-5.7-5.49Zm67.05,54.2c-3.78-6.7-6.83-12.86-10.73-18.43-.85-1.21-5.37-1.21-7.07-.08-1.67,1.12-3.17,4.82-2.54,6.63,1.86,5.34,4.61,10.4,7.39,15.37,1.54,2.76,4.67,3.53,7.32,2.16,2.07-1.07,3.49-3.42,5.62-5.64Zm-152.91,60.52c0-6.05-4.73-9.16-9.35-7.18-4.38,1.87-8.61,4.1-12.82,6.34-3.85,2.05-4.93,5.36-3.21,8.97,1.56,3.27,4.95,4.4,8.81,2.64,4.22-1.92,8.46-3.87,12.4-6.28,1.95-1.19,3.25-3.45,4.17-4.49Zm-19.13-93.25c1.65-1.29,4.07-2.29,4.8-4.01,.8-1.89,.87-4.99-.21-6.58-2.1-3.11-5.03-5.75-7.95-8.19-2.68-2.24-5.72-1.82-8.28,.52-2.43,2.21-2.71,5.8-.42,8.6,2.16,2.64,4.65,5.05,7.22,7.32,1.12,.99,2.78,1.37,4.85,2.33Zm32.52-112.78c3.93-.07,12.85-8.8,13-12.71,.18-4.91-5.39-8.71-9.35-5.9-3.59,2.55-6.91,5.86-9.41,9.48-2.66,3.85,1.04,9.21,5.77,9.13Zm-13.36-44.86c-.12-5.25-8.94-14.36-12.94-13.97-1.99,.19-4.55,1.48-5.52,3.08-.96,1.58-1.09,4.81-.07,6.2,2.47,3.38,5.57,6.48,8.95,8.95,1.39,1.02,4.5,.82,6.2-.05,1.72-.88,2.67-3.27,3.38-4.22Zm59.14,286.11c0-1.59,.19-3.2-.04-4.75-.5-3.42-3.33-5.56-6.76-5.34-3.85,.25-5.91,2.94-6.01,7.85-.17,7.99,1.26,10.91,5.58,11.39,4.92,.55,7.36-2.47,7.23-9.16Z"
        style="fill: #f4b97d;" />
    
    <path
        d="M356.26,340.17c-3.17,3.69-6.07,7.67-9.56,11.02-30.54,29.39-66.69,48.09-108.52,54.89-49.86,8.1-96.95-.55-140.07-27.06-47.31-29.09-78.07-70.92-91.94-124.79-2.67-10.35-3.62-21.14-5.4-31.73-.12-.73-.51-1.43-.77-2.14,0-10.65,0-21.29,0-31.94,.78-5.05,1.55-10.1,2.34-15.15,7.23-46.39,28.26-85.54,62.08-117.93,1.2-1.15,2.79-1.9,4.19-2.84-4.21,6.27-8.57,12.44-12.59,18.83-15.08,23.92-24.78,49.83-29,77.85-2.07,13.72-2.94,27.5-2.15,41.29,1.32,22.95,6.23,45.2,14.99,66.53,9.49,23.11,22.88,43.63,39.85,61.98,16.99,18.37,36.7,33.04,59,44.08,20.85,10.33,42.89,17.32,66.19,19.35,11.75,1.03,23.62,2.02,35.35,1.41,23.34-1.21,45.97-6.3,67.58-15.55,16.32-6.99,31.73-15.47,45.64-26.59,.81-.65,1.85-1.02,2.79-1.52Z"
        style="fill: #e3ab76;" />

    <path d="M195.6,.74c-.8,0-1.61-.02-2.41-.02,.02-.24,.03-.48,.04-.72h2.4c0,.25,0,.5-.02,.74Z"
        style="fill: #f7cea3;" />
    <path d="M214.81,.73c-.8,0-1.61,.02-2.41,.03,0-.25-.01-.5-.01-.76h2.4c0,.24,.02,.49,.03,.73Z"
        style="fill: #f7cb9d;" />
    <path d="M193.22,0c0,.24-.02,.48-.04,.72-.52-.24-1.04-.48-1.56-.72,.53,0,1.06,0,1.6,0Z"
        style="fill: #f9d8b5;" />
    <path d="M195.6,.74c0-.25,.01-.49,.02-.74,.53,0,1.06,0,1.6,0-.54,.25-1.08,.5-1.61,.74Z"
        style="fill: #f7ca9a;" />
    <path d="M212.39,0c0,.25,0,.5,.01,.76-.54-.25-1.07-.5-1.61-.76,.53,0,1.06,0,1.6,0Z"
        style="fill: #f6c796;" />
    <path
        d="M214.81,.73c-.01-.24-.02-.49-.03-.73C215.31,0,215.85,0,216.38,0c-.52,.24-1.04,.49-1.57,.73Z"
        style="fill: #f8d3ac;" />
    <path
        d="M100.55,114.89c10.46-4.78,22.31-2.81,30.16,5.03,7.69,7.67,9.71,19.18,5.16,29.41-1.69,.29-3.38,.56-5.07,.87-18.58,3.47-34.44-13.04-30.34-31.54,.27-1.2,.06-2.51,.08-3.77Z"
        style="fill: #cd916d;" />
    <path
        d="M238.72,266.65c10.02-4.86,22.36-3.22,30.16,4.58,7.76,7.76,10.66,19.01,5.12,30.66-3.21,.23-6.43,.75-9.63,.64-16.4-.57-27.87-14.49-25.72-29.75,.28-2.01,.06-4.08,.08-6.13Z"
        style="fill: #cd916d;" />
    <path
        d="M238.72,266.65c-.01,2.04,.21,4.12-.08,6.13-2.15,15.26,9.32,29.18,25.72,29.75,3.2,.11,6.42-.41,9.63-.64-5.25,10.55-16.04,15.99-28.19,14.2-10.07-1.48-19.6-10.98-21.28-21.19-1.94-11.8,3.39-22.4,14.2-28.24Z"
        style="fill: #b67f5f;" />
    <path
        d="M100.55,114.89c-.02,1.26,.19,2.56-.08,3.77-4.1,18.5,11.76,35.01,30.34,31.54,1.68-.31,3.38-.58,5.07-.87-4.36,10.77-15.1,16.53-28.22,15.13-9.88-1.06-19.49-10.71-21.44-20.86-2.63-13.67,5.8-25,14.34-28.7Z"
        style="fill: #b67f5f;" />
    <path
        d="M117.3,252.41c8.02-3.35,16.8-1.63,22.38,4.37,5.3,5.7,6.66,14.81,3.27,21.88-1.04,.19-2.08,.45-3.13,.57-6.39,.73-12.4,.34-17.39-4.61-6.44-6.39-8.18-13.7-5.13-22.21Z"
        style="fill: #cd916d;" />
    <path
        d="M117.3,252.41c-3.05,8.5-1.31,15.81,5.13,22.21,4.99,4.95,11,5.34,17.39,4.61,1.05-.12,2.08-.38,3.13-.57-3.69,8.38-11.78,12.55-21.54,11.1-7.79-1.16-14.81-8.8-15.89-17.28-1.06-8.32,4.01-16.96,11.78-20.07Z"
        style="fill: #b67f5f;" />
    <path
        d="M80.08,211.07c-1.87,2.27-3.03,5-4.82,5.5-2.16,.6-6.12,.15-7.08-1.31-3.39-5.17-6.2-10.82-8.39-16.6-.58-1.54,1.29-5.24,2.97-6.09,1.92-.97,6.25-.79,7.16,.52,3.79,5.51,6.68,11.63,10.15,17.98Z"
        style="fill: #b67f60;" />
    <path
        d="M263.8,209.82c2.39,2.21,4.75,3.51,5.7,5.49,1.34,2.79,.67,6.07-2.27,7.7-4.86,2.7-9.86,5.31-15.08,7.14-1.77,.62-5.38-.61-6.41-2.15-1.18-1.77-1.46-6.27-.33-7.09,5.61-4.04,11.82-7.26,18.39-11.1Z"
        style="fill: #b67f60;" />
    <path
        d="M330.84,264.01c-2.13,2.22-3.54,4.57-5.62,5.64-2.65,1.37-5.78,.6-7.32-2.16-2.78-4.96-5.54-10.03-7.39-15.37-.63-1.8,.87-5.51,2.54-6.63,1.7-1.13,6.22-1.13,7.07,.08,3.9,5.57,6.95,11.74,10.73,18.43Z"
        style="fill: #a06f51;" />
    <path
        d="M177.94,324.54c-.93,1.04-2.23,3.29-4.17,4.49-3.94,2.41-8.18,4.36-12.4,6.28-3.86,1.76-7.25,.63-8.81-2.64-1.72-3.61-.63-6.92,3.21-8.97,4.21-2.24,8.44-4.46,12.82-6.34,4.63-1.98,9.35,1.13,9.35,7.18Z"
        style="fill: #b67f60;" />
    <path
        d="M190.74,160.33c5.67-3.05,10.85-2.7,14.98,1.02,5.3,4.78,6.28,9.3,3.47,15.9-.93,0-1.86,0-2.79,.01-9.89,.05-14.18-4.01-14.82-13.96-.06-1.01-.55-1.98-.84-2.98Z"
        style="fill: #cd916d;" />
    <path
        d="M190.74,160.33c.29,.99,.78,1.97,.84,2.98,.64,9.95,4.93,14.02,14.82,13.96,.93,0,1.86,0,2.79-.01-3.09,5.62-7.82,8.01-14.11,7.13-4.82-.67-9.37-5.12-10.43-10.19-1.15-5.49,1.22-10.88,6.1-13.87Z"
        style="fill: #b67f60;" />
    <path
        d="M158.8,231.29c-2.07-.96-3.73-1.34-4.85-2.33-2.56-2.27-5.05-4.68-7.22-7.32-2.3-2.8-2.01-6.4,.42-8.6,2.57-2.33,5.6-2.76,8.28-.52,2.92,2.44,5.86,5.08,7.95,8.19,1.07,1.59,1.01,4.69,.21,6.58-.73,1.72-3.15,2.71-4.8,4.01Z"
        style="fill: #a16f51;" />
    <path
        d="M191.32,118.52c-4.73,.08-8.42-5.27-5.77-9.13,2.5-3.62,5.82-6.93,9.41-9.48,3.96-2.81,9.53,.99,9.35,5.9-.14,3.91-9.07,12.65-13,12.71Z"
        style="fill: #a06f51;" />
    <path
        d="M177.96,73.66c-.71,.95-1.66,3.34-3.38,4.22-1.7,.87-4.81,1.07-6.2,.05-3.38-2.48-6.48-5.57-8.95-8.95-1.02-1.4-.88-4.63,.07-6.2,.97-1.6,3.54-2.89,5.52-3.08,4-.39,12.82,8.71,12.94,13.97Z"
        style="fill: #b67f60;" />
    <path
        d="M237.1,359.78c.12,6.69-2.31,9.71-7.23,9.16-4.32-.49-5.74-3.4-5.58-11.39,.1-4.92,2.16-7.6,6.01-7.85,3.43-.22,6.26,1.91,6.76,5.34,.23,1.55,.04,3.17,.04,4.75Z"
        style="fill: #a06f51;" />
    <path
        d="M304.77,37.33c6.08-1.83,12.17-3.62,18.23-5.5,15.33-4.76,29.01,7.88,25.84,22.64-1.94,9.05-4.46,17.99-6.89,26.93-.47,1.72-1.72,3.23-2.61,4.83-.88-.71-1.66-1.69-2.66-2.1-5.3-2.12-10.71-3.97-15.99-6.15-9.2-3.81-15.89-10-16.55-20.48-.33-5.19,.81-10.46,1.14-15.71,.09-1.47-.33-2.98-.51-4.47Z"
        style="fill: #f4b97d;" />
    <path
        d="M304.77,37.33c.19,1.49,.61,3,.51,4.47-.33,5.24-1.47,10.52-1.14,15.71,.66,10.48,7.35,16.68,16.55,20.48,5.28,2.18,10.69,4.03,15.99,6.15,1.01,.4,1.78,1.38,2.66,2.1-5.44,6.91-12.94,9.65-21.15,7.07-6.69-2.1-13.31-4.56-19.73-7.39-8.74-3.85-12.57-12.51-10.88-23.34,.45-2.88,.92-5.76,1.53-8.61,1.85-8.69,6.85-14.46,15.66-16.63Z"
        style="fill: #e3ab76;" />
    <path
        d="M354.49,126.25c5.48-3.43,10.81-2.95,15.93,.73,3.01,2.16,6.05,4.32,8.81,6.77,5.49,4.87,6.24,11.97,1.86,17.85-2.52,3.38-5.43,6.48-8.17,9.71-5.2-1.32-8.94-4.35-11.02-9.37-1.41-3.42-2.98-6.77-4.35-10.2-1.99-4.96-5.01-9.74-3.07-15.49Z"
        style="fill: #f4b97d;" />
    <path
        d="M354.49,126.25c-1.94,5.75,1.08,10.53,3.07,15.49,1.37,3.43,2.94,6.79,4.35,10.2,2.08,5.02,5.82,8.04,11.02,9.37-3.07,5.21-7.45,8.36-13.66,7.86-6.28-.5-9.86-4.53-12.06-10.13-1.5-3.82-3.26-7.55-4.82-11.35-3.51-8.51-1.13-15,7.05-19.21,1.64-.84,3.37-1.49,5.06-2.23Z"
        style="fill: #e3ab76;" />
    <path
        d="M389.58,74.21c5.69-2.61,10.91-1.93,15.05,1.95,3.99,3.75,5.02,9.14,2.84,14.94-.79,.02-1.59-.02-2.37,.06-7.03,.77-12.29-2.3-14.45-8.94-.82-2.52-.74-5.34-1.07-8.02Z"
        style="fill: #f4b97d;" />
    <path
        d="M389.58,74.21c.33,2.68,.25,5.5,1.07,8.02,2.16,6.64,7.42,9.71,14.45,8.94,.78-.09,1.58-.05,2.37-.06-2.58,5.52-8.09,8.64-13.77,7.8-5.4-.79-10.19-5.26-11.1-10.54-.82-4.71,.59-11.32,6.98-14.16Z"
        style="fill: #e3ab76;" />
</svg>