<?xml version="1.0" encoding="utf-8"?>
<!-- Generator: Adobe Illustrator 22.0.1, SVG Export Plug-In . SVG Version: 6.00 Build 0)  -->
<svg version="1.1" xmlns="http://www.w3.org/2000/svg" xmlns:xlink="http://www.w3.org/1999/xlink" x="0px" y="0px"
	 viewBox="0 0 2000 1387.9" style="enable-background:new 0 0 2000 1387.9;" xml:space="preserve">
<style type="text/css">
	.st0{display:none;}
	.st1{opacity:0.4;fill:#E5E5FF;}
	.st2{fill:#9192FF;}
	.st3{fill:#FFFFFF;}
	.st4{fill:#3335CF;}
	.st5{opacity:0.5;fill:#D1D1FF;}
	.st6{fill:#D1D1FF;}
	.st7{fill:#EBEBFF;}
	.st8{fill:#1B1B43;}
	.st9{fill:#0E0060;}
	.st10{fill:#32328E;}
	.st11{fill:#FFBC96;}
	.st12{fill:url(#SVGID_1_);}
	.st13{fill:url(#SVGID_2_);}
	.st14{fill:url(#SVGID_3_);}
	.st15{fill:#D28572;}
	.st16{opacity:0.2;fill:#FE5B52;}
	.st17{fill:url(#SVGID_4_);}
	.st18{fill:url(#SVGID_5_);}
	.st19{fill:#FF6498;}
	.st20{fill:#26289C;}
</style>
<g id="BACKGROUND" class="st0">
</g>
<g id="OBJECTS">
	<g>
		
			<ellipse transform="matrix(0.7071 -0.7071 0.7071 0.7071 -135.8331 1512.3805)" class="st1" cx="1757.7" cy="920.2" rx="82.5" ry="82.5"/>
		
			<ellipse transform="matrix(0.7071 -0.7071 0.7071 0.7071 -126.2695 383.81)" class="st1" cx="400.2" cy="344.3" rx="125.9" ry="125.9"/>
		<circle class="st1" cx="835.5" cy="157.7" r="65.6"/>
		<path class="st2" d="M741.5,190.2c-4.1,0-8.2-0.3-12.2-1l0.4-2.5c3.9,0.6,7.9,0.9,11.8,0.9l0.5,0l0,2.5L741.5,190.2z M754.7,189.1
			l-0.4-2.5c4-0.7,8-1.7,11.9-3l0.8,2.4C763,187.3,758.8,188.4,754.7,189.1z M717,186.2c-4-1.3-8-3-11.7-4.9l1.1-2.2
			c3.6,1.9,7.4,3.5,11.3,4.7L717,186.2z M778.6,180.9l-1.2-2.2c3.6-1.9,7.1-4.1,10.4-6.6l1.5,2C785.9,176.6,782.3,178.9,778.6,180.9
			z M694.6,174.7c-3.4-2.5-6.6-5.3-9.6-8.3l1.8-1.7c2.9,2.9,6,5.6,9.3,8.1L694.6,174.7z M798.7,165.6l-1.8-1.7
			c2.8-3,5.4-6.2,7.7-9.6l2.1,1.4C804.3,159.2,801.7,162.6,798.7,165.6z M676.9,156.5c-2.4-3.5-4.6-7.1-6.4-10.9l2.3-1.1
			c1.8,3.7,3.9,7.3,6.2,10.6L676.9,156.5z M813,144.7l-2.3-1.1c1.7-3.7,3.2-7.6,4.3-11.5l2.4,0.7C816.3,136.9,814.8,140.9,813,144.7
			z M665.9,133.8c-1.2-4.1-2.1-8.2-2.7-12.4l2.5-0.3c0.5,4,1.4,8.1,2.6,12L665.9,133.8z M819.9,120.4l-2.5-0.3
			c0.3-2.9,0.5-5.9,0.5-8.9c0-1.1,0-2.3-0.1-3.4l2.5-0.1c0.1,1.2,0.1,2.3,0.1,3.5C820.5,114.3,820.3,117.4,819.9,120.4z
			 M665.1,108.8l-2.5-0.1c0.1-4.2,0.6-8.5,1.4-12.6l2.5,0.5C665.7,100.6,665.3,104.7,665.1,108.8z M816.4,95.6c-0.8-4-2-8-3.5-11.8
			l2.3-0.9c1.5,4,2.7,8.1,3.6,12.2L816.4,95.6z M669.9,84.7l-2.3-0.9c1.5-4,3.3-7.8,5.3-11.5l2.2,1.2
			C673,77.2,671.3,80.9,669.9,84.7z M812.7,83.3c-1.5-3.8-3.3-7.5-5.4-11l2.2-1.3c2.1,3.6,4,7.5,5.6,11.4L812.7,83.3z M681.9,63.4
			l-2-1.6c2.6-3.3,5.6-6.4,8.7-9.2l1.7,1.9C687.3,57.2,684.5,60.2,681.9,63.4z M800.2,62.2c-2.6-3.1-5.5-6.1-8.6-8.8l1.6-1.9
			c3.2,2.8,6.2,5.8,8.9,9L800.2,62.2z M700.1,47l-1.4-2.1c3.5-2.3,7.3-4.3,11.2-6l1,2.3C707.1,42.9,703.5,44.8,700.1,47z
			 M781.7,46.2c-3.5-2.1-7.2-4-10.9-5.6l1-2.3c3.9,1.6,7.7,3.6,11.3,5.8L781.7,46.2z M722.5,37.2l-0.6-2.4c4.1-1.1,8.3-1.8,12.5-2.2
			l0.2,2.5C730.5,35.5,726.5,36.2,722.5,37.2z M759,36.8c-4-0.9-8.1-1.6-12.1-1.9l0.2-2.5c4.2,0.3,8.4,0.9,12.5,1.9L759,36.8z"/>
		<path class="st2" d="M1529.1,1063.9l0-2.5c4.1-0.1,8.3-0.2,12.4-0.5l0.2,2.5C1537.5,1063.6,1533.3,1063.8,1529.1,1063.9z
			 M1516.6,1063.8c-4.2-0.1-8.4-0.3-12.5-0.7l0.2-2.5c4.1,0.3,8.3,0.5,12.4,0.6L1516.6,1063.8z M1554.2,1062.3l-0.3-2.5
			c4.1-0.5,8.3-1,12.3-1.7l0.4,2.5C1562.5,1061.2,1558.3,1061.8,1554.2,1062.3z M1491.6,1061.9c-4.1-0.5-8.3-1.1-12.4-1.8l0.4-2.5
			c4.1,0.7,8.2,1.3,12.3,1.8L1491.6,1061.9z M1579,1058.3l-0.5-2.4c4.1-0.8,8.1-1.8,12.1-2.8l0.6,2.4
			C1587.2,1056.5,1583.1,1057.5,1579,1058.3z M1466.8,1057.7c-4.1-0.9-8.2-1.9-12.2-3l0.7-2.4c4,1.1,8,2.1,12.1,3L1466.8,1057.7z
			 M1603.3,1052l-0.7-2.4c3.9-1.2,7.9-2.5,11.8-4l0.9,2.4C1611.3,1049.5,1607.3,1050.8,1603.3,1052z M1442.6,1051.1
			c-4-1.3-8-2.7-11.9-4.1l0.9-2.3c3.9,1.5,7.8,2.8,11.8,4.1L1442.6,1051.1z M1626.9,1043.5l-1-2.3c3.8-1.6,7.6-3.3,11.3-5l1.1,2.3
			C1634.5,1040.2,1630.7,1041.9,1626.9,1043.5z M1419,1042.3c-3.8-1.7-7.7-3.4-11.4-5.2l1.1-2.2c3.7,1.8,7.5,3.6,11.3,5.2
			L1419,1042.3z M1649.5,1032.8l-1.2-2.2c3.6-1.9,7.3-4,10.8-6.1l1.3,2.2C1656.9,1028.8,1653.2,1030.9,1649.5,1032.8z
			 M1396.4,1031.2c-3.7-2-7.3-4.1-10.9-6.3l1.3-2.1c3.5,2.2,7.2,4.3,10.8,6.2L1396.4,1031.2z M1671.1,1020l-1.4-2.1
			c3.5-2.3,6.9-4.7,10.2-7.1l1.5,2C1678,1015.3,1674.6,1017.7,1671.1,1020z M1375,1018.1c-3.4-2.3-6.9-4.8-10.2-7.3l1.5-2
			c3.3,2.5,6.7,4.9,10.1,7.2L1375,1018.1z M1691.3,1005.2l-1.6-1.9c3.2-2.6,6.4-5.3,9.5-8l1.7,1.9
			C1697.8,999.9,1694.6,1002.6,1691.3,1005.2z M1354.9,1003.1c-3.2-2.7-6.4-5.4-9.5-8.2l1.7-1.9c3.1,2.8,6.2,5.5,9.4,8.1
			L1354.9,1003.1z M1710.1,988.6l-1.7-1.8c3-2.9,5.9-5.9,8.7-8.9l1.8,1.7C1716.1,982.7,1713.1,985.7,1710.1,988.6z M1336.3,986.2
			c-3-2.9-5.9-6-8.7-9.1l1.8-1.7c2.8,3,5.7,6.1,8.6,9L1336.3,986.2z M1727.3,970.3l-1.9-1.6c2.7-3.1,5.3-6.4,7.9-9.6l2,1.5
			C1732.7,963.9,1730,967.1,1727.3,970.3z M1319.3,967.7c-2.7-3.2-5.3-6.5-7.8-9.8l2-1.5c2.5,3.3,5.1,6.6,7.7,9.7L1319.3,967.7z
			 M1742.7,950.5l-2-1.4c2.4-3.4,4.7-6.9,6.9-10.3l2.1,1.3C1747.5,943.5,1745.1,947.1,1742.7,950.5z M1304.2,947.7
			c-2.4-3.4-4.7-7-6.8-10.5l2.1-1.3c2.2,3.5,4.4,7,6.8,10.4L1304.2,947.7z M1756.2,929.3l-2.2-1.2c2-3.6,4-7.3,5.9-11l2.2,1.1
			C1760.3,921.9,1758.3,925.7,1756.2,929.3z M1291,926.4c-2-3.6-4-7.4-5.8-11.1l2.2-1.1c1.8,3.7,3.8,7.4,5.8,11L1291,926.4z
			 M1767.6,906.9l-2.3-1c1.7-3.8,3.3-7.6,4.9-11.5l2.3,0.9C1771,899.2,1769.4,903.1,1767.6,906.9z M1279.9,903.9
			c-1.7-3.8-3.3-7.7-4.7-11.6l2.3-0.9c1.5,3.8,3,7.7,4.7,11.5L1279.9,903.9z M1776.9,883.5l-2.4-0.8c1.3-3.9,2.6-7.9,3.7-11.9
			l2.4,0.7C1779.5,875.5,1778.2,879.5,1776.9,883.5z M1271,880.5c-1.3-4-2.5-8-3.6-12l2.4-0.7c1.1,4,2.3,8,3.6,11.9L1271,880.5z
			 M1783.9,859.4l-2.4-0.6c1-4,1.8-8.1,2.6-12.2l2.5,0.5C1785.7,851.2,1784.8,855.3,1783.9,859.4z M1264.3,856.3
			c-0.9-4-1.8-8.2-2.5-12.3l2.5-0.4c0.7,4.1,1.6,8.2,2.5,12.2L1264.3,856.3z M1788.5,834.7l-2.5-0.3c0.6-4.1,1.1-8.2,1.4-12.4
			l2.5,0.2C1789.6,826.4,1789.1,830.6,1788.5,834.7z M1259.9,831.6c-0.5-4.1-1-8.3-1.3-12.5l2.5-0.2c0.3,4.1,0.8,8.3,1.3,12.4
			L1259.9,831.6z M1790.9,809.7l-2.5-0.1c0.2-4.1,0.3-8.3,0.3-12.4h2.5C1791.2,801.4,1791.1,805.6,1790.9,809.7z M1257.9,806.6
			c-0.1-3.1-0.2-6.3-0.2-9.4c0-1.1,0-2.1,0-3.2l2.5,0c0,1,0,2.1,0,3.1c0,3.1,0.1,6.2,0.2,9.3L1257.9,806.6z M1788.6,791
			c-0.1-4.1-0.3-8.3-0.6-12.4l2.5-0.2c0.3,4.1,0.5,8.4,0.6,12.5L1788.6,791z M1260.7,781.6l-2.5-0.1c0.2-4.2,0.6-8.4,1-12.5l2.5,0.3
			C1261.2,773.3,1260.9,777.5,1260.7,781.6z M1786.9,766.2c-0.5-4.1-1.1-8.2-1.7-12.3l2.5-0.4c0.7,4.1,1.3,8.3,1.7,12.4
			L1786.9,766.2z M1263.3,756.9l-2.5-0.4c0.6-4.1,1.4-8.3,2.2-12.4l2.5,0.5C1264.6,748.7,1263.9,752.8,1263.3,756.9z M1782.8,741.7
			c-0.9-4-1.8-8.1-2.9-12.1l2.4-0.6c1.1,4,2,8.1,2.9,12.2L1782.8,741.7z M1268.2,732.5l-2.4-0.6c1-4,2.1-8.1,3.4-12.1l2.4,0.7
			C1270.3,724.5,1269.2,728.5,1268.2,732.5z M1776.5,717.6c-1.2-3.9-2.6-7.9-4-11.8l2.3-0.9c1.4,3.9,2.8,7.9,4.1,11.9L1776.5,717.6z
			 M1275.4,708.7l-2.4-0.8c1.4-3.9,2.9-7.9,4.5-11.8l2.3,0.9C1278.3,700.9,1276.8,704.8,1275.4,708.7z M1767.9,694.3
			c-1.6-3.8-3.3-7.6-5.1-11.3l2.3-1.1c1.8,3.8,3.5,7.6,5.2,11.4L1767.9,694.3z M1284.8,685.6l-2.3-1.1c1.8-3.8,3.6-7.6,5.6-11.3
			l2.2,1.2C1288.4,678.1,1286.6,681.9,1284.8,685.6z M1757.2,672c-1.9-3.6-4-7.2-6.1-10.8l2.1-1.3c2.2,3.6,4.2,7.2,6.2,10.9
			L1757.2,672z M1296.4,663.6l-2.2-1.3c2.1-3.6,4.3-7.2,6.6-10.7l2.1,1.4C1300.7,656.5,1298.5,660,1296.4,663.6z M1744.4,650.7
			c-2.3-3.4-4.7-6.8-7.1-10.2l2-1.5c2.5,3.4,4.9,6.8,7.2,10.3L1744.4,650.7z M1310,642.7l-2-1.5c2.4-3.4,5-6.7,7.6-10l2,1.6
			C1315,636.1,1312.4,639.4,1310,642.7z M1729.6,630.7c-2.6-3.2-5.3-6.4-8.1-9.5l1.9-1.7c2.8,3.1,5.5,6.3,8.1,9.6L1729.6,630.7z
			 M1325.5,623.3l-1.9-1.6c2.7-3.1,5.6-6.3,8.5-9.3l1.8,1.7C1331.1,617.1,1328.2,620.2,1325.5,623.3z M1713.1,612.1
			c-2.9-3-5.9-5.9-8.9-8.7l1.7-1.8c3,2.8,6.1,5.8,9,8.8L1713.1,612.1z M1342.7,605.3l-1.7-1.8c3-2.9,6.2-5.7,9.3-8.4l1.6,1.9
			C1348.8,599.7,1345.7,602.5,1342.7,605.3z M1694.8,595.2c-3.1-2.7-6.4-5.3-9.7-7.8l1.5-2c3.3,2.5,6.6,5.2,9.8,7.9L1694.8,595.2z
			 M1361.6,589.1l-1.5-2c3.3-2.6,6.7-5.1,10.1-7.5l1.4,2C1368.2,584.1,1364.8,586.6,1361.6,589.1z M1675.1,580.1
			c-3.4-2.4-6.9-4.7-10.4-6.9l1.3-2.1c3.5,2.2,7.1,4.5,10.5,6.9L1675.1,580.1z M1381.8,574.7l-1.4-2.1c3.5-2.3,7.1-4.4,10.7-6.5
			l1.3,2.2C1388.9,570.3,1385.3,572.5,1381.8,574.7z M1654,566.8c-3.6-2-7.3-4-11-5.9l1.1-2.2c3.7,1.9,7.5,3.9,11.1,5.9L1654,566.8z
			 M1403.3,562.3l-1.1-2.2c3.7-1.9,7.5-3.8,11.3-5.5l1,2.3C1410.7,558.6,1407,560.4,1403.3,562.3z M1631.8,555.7
			c-3.8-1.7-7.6-3.3-11.5-4.8l0.9-2.3c3.9,1.5,7.8,3.1,11.6,4.8L1631.8,555.7z M1425.9,551.9l-0.9-2.3c3.9-1.6,7.8-3,11.8-4.4
			l0.8,2.4C1433.6,548.9,1429.7,550.4,1425.9,551.9z M1608.5,546.6c-3.9-1.3-7.9-2.5-11.9-3.7l0.7-2.4c4,1.1,8,2.4,12,3.7
			L1608.5,546.6z M1449.4,543.8l-0.7-2.4c4-1.2,8.1-2.3,12.1-3.3l0.6,2.4C1457.4,541.5,1453.3,542.6,1449.4,543.8z M1584.6,539.8
			c-4-0.9-8.1-1.8-12.2-2.5l0.5-2.5c4.1,0.8,8.2,1.6,12.3,2.6L1584.6,539.8z M1473.5,537.9l-0.5-2.5c4.1-0.8,8.3-1.5,12.4-2.1
			l0.4,2.5C1481.7,536.4,1477.6,537.1,1473.5,537.9z M1560.2,535.3c-4.1-0.6-8.2-1-12.4-1.4l0.2-2.5c4.2,0.4,8.3,0.8,12.5,1.4
			L1560.2,535.3z M1498.1,534.2l-0.2-2.5c4.1-0.4,8.3-0.7,12.5-0.9l0.1,2.5C1506.4,533.5,1502.2,533.8,1498.1,534.2z M1535.4,533.2
			c-3.6-0.1-7.3-0.2-11-0.2c-0.5,0-1,0-1.5,0l0-2.5c0.5,0,1,0,1.5,0c3.7,0,7.4,0.1,11.1,0.2L1535.4,533.2z"/>
		<path class="st2" d="M442.3,771.4c-4.2,0-8.4-0.2-12.6-0.5l0.2-2.5c4.1,0.3,8.3,0.5,12.4,0.5L442.3,771.4z M454.9,771l-0.2-2.5
			c4.1-0.3,8.3-0.7,12.3-1.2l0.3,2.5C463.3,770.3,459.1,770.8,454.9,771z M417.3,769.5c-4.1-0.6-8.3-1.4-12.4-2.3l0.5-2.4
			c4,0.9,8.1,1.7,12.2,2.3L417.3,769.5z M479.8,767.6l-0.5-2.4c4-0.8,8.1-1.9,12-3l0.7,2.4C488,765.7,483.9,766.8,479.8,767.6z
			 M392.7,764c-4-1.2-8-2.6-11.9-4.1l0.9-2.3c3.9,1.5,7.8,2.8,11.8,4L392.7,764z M504,760.7l-0.9-2.3c3.9-1.4,7.7-3,11.5-4.7l1,2.3
			C511.8,757.6,507.9,759.2,504,760.7z M369.2,755c-3.8-1.8-7.6-3.7-11.2-5.7l1.2-2.2c3.6,2,7.3,3.9,11.1,5.7L369.2,755z
			 M526.9,750.3l-1.2-2.2c3.6-2,7.2-4.1,10.7-6.3l1.3,2.1C534.2,746.2,530.6,748.3,526.9,750.3z M347.2,742.8
			c-3.5-2.3-6.9-4.7-10.3-7.3l1.5-2c3.3,2.5,6.7,4.9,10.1,7.2L347.2,742.8z M548.1,736.8l-1.5-2c3.3-2.5,6.6-5.1,9.7-7.8l1.6,1.9
			C554.7,731.6,551.4,734.3,548.1,736.8z M327.2,727.5c-3.1-2.8-6.2-5.7-9.1-8.7l1.8-1.8c2.9,2.9,5.9,5.8,9,8.5L327.2,727.5z
			 M567.1,720.4l-1.8-1.8c2.9-2.9,5.8-5.9,8.5-9.1l1.9,1.6C573,714.3,570.1,717.4,567.1,720.4z M309.6,709.6
			c-2.7-3.2-5.3-6.5-7.8-9.9l2-1.5c2.4,3.3,5,6.6,7.7,9.7L309.6,709.6z M583.7,701.4l-2-1.5c2.5-3.3,4.9-6.7,7.1-10.2l2.1,1.4
			C588.6,694.6,586.2,698.1,583.7,701.4z M294.7,689.3c-2.2-3.5-4.4-7.2-6.3-10.9l2.2-1.2c1.9,3.6,4,7.2,6.2,10.7L294.7,689.3z
			 M597.3,680.3l-2.2-1.2c2-3.6,3.9-7.3,5.6-11.1l2.3,1C601.3,672.8,599.4,676.6,597.3,680.3z M282.8,667.1
			c-1.7-3.8-3.3-7.7-4.7-11.7l2.4-0.8c1.4,3.9,3,7.7,4.6,11.5L282.8,667.1z M607.8,657.4l-2.3-0.9c1.4-3.9,2.8-7.8,3.9-11.8l2.4,0.7
			C610.7,649.5,609.3,653.5,607.8,657.4z M274.3,643.5c-1.1-4-2.1-8.1-3-12.2l2.4-0.5c0.8,4,1.8,8.1,2.9,12.1L274.3,643.5z
			 M614.9,633.3l-2.4-0.5c0.9-4,1.6-8.1,2.2-12.2l2.5,0.4C616.6,625,615.8,629.2,614.9,633.3z M269.3,618.9
			c-0.5-4.1-0.9-8.3-1.2-12.5l2.5-0.1c0.2,4.1,0.6,8.3,1.2,12.3L269.3,618.9z M618.5,608.4l-2.5-0.2c0.3-4.1,0.4-8.3,0.4-12.4h2.5
			C619,600,618.8,604.2,618.5,608.4z M270.3,593.8l-2.5,0c0-4.2,0.2-8.4,0.6-12.6l2.5,0.2C270.5,585.5,270.3,589.7,270.3,593.8z
			 M616.3,587.5c-0.2-4.1-0.5-8.3-1-12.4l2.5-0.3c0.5,4.1,0.8,8.4,1,12.5L616.3,587.5z M272.3,569.1l-2.5-0.4
			c0.6-4.1,1.4-8.3,2.4-12.4l2.4,0.6C273.7,560.9,272.9,565,272.3,569.1z M613.3,562.9c-0.8-4-1.7-8.1-2.8-12.1l2.4-0.6
			c1.1,4,2,8.2,2.8,12.3L613.3,562.9z M277.9,544.9l-2.4-0.7c1.2-4,2.6-8,4.1-11.9l2.3,0.9C280.4,537,279.1,541,277.9,544.9z
			 M606.9,538.9c-1.4-3.9-2.9-7.8-4.5-11.5l2.3-1c1.7,3.8,3.2,7.8,4.6,11.7L606.9,538.9z M286.9,521.8l-2.3-1.1
			c1.8-3.8,3.7-7.5,5.8-11.2l2.2,1.2C290.5,514.3,288.6,518.1,286.9,521.8z M597.1,516.2c-1.9-3.7-3.9-7.3-6.1-10.8l2.1-1.3
			c2.2,3.6,4.3,7.2,6.2,10.9L597.1,516.2z M299.1,500.2l-2.1-1.4c2.3-3.5,4.8-6.9,7.3-10.2l2,1.5
			C303.8,493.4,301.3,496.7,299.1,500.2z M584.1,495.1c-2.4-3.3-5-6.6-7.6-9.8l1.9-1.6c2.7,3.2,5.3,6.6,7.7,10L584.1,495.1z
			 M314.2,480.6l-1.9-1.7c2.8-3.1,5.7-6.2,8.7-9.1l1.7,1.8C319.9,474.5,317,477.5,314.2,480.6z M568.3,476c-2.9-3-5.8-5.9-8.9-8.6
			l1.7-1.9c3.1,2.8,6.1,5.8,9,8.8L568.3,476z M332,463.3l-1.6-1.9c3.2-2.7,6.5-5.3,9.9-7.7l1.5,2C338.5,458.1,335.2,460.6,332,463.3
			z M549.9,459.4c-3.2-2.5-6.6-5-10-7.3l1.4-2.1c3.5,2.3,6.9,4.8,10.2,7.4L549.9,459.4z M352.1,448.7l-1.3-2.1
			c3.5-2.2,7.2-4.3,10.9-6.3l1.2,2.2C359.2,444.5,355.6,446.5,352.1,448.7z M529.3,445.5c-3.6-2.1-7.3-4-11-5.8l1.1-2.3
			c3.8,1.8,7.5,3.8,11.1,5.9L529.3,445.5z M374,437.2l-1-2.3c3.8-1.7,7.8-3.2,11.7-4.6l0.8,2.4C381.6,434,377.8,435.5,374,437.2z
			 M506.9,434.8c-3.8-1.5-7.8-2.9-11.7-4.1l0.7-2.4c4,1.3,8,2.7,11.9,4.2L506.9,434.8z M397.3,428.9l-0.7-2.4
			c4-1.1,8.1-2.1,12.2-2.9l0.5,2.5C405.4,426.9,401.3,427.8,397.3,428.9z M483.3,427.4c-4-0.9-8.1-1.8-12.2-2.4l0.4-2.5
			c4.1,0.7,8.3,1.5,12.3,2.4L483.3,427.4z M421.7,424.1l-0.3-2.5c4.1-0.5,8.4-0.9,12.5-1.1l0.1,2.5
			C429.9,423.2,425.7,423.6,421.7,424.1z M458.8,423.4c-4.1-0.4-8.3-0.6-12.4-0.7l0-2.5c4.2,0.1,8.4,0.3,12.6,0.7L458.8,423.4z"/>
		<path class="st2" d="M1146.5,174.9c-23.3,0-42.2-18.9-42.2-42.2c0-23.3,18.9-42.2,42.2-42.2s42.2,18.9,42.2,42.2
			C1188.7,156,1169.7,174.9,1146.5,174.9z M1146.5,92.4c-22.2,0-40.3,18.1-40.3,40.3c0,22.2,18.1,40.3,40.3,40.3
			s40.3-18.1,40.3-40.3C1186.8,110.5,1168.7,92.4,1146.5,92.4z"/>
	</g>
	<g>
		<g>
			<g>
				<path class="st3" d="M1585.4,326.3v760.2c0,15.8-12.8,28.6-28.6,28.6H452c-15.8,0-28.6-12.8-28.6-28.6V326.3
					c0-15.8,12.8-28.7,28.6-28.7h1104.7C1572.6,297.7,1585.4,310.5,1585.4,326.3z"/>
				<path class="st2" d="M1556.8,1116.4H452c-16.5,0-29.9-13.4-29.9-29.9V326.3c0-16.5,13.4-29.9,29.9-29.9h1104.7
					c16.5,0,29.9,13.4,29.9,29.9v760.2C1586.6,1103,1573.2,1116.4,1556.8,1116.4z M452,298.9c-15.1,0-27.4,12.3-27.4,27.4v760.2
					c0,15.1,12.3,27.4,27.4,27.4h1104.7c15.1,0,27.4-12.3,27.4-27.4V326.3c0-15.1-12.3-27.4-27.4-27.4H452z"/>
			</g>
			<g>
				<path class="st3" d="M1585.4,326.3v45.1h-1162v-45.1c0-15.8,12.8-28.7,28.6-28.7h1104.7C1572.6,297.7,1585.4,310.5,1585.4,326.3
					z"/>
				<path class="st2" d="M1586.6,372.7H422.1v-46.4c0-16.5,13.4-29.9,29.9-29.9h1104.7c16.5,0,29.9,13.4,29.9,29.9V372.7z
					 M424.6,370.2h1159.5v-43.9c0-15.1-12.3-27.4-27.4-27.4H452c-15.1,0-27.4,12.3-27.4,27.4V370.2z"/>
			</g>
			<circle class="st4" cx="487.9" cy="334.5" r="13.3"/>
			<path class="st4" d="M538.8,321.2c-7.4,0-13.3,6-13.3,13.3c0,7.4,6,13.3,13.3,13.3s13.3-6,13.3-13.3
				C552.1,327.2,546.1,321.2,538.8,321.2z"/>
			<path class="st2" d="M589.6,347.9c-7.4,0-13.3-6-13.3-13.3c0-7.4,6-13.3,13.3-13.3c7.4,0,13.3,6,13.3,13.3
				C602.9,341.9,596.9,347.9,589.6,347.9z M589.6,323.7c-6,0-10.8,4.9-10.8,10.8c0,6,4.9,10.8,10.8,10.8c6,0,10.8-4.9,10.8-10.8
				C600.4,328.6,595.6,323.7,589.6,323.7z"/>
			<path class="st2" d="M917.7,349.4H669.8c-8.2,0-14.8-6.7-14.8-14.8c0-8.2,6.7-14.8,14.8-14.8h247.8c8.2,0,14.8,6.7,14.8,14.8
				C932.5,342.7,925.8,349.4,917.7,349.4z M669.8,322.2c-6.8,0-12.3,5.5-12.3,12.3c0,6.8,5.5,12.3,12.3,12.3h247.8
				c6.8,0,12.3-5.5,12.3-12.3c0-6.8-5.5-12.3-12.3-12.3H669.8z"/>
		</g>
		<g>
			<path class="st2" d="M1232.8,725.2c0,119.7-97,216.8-216.7,216.8s-216.8-97-216.8-216.8c0-112.3,85.4-204.6,194.8-215.6l7.2,71.1
				c-73.3,7.4-130.5,69.3-130.5,144.5c0,80.2,65,145.3,145.2,145.3c80.2,0,145.2-65,145.2-145.3c0-14-2-27.5-5.7-40.3l68.7-19.9
				C1229.8,684.1,1232.8,704.3,1232.8,725.2z"/>
			<circle class="st3" cx="1016.1" cy="725.2" r="175"/>
			<circle class="st5" cx="1016.1" cy="725.2" r="175"/>
			<g>
				<ellipse class="st3" cx="1016.1" cy="725.2" rx="124" ry="124"/>
				<g>
					<path class="st2" d="M1030.2,786.1V805h-23.9v-18c-17-1-33.4-5.6-43.6-11.9l12.9-29.2c11.2,6.6,26.1,10.9,39.2,10.9
						c11.4,0,15.5-2.4,15.5-6.5c0-14.9-65.7-2.9-65.7-47.2c0-19.2,13.9-35.3,41.8-39.2v-18.5h23.9v18.2c12.6,1.2,24.8,4.4,34.5,9.9
						l-12.1,29c-11.7-5.9-22.8-8.8-33.1-8.8c-11.7,0-15.5,3.4-15.5,7.5c0,14.3,65.7,2.4,65.7,46.2
						C1069.8,765.6,1056.5,781.5,1030.2,786.1z"/>
				</g>
			</g>
		</g>
		<g>
			<g>
				<rect x="1316.1" y="149.4" class="st3" width="471.5" height="288.3"/>
				<path class="st2" d="M1788.9,438.9h-474V148.1h474V438.9z M1317.4,436.4h469V150.6h-469V436.4z"/>
			</g>
			<g>
				<g>
					<rect x="1375.5" y="345.9" class="st6" width="27.1" height="49.8"/>
					<rect x="1429.7" y="323.1" class="st6" width="27.1" height="72.6"/>
					<rect x="1484" y="341.8" class="st6" width="27.1" height="54"/>
					<rect x="1538.3" y="303.8" class="st6" width="27.1" height="92"/>
					<rect x="1592.6" y="279.5" class="st6" width="27.1" height="116.3"/>
					<rect x="1646.8" y="244.8" class="st6" width="27.1" height="151"/>
					<rect x="1701.1" y="191.3" class="st6" width="27.1" height="204.4"/>
				</g>
				<g>
					<rect x="1375.5" y="215.6" class="st6" width="21.6" height="24.4"/>
					<rect x="1430.4" y="226.9" class="st6" width="146.1" height="6.3"/>
				</g>
			</g>
		</g>
		<g>
			<path class="st7" d="M1363.3,583.9l-29.9-82.5c-33.7,12.2-57.8,44.5-57.8,82.5c0,48.4,39.3,87.7,87.7,87.7s87.7-39.3,87.7-87.7
				c0-14.6-3.6-28.3-9.9-40.4L1363.3,583.9z"/>
			<path class="st2" d="M1452.9,512.2c-14.6-28.1-44-47.3-77.8-47.3c-10.5,0-20.5,1.8-29.9,5.2l29.9,82.5L1452.9,512.2z"/>
		</g>
		<g>
			<rect x="1280" y="864.9" class="st7" width="207.5" height="197.5"/>
			<rect x="1312.5" y="917.4" class="st3" width="116.3" height="8.3"/>
			<rect x="1312.5" y="942.4" class="st3" width="116.3" height="8.3"/>
		</g>
		<g>
			<rect x="515" y="487.4" class="st7" width="180.4" height="305"/>
			<g>
				<rect x="542.5" y="531.6" class="st3" width="118.3" height="108.3"/>
				
					<rect x="600.4" y="505.6" transform="matrix(0.6753 -0.7376 0.7376 0.6753 -236.6667 634.007)" class="st7" width="2.5" height="160.4"/>
				
					<rect x="521.4" y="584.5" transform="matrix(0.7375 -0.6753 0.6753 0.7375 -237.6607 560.0953)" class="st7" width="160.4" height="2.5"/>
			</g>
		</g>
		<g>
			<g>
				<rect x="189" y="612" class="st3" width="412.7" height="271.9"/>
				<path class="st2" d="M602.9,885.1H187.8V610.8h415.1V885.1z M190.2,882.7h410.3V613.2H190.2V882.7z"/>
			</g>
			<g>
				<g>
					<polyline class="st3" points="232.5,818.3 259.2,768.3 314.2,819.9 350.8,713.3 419.2,788.3 464.2,769.9 545.8,663.3 					"/>
					<polygon class="st2" points="314.7,822.2 259.5,770.3 233.6,818.9 231.4,817.7 258.8,766.2 313.6,817.7 350.3,710.9 
						419.5,786.8 463.4,768.9 544.8,662.5 546.8,664 465,771 418.8,789.8 418.2,789.1 351.3,715.7 					"/>
				</g>
				<circle class="st2" cx="259.4" cy="768.1" r="6.9"/>
				<circle class="st2" cx="313.8" cy="818.7" r="6.9"/>
				<circle class="st2" cx="351.3" cy="713.7" r="6.9"/>
			</g>
			<g>
				<line class="st3" x1="307.9" y1="656.6" x2="482.9" y2="656.6"/>
				<rect x="307.9" y="655.4" class="st2" width="175" height="2.5"/>
			</g>
		</g>
	</g>
	<g>
		<g>
			<path class="st2" d="M1170.3,1269.3c-7.4-48.5,2.8-99.5,28.2-141.4c25.4-41.9,65.9-74.5,112.4-90.3
				c-26.3,18.4-42.3,48.1-53.5,78.2c-11.2,30.1-18.5,61.6-32.4,90.6c-13.8,29-35.6,56-65.8,66.8L1170.3,1269.3z"/>
			<path class="st2" d="M1163,1269.7c-1-56-11.9-111.9-32-164.2c-7.1-18.6-15.7-37.1-29.6-51.4c-13.9-14.2-34.1-23.6-53.7-20.1
				c24.4,18.3,37,48.3,44.2,77.9c7.1,29.6,9.9,60.4,19.9,89.2c10,28.8,29.2,56.5,57.9,66.8L1163,1269.7z"/>
			<path class="st6" d="M1159.2,1273.4c-13.9-37.6-29.1-76.1-57.2-104.7c-28.1-28.6-72.5-45-109.2-29c29.7,6.7,57,24,75.9,47.9
				c13.8,17.6,23.1,38.4,37.4,55.7c14.2,17.3,35.9,31.2,57.9,27.1L1159.2,1273.4z"/>
			<path class="st6" d="M1154.7,1270.8c-5.7-41.2-11.4-83.1-5.4-124.3s25.5-82.3,60.4-105c-19.3,18.9-25.8,47.6-25.8,74.7
				c0,27,5.5,53.9,5.9,80.9c0.5,27-4.9,55.8-23.2,75.7L1154.7,1270.8z"/>
			<path class="st6" d="M1174,1264.8c13.4-34.1,27.6-69.4,54.9-93.9c17.5-15.7,39.8-26,63-29.2c-16.3,13-26.6,32.1-35,51.2
				c-8.5,19.1-15.8,39-28.1,55.9c-12.3,16.9-30.7,30.8-51.6,31.7L1174,1264.8z"/>
		</g>
		<g>
			<polygon class="st3" points="1241.9,1368.5 1091.8,1368.5 1068.6,1252.9 1265.1,1252.9 			"/>
			<path class="st2" d="M1243,1369.7h-152.2l-23.7-118h199.5L1243,1369.7z M1092.8,1367.2h148.1l22.7-113h-193.4L1092.8,1367.2z"/>
		</g>
	</g>
	<g>
		<polygon class="st6" points="1510.8,1299 1510.8,1368.5 1420.7,1368.5 1462,1334.8 1464.1,1292.5 		"/>
		
			<rect x="1469.3" y="1331.1" transform="matrix(0.6892 -0.7246 0.7246 0.6892 -516.0522 1482.9435)" class="st8" width="2.5" height="23.7"/>
		<rect x="1471.2" y="1317.4" class="st8" width="30.8" height="2.5"/>
	</g>
	<g>
		<polygon class="st6" points="1616.1,1302.3 1619.4,1368.5 1529.3,1368.5 1567.3,1335.9 1567.3,1295.7 		"/>
		
			<rect x="1573" y="1332.8" transform="matrix(0.662 -0.7495 0.7495 0.662 -473.8232 1633.4077)" class="st8" width="2.5" height="18.7"/>
		<rect x="1577.5" y="1318.7" class="st8" width="30.4" height="2.5"/>
	</g>
	<path class="st9" d="M1519.9,899.7c1.5,138.4,13,274.7,35,408.6h75.9c-15.8-102.4-22.9-226.8-14.1-391.6l-54.8-44.9L1519.9,899.7z"
		/>
	<path class="st9" d="M1459.9,918l-34.4,152.8c-8.3,36.7-8.8,74.7-1.7,111.7l24.1,124.8h75.9l-23-163.8l54.9-249.7L1459.9,918z"/>
	<path class="st10" d="M1525,1064.4c-0.2-3.1-4.5-73.4-5-82.3l-19.8-7.2l0.9-2.3l21.4,7.8v0.9c0,1.5,3.3,55,5,83L1525,1064.4z"/>
	<path class="st11" d="M1689.4,573.1l4.1-9.7c0,0-14.7-30.9-10-35s12.2,7.5,12.2,7.5s-2.2-37.5,5-37.8c6.1-0.3,5.6,10.6,6.3,26.9
		c0,0,3.8-5,10.6,0.2c3.1-5.2,9.7-1.7,11.5,1.4c2.2-2.5,11.3-1.9,10,8.8c-1.6,13.5-7.8,38.4-7.8,38.4l-20,16.6L1689.4,573.1z"/>
	<linearGradient id="SVGID_1_" gradientUnits="userSpaceOnUse" x1="1704.927" y1="597.7882" x2="1569.825" y2="743.4706">
		<stop  offset="0" style="stop-color:#0FFFFF"/>
		<stop  offset="0.1813" style="stop-color:#15EDFF"/>
		<stop  offset="0.5439" style="stop-color:#25BFFF"/>
		<stop  offset="1" style="stop-color:#3C7DFF"/>
	</linearGradient>
	<path class="st12" d="M1528.7,702.4l30.4-0.2c53.3-4.8,95-48.1,95-48.1l35.2-81l41.9,0.6l-24.6,95.2c-3.5,13.7-11.1,26-21.8,35.2
		l-87.4,75.8L1528.7,702.4z"/>
	<linearGradient id="SVGID_2_" gradientUnits="userSpaceOnUse" x1="1445.3896" y1="810.4583" x2="1617.1587" y2="810.4583">
		<stop  offset="0" style="stop-color:#0FFFFF"/>
		<stop  offset="0.1813" style="stop-color:#15EDFF"/>
		<stop  offset="0.5439" style="stop-color:#25BFFF"/>
		<stop  offset="1" style="stop-color:#3C7DFF"/>
	</linearGradient>
	<path class="st13" d="M1445.4,771.4c0,0,14.5,146.6,14.5,146.6s156.8-1.4,156.8-1.4c1.3-6.1-0.4-14.2-0.5-20.4
		c-0.8-32.2-1.2-64.5-1.6-96.7c-0.3-21.5,7.6-55.1-16.6-65.9c-22-9.8-44-19.7-65.9-29.8c-1-0.4-2-0.9-3-1c-1.3-0.1-2.6,0.4-3.8,1
		c-16.4,7-32.7,13.9-49.1,20.8c-1.6,0.7-3.1,1.3-4.4,2.5c-1.1,1-1.8,2.3-2.5,3.5C1461.3,744.3,1453.3,757.8,1445.4,771.4z"/>
	<path class="st11" d="M1348.3,785.6c-2.6-2.3-5.8-3.7-9.2-3.9c-17.3-1.4-71.5-5.6-71-1.4c0.6,5,41.9,23.8,41.9,23.8
		c8.8,9.9,17.6,19.9,26.5,29.8l24.2-37.2L1348.3,785.6z"/>
	<linearGradient id="SVGID_3_" gradientUnits="userSpaceOnUse" x1="1336.4474" y1="795.7685" x2="1513.108" y2="795.7685">
		<stop  offset="0" style="stop-color:#0FFFFF"/>
		<stop  offset="0.1813" style="stop-color:#15EDFF"/>
		<stop  offset="0.5439" style="stop-color:#25BFFF"/>
		<stop  offset="1" style="stop-color:#3C7DFF"/>
	</linearGradient>
	<path class="st14" d="M1466.5,716.5c-11.2,2-20.8,9-25.9,19.2l-46.2,90.8l-33.7-29.9l-24.2,37.2c2.9,3.3,5.9,6.6,8.8,10
		c13.1,14.7,28.4,34.5,48.8,38.8c10.4,2.2,20.1-2.1,27.6-9.3c5.5-5.3,10.4-11.7,14.3-18.2l18.4-30.4l58.8-116.3L1466.5,716.5z"/>
	<path class="st15" d="M1712.3,543.6c-5.9,0-6.4-7.7-6.4-18.6h1.9c0,12.9,1.1,16.8,4.5,16.8c0.7,0,1.3-0.3,1.8-0.8
		c1.7-1.8,2.3-6,2.5-9.7c-0.1-2.7-0.1-5.1,0-6.1l1.9,0c0,0.2,0.2,2.8,0,5.9c0.3,5.1,1.1,10.1,2.8,10.6c1,0.3,1.8,0.2,2.5-0.4
		c2-1.5,3.2-5.6,3.8-9.3c0.1-1.6,0.2-3.4,0.6-5.5l1.9,0.2c0,0.2-0.1,2.3-0.5,5c-0.1,3.9,0.3,7.7,1.9,8.3c1.2,0.5,2.1,0.5,2.9,0
		c2.1-1.3,2.9-5.7,3-7.3l1.9,0.1c0,0.3-0.5,6.7-3.9,8.8c-1.3,0.8-2.9,0.9-4.7,0.1c-0.4-0.2-1.8-1-2.6-3.9c-0.7,2.1-1.8,3.9-3.2,5
		c-1.2,0.9-2.6,1.1-4.1,0.6c-1.6-0.5-2.7-2.6-3.3-5.2c-0.5,1.6-1.1,3.1-2,4C1714.6,543.1,1713.5,543.6,1712.3,543.6z"/>
	<g>
		<path class="st11" d="M1515.5,738c-13.3,1.1-25-8.9-26.1-22.2l-0.3-3.4l-3.8-47.1l29.4-2.4l18.9-1.5l4.1,50.5
			C1538.7,725.3,1528.8,736.9,1515.5,738z"/>
		<path class="st8" d="M1524.2,678.9c-9.2,16.1-22.3,27.7-35,33.6l-3.8-47.1l29.4-2.4L1524.2,678.9z"/>
		<path class="st11" d="M1533.8,629.5l-5.8,49.2c0,0-18.8,17.9-46.3,17.1c-10-0.3-15.9-9.8-19.4-21.9c-1.4-5-2.4-10.5-3.1-16
			c-2.3-18.1-1.3-35.9-1.3-35.9l42.5-14.1L1533.8,629.5z"/>
		<path class="st8" d="M1527.3,649.7c-4.4-15.8-12.4-23.7-23.1-25.4c-34.2,18.5-56.4,7.5-72.5-13.1c39.6,7.7,56.9-48.5,94.8-11
			c28.1,8.5,27.6,35.4,11.7,57.3L1527.3,649.7z"/>
		<g>
			
				<ellipse transform="matrix(0.1917 -0.9814 0.9814 0.1917 597.9396 2033.0192)" class="st11" cx="1533.3" cy="653.5" rx="13.7" ry="11.9"/>
			<path class="st8" d="M1537.7,648.4c-2,0.3-3.2,1.8-4.2,3.5c-0.9,1.7-1.5,3.6-1.9,5.7l-0.7,0c-0.3-1.1-0.3-2.3-0.1-3.4
				c0.2-1.1,0.6-2.2,1.1-3.2c0.6-1,1.3-1.9,2.4-2.6c1-0.7,2.3-1,3.5-0.7L1537.7,648.4z"/>
		</g>
		<g>
			<path class="st8" d="M1468.1,651.7c0,2.1-1,3.9-2.3,3.9s-2.3-1.7-2.3-3.9c0-2.1,1-3.9,2.3-3.9S1468.1,649.6,1468.1,651.7z"/>
			<path class="st8" d="M1487.1,650.1c0,2.3-1.1,4.2-2.5,4.2s-2.5-1.9-2.5-4.2c0-2.3,1.1-4.2,2.5-4.2S1487.1,647.8,1487.1,650.1z"/>
			<path class="st8" d="M1473.3,654.8c0,0.7-0.3,1.5-0.6,2.1c-0.4,0.6-0.8,1.2-1.3,1.6c-0.9,1-1.7,1.9-1.9,2.8
				c-0.2,0.9,0.1,1.9,0.8,2.8c0.7,0.9,1.7,1.7,2.7,2.7l-0.4,0.6c-1.2-0.5-2.4-1.2-3.5-2.2c-0.5-0.5-1-1.1-1.3-1.9
				c-0.3-0.8-0.4-1.6-0.2-2.5c0.2-0.8,0.6-1.5,1.1-2.1c0.5-0.6,1-1,1.5-1.4c1-0.8,1.9-1.6,2.3-2.7L1473.3,654.8z"/>
			<path class="st8" d="M1475.1,675.7c2.6-0.6,5.1-1.4,7.3-2.8c1.1-0.7,2.1-1.4,3.1-2.3c1-0.9,1.9-1.8,2.9-2.7l0.6,0.4
				c-1.2,2.5-3.2,4.7-5.7,6.2c-2.5,1.5-5.4,2.2-8.2,1.9L1475.1,675.7z"/>
			<path class="st8" d="M1481.6,639.8c-0.5,2.8,8.3,3.7,9.9,4c1.3,0.2,3.2,0.4,3.5-1.6c0.3-2.5-2.3-2.7-3.9-3.1
				C1489.6,638.8,1482.1,637.1,1481.6,639.8z"/>
			<path class="st8" d="M1469.2,641.5c0,2.7-7.1,3-8.4,3.2c-1.1,0.1-2.5,0.1-2.4-1.8c0.1-2.4,2.3-2.4,3.5-2.7
				C1463.1,640.1,1469.3,638.9,1469.2,641.5z"/>
		</g>
		<circle class="st16" cx="1502.3" cy="658.5" r="9.1"/>
		<path class="st16" d="M1465.9,666.7c0,3-1.4,5.6-3.6,7.2c-1.4-5-2.4-10.5-3.1-16C1463.1,658.9,1465.9,662.5,1465.9,666.7z"/>
	</g>
	<g>
		<rect x="646.1" y="958.7" class="st2" width="173.9" height="11.7"/>
		<g>
			<polygon class="st3" points="820,958.7 673.1,958.7 728.8,823.1 875.6,823.1 			"/>
			<path class="st2" d="M820.8,959.9H671.3l56.7-138.1h149.6L820.8,959.9z M675,957.4h144.2l54.6-133.1H729.6L675,957.4z"/>
		</g>
		<polygon class="st7" points="807.3,947.3 691.9,947.3 735.6,840.7 851,840.7 		"/>
	</g>
	<g>
		<rect x="759" y="974.1" class="st8" width="2.5" height="395"/>
		<rect x="620" y="970.4" class="st6" width="280.6" height="22.3"/>
	</g>
	<g>
		<rect x="391.1" y="1140" class="st8" width="2.5" height="229.1"/>
		<path class="st6" d="M461,1150.7H323.7l0,0c2.9-13.9,15.2-23.9,29.4-23.9h78.4C445.8,1126.8,458,1136.7,461,1150.7L461,1150.7z"/>
		<path class="st6" d="M428,1368.4h-71.2v0c0-8.7,7-15.7,15.7-15.7h39.9C420.9,1352.8,428,1359.8,428,1368.4L428,1368.4z"/>
	</g>
	<path class="st15" d="M498.2,800.2c3.5,5,8.5,12.2,9.1,18.4c0.8,9.1-13.7,2.7-13.9,3.5C493.4,822.1,498.2,800.2,498.2,800.2z"/>
	<g>
		<rect x="430.1" y="810.9" class="st11" width="45.9" height="67.3"/>
		<path class="st8" d="M476,822.4v48c-14.5-9.1-27-22.6-37.8-38.2L476,822.4z"/>
	</g>
	<path class="st11" d="M501.8,804.3c-1.4,23.2-10.4,49.5-34.8,43.1c-19.2-5.1-40.3-21.2-40.3-44.5c0-23.3,16.1-42.2,36-42.2
		c12.4,0,28.1,6,35.4,17.7C502.6,785.3,502.5,794.1,501.8,804.3z"/>
	<linearGradient id="SVGID_4_" gradientUnits="userSpaceOnUse" x1="387.7159" y1="791.7494" x2="515" y2="791.7494">
		<stop  offset="0" style="stop-color:#E147"/>
		<stop  offset="1" style="stop-color:#E9605A"/>
	</linearGradient>
	<path class="st17" d="M461.2,797.5c6.5-17.2,21.4-18.9,21.4-18.9s34.5,34.1,32.3-1.1c-1.7-28-29-25.3-29-25.3
		c-13.4-17.4-34.8-10.6-42.6-0.5c-7.8,10.1-5,4.3-23.4,10.8C401.4,769,411.2,797,408,799c-24.5,0-19.9,24.2-19.9,24.2l57.9,18.9
		l13.9-38.1L461.2,797.5z"/>
	<g>
		<ellipse transform="matrix(0.866 -0.5 0.5 0.866 -340.8019 337.0815)" class="st11" cx="458.6" cy="804.5" rx="10" ry="13"/>
		<path class="st8" d="M459.8,807c-0.8-1.6-1.5-3.1-2.6-4.2c-0.5-0.5-1.2-1-1.9-1.4c-0.7-0.4-1.5-0.7-2.3-1.1l0.1-0.7
			c0.9-0.1,1.8,0.1,2.8,0.4c0.9,0.3,1.8,0.8,2.5,1.6c0.7,0.7,1.2,1.6,1.5,2.5c0.3,0.9,0.5,1.8,0.5,2.7L459.8,807z"/>
	</g>
	<linearGradient id="SVGID_5_" gradientUnits="userSpaceOnUse" x1="417.7685" y1="744.2162" x2="456.6862" y2="744.2162">
		<stop  offset="0" style="stop-color:#E147"/>
		<stop  offset="1" style="stop-color:#E9605A"/>
	</linearGradient>
	<path class="st18" d="M436.2,723.2c10.7-0.5,19.9,8.5,20.4,20.1c0.6,11.6-7.7,21.5-18.4,22c-10.7,0.5-19.9-8.5-20.4-20.1
		C417.2,733.5,425.5,723.7,436.2,723.2z"/>
	<circle class="st16" cx="481.9" cy="817.4" r="8.8"/>
	<g>
		<path class="st19" d="M516.3,1043.7l-147.1-18.8l27.7-146.2c1.9-10.2,8.8-18.9,18.2-23.2c7.9-3.6,16.9-3.8,25-0.7l50.1,22.3
			c9.6,4.3,16.3,13.4,17.5,23.8l2.8,47.7l3.2,54.1L516.3,1043.7z"/>
		<path class="st19" d="M650.8,938.7l38.9-11.4c2.8-0.8,5.8-0.4,8.3,1.2c10.7,7.1,39,27.1,31.9,35.3c-3.6,4.1-36.1-5.5-36.1-5.5
			l-47.1,13.2L650.8,938.7z"/>
		<path class="st19" d="M513.8,1002.9c-12.3-15.6-19.5-36.2-22-61.7l18.7,7.6L513.8,1002.9z"/>
		<path class="st19" d="M485.8,875.4l5.9,2.5c12.1,5.2,22.9,12.9,31.7,22.6l48.3,53.2l79.2-15l10.4,42.5l-99.5,31.1
			c-7.9,1.4-15.9-1.3-21.3-7.2L468.8,927L485.8,875.4z"/>
		<path class="st19" d="M570.7,954.5c-0.2-0.3-23.8-25.9-44.2-48.8c-20.2-22.6-50.9-33.6-51.2-33.7l0.8-2.4
			c0.3,0.1,31.6,11.3,52.2,34.4c20.4,22.9,43.9,48.5,44.2,48.7L570.7,954.5z"/>
		
			<rect x="505.9" y="922.7" transform="matrix(0.7182 -0.6958 0.6958 0.7182 -532.4777 626.3401)" class="st19" width="2.5" height="95.9"/>
	</g>
	<g>
		<g>
			<g>
				<polygon class="st6" points="510.9,1264.8 479.2,1326.6 559.3,1367.7 538,1319 555.4,1280.3 				"/>
				
					<rect x="514.8" y="1321.1" transform="matrix(0.9593 -0.2824 0.2824 0.9593 -351.9642 202.5264)" class="st8" width="23.7" height="2.5"/>
			</g>
			<path class="st20" d="M560.8,1305.4l-72.6-27.1l49.7-154.7c8.5-22.9,34.9-34.2,58.8-25.3h0c23.9,8.9,36.4,34.7,27.9,57.6
				L560.8,1305.4z"/>
		</g>
		<g>
			<g>
				<polygon class="st6" points="631.3,1294.9 638.3,1368.5 728.4,1368.5 687.2,1334.8 677.5,1292.4 				"/>
				
					<rect x="664.3" y="1339.5" transform="matrix(0.8757 -0.4828 0.4828 0.8757 -563.216 493.2111)" class="st8" width="24.4" height="2.5"/>
			</g>
			<path class="st4" d="M696.3,1303.7l-78.8,12.5l-53.9-158.6l-9.8-28.9l-133.9,1.1c-33.1,0.8-59.5-27.6-56.2-60.6l5.6-44.2
				l132.5,16.7l87.1,9.6c36.3,6.3,47.4,28.2,54.9,56.4L696.3,1303.7z"/>
			<path class="st8" d="M563.6,1157.6l-9.8-28.9l18.1-0.6C573.5,1139,569.2,1151.1,563.6,1157.6z"/>
		</g>
	</g>
	<rect x="241.3" y="1367.2" class="st8" width="1517.5" height="2.5"/>
	<g id="Background">
	</g>
</g>
</svg>
