<?xml version="1.0" encoding="UTF-8"?>
<svg id="Layer_1" data-name="Layer 1" xmlns="http://www.w3.org/2000/svg" viewBox="0 0 371 370">
    
    <path
        d="M314.38,315.14c-3.57,13.22-13.75,18.72-25.9,20.67-16.32,2.61-30.2,9.05-41.3,21.52-5.79,6.5-13.23,10.68-21.79,12.68h-4.99c-7.4-2.04-14.74-4.33-22.21-6.01-4.78-1.07-9.96-2.38-14.63-1.58-11.1,1.9-21.99,4.99-32.97,7.59h-8.98c-.06-.48,0-1.32-.19-1.38-9.35-2.93-15.21-10.53-21.99-16.74-10.11-9.26-22.04-13.73-35.25-15.91-11.46-1.89-21.03-6.74-25.88-18.59,.7,.14,1.36,.07,1.52,.32,6.27,9.83,16.15,13.51,26.88,15.13,14.75,2.22,26.96,8.8,37.04,19.65,5.38,5.79,11.44,10.46,19.33,12.58,6.81,1.84,13.27,.49,19.49-1.72,15.1-5.38,29.98-5.67,45.29-.61,5.96,1.97,12.61,2.56,18.94,2.56,7.55,0,13.6-4.53,18.39-9.88,12.07-13.46,26.85-21.08,44.74-23.56,10.35-1.43,18.64-6.76,23.31-16.65,.38-.02,.75-.04,1.13-.06Z"
        style="fill: #b9b6b6;" />
    <path
        d="M150.59,370c10.98-2.61,21.87-5.69,32.97-7.59,4.66-.8,9.84,.51,14.63,1.58,7.48,1.68,14.82,3.98,22.21,6.01h-69.81Z"
        style="fill: #fbfbfb;" />
    <path
        d="M210.86,124.43c4.19,8.46,8.37,16.91,12.56,25.37,.63,1.51,1.2,3.04,1.91,4.51,8.18,16.95,16.33,33.91,24.6,50.82,7.4,15.12,14.94,30.18,22.41,45.27,6.12,10.74,7.9,22.34,7.06,34.52-.21,2.99,.44,6.74-3.23,7.44-2.26,.43-5.18-.98-7.4-2.26-14.4-8.29-20.93-22.51-27.42-36.77-3.3-7.25-6.75-14.43-10.45-21.47-.65-1.23-3-2.6-4.24-2.34-40.32,8.37-44.8,8.36-84.56-.86-6.55,13.49-13.49,26.88-19.59,40.65-4.76,10.74-14.28,16.34-22.81,23.02-3.16,2.48-7.71-.26-7.62-4.63,.24-11.18-.64-22.4,5.2-32.98,6.87-12.45,12.59-25.54,18.21-37.12-10.62-9.89-20.8-19.07-30.6-28.66-3.52-3.44-6.14-7.82-9.06-11.84-1.89-2.6-1.41-5.01,1.15-6.91,5.6-4.15,11.21-8.29,16.86-12.38,3.29-2.38,5.7-1.31,7.87,1.89,7.42,10.99,16.69,20.15,28.34,28,10.27-21.2,20.42-42.15,30.58-63.1,2.96,3.07,5.57,6.62,8.96,9.11,11.59,8.53,30.97,7.16,41.26-9.26Zm-54.81,75.47c20.15,6,39.56,6.09,59.51,.06-9.92-20.39-19.63-40.33-29.79-61.22-10.14,20.86-19.74,40.62-29.72,61.16Z"
        style="fill: #4b7dc0;" />
    <path
        d="M272.34,250.39c-7.48-15.09-15.02-30.14-22.41-45.27-8.27-16.91-16.42-33.87-24.6-50.82-.71-1.47-1.28-3.01-1.91-4.51,18.08-6.26,35.2-4.32,51.73,6.45,2.99-4.38,5.83-8.79,8.95-12.99,.9-1.21,2.62-1.81,3.96-2.69-.25,1.54-.08,3.33-.83,4.57-2.71,4.52-5.73,8.86-8.84,13.59,12.75,11.41,19.79,25.58,20.93,43.03,5.67,.46,11.24,.82,16.78,1.45,1.24,.14,2.38,1.22,3.56,1.87-1.3,.66-2.61,1.91-3.89,1.87-5.29-.13-10.57-.65-16.34-1.07-2.03,19.17-10.45,34.4-27.1,44.51Zm10.4-34.92c0-.68-.01-1.35-.02-2.03-1.84-1.2-3.72-3.37-5.52-3.31-1.54,.05-4.34,2.89-4.15,4.11,.29,1.83,2.57,4.41,4.27,4.64,1.62,.22,3.6-2.17,5.42-3.41Zm-22.6-46.52c-.04-.73-.08-1.45-.12-2.18-1.85-1.07-3.8-3.1-5.51-2.91-1.54,.17-4.14,3-3.91,4.22,.32,1.73,2.69,4.09,4.39,4.27,1.58,.17,3.42-2.17,5.15-3.4Z"
        style="fill: #2db671;" />
    <path
        d="M210.86,124.43c-10.29,16.43-29.67,17.8-41.26,9.26-3.39-2.49-5.99-6.04-8.96-9.11-8.13-18.16-2.68-32.75,15.63-41.88,6.39,.02,12.78,.05,19.16,.07,12.59,5.79,19.77,15.23,18.88,29.46-.26,4.12-2.26,8.14-3.46,12.2Zm-9.34-14.22c.03-8.84-6.75-15.79-15.57-15.98-8.65-.18-16.22,7.37-16.16,16.1,.06,8.5,7.34,15.59,16.03,15.62,8.78,.03,15.66-6.88,15.7-15.75Z"
        style="fill: #003547;" />
    <path
        d="M195.44,82.77c-6.39-.02-12.78-.05-19.16-.07,.02-6.79-.03-13.57,.07-20.36,.09-6.07,3.74-10.02,9.21-10.2,5.46-.18,9.69,4.12,9.81,10.27,.13,6.78,.06,13.57,.07,20.36Z"
        style="fill: #4b7ec0;" />
    <path
        d="M355.57,257.55c-2.23,3.08-4,6.68-6.78,9.16-9.75,8.69-21.21,15.65-27.1,28.13,4.89-18.02,22.59-24.74,32.68-38.15,.4,.29,.8,.58,1.19,.87Z"
        style="fill: #bbb9b8;" />
    <path
        d="M18.11,257.16c8.24,7.81,16.71,15.4,24.62,23.53,3.29,3.39,5.39,7.93,7.27,12.5-6.12-10.59-15.92-17.27-24.92-24.85-3.21-2.71-4.96-7.16-7.37-10.81,.14-.12,.27-.24,.41-.37Z"
        style="fill: #bab7b7;" />
    <path
        d="M314.38,315.14c-.38,.02-.76,.04-1.13,.06,2.15-6.28,4.31-12.56,6.46-18.84,.54,.19,1.08,.38,1.63,.57-2.32,6.07-4.64,12.14-6.96,18.21Z"
        style="fill: #ccc9c9;" />
    <path
        d="M16.9,255.35c-.29-.38-.58-.77-.87-1.15l.61-.31c.12,.46,.23,.93,.35,1.39,0,0-.08,.07-.08,.07Z"
        style="fill: #bab7b7;" />
    <path
        d="M16.99,255.29c.37,.62,.75,1.25,1.12,1.87-.13,.12-.27,.24-.41,.36-.27-.72-.53-1.45-.8-2.17,0,0,.08-.07,.08-.07Z"
        style="fill: #bab7b7;" />
    <path
        d="M156.05,199.89c9.98-20.53,19.59-40.3,29.72-61.16,10.16,20.89,19.87,40.83,29.79,61.22-19.95,6.03-39.36,5.93-59.51-.06Z"
        style="fill: #fbfcfe;" />
    <path
        d="M282.74,215.47c-1.82,1.24-3.79,3.63-5.42,3.41-1.71-.23-3.98-2.81-4.27-4.64-.2-1.22,2.61-4.06,4.15-4.11,1.8-.06,3.68,2.11,5.52,3.31,0,.68,.01,1.35,.02,2.03Z"
        style="fill: #f0f8f3;" />
    <path
        d="M260.14,168.96c-1.73,1.23-3.57,3.57-5.15,3.4-1.7-.18-4.07-2.54-4.39-4.27-.23-1.22,2.37-4.05,3.91-4.22,1.71-.18,3.66,1.85,5.51,2.91,.04,.73,.08,1.45,.12,2.18Z"
        style="fill: #f6fbf8;" />
    <path
        d="M201.52,110.2c-.03,8.87-6.92,15.78-15.7,15.75-8.69-.03-15.97-7.12-16.03-15.62-.07-8.73,7.51-16.28,16.16-16.1,8.83,.18,15.61,7.14,15.57,15.98Z"
        style="fill: #f8f9f9;" />
</svg>