<?xml version="1.0" encoding="UTF-8"?> <svg xmlns="http://www.w3.org/2000/svg" width="634" height="634" viewBox="0 0 634 634" fill="none"><rect width="634" height="634" rx="210" fill="#17283F"></rect><path d="M412.262 301.034C419.2 303.463 425.355 305.191 431.159 307.729C464.743 322.388 486.232 347.873 493.44 383.454C501.836 424.812 486.934 463.336 451.353 489.523C431.672 503.993 409.481 509.851 385.184 509.77C350.305 509.662 315.399 510.391 280.492 510.337C276.092 510.337 271.097 508.582 267.426 506.072C260.137 501.131 258.517 494.733 261.028 486.931C263.431 479.48 269.046 474.81 277.469 474.675C296.879 474.324 316.317 474.432 335.727 474.378C354.705 474.324 373.711 474.405 392.689 474.243C427.461 473.919 457.481 443.548 459.371 408.804C461.287 373.384 435.101 343.337 400.653 336.048C399.196 335.751 397.657 335.67 396.145 335.67C363.776 335.643 331.408 335.67 299.039 335.67C298.202 335.67 297.365 335.805 295.502 335.967C295.502 343.256 295.475 350.491 295.502 357.699C295.529 365.69 295.691 373.681 295.556 381.645C295.502 385.425 296.744 387.152 300.74 387.125C320.285 386.99 339.857 387.152 359.403 386.802C362.237 386.748 365.531 384.885 367.799 382.941C381.675 370.982 394.579 373.249 404.622 379.944C418.228 389.042 421.495 404.619 414.665 418.846C406.998 434.855 382.944 439.903 369.904 427.917C365.774 424.111 361.671 422.545 356.136 422.572C330.031 422.761 303.898 422.653 277.793 422.545C266.319 422.491 259.705 416.093 259.651 404.565C259.516 375.652 259.516 346.739 259.732 317.853C259.813 305.812 264.024 300.548 276.092 299.927C295.043 298.955 314.049 299.252 333.027 299.225C375.736 299.144 407.78 261.781 401.49 219.64C397.063 190.078 373.765 169.291 347.848 162.623C341.693 161.03 334.998 161.138 328.546 161.111C283.219 160.922 237.892 160.517 192.592 161.165C182.252 161.3 171.778 152.283 171.886 142.565C171.994 132.387 181.28 124.018 192.781 124.018C220.398 124.018 248.016 124.126 275.66 124.126C294.638 124.126 313.644 123.802 332.622 124.126C380.217 124.936 421.738 154.848 435.344 202.227C444.901 235.486 438.043 266.532 417.013 294.231C415.69 296.093 414.395 298.037 412.262 301.034Z" fill="#FF4655"></path><path d="M209.059 247.932C209.059 251.549 209.059 254.492 209.059 257.434C208.951 321.335 208.816 385.209 208.708 449.109C208.681 462.715 208.924 476.295 208.654 489.901C208.33 505.937 196.479 513.928 181.712 507.88C173.694 504.587 172.749 496.731 172.668 489.361C172.398 466.711 172.56 444.034 172.533 421.357C172.452 360.48 172.371 299.63 172.317 238.753C172.317 235.081 172.371 231.41 172.803 227.765C173.883 218.641 180.659 212.62 189.757 212.593C226.229 212.539 262.728 212.512 299.2 212.485C303.628 212.485 307.38 212.323 311.052 208.193C319.987 198.042 337.076 199.149 344.608 203.037C356.568 209.165 362.966 220.638 361.697 232.976C360.374 245.772 351.438 255.923 338.453 259.351C327.087 262.348 317.909 258.028 309.513 250.82C308.028 249.551 306.03 248.067 304.249 248.067C272.933 247.878 241.671 247.932 209.059 247.932Z" fill="#FF4655"></path></svg> 