<svg id="svg" version="1.1" xmlns="http://www.w3.org/2000/svg" xmlns:xlink="http://www.w3.org/1999/xlink" width="204.1" height="204.9" viewBox="0, 0, 400,400"><g id="svgg"><path id="path0" d="M271.509 107.821 C 271.101 107.891,270.738 108.035,270.703 108.141 C 270.668 108.247,270.345 108.333,269.986 108.333 C 269.556 108.333,269.220 108.447,269.000 108.667 C 268.817 108.850,268.498 109.003,268.292 109.006 C 267.822 109.013,267.055 109.426,267.167 109.611 C 267.212 109.688,267.044 109.774,266.792 109.803 C 266.540 109.832,266.333 109.922,266.333 110.003 C 266.333 110.085,266.064 110.279,265.735 110.435 C 265.405 110.591,265.097 110.820,265.050 110.943 C 265.003 111.066,264.901 111.167,264.824 111.167 C 264.441 111.167,261.380 114.514,261.115 115.222 C 261.041 115.421,260.843 115.733,260.675 115.917 C 260.507 116.100,260.318 116.494,260.255 116.792 C 260.192 117.090,260.059 117.333,259.959 117.333 C 259.859 117.333,259.827 117.383,259.887 117.443 C 259.948 117.503,259.914 117.653,259.811 117.776 C 259.709 117.899,259.691 118.001,259.771 118.003 C 259.851 118.004,259.831 118.060,259.727 118.128 C 259.622 118.195,259.498 118.541,259.450 118.897 C 259.403 119.253,259.272 119.601,259.160 119.671 C 258.622 120.004,258.611 127.197,259.147 128.374 C 259.341 128.800,259.500 129.310,259.500 129.507 C 259.500 129.704,259.639 130.064,259.809 130.308 C 259.979 130.551,260.172 130.975,260.238 131.250 C 260.305 131.525,260.634 132.161,260.971 132.663 C 261.308 133.165,261.637 133.709,261.703 133.872 C 261.769 134.034,261.942 134.167,262.088 134.167 C 262.234 134.167,262.318 134.224,262.275 134.294 C 262.165 134.471,262.523 134.915,262.886 135.051 C 263.052 135.113,263.141 135.240,263.084 135.332 C 263.027 135.424,263.043 135.500,263.119 135.500 C 263.195 135.500,263.773 135.980,264.405 136.566 C 265.036 137.153,266.032 137.881,266.619 138.185 C 267.205 138.489,267.764 138.834,267.863 138.952 C 267.961 139.070,268.264 139.167,268.536 139.167 C 268.808 139.167,269.221 139.317,269.455 139.500 C 269.688 139.683,270.058 139.833,270.278 139.833 C 270.498 139.833,270.849 139.945,271.056 140.081 C 271.579 140.424,272.427 140.510,276.083 140.594 C 279.336 140.668,280.111 140.721,280.833 140.920 C 281.063 140.983,282.112 141.071,283.167 141.116 C 284.241 141.162,285.189 141.283,285.324 141.391 C 285.516 141.545,285.539 141.534,285.436 141.333 C 285.366 141.196,285.420 141.220,285.557 141.387 C 285.737 141.608,286.153 141.724,287.081 141.813 C 287.867 141.888,288.411 142.022,288.497 142.163 C 288.588 142.309,289.047 142.411,289.777 142.449 C 291.051 142.514,291.396 142.597,291.266 142.807 C 291.218 142.885,291.607 143.050,292.131 143.173 C 292.655 143.296,293.321 143.493,293.611 143.611 C 293.901 143.729,294.370 143.843,294.652 143.865 C 294.940 143.887,295.167 143.999,295.167 144.119 C 295.167 144.237,295.279 144.333,295.417 144.333 C 295.832 144.333,295.908 144.355,296.123 144.533 C 296.236 144.627,296.435 144.663,296.566 144.613 C 296.696 144.563,296.932 144.666,297.091 144.841 C 297.249 145.017,297.650 145.210,297.981 145.271 C 298.312 145.332,298.621 145.431,298.667 145.491 C 298.712 145.551,299.125 145.741,299.583 145.913 C 300.042 146.085,300.521 146.331,300.650 146.459 C 300.778 146.588,301.022 146.656,301.193 146.612 C 301.375 146.564,301.590 146.655,301.715 146.834 C 301.832 147.001,302.213 147.191,302.561 147.257 C 302.909 147.322,303.232 147.476,303.279 147.600 C 303.327 147.723,303.621 147.872,303.933 147.931 C 304.255 147.991,304.500 148.137,304.500 148.269 C 304.500 148.396,304.639 148.500,304.808 148.500 C 304.977 148.500,305.289 148.650,305.500 148.833 C 305.863 149.148,306.079 149.234,306.380 149.185 C 306.451 149.173,306.558 149.296,306.617 149.457 C 306.751 149.819,306.995 149.994,307.369 149.997 C 307.527 149.999,307.934 150.279,308.275 150.620 C 308.616 150.961,309.002 151.255,309.132 151.274 C 309.263 151.293,309.535 151.465,309.737 151.655 C 309.939 151.845,310.226 152.000,310.374 152.000 C 310.521 152.000,310.666 152.101,310.696 152.225 C 310.757 152.480,312.578 154.000,312.823 154.000 C 312.911 154.000,313.043 154.096,313.117 154.212 C 313.190 154.329,313.459 154.557,313.714 154.720 C 313.969 154.882,314.133 155.086,314.079 155.174 C 314.025 155.262,314.091 155.333,314.227 155.333 C 314.496 155.333,315.500 156.264,315.500 156.513 C 315.500 156.597,315.580 156.667,315.678 156.667 C 315.776 156.667,316.302 157.117,316.847 157.667 C 317.392 158.217,317.911 158.667,318.002 158.667 C 318.093 158.667,318.167 158.779,318.167 158.917 C 318.167 159.054,318.284 159.167,318.427 159.167 C 318.569 159.167,318.649 159.227,318.603 159.302 C 318.557 159.376,318.740 159.619,319.010 159.841 C 319.279 160.064,319.500 160.300,319.500 160.366 C 319.500 160.431,319.950 160.948,320.500 161.514 C 321.050 162.079,321.500 162.607,321.500 162.688 C 321.500 162.768,321.575 162.833,321.667 162.833 C 321.758 162.833,321.833 162.911,321.833 163.007 C 321.833 163.177,321.986 163.397,322.513 163.983 C 322.657 164.144,322.824 164.401,322.883 164.554 C 322.941 164.708,323.089 164.833,323.211 164.833 C 323.333 164.833,323.528 165.096,323.644 165.417 C 323.760 165.737,323.925 166.000,324.011 166.000 C 324.097 166.000,324.167 166.113,324.167 166.252 C 324.167 166.390,324.317 166.632,324.500 166.789 C 324.683 166.946,324.833 167.165,324.833 167.276 C 324.833 167.387,324.983 167.525,325.167 167.583 C 325.378 167.650,325.500 167.836,325.500 168.088 C 325.500 168.307,325.637 168.621,325.804 168.785 C 325.972 168.949,326.206 169.327,326.325 169.625 C 326.443 169.923,326.601 170.167,326.676 170.167 C 326.750 170.167,326.863 170.332,326.927 170.534 C 326.992 170.736,327.147 171.004,327.272 171.129 C 327.397 171.255,327.502 171.483,327.505 171.637 C 327.512 171.967,327.909 172.535,328.042 172.403 C 328.092 172.352,328.186 172.621,328.250 173.000 C 328.314 173.380,328.472 173.730,328.600 173.779 C 328.728 173.829,328.834 173.955,328.834 174.059 C 328.834 174.164,329.023 174.622,329.254 175.076 C 329.484 175.530,329.707 176.092,329.749 176.324 C 329.791 176.557,329.901 176.773,329.993 176.803 C 330.085 176.834,330.244 177.172,330.346 177.555 C 330.448 177.937,330.626 178.362,330.743 178.500 C 330.860 178.637,331.000 179.044,331.055 179.403 C 331.110 179.762,331.244 180.111,331.353 180.179 C 331.462 180.246,331.577 180.538,331.609 180.828 C 331.640 181.117,331.757 181.518,331.869 181.719 C 331.980 181.919,332.074 182.133,332.077 182.194 C 332.081 182.256,332.140 182.362,332.208 182.431 C 332.277 182.499,332.333 182.810,332.333 183.120 C 332.333 183.431,332.475 184.000,332.648 184.384 C 332.821 184.769,333.005 185.447,333.057 185.891 C 333.110 186.336,333.216 186.786,333.293 186.891 C 333.371 186.997,333.451 187.346,333.472 187.667 C 333.529 188.519,333.843 189.820,334.019 189.929 C 334.103 189.981,334.124 190.101,334.065 190.197 C 334.006 190.292,334.037 190.420,334.134 190.480 C 334.235 190.542,334.345 191.447,334.390 192.586 C 334.434 193.685,334.525 194.883,334.593 195.250 C 334.765 196.181,334.780 204.474,334.611 205.083 C 334.535 205.358,334.412 206.558,334.339 207.750 C 334.210 209.866,334.183 210.062,333.926 210.750 C 333.690 211.383,333.649 211.577,333.491 212.818 C 333.405 213.503,333.263 214.107,333.177 214.160 C 333.092 214.213,332.998 214.649,332.969 215.128 C 332.940 215.608,332.866 216.000,332.805 216.000 C 332.648 216.000,332.360 216.970,332.310 217.667 C 332.287 217.987,332.143 218.400,331.988 218.583 C 331.834 218.767,331.658 219.195,331.598 219.535 C 331.537 219.875,331.378 220.362,331.245 220.618 C 331.111 220.874,331.002 221.278,331.001 221.516 C 331.000 221.754,330.850 222.084,330.667 222.250 C 330.470 222.428,330.333 222.763,330.333 223.069 C 330.333 223.406,330.217 223.659,330.000 223.795 C 329.817 223.909,329.667 224.119,329.667 224.262 C 329.667 224.405,329.479 224.931,329.250 225.432 C 329.021 225.933,328.833 226.410,328.833 226.491 C 328.833 226.572,328.758 226.664,328.665 226.695 C 328.572 226.726,328.462 226.931,328.420 227.152 C 328.377 227.372,328.153 227.826,327.921 228.160 C 327.690 228.494,327.500 228.887,327.500 229.033 C 327.500 229.178,327.395 229.338,327.266 229.388 C 327.137 229.437,326.983 229.700,326.923 229.971 C 326.863 230.243,326.673 230.593,326.500 230.750 C 326.327 230.907,326.139 231.246,326.083 231.503 C 326.026 231.761,325.872 232.014,325.740 232.064 C 325.608 232.115,325.500 232.254,325.500 232.374 C 325.500 232.494,325.350 232.721,325.167 232.878 C 324.983 233.035,324.833 233.311,324.833 233.493 C 324.833 233.674,324.683 233.902,324.500 234.000 C 324.317 234.098,324.167 234.285,324.167 234.414 C 324.167 234.544,324.072 234.710,323.957 234.783 C 323.696 234.949,322.833 236.265,322.833 236.496 C 322.833 236.590,322.721 236.667,322.583 236.667 C 322.446 236.667,322.333 236.725,322.333 236.796 C 322.333 236.867,322.127 237.157,321.875 237.439 C 320.864 238.571,320.333 239.203,320.333 239.275 C 320.333 239.317,320.109 239.591,319.834 239.884 C 319.560 240.177,319.335 240.510,319.334 240.625 C 319.334 240.740,319.218 240.833,319.078 240.833 C 318.938 240.833,318.755 241.002,318.672 241.208 C 318.589 241.415,318.516 241.516,318.511 241.433 C 318.496 241.228,317.333 242.438,317.333 242.658 C 317.333 242.755,317.271 242.815,317.196 242.792 C 317.120 242.769,316.576 243.227,315.987 243.810 C 315.399 244.394,314.743 244.937,314.532 245.018 C 314.320 245.100,314.192 245.239,314.247 245.328 C 314.302 245.417,314.156 245.538,313.923 245.597 C 313.691 245.655,313.500 245.809,313.500 245.939 C 313.500 246.069,313.311 246.247,313.079 246.335 C 312.848 246.423,312.615 246.609,312.561 246.747 C 312.508 246.886,312.373 247.000,312.260 247.000 C 312.148 247.000,311.725 247.299,311.320 247.664 C 310.915 248.030,310.493 248.330,310.383 248.331 C 310.273 248.332,310.123 248.440,310.050 248.571 C 309.887 248.862,308.829 249.593,308.351 249.745 C 308.158 249.806,308.000 249.947,308.000 250.058 C 308.000 250.169,307.794 250.352,307.542 250.464 C 306.900 250.748,306.161 251.203,305.834 251.513 C 305.682 251.657,305.188 251.952,304.737 252.167 C 304.286 252.382,303.738 252.695,303.519 252.862 C 303.301 253.030,302.982 253.167,302.811 253.167 C 302.640 253.167,302.500 253.227,302.500 253.300 C 302.500 253.374,302.106 253.573,301.625 253.744 C 301.144 253.914,300.602 254.154,300.421 254.277 C 300.240 254.399,299.958 254.500,299.795 254.500 C 299.631 254.500,299.368 254.650,299.211 254.833 C 299.038 255.036,298.720 255.167,298.400 255.167 C 298.111 255.167,297.781 255.279,297.667 255.417 C 297.553 255.554,297.330 255.667,297.171 255.667 C 297.013 255.667,296.530 255.854,296.099 256.083 C 295.668 256.313,295.200 256.500,295.058 256.500 C 294.916 256.500,294.564 256.601,294.275 256.725 C 293.986 256.849,293.378 257.041,292.923 257.151 C 292.468 257.261,291.998 257.432,291.878 257.532 C 291.758 257.632,291.346 257.741,290.963 257.776 C 290.580 257.810,290.108 257.943,289.913 258.070 C 289.719 258.198,289.115 258.354,288.572 258.417 C 288.028 258.480,287.021 258.669,286.333 258.836 C 285.646 259.003,284.340 259.217,283.431 259.313 C 282.522 259.408,281.734 259.557,281.680 259.644 C 281.624 259.735,279.754 259.827,277.298 259.860 C 273.540 259.910,272.988 259.951,272.799 260.194 C 272.648 260.389,272.208 260.504,271.336 260.579 C 270.622 260.640,269.975 260.789,269.823 260.926 C 269.677 261.058,269.363 261.167,269.126 261.167 C 268.517 261.167,268.167 261.329,268.167 261.611 C 268.167 261.744,268.110 261.818,268.040 261.775 C 267.852 261.658,266.833 262.123,266.833 262.325 C 266.833 262.421,266.683 262.500,266.498 262.500 C 266.314 262.500,266.035 262.650,265.878 262.833 C 265.721 263.017,265.512 263.167,265.414 263.167 C 265.241 263.167,264.834 263.513,263.321 264.952 C 262.449 265.781,262.357 265.891,261.856 266.708 C 261.645 267.052,261.421 267.333,261.358 267.333 C 261.294 267.333,261.095 267.615,260.914 267.958 C 260.734 268.302,260.526 268.628,260.451 268.682 C 260.377 268.736,260.295 268.961,260.270 269.182 C 260.244 269.403,260.061 269.846,259.862 270.167 C 259.664 270.487,259.501 270.907,259.501 271.099 C 259.500 271.292,259.371 271.704,259.214 272.016 C 258.817 272.802,258.753 274.002,258.814 279.534 C 258.818 279.873,258.899 280.305,258.994 280.492 C 259.089 280.680,259.242 280.982,259.333 281.164 C 259.425 281.346,259.500 281.642,259.500 281.821 C 259.500 282.000,259.576 282.194,259.669 282.252 C 259.763 282.309,259.793 282.431,259.736 282.523 C 259.680 282.614,259.752 282.778,259.897 282.886 C 260.041 282.995,260.206 283.383,260.262 283.750 C 260.318 284.117,260.434 284.442,260.520 284.474 C 260.605 284.505,260.825 284.824,261.008 285.182 C 261.191 285.540,261.414 285.833,261.503 285.833 C 261.593 285.833,261.667 285.931,261.667 286.051 C 261.667 286.170,261.921 286.545,262.231 286.884 C 262.541 287.223,262.755 287.500,262.706 287.500 C 262.657 287.500,262.853 287.725,263.140 288.000 C 263.428 288.275,263.739 288.500,263.832 288.500 C 263.924 288.500,264.000 288.612,264.000 288.750 C 264.000 288.887,264.063 289.000,264.140 289.000 C 264.280 289.000,264.714 289.337,265.699 290.208 C 265.983 290.460,266.349 290.667,266.511 290.667 C 266.673 290.667,266.831 290.723,266.861 290.792 C 266.892 290.860,267.273 291.096,267.708 291.315 C 268.144 291.534,268.500 291.778,268.500 291.856 C 268.500 291.935,268.708 292.000,268.963 292.000 C 269.218 292.000,269.575 292.105,269.758 292.233 C 269.941 292.361,270.608 292.509,271.241 292.561 C 271.873 292.613,272.438 292.733,272.495 292.826 C 272.629 293.042,280.816 292.947,283.500 292.698 C 284.554 292.600,285.961 292.505,286.626 292.486 C 287.291 292.467,288.009 292.361,288.221 292.251 C 288.433 292.141,289.234 292.034,290.001 292.014 C 290.767 291.994,291.700 291.863,292.072 291.724 C 292.445 291.584,293.375 291.378,294.138 291.266 C 294.901 291.153,295.577 290.979,295.639 290.878 C 295.701 290.777,296.202 290.676,296.751 290.653 C 297.777 290.609,298.667 290.391,298.667 290.183 C 298.667 290.118,299.229 289.970,299.917 289.855 C 300.604 289.739,301.167 289.575,301.167 289.489 C 301.167 289.403,301.223 289.346,301.292 289.362 C 301.702 289.456,303.039 289.084,303.220 288.826 C 303.365 288.618,303.752 288.488,304.465 288.407 C 305.174 288.327,305.500 288.218,305.500 288.062 C 305.500 287.907,305.711 287.833,306.153 287.833 C 306.949 287.833,307.333 287.699,307.333 287.422 C 307.333 287.295,307.671 287.173,308.199 287.111 C 308.715 287.049,309.123 286.905,309.208 286.754 C 309.292 286.603,309.583 286.500,309.925 286.500 C 310.241 286.500,310.501 286.444,310.501 286.375 C 310.503 286.243,311.295 285.833,311.549 285.833 C 311.631 285.833,311.904 285.687,312.155 285.508 C 312.406 285.329,312.830 285.144,313.097 285.095 C 313.364 285.047,313.666 284.893,313.768 284.754 C 313.870 284.614,314.104 284.500,314.288 284.500 C 314.471 284.500,314.801 284.360,315.019 284.188 C 315.238 284.017,315.665 283.822,315.970 283.756 C 316.274 283.690,316.563 283.530,316.612 283.401 C 316.662 283.272,316.814 283.167,316.950 283.167 C 317.087 283.167,317.398 283.027,317.641 282.856 C 317.884 282.686,318.365 282.455,318.708 282.344 C 319.052 282.232,319.333 282.075,319.333 281.993 C 319.333 281.912,319.633 281.765,320.000 281.667 C 320.392 281.561,320.667 281.387,320.667 281.244 C 320.667 281.099,320.826 281.000,321.061 281.000 C 321.278 281.000,321.646 280.850,321.879 280.667 C 322.112 280.483,322.419 280.333,322.562 280.333 C 322.705 280.333,322.899 280.189,322.993 280.014 C 323.087 279.838,323.383 279.646,323.651 279.587 C 323.919 279.528,324.180 279.372,324.231 279.240 C 324.281 279.108,324.429 279.000,324.558 279.000 C 324.687 279.000,324.889 278.883,325.008 278.740 C 325.127 278.598,325.473 278.376,325.778 278.249 C 326.084 278.121,326.333 277.938,326.333 277.842 C 326.333 277.745,326.475 277.667,326.649 277.667 C 326.822 277.667,327.007 277.557,327.058 277.422 C 327.110 277.287,327.418 277.066,327.743 276.930 C 328.068 276.795,328.333 276.605,328.333 276.509 C 328.333 276.412,328.435 276.333,328.559 276.333 C 328.683 276.333,328.981 276.152,329.220 275.930 C 329.460 275.708,329.807 275.478,329.991 275.419 C 330.176 275.361,330.309 275.224,330.288 275.115 C 330.267 275.006,330.342 274.935,330.455 274.957 C 330.568 274.980,330.783 274.811,330.933 274.582 C 331.082 274.354,331.309 274.167,331.436 274.167 C 331.563 274.167,331.667 274.095,331.667 274.008 C 331.667 273.920,331.929 273.724,332.250 273.572 C 332.571 273.420,332.833 273.241,332.833 273.174 C 332.833 273.108,333.021 272.968,333.250 272.864 C 333.479 272.759,333.667 272.560,333.667 272.420 C 333.667 272.281,333.790 272.167,333.940 272.167 C 334.234 272.167,335.167 271.280,335.167 271.002 C 335.167 270.909,335.282 270.833,335.422 270.833 C 335.562 270.833,335.740 270.665,335.816 270.458 C 335.892 270.252,336.014 270.114,336.086 270.152 C 336.209 270.217,336.635 269.904,337.597 269.042 C 337.827 268.835,338.087 268.667,338.174 268.667 C 338.262 268.667,338.333 268.554,338.333 268.417 C 338.333 268.279,338.408 268.167,338.498 268.167 C 338.658 268.167,343.411 263.480,344.083 262.659 C 345.972 260.354,346.486 259.766,347.375 258.893 C 347.719 258.556,348.000 258.190,348.000 258.081 C 348.000 257.972,348.201 257.665,348.447 257.399 C 348.693 257.134,348.881 256.898,348.864 256.875 C 348.774 256.753,348.852 256.491,348.958 256.556 C 349.027 256.598,349.180 256.527,349.298 256.399 C 349.416 256.271,349.456 256.167,349.385 256.167 C 349.315 256.167,349.426 255.998,349.633 255.792 C 350.428 254.999,350.833 254.474,350.833 254.236 C 350.833 254.101,350.946 253.946,351.083 253.894 C 351.221 253.841,351.333 253.707,351.333 253.596 C 351.333 253.484,351.521 253.230,351.750 253.031 C 351.979 252.832,352.167 252.516,352.167 252.329 C 352.167 252.142,352.279 251.946,352.417 251.894 C 352.554 251.841,352.667 251.697,352.667 251.574 C 352.667 251.451,352.760 251.290,352.875 251.217 C 353.119 251.061,353.468 250.540,353.608 250.125 C 353.661 249.965,353.759 249.833,353.823 249.833 C 353.888 249.833,354.109 249.496,354.315 249.083 C 354.521 248.671,354.760 248.333,354.845 248.333 C 354.930 248.333,355.000 248.181,355.000 247.995 C 355.000 247.809,355.113 247.613,355.250 247.560 C 355.387 247.508,355.500 247.332,355.500 247.171 C 355.500 247.010,355.653 246.684,355.839 246.447 C 356.026 246.210,356.258 245.787,356.356 245.508 C 356.453 245.229,356.592 245.000,356.664 245.000 C 356.737 245.000,356.844 244.745,356.903 244.433 C 356.961 244.122,357.114 243.779,357.243 243.672 C 357.476 243.479,359.013 240.448,359.068 240.074 C 359.083 239.968,359.218 239.758,359.368 239.608 C 359.517 239.459,359.689 239.111,359.750 238.835 C 359.810 238.559,359.919 238.333,359.992 238.333 C 360.064 238.333,360.217 237.997,360.332 237.587 C 360.447 237.176,360.645 236.754,360.771 236.649 C 360.897 236.545,361.000 236.300,361.001 236.105 C 361.001 235.910,361.140 235.523,361.309 235.246 C 361.478 234.969,361.712 234.444,361.830 234.079 C 361.948 233.715,362.088 233.342,362.142 233.250 C 362.248 233.071,362.318 232.800,362.411 232.211 C 362.444 232.007,362.589 231.720,362.735 231.575 C 362.881 231.429,363.011 231.146,363.025 230.946 C 363.069 230.329,363.086 230.267,363.388 229.668 C 363.549 229.348,363.722 228.823,363.772 228.501 C 363.822 228.180,363.957 227.692,364.073 227.417 C 364.251 226.994,364.528 225.994,364.705 225.135 C 364.730 225.015,364.815 224.869,364.894 224.811 C 364.974 224.754,365.090 224.218,365.151 223.620 C 365.213 223.023,365.344 222.433,365.442 222.309 C 365.541 222.185,365.668 221.664,365.726 221.152 C 365.783 220.640,365.975 219.768,366.151 219.215 C 366.328 218.661,366.498 217.599,366.528 216.854 C 366.558 216.110,366.652 215.500,366.736 215.500 C 366.820 215.500,366.840 215.451,366.779 215.390 C 366.719 215.330,366.746 215.189,366.839 215.076 C 366.933 214.964,367.082 213.869,367.172 212.644 C 367.399 209.535,367.474 208.982,367.710 208.698 C 367.995 208.354,368.011 192.167,367.727 191.817 C 367.622 191.689,367.495 191.246,367.443 190.833 C 367.392 190.421,367.313 189.821,367.268 189.500 C 367.223 189.179,367.142 188.169,367.087 187.256 C 367.033 186.343,366.919 185.553,366.834 185.501 C 366.750 185.448,366.632 184.771,366.573 183.994 C 366.514 183.218,366.328 182.121,366.159 181.556 C 365.991 180.991,365.800 180.054,365.735 179.473 C 365.670 178.892,365.518 178.266,365.399 178.082 C 365.279 177.897,365.148 177.410,365.109 176.998 C 365.069 176.587,364.878 175.784,364.685 175.214 C 364.492 174.644,364.333 174.002,364.333 173.789 C 364.333 173.575,364.250 173.317,364.148 173.215 C 364.046 173.113,363.895 172.670,363.813 172.232 C 363.732 171.794,363.597 171.393,363.514 171.342 C 363.432 171.291,363.238 170.762,363.084 170.166 C 362.930 169.571,362.727 168.991,362.634 168.878 C 362.541 168.765,362.426 168.390,362.380 168.045 C 362.334 167.699,362.136 167.192,361.940 166.917 C 361.745 166.642,361.603 166.398,361.626 166.375 C 361.767 166.231,361.617 165.784,361.331 165.498 C 361.147 165.314,360.983 164.957,360.968 164.706 C 360.953 164.455,360.851 164.137,360.741 164.000 C 360.632 163.862,360.449 163.450,360.336 163.083 C 360.223 162.717,360.037 162.342,359.923 162.250 C 359.810 162.158,359.709 162.026,359.698 161.955 C 359.688 161.885,359.527 161.482,359.340 161.059 C 359.153 160.637,359.000 160.188,359.000 160.062 C 359.000 159.936,358.925 159.833,358.833 159.833 C 358.742 159.833,358.667 159.721,358.667 159.583 C 358.667 159.446,358.592 159.333,358.500 159.333 C 358.408 159.333,358.333 159.214,358.333 159.067 C 358.333 158.921,358.223 158.602,358.089 158.359 C 357.954 158.116,357.733 157.635,357.597 157.292 C 357.461 156.948,357.275 156.667,357.183 156.667 C 357.091 156.667,356.967 156.409,356.908 156.095 C 356.849 155.780,356.705 155.486,356.588 155.442 C 356.472 155.397,356.324 155.154,356.261 154.902 C 356.198 154.649,356.001 154.258,355.823 154.032 C 355.645 153.806,355.500 153.519,355.500 153.394 C 355.500 153.269,355.432 153.167,355.350 153.167 C 355.267 153.167,355.125 152.955,355.035 152.695 C 354.945 152.436,354.675 152.013,354.435 151.754 C 354.196 151.496,354.000 151.152,354.000 150.990 C 354.000 150.827,353.941 150.669,353.868 150.639 C 353.795 150.608,353.564 150.302,353.354 149.958 C 353.144 149.615,352.904 149.333,352.820 149.333 C 352.736 149.333,352.667 149.183,352.667 149.000 C 352.667 148.815,352.556 148.667,352.417 148.667 C 352.279 148.667,352.167 148.564,352.167 148.440 C 352.167 148.315,351.942 147.929,351.667 147.583 C 351.392 147.237,351.167 146.886,351.167 146.803 C 351.167 146.651,350.993 146.411,350.458 145.821 C 350.298 145.645,350.167 145.425,350.167 145.333 C 350.167 145.242,350.092 145.167,350.000 145.167 C 349.908 145.167,349.833 145.081,349.833 144.975 C 349.833 144.750,348.723 143.346,348.296 143.032 C 348.133 142.912,348.000 142.733,348.000 142.634 C 348.000 142.534,347.756 142.220,347.458 141.935 C 347.160 141.650,346.954 141.403,347.000 141.385 C 347.046 141.367,346.703 140.955,346.238 140.468 C 345.773 139.982,345.342 139.447,345.281 139.281 C 345.219 139.115,345.093 139.026,345.001 139.083 C 344.909 139.140,344.833 139.103,344.833 139.000 C 344.833 138.898,344.458 138.434,344.000 137.968 C 343.542 137.502,343.167 137.070,343.167 137.008 C 343.167 136.946,342.785 136.525,342.319 136.073 C 341.853 135.620,341.385 135.150,341.278 135.027 C 341.171 134.905,340.836 134.567,340.534 134.277 C 340.232 133.987,339.462 133.244,338.822 132.625 C 338.183 132.006,337.554 131.500,337.424 131.500 C 337.295 131.500,337.143 131.354,337.086 131.175 C 337.029 130.997,336.836 130.804,336.656 130.747 C 336.476 130.689,336.372 130.573,336.425 130.487 C 336.478 130.401,336.395 130.283,336.242 130.224 C 336.088 130.165,335.668 129.828,335.308 129.475 C 334.948 129.122,334.552 128.833,334.428 128.833 C 334.304 128.833,334.159 128.720,334.106 128.582 C 334.053 128.444,333.820 128.244,333.588 128.138 C 333.356 128.033,333.167 127.846,333.167 127.723 C 333.167 127.600,333.010 127.500,332.818 127.500 C 332.609 127.500,332.434 127.366,332.382 127.167 C 332.334 126.983,332.207 126.833,332.101 126.833 C 331.994 126.833,331.779 126.683,331.622 126.500 C 331.465 126.317,331.223 126.167,331.085 126.167 C 330.947 126.167,330.833 126.063,330.833 125.936 C 330.833 125.809,330.571 125.580,330.250 125.428 C 329.929 125.276,329.667 125.080,329.667 124.992 C 329.667 124.905,329.554 124.833,329.416 124.833 C 329.277 124.833,329.001 124.646,328.802 124.417 C 328.603 124.188,328.321 124.000,328.177 124.000 C 328.032 124.000,327.820 123.850,327.705 123.667 C 327.591 123.483,327.348 123.333,327.165 123.333 C 326.983 123.333,326.833 123.222,326.833 123.087 C 326.833 122.951,326.635 122.790,326.393 122.729 C 326.150 122.668,325.813 122.479,325.643 122.309 C 325.472 122.139,325.221 122.000,325.083 122.000 C 324.946 122.000,324.833 121.891,324.833 121.758 C 324.833 121.611,324.596 121.471,324.237 121.403 C 323.909 121.342,323.599 121.185,323.550 121.056 C 323.500 120.927,323.206 120.715,322.896 120.586 C 322.587 120.456,322.333 120.272,322.333 120.175 C 322.333 120.079,322.195 120.000,322.026 120.000 C 321.856 120.000,321.550 119.855,321.345 119.677 C 321.140 119.499,320.754 119.306,320.486 119.247 C 320.219 119.188,320.000 119.034,320.000 118.903 C 320.000 118.764,319.834 118.667,319.595 118.667 C 319.373 118.667,319.088 118.573,318.964 118.458 C 318.610 118.133,318.029 117.833,317.754 117.833 C 317.616 117.833,317.409 117.683,317.295 117.500 C 317.180 117.317,316.910 117.167,316.695 117.167 C 316.479 117.167,316.112 117.017,315.879 116.833 C 315.646 116.650,315.315 116.500,315.144 116.500 C 314.973 116.500,314.683 116.350,314.500 116.167 C 314.317 115.983,313.987 115.833,313.768 115.833 C 313.548 115.833,313.327 115.725,313.277 115.593 C 313.226 115.460,312.920 115.302,312.597 115.242 C 312.275 115.181,311.847 114.989,311.646 114.816 C 311.439 114.636,311.032 114.500,310.701 114.500 C 310.380 114.500,310.037 114.389,309.935 114.252 C 309.833 114.115,309.499 113.976,309.192 113.944 C 308.885 113.911,308.585 113.809,308.526 113.717 C 308.374 113.485,307.657 113.121,307.553 113.224 C 307.507 113.271,307.157 113.137,306.776 112.927 C 306.395 112.716,305.727 112.492,305.292 112.428 C 304.856 112.365,304.500 112.243,304.500 112.156 C 304.500 112.070,304.350 112.000,304.167 112.000 C 303.983 112.000,303.833 111.940,303.833 111.867 C 303.833 111.794,303.552 111.716,303.208 111.693 C 302.865 111.671,302.559 111.583,302.530 111.498 C 302.500 111.413,302.200 111.301,301.863 111.249 C 300.951 111.107,299.333 110.602,299.333 110.458 C 299.333 110.390,299.007 110.333,298.609 110.333 C 298.211 110.333,297.667 110.228,297.401 110.100 C 297.134 109.972,296.402 109.831,295.772 109.787 C 295.143 109.743,294.579 109.627,294.518 109.530 C 294.376 109.299,293.164 109.049,292.004 109.010 C 291.502 108.994,291.052 108.928,291.004 108.865 C 290.782 108.572,289.215 108.348,287.329 108.341 C 285.962 108.335,285.486 108.271,285.173 108.053 C 284.735 107.745,273.106 107.548,271.509 107.821 M162.250 166.994 C 161.975 167.071,161.188 167.285,160.500 167.470 C 159.813 167.656,159.269 167.888,159.292 167.987 C 159.315 168.086,159.277 168.152,159.208 168.135 C 158.863 168.047,157.976 168.400,157.824 168.685 C 157.728 168.863,157.592 168.974,157.521 168.930 C 157.451 168.886,157.197 168.952,156.958 169.076 C 156.719 169.200,156.481 169.259,156.428 169.206 C 156.376 169.154,156.333 169.189,156.333 169.285 C 156.333 169.380,156.117 169.502,155.853 169.554 C 155.589 169.607,155.257 169.766,155.115 169.908 C 154.973 170.050,154.766 170.167,154.654 170.167 C 154.446 170.167,153.713 170.500,151.140 171.765 C 150.346 172.155,149.652 172.430,149.598 172.376 C 149.544 172.322,149.500 172.359,149.500 172.459 C 149.500 172.559,149.219 172.732,148.875 172.844 C 148.531 172.955,148.051 173.186,147.808 173.356 C 147.564 173.527,147.255 173.667,147.120 173.667 C 146.985 173.667,146.781 173.778,146.668 173.915 C 146.555 174.051,146.396 174.122,146.314 174.072 C 146.233 174.021,146.167 174.060,146.167 174.157 C 146.167 174.254,146.031 174.333,145.865 174.333 C 145.699 174.333,145.396 174.489,145.191 174.680 C 144.987 174.870,144.583 175.056,144.293 175.093 C 144.004 175.129,143.704 175.273,143.625 175.413 C 143.547 175.552,143.314 175.667,143.106 175.667 C 142.899 175.667,142.571 175.814,142.378 175.994 C 142.184 176.175,141.814 176.361,141.555 176.408 C 141.296 176.454,141.001 176.607,140.899 176.746 C 140.797 176.886,140.594 177.000,140.448 177.000 C 140.104 177.000,139.333 177.351,139.333 177.508 C 139.333 177.575,139.087 177.676,138.786 177.732 C 138.486 177.789,138.113 177.983,137.958 178.164 C 137.803 178.345,137.577 178.455,137.457 178.409 C 137.337 178.363,137.075 178.477,136.876 178.663 C 136.677 178.848,136.361 179.000,136.174 179.000 C 135.986 179.000,135.685 179.149,135.503 179.330 C 135.321 179.512,134.929 179.704,134.631 179.756 C 134.333 179.809,133.975 179.949,133.836 180.067 C 133.616 180.255,133.083 180.502,132.833 180.531 C 132.787 180.537,132.571 180.682,132.353 180.854 C 132.134 181.026,131.854 181.167,131.732 181.167 C 131.609 181.167,131.262 181.316,130.962 181.499 C 130.662 181.682,130.285 181.832,130.125 181.833 C 129.965 181.833,129.833 181.913,129.833 182.010 C 129.833 182.107,129.763 182.143,129.677 182.090 C 129.591 182.036,129.459 182.102,129.385 182.236 C 129.310 182.369,129.034 182.518,128.771 182.565 C 128.508 182.613,128.164 182.768,128.008 182.909 C 127.852 183.051,127.609 183.167,127.468 183.167 C 127.327 183.167,127.025 183.313,126.798 183.492 C 126.570 183.671,126.187 183.853,125.945 183.897 C 125.704 183.941,125.338 184.095,125.133 184.238 C 124.927 184.382,124.640 184.500,124.494 184.500 C 124.349 184.500,124.072 184.647,123.879 184.827 C 123.686 185.006,123.317 185.206,123.058 185.271 C 122.799 185.336,122.487 185.489,122.365 185.611 C 122.243 185.733,122.013 185.833,121.854 185.833 C 121.695 185.833,121.311 186.021,121.000 186.250 C 120.689 186.479,120.343 186.667,120.230 186.667 C 120.116 186.667,119.923 186.768,119.799 186.891 C 119.676 187.015,119.300 187.167,118.964 187.230 C 118.569 187.304,118.316 187.460,118.249 187.669 C 118.193 187.847,118.095 187.980,118.032 187.965 C 117.720 187.888,116.849 188.218,116.762 188.446 C 116.698 188.613,116.539 188.672,116.313 188.613 C 116.079 188.552,115.829 188.656,115.557 188.927 C 115.334 189.151,114.967 189.333,114.742 189.333 C 114.517 189.333,114.333 189.402,114.333 189.487 C 114.333 189.571,113.958 189.764,113.500 189.917 C 113.042 190.069,112.667 190.250,112.667 190.320 C 112.667 190.390,112.371 190.544,112.009 190.664 C 111.647 190.783,111.312 190.983,111.264 191.107 C 111.216 191.232,110.985 191.333,110.750 191.333 C 110.515 191.333,110.282 191.440,110.232 191.570 C 110.182 191.701,109.847 191.925,109.487 192.069 C 109.128 192.213,108.833 192.406,108.833 192.499 C 108.833 192.591,108.742 192.667,108.631 192.667 C 108.372 192.667,106.932 194.236,106.664 194.811 C 106.551 195.053,106.353 195.455,106.222 195.705 C 105.792 196.531,105.578 200.003,105.876 201.333 C 106.032 202.030,106.616 203.531,106.775 203.644 C 106.857 203.702,107.046 203.941,107.194 204.174 C 107.525 204.696,109.619 206.418,110.103 206.567 C 110.297 206.626,110.590 206.823,110.754 207.004 C 110.918 207.185,111.220 207.333,111.425 207.333 C 111.630 207.333,111.837 207.436,111.886 207.562 C 111.934 207.688,112.232 207.840,112.549 207.899 C 112.865 207.959,113.295 208.155,113.504 208.337 C 113.713 208.518,114.098 208.667,114.359 208.667 C 114.633 208.667,114.816 208.749,114.792 208.861 C 114.769 208.968,115.041 209.128,115.397 209.216 C 115.752 209.305,116.184 209.517,116.355 209.688 C 116.526 209.860,116.857 210.000,117.089 210.000 C 117.321 210.000,117.554 210.112,117.606 210.250 C 117.659 210.387,117.872 210.500,118.079 210.500 C 118.286 210.500,118.634 210.639,118.853 210.810 C 119.071 210.980,119.531 211.220,119.875 211.343 C 120.219 211.466,120.500 211.624,120.500 211.694 C 120.500 211.763,120.800 211.901,121.167 212.000 C 121.533 212.099,121.833 212.240,121.833 212.313 C 121.833 212.494,122.604 212.833,123.013 212.833 C 123.195 212.833,123.387 212.946,123.440 213.083 C 123.492 213.221,123.682 213.333,123.860 213.333 C 124.038 213.333,124.460 213.521,124.798 213.750 C 125.135 213.979,125.543 214.167,125.705 214.167 C 125.867 214.167,126.000 214.239,126.000 214.327 C 126.000 214.415,126.309 214.570,126.686 214.672 C 127.064 214.774,127.528 215.001,127.718 215.178 C 127.907 215.355,128.193 215.500,128.353 215.500 C 128.512 215.500,128.759 215.616,128.900 215.757 C 129.042 215.899,129.398 216.045,129.693 216.082 C 129.987 216.120,130.291 216.263,130.368 216.402 C 130.446 216.540,130.788 216.705,131.130 216.769 C 131.471 216.832,131.848 217.023,131.968 217.192 C 132.088 217.361,132.369 217.500,132.593 217.500 C 132.817 217.500,133.000 217.574,133.000 217.663 C 133.000 217.753,133.206 217.878,133.458 217.939 C 133.710 218.001,134.178 218.228,134.497 218.443 C 134.816 218.657,135.201 218.833,135.352 218.833 C 135.502 218.833,135.719 218.946,135.833 219.083 C 135.947 219.221,136.148 219.333,136.279 219.333 C 136.410 219.333,136.794 219.521,137.131 219.750 C 137.468 219.979,137.871 220.167,138.027 220.167 C 138.182 220.167,138.411 220.268,138.534 220.391 C 138.657 220.515,139.038 220.668,139.379 220.732 C 139.721 220.796,140.000 220.901,140.001 220.966 C 140.003 221.151,140.993 221.667,141.347 221.667 C 141.523 221.667,141.667 221.734,141.667 221.815 C 141.667 221.897,141.852 222.010,142.079 222.067 C 142.306 222.124,142.766 222.357,143.102 222.585 C 143.438 222.813,143.853 223.000,144.023 223.000 C 144.194 223.000,144.333 223.072,144.333 223.159 C 144.333 223.247,144.591 223.366,144.905 223.425 C 145.220 223.484,145.513 223.626,145.557 223.740 C 145.600 223.855,145.979 224.044,146.398 224.162 C 146.818 224.279,147.127 224.429,147.086 224.496 C 147.045 224.563,147.308 224.706,147.672 224.815 C 148.036 224.924,148.333 225.090,148.333 225.183 C 148.333 225.277,148.402 225.311,148.486 225.259 C 148.570 225.207,148.664 225.221,148.694 225.291 C 148.792 225.508,150.484 226.333,150.833 226.333 C 151.017 226.333,151.167 226.401,151.167 226.483 C 151.167 226.566,151.542 226.768,152.000 226.933 C 152.458 227.098,152.833 227.289,152.833 227.359 C 152.833 227.428,153.093 227.534,153.411 227.593 C 153.728 227.653,153.972 227.781,153.953 227.877 C 153.933 227.974,154.226 228.135,154.604 228.235 C 154.981 228.335,155.394 228.498,155.520 228.597 C 155.647 228.696,155.994 228.874,156.292 228.992 C 156.590 229.110,156.833 229.265,156.833 229.335 C 156.833 229.405,157.088 229.511,157.400 229.569 C 157.711 229.628,158.152 229.822,158.379 230.000 C 158.606 230.179,159.021 230.342,159.301 230.364 C 159.581 230.385,159.773 230.462,159.728 230.535 C 159.586 230.765,160.484 231.000,161.503 231.000 C 162.043 231.000,162.688 231.093,162.937 231.206 C 163.297 231.370,163.404 231.370,163.459 231.206 C 163.506 231.064,163.964 231.000,164.931 231.000 C 166.016 231.000,166.476 230.924,166.956 230.667 C 167.299 230.483,167.655 230.333,167.748 230.333 C 167.841 230.333,168.135 230.146,168.401 229.916 C 168.667 229.687,168.938 229.500,169.002 229.500 C 169.241 229.500,170.673 227.979,170.579 227.826 C 170.525 227.738,170.558 227.667,170.653 227.667 C 170.747 227.667,170.941 227.442,171.083 227.167 C 171.226 226.892,171.289 226.667,171.225 226.667 C 171.161 226.667,171.267 226.498,171.460 226.292 C 171.693 226.043,171.834 225.632,171.878 225.070 C 171.915 224.604,171.996 224.142,172.057 224.043 C 172.229 223.765,172.340 222.333,172.189 222.333 C 172.116 222.333,172.049 222.240,172.040 222.125 C 171.968 221.137,171.746 220.103,171.567 219.924 C 171.447 219.805,171.299 219.504,171.237 219.257 C 171.175 219.009,171.021 218.767,170.895 218.719 C 170.770 218.670,170.667 218.532,170.667 218.411 C 170.667 218.290,170.479 218.043,170.250 217.863 C 170.021 217.683,169.833 217.456,169.833 217.359 C 169.833 217.263,169.552 216.978,169.208 216.726 C 168.865 216.475,168.490 216.157,168.375 216.019 C 168.260 215.882,168.167 215.825,168.167 215.893 C 168.167 215.961,167.916 215.826,167.610 215.592 C 167.304 215.359,166.817 215.085,166.527 214.984 C 166.237 214.883,166.000 214.733,166.000 214.650 C 166.000 214.568,165.849 214.500,165.663 214.500 C 165.478 214.500,165.030 214.313,164.667 214.083 C 164.304 213.854,163.923 213.667,163.821 213.667 C 163.718 213.667,163.417 213.512,163.152 213.323 C 162.886 213.134,162.606 213.018,162.529 213.065 C 162.452 213.113,162.133 212.979,161.820 212.769 C 161.506 212.558,161.049 212.336,160.803 212.276 C 160.558 212.215,160.244 212.054,160.107 211.916 C 159.970 211.779,159.627 211.667,159.345 211.667 C 159.064 211.667,158.833 211.604,158.833 211.527 C 158.833 211.342,158.071 211.000,157.659 211.000 C 157.480 211.000,157.333 210.921,157.333 210.823 C 157.333 210.726,157.266 210.688,157.184 210.739 C 157.102 210.790,156.992 210.719,156.939 210.582 C 156.886 210.443,156.637 210.333,156.376 210.333 C 156.114 210.333,155.782 210.186,155.622 210.000 C 155.455 209.805,155.130 209.667,154.841 209.667 C 154.526 209.667,154.284 209.552,154.177 209.353 C 154.085 209.180,153.752 208.991,153.438 208.932 C 153.124 208.873,152.775 208.714,152.663 208.579 C 152.551 208.444,152.243 208.333,151.980 208.333 C 151.716 208.333,151.500 208.256,151.500 208.161 C 151.500 208.066,151.171 207.847,150.768 207.675 C 150.366 207.502,149.987 207.280,149.925 207.180 C 149.864 207.081,149.687 207.000,149.532 206.999 C 149.377 206.999,148.881 206.811,148.430 206.583 C 147.979 206.354,147.508 206.167,147.383 206.167 C 147.258 206.167,147.116 206.063,147.068 205.936 C 147.019 205.810,146.697 205.661,146.352 205.606 C 146.006 205.550,145.549 205.354,145.336 205.169 C 145.123 204.984,144.735 204.833,144.474 204.833 C 144.180 204.833,144.000 204.745,144.000 204.601 C 144.000 204.332,143.645 204.167,143.064 204.167 C 142.840 204.167,142.614 204.056,142.562 203.921 C 142.510 203.786,142.219 203.629,141.915 203.572 C 141.611 203.515,141.209 203.325,141.021 203.151 C 140.834 202.976,140.498 202.833,140.275 202.833 C 140.052 202.833,139.827 202.725,139.777 202.593 C 139.726 202.460,139.399 202.302,139.050 202.241 C 138.702 202.180,138.330 202.020,138.224 201.887 C 138.117 201.754,137.987 201.647,137.934 201.651 C 137.752 201.663,137.251 201.471,136.414 201.069 C 135.955 200.848,135.475 200.667,135.349 200.667 C 135.223 200.667,135.037 200.553,134.935 200.413 C 134.833 200.274,134.506 200.143,134.208 200.122 C 133.911 200.101,133.667 200.001,133.667 199.901 C 133.667 199.801,133.367 199.630,133.000 199.520 C 132.633 199.410,132.333 199.247,132.333 199.158 C 132.333 198.985,134.994 197.667,135.345 197.667 C 135.462 197.667,135.698 197.540,135.869 197.384 C 136.041 197.229,136.347 197.077,136.549 197.048 C 136.751 197.018,137.104 196.858,137.333 196.691 C 137.563 196.524,137.951 196.338,138.197 196.277 C 138.442 196.216,138.756 196.054,138.893 195.916 C 139.030 195.779,139.265 195.667,139.413 195.667 C 139.562 195.667,139.961 195.520,140.300 195.342 C 140.917 195.016,141.408 194.833,141.612 194.853 C 141.671 194.859,141.783 194.750,141.861 194.611 C 141.939 194.473,142.245 194.306,142.543 194.242 C 142.840 194.177,143.231 194.021,143.412 193.895 C 143.593 193.770,143.851 193.667,143.985 193.667 C 144.119 193.667,144.398 193.507,144.606 193.313 C 144.813 193.118,145.180 192.958,145.421 192.958 C 145.662 192.958,145.899 192.855,145.948 192.729 C 145.996 192.603,146.141 192.500,146.270 192.500 C 146.510 192.500,147.055 192.231,147.500 191.894 C 147.637 191.789,147.999 191.651,148.303 191.586 C 148.607 191.521,148.896 191.363,148.946 191.234 C 148.995 191.105,149.198 191.000,149.397 191.000 C 149.596 191.000,149.926 190.883,150.130 190.741 C 150.333 190.598,150.502 190.542,150.505 190.616 C 150.508 190.689,150.587 190.619,150.680 190.458 C 150.780 190.287,151.049 190.167,151.330 190.167 C 151.594 190.167,151.922 190.054,152.060 189.917 C 152.197 189.779,152.391 189.667,152.490 189.667 C 152.716 189.667,153.379 189.302,153.528 189.096 C 153.589 189.011,153.810 188.915,154.019 188.883 C 154.227 188.852,154.608 188.721,154.864 188.593 C 155.120 188.465,155.556 188.311,155.832 188.250 C 156.108 188.190,156.333 188.080,156.333 188.007 C 156.333 187.934,156.577 187.782,156.875 187.670 C 157.173 187.558,157.942 187.214,158.583 186.905 C 159.225 186.596,160.031 186.232,160.375 186.097 C 160.719 185.961,161.000 185.772,161.000 185.675 C 161.000 185.579,161.216 185.500,161.480 185.500 C 161.743 185.500,162.042 185.400,162.144 185.277 C 162.246 185.154,162.621 184.966,162.978 184.860 C 163.335 184.753,163.720 184.553,163.834 184.416 C 163.948 184.279,164.210 184.167,164.417 184.167 C 164.623 184.167,164.878 184.064,164.982 183.938 C 165.086 183.813,165.527 183.576,165.961 183.412 C 166.395 183.248,166.787 183.069,166.833 183.013 C 166.879 182.958,167.142 182.833,167.417 182.736 C 167.692 182.639,167.900 182.476,167.879 182.375 C 167.858 182.274,168.070 182.141,168.349 182.080 C 168.628 182.019,168.899 181.857,168.951 181.722 C 169.003 181.586,169.233 181.403,169.463 181.316 C 169.692 181.229,169.842 181.120,169.797 181.075 C 169.751 181.029,170.041 180.651,170.440 180.234 C 170.840 179.817,171.176 179.369,171.188 179.238 C 171.199 179.107,171.218 178.919,171.229 178.820 C 171.241 178.721,171.381 178.544,171.542 178.427 C 171.702 178.309,171.833 178.034,171.833 177.814 C 171.833 177.594,171.918 177.152,172.021 176.832 C 172.274 176.046,172.335 174.796,172.133 174.547 C 172.042 174.436,171.931 173.873,171.886 173.297 C 171.841 172.721,171.704 172.137,171.582 172.000 C 171.459 171.862,171.307 171.539,171.242 171.282 C 171.063 170.563,168.575 168.108,168.142 168.222 C 167.900 168.285,167.773 168.221,167.717 168.008 C 167.654 167.765,166.566 167.395,166.207 167.495 C 166.183 167.501,165.950 167.397,165.690 167.262 C 165.429 167.127,165.074 167.011,164.900 167.003 C 164.726 166.995,164.171 166.959,163.667 166.922 C 163.162 166.885,162.525 166.917,162.250 166.994 M227.788 171.167 C 227.555 171.350,227.314 171.500,227.252 171.500 C 227.022 171.500,225.667 172.984,225.667 173.237 C 225.667 173.522,226.572 173.622,226.736 173.355 C 226.786 173.276,227.109 173.165,227.455 173.110 C 228.204 172.990,229.435 171.272,228.979 170.984 C 228.613 170.752,228.243 170.809,227.788 171.167 " stroke="none" fill="#04bcac" fill-rule="evenodd"></path><path id="path1" d="M119.738 107.321 C 119.181 107.388,118.638 107.498,118.531 107.564 C 118.423 107.631,117.004 107.750,115.376 107.829 C 113.748 107.908,112.192 108.053,111.917 108.150 C 111.642 108.248,110.655 108.398,109.724 108.483 C 108.793 108.568,107.879 108.720,107.693 108.819 C 107.507 108.919,106.772 109.081,106.059 109.181 C 105.347 109.280,104.573 109.457,104.340 109.574 C 104.107 109.692,103.467 109.830,102.917 109.881 C 102.367 109.932,101.602 110.130,101.216 110.320 C 100.831 110.511,100.284 110.667,100.000 110.667 C 99.716 110.667,99.281 110.769,99.033 110.893 C 98.786 111.018,98.293 111.165,97.938 111.219 C 97.583 111.274,97.162 111.437,97.002 111.581 C 96.843 111.725,96.309 111.910,95.815 111.991 C 95.321 112.072,94.692 112.257,94.417 112.402 C 94.142 112.546,93.752 112.665,93.552 112.666 C 93.351 112.666,93.143 112.737,93.090 112.822 C 93.037 112.908,92.572 113.101,92.057 113.251 C 91.542 113.400,91.013 113.630,90.881 113.761 C 90.750 113.893,90.437 114.000,90.186 114.000 C 89.935 114.000,89.584 114.131,89.406 114.292 C 89.229 114.452,88.935 114.609,88.754 114.641 C 88.572 114.673,88.144 114.842,87.802 115.016 C 87.460 115.191,87.089 115.333,86.978 115.333 C 86.867 115.333,86.658 115.433,86.513 115.556 C 86.368 115.678,85.987 115.881,85.667 116.006 C 85.346 116.132,84.658 116.482,84.139 116.784 C 83.619 117.086,83.087 117.333,82.956 117.333 C 82.825 117.333,82.548 117.480,82.342 117.659 C 82.135 117.839,81.711 118.070,81.400 118.172 C 81.088 118.275,80.833 118.428,80.833 118.513 C 80.833 118.597,80.693 118.667,80.522 118.667 C 80.352 118.667,80.027 118.812,79.801 118.990 C 79.575 119.167,79.189 119.363,78.943 119.425 C 78.697 119.487,78.440 119.624,78.373 119.730 C 78.305 119.837,78.063 120.015,77.833 120.127 C 77.378 120.350,77.219 120.448,75.805 121.375 C 75.281 121.719,74.784 122.000,74.702 122.000 C 74.619 122.000,74.418 122.148,74.254 122.329 C 74.090 122.510,73.797 122.708,73.603 122.769 C 73.409 122.829,73.025 123.057,72.750 123.275 C 72.026 123.849,72.008 123.862,70.958 124.553 C 70.431 124.900,70.000 125.238,70.000 125.303 C 70.000 125.368,69.831 125.498,69.625 125.592 C 69.419 125.685,69.269 125.853,69.292 125.964 C 69.315 126.076,69.216 126.167,69.074 126.167 C 68.754 126.167,67.273 127.302,65.845 128.641 C 65.518 128.948,65.081 129.313,64.875 129.452 C 64.669 129.591,64.500 129.809,64.500 129.936 C 64.500 130.063,64.420 130.167,64.322 130.167 C 64.067 130.167,63.021 130.955,62.292 131.698 C 61.948 132.047,61.590 132.333,61.496 132.333 C 61.402 132.333,61.254 132.521,61.166 132.751 C 61.079 132.981,60.949 133.152,60.879 133.130 C 60.698 133.076,59.833 133.915,59.833 134.144 C 59.833 134.248,59.735 134.333,59.615 134.333 C 59.345 134.333,58.500 135.194,58.500 135.467 C 58.500 135.577,58.410 135.667,58.300 135.667 C 58.087 135.667,56.500 137.283,56.500 137.500 C 56.500 137.570,56.313 137.751,56.083 137.901 C 55.854 138.051,55.667 138.248,55.667 138.337 C 55.667 138.427,55.535 138.638,55.375 138.806 C 55.084 139.112,53.248 141.177,52.546 141.988 C 52.343 142.224,52.078 142.529,51.958 142.667 C 51.838 142.804,51.517 143.254,51.245 143.667 C 50.973 144.079,50.619 144.515,50.458 144.634 C 50.298 144.754,50.167 144.963,50.167 145.098 C 50.167 145.233,50.061 145.384,49.932 145.434 C 49.803 145.483,49.606 145.744,49.495 146.012 C 49.384 146.280,49.228 146.500,49.150 146.500 C 49.071 146.500,48.961 146.682,48.905 146.905 C 48.849 147.127,48.703 147.348,48.581 147.395 C 48.459 147.441,48.236 147.738,48.086 148.055 C 47.936 148.371,47.593 148.876,47.323 149.178 C 47.054 149.480,46.833 149.817,46.833 149.926 C 46.833 150.036,46.729 150.212,46.603 150.317 C 46.476 150.423,46.121 150.999,45.814 151.597 C 45.507 152.196,45.123 152.805,44.961 152.952 C 44.799 153.098,44.667 153.352,44.667 153.516 C 44.667 153.680,44.593 153.859,44.503 153.915 C 44.412 153.971,44.163 154.369,43.948 154.800 C 43.401 155.898,42.504 157.543,42.342 157.746 C 42.267 157.840,42.153 158.160,42.089 158.458 C 42.026 158.756,41.910 159.000,41.831 159.000 C 41.705 159.000,41.432 159.619,41.463 159.833 C 41.470 159.879,41.332 160.149,41.157 160.433 C 40.981 160.717,40.887 160.998,40.947 161.058 C 41.007 161.118,40.979 161.167,40.886 161.167 C 40.793 161.167,40.582 161.485,40.416 161.875 C 40.100 162.620,39.448 164.067,38.854 165.344 C 38.659 165.763,38.500 166.227,38.500 166.376 C 38.500 166.525,38.427 166.692,38.338 166.747 C 38.249 166.802,38.093 167.163,37.993 167.549 C 37.892 167.934,37.665 168.555,37.488 168.928 C 37.311 169.300,37.167 169.735,37.167 169.894 C 37.167 170.053,37.063 170.386,36.936 170.633 C 36.810 170.881,36.653 171.402,36.589 171.791 C 36.524 172.180,36.407 172.538,36.329 172.586 C 36.252 172.634,36.063 173.234,35.910 173.921 C 35.758 174.607,35.566 175.209,35.483 175.260 C 35.401 175.311,35.333 175.510,35.333 175.702 C 35.333 176.134,34.570 179.454,34.211 180.583 C 34.065 181.042,33.912 182.054,33.872 182.833 C 33.831 183.612,33.663 184.662,33.500 185.167 C 33.336 185.671,33.148 186.907,33.082 187.913 C 33.017 188.920,32.897 189.916,32.817 190.127 C 32.062 192.113,32.063 208.894,32.818 210.306 C 32.903 210.464,33.023 211.417,33.083 212.422 C 33.144 213.427,33.331 214.700,33.500 215.250 C 33.668 215.800,33.844 216.887,33.892 217.667 C 33.939 218.446,34.088 219.346,34.223 219.667 C 34.358 219.987,34.511 220.625,34.563 221.083 C 34.615 221.542,34.810 222.346,34.996 222.871 C 35.181 223.396,35.333 224.073,35.333 224.375 C 35.333 224.678,35.435 225.074,35.559 225.255 C 35.683 225.435,35.825 225.898,35.875 226.282 C 35.925 226.666,36.087 227.224,36.236 227.522 C 36.385 227.820,36.551 228.368,36.606 228.740 C 36.661 229.112,36.798 229.567,36.911 229.750 C 37.024 229.933,37.166 230.350,37.226 230.676 C 37.287 231.002,37.486 231.562,37.668 231.920 C 37.851 232.278,38.000 232.690,38.000 232.837 C 38.000 232.983,38.110 233.249,38.245 233.426 C 38.379 233.604,38.492 233.848,38.495 233.969 C 38.500 234.207,39.153 235.719,39.673 236.700 C 39.853 237.039,40.000 237.426,40.000 237.559 C 40.000 237.840,40.788 239.453,41.120 239.852 C 41.243 240.000,41.378 240.300,41.420 240.519 C 41.462 240.738,41.600 240.993,41.726 241.086 C 41.853 241.179,42.013 241.515,42.083 241.833 C 42.153 242.152,42.310 242.488,42.431 242.581 C 42.553 242.674,42.691 242.971,42.738 243.240 C 42.785 243.510,42.932 243.792,43.065 243.866 C 43.198 243.941,43.358 244.232,43.419 244.512 C 43.481 244.793,43.629 245.060,43.749 245.106 C 43.869 245.152,44.016 245.451,44.076 245.770 C 44.136 246.090,44.287 246.390,44.411 246.437 C 44.535 246.485,44.682 246.705,44.737 246.926 C 44.864 247.432,46.037 249.163,46.189 249.069 C 46.251 249.031,46.267 249.134,46.224 249.298 C 46.180 249.467,46.295 249.731,46.490 249.907 C 46.679 250.078,46.833 250.312,46.833 250.428 C 46.833 250.543,47.133 251.016,47.500 251.480 C 47.867 251.944,48.167 252.389,48.167 252.469 C 48.167 252.549,48.315 252.749,48.496 252.913 C 48.677 253.077,48.870 253.353,48.925 253.527 C 48.980 253.700,49.282 254.122,49.596 254.463 C 49.910 254.804,50.216 255.233,50.274 255.417 C 50.333 255.600,50.520 255.848,50.691 255.968 C 50.861 256.088,51.000 256.259,51.000 256.348 C 51.000 256.438,51.244 256.760,51.542 257.064 C 51.840 257.368,52.196 257.808,52.333 258.043 C 52.471 258.278,53.017 258.945,53.547 259.527 C 55.359 261.515,55.667 261.864,55.667 261.938 C 55.667 262.150,60.699 267.254,62.383 268.750 C 63.518 269.758,64.860 270.968,65.347 271.421 C 65.493 271.556,65.672 271.667,65.747 271.667 C 65.821 271.667,66.235 271.985,66.667 272.375 C 68.321 273.868,70.871 275.833,71.154 275.833 C 71.253 275.833,71.333 275.901,71.333 275.984 C 71.333 276.115,71.813 276.464,72.864 277.098 C 73.029 277.198,73.302 277.404,73.470 277.556 C 73.639 277.709,73.832 277.833,73.899 277.833 C 73.967 277.833,74.268 278.021,74.569 278.250 C 74.869 278.479,75.201 278.667,75.307 278.667 C 75.413 278.667,75.500 278.734,75.500 278.815 C 75.500 278.897,75.705 279.015,75.957 279.078 C 76.208 279.142,76.452 279.246,76.498 279.310 C 76.678 279.557,78.075 280.500,78.262 280.500 C 78.371 280.500,78.549 280.609,78.660 280.741 C 78.770 280.874,79.135 281.072,79.472 281.182 C 79.808 281.291,80.140 281.477,80.209 281.594 C 80.279 281.711,80.555 281.855,80.823 281.914 C 81.091 281.973,81.396 282.125,81.502 282.252 C 81.607 282.379,81.950 282.568,82.263 282.671 C 82.577 282.775,82.833 282.927,82.833 283.011 C 82.833 283.094,83.136 283.211,83.506 283.270 C 83.912 283.335,84.245 283.501,84.345 283.689 C 84.437 283.860,84.685 284.000,84.897 284.000 C 85.109 284.000,85.455 284.150,85.667 284.333 C 85.878 284.517,86.210 284.667,86.405 284.667 C 86.600 284.667,86.888 284.817,87.045 285.000 C 87.203 285.185,87.536 285.333,87.795 285.333 C 88.053 285.333,88.386 285.481,88.545 285.667 C 88.707 285.857,89.036 286.000,89.309 286.000 C 89.573 286.000,89.979 286.150,90.212 286.333 C 90.445 286.517,90.830 286.667,91.068 286.667 C 91.306 286.667,91.639 286.805,91.808 286.975 C 91.977 287.144,92.409 287.330,92.766 287.387 C 93.124 287.445,93.714 287.644,94.077 287.829 C 94.440 288.015,94.874 288.167,95.041 288.167 C 95.208 288.167,95.511 288.272,95.714 288.400 C 95.917 288.529,96.346 288.683,96.667 288.743 C 96.987 288.804,97.400 288.914,97.583 288.989 C 98.673 289.434,98.884 289.500,99.223 289.500 C 99.428 289.500,99.890 289.650,100.250 289.833 C 100.610 290.017,101.180 290.167,101.517 290.167 C 101.854 290.167,102.457 290.315,102.857 290.496 C 103.256 290.678,103.921 290.830,104.333 290.835 C 104.746 290.840,105.383 290.990,105.750 291.167 C 106.196 291.382,106.780 291.491,107.516 291.494 C 108.200 291.498,108.827 291.605,109.175 291.779 C 109.571 291.977,110.289 292.075,111.635 292.117 C 112.928 292.157,113.817 292.275,114.415 292.485 C 115.141 292.740,115.920 292.805,118.856 292.853 C 126.590 292.980,128.726 292.909,129.494 292.503 C 129.818 292.331,130.308 292.147,130.583 292.092 C 131.433 291.925,131.498 291.902,131.702 291.698 C 131.811 291.589,132.020 291.500,132.168 291.500 C 132.315 291.500,132.689 291.313,133.000 291.083 C 133.311 290.854,133.623 290.667,133.694 290.667 C 133.899 290.667,135.333 289.617,135.333 289.468 C 135.333 289.394,135.417 289.333,135.520 289.333 C 135.770 289.333,138.667 286.367,138.667 286.111 C 138.667 286.050,138.784 285.869,138.928 285.708 C 139.470 285.102,140.161 283.903,140.164 283.562 C 140.165 283.367,140.271 283.121,140.399 283.014 C 140.527 282.908,140.680 282.565,140.739 282.251 C 140.798 281.938,140.984 281.359,141.153 280.965 C 142.151 278.639,141.539 270.495,140.308 269.734 C 140.230 269.686,140.167 269.477,140.167 269.270 C 140.167 269.062,139.944 268.598,139.671 268.238 C 139.399 267.878,139.174 267.518,139.171 267.439 C 139.165 267.240,137.614 265.335,137.458 265.334 C 137.390 265.334,137.333 265.221,137.333 265.083 C 137.333 264.946,137.240 264.833,137.125 264.832 C 137.010 264.831,136.654 264.532,136.333 264.167 C 136.012 263.802,135.656 263.503,135.542 263.502 C 135.427 263.501,135.333 263.429,135.333 263.342 C 135.333 263.168,133.643 262.000,133.390 262.000 C 133.303 262.000,132.977 261.812,132.667 261.583 C 132.356 261.354,131.901 261.167,131.655 261.167 C 131.409 261.167,131.114 261.054,131.000 260.917 C 130.886 260.779,130.567 260.667,130.291 260.667 C 130.015 260.667,129.525 260.503,129.201 260.303 C 128.655 259.966,128.361 259.935,125.015 259.876 C 123.036 259.841,121.229 259.746,121.000 259.666 C 120.771 259.585,119.346 259.430,117.833 259.322 C 116.073 259.197,114.993 259.048,114.833 258.909 C 114.696 258.790,114.031 258.646,113.356 258.588 C 112.681 258.530,111.969 258.381,111.773 258.257 C 111.577 258.133,110.948 257.992,110.374 257.943 C 109.773 257.893,109.226 257.749,109.081 257.604 C 108.942 257.466,108.474 257.303,108.040 257.242 C 107.605 257.181,107.099 257.036,106.914 256.920 C 106.730 256.805,106.318 256.653,106.000 256.583 C 105.682 256.513,105.270 256.359,105.086 256.239 C 104.901 256.119,104.394 255.933,103.958 255.824 C 103.523 255.716,103.167 255.568,103.167 255.495 C 103.167 255.422,102.854 255.310,102.472 255.245 C 102.090 255.181,101.626 254.987,101.441 254.814 C 101.255 254.641,100.987 254.500,100.844 254.499 C 100.700 254.498,100.358 254.349,100.083 254.167 C 99.808 253.985,99.426 253.835,99.234 253.834 C 99.042 253.834,98.749 253.683,98.583 253.500 C 98.417 253.317,98.109 253.167,97.897 253.167 C 97.686 253.167,97.366 253.009,97.186 252.815 C 97.006 252.622,96.760 252.497,96.641 252.536 C 96.521 252.576,96.235 252.434,96.005 252.221 C 95.775 252.008,95.466 251.833,95.319 251.833 C 95.172 251.833,94.916 251.683,94.750 251.500 C 94.584 251.317,94.313 251.167,94.147 251.167 C 93.981 251.167,93.765 251.017,93.667 250.833 C 93.569 250.650,93.355 250.500,93.191 250.500 C 93.028 250.500,92.599 250.233,92.239 249.906 C 91.878 249.580,91.321 249.174,91.000 249.004 C 90.679 248.835,90.178 248.483,89.885 248.223 C 89.593 247.963,89.148 247.600,88.896 247.417 C 88.644 247.233,88.235 246.915,87.987 246.708 C 87.738 246.502,87.496 246.333,87.448 246.333 C 87.400 246.333,87.048 246.033,86.667 245.667 C 86.285 245.300,85.866 245.000,85.736 245.000 C 85.606 245.000,85.500 244.933,85.500 244.850 C 85.500 244.607,84.610 243.667,84.380 243.667 C 84.262 243.667,84.167 243.554,84.167 243.417 C 84.167 243.279,84.059 243.167,83.928 243.167 C 83.797 243.167,83.643 243.021,83.586 242.842 C 83.529 242.663,83.346 242.473,83.178 242.420 C 83.010 242.367,82.732 242.134,82.561 241.902 C 82.390 241.671,81.631 240.846,80.875 240.070 C 80.119 239.294,79.500 238.589,79.500 238.504 C 79.500 238.419,79.402 238.290,79.283 238.217 C 79.163 238.143,78.632 237.502,78.101 236.792 C 77.571 236.081,77.069 235.500,76.985 235.500 C 76.902 235.500,76.832 235.406,76.830 235.292 C 76.827 235.093,76.152 234.015,75.705 233.496 C 75.002 232.678,74.833 232.417,74.833 232.143 C 74.833 231.974,74.683 231.742,74.500 231.628 C 74.317 231.513,74.167 231.303,74.167 231.160 C 74.167 231.017,74.099 230.829,74.016 230.742 C 73.820 230.537,73.270 229.565,72.464 228.000 C 72.109 227.313,71.752 226.637,71.669 226.500 C 71.268 225.837,70.667 224.440,70.667 224.173 C 70.667 224.009,70.559 223.785,70.427 223.676 C 70.296 223.566,70.137 223.238,70.075 222.947 C 70.014 222.655,69.869 222.304,69.755 222.167 C 69.641 222.029,69.457 221.549,69.348 221.099 C 69.238 220.649,69.040 220.126,68.908 219.937 C 68.775 219.747,68.667 219.421,68.667 219.212 C 68.667 219.003,68.517 218.552,68.333 218.210 C 68.150 217.868,68.000 217.341,68.000 217.038 C 68.000 216.736,67.896 216.322,67.769 216.119 C 67.642 215.916,67.488 215.344,67.426 214.848 C 67.365 214.351,67.169 213.643,66.991 213.275 C 66.812 212.906,66.665 212.299,66.663 211.927 C 66.661 211.555,66.578 210.950,66.478 210.583 C 66.379 210.217,66.197 208.829,66.073 207.500 C 65.949 206.171,65.764 204.748,65.662 204.339 C 65.391 203.248,65.449 196.737,65.742 195.535 C 65.869 195.012,66.023 193.685,66.084 192.587 C 66.145 191.489,66.265 190.462,66.349 190.303 C 66.434 190.145,66.546 189.543,66.599 188.966 C 66.652 188.389,66.836 187.542,67.008 187.083 C 67.180 186.625,67.361 185.889,67.409 185.448 C 67.456 185.007,67.609 184.484,67.748 184.286 C 67.887 184.088,68.000 183.694,68.000 183.411 C 68.000 183.128,68.150 182.585,68.333 182.206 C 68.517 181.827,68.667 181.344,68.668 181.133 C 68.668 180.922,68.818 180.525,69.000 180.250 C 69.182 179.975,69.332 179.599,69.332 179.414 C 69.333 179.230,69.473 178.817,69.644 178.498 C 69.816 178.178,70.008 177.678,70.072 177.387 C 70.136 177.095,70.291 176.771,70.417 176.667 C 70.542 176.562,70.690 176.272,70.745 176.021 C 70.856 175.517,71.460 174.268,71.890 173.655 C 72.042 173.437,72.167 173.100,72.167 172.905 C 72.167 172.711,72.317 172.416,72.500 172.250 C 72.683 172.084,72.833 171.814,72.833 171.651 C 72.833 171.487,72.915 171.303,73.014 171.241 C 73.113 171.180,73.335 170.801,73.508 170.398 C 73.680 169.996,73.899 169.667,73.994 169.667 C 74.089 169.667,74.167 169.528,74.167 169.359 C 74.167 169.190,74.319 168.914,74.506 168.745 C 74.692 168.576,74.808 168.341,74.763 168.223 C 74.718 168.105,74.774 167.951,74.887 167.879 C 75.191 167.689,76.167 166.302,76.167 166.060 C 76.167 165.946,76.306 165.754,76.476 165.634 C 76.752 165.441,77.255 164.789,78.126 163.500 C 78.280 163.271,78.721 162.746,79.105 162.333 C 79.489 161.921,80.104 161.208,80.470 160.750 C 81.363 159.633,85.565 155.502,85.810 155.499 C 85.869 155.498,86.404 155.049,87.000 154.500 C 87.596 153.951,88.133 153.502,88.194 153.501 C 88.255 153.501,88.630 153.202,89.027 152.838 C 89.425 152.474,89.846 152.174,89.964 152.171 C 90.081 152.169,90.220 152.054,90.273 151.917 C 90.326 151.779,90.460 151.667,90.572 151.667 C 90.684 151.667,90.945 151.486,91.153 151.264 C 91.361 151.043,91.712 150.816,91.932 150.761 C 92.153 150.706,92.333 150.594,92.333 150.513 C 92.333 150.431,92.690 150.161,93.125 149.911 C 93.560 149.661,94.298 149.208,94.763 148.905 C 95.228 148.602,95.922 148.228,96.305 148.075 C 96.687 147.922,97.000 147.730,97.000 147.649 C 97.000 147.567,97.131 147.498,97.292 147.496 C 97.452 147.494,97.771 147.346,98.000 147.167 C 98.229 146.987,98.487 146.839,98.572 146.837 C 98.658 146.835,99.033 146.693,99.406 146.522 C 99.778 146.350,100.327 146.116,100.625 146.002 C 100.923 145.887,101.167 145.737,101.167 145.668 C 101.167 145.599,101.457 145.496,101.812 145.439 C 102.166 145.383,102.551 145.223,102.665 145.085 C 102.780 144.947,102.991 144.833,103.134 144.833 C 103.523 144.833,104.500 144.452,104.500 144.300 C 104.500 144.227,104.706 144.166,104.958 144.166 C 105.210 144.166,105.642 144.028,105.917 143.861 C 106.192 143.693,106.754 143.502,107.167 143.436 C 107.579 143.370,108.079 143.210,108.277 143.081 C 108.475 142.951,109.029 142.807,109.509 142.760 C 109.989 142.713,110.508 142.560,110.662 142.421 C 110.818 142.280,111.415 142.124,112.013 142.070 C 112.601 142.016,113.421 141.871,113.833 141.747 C 114.246 141.623,115.476 141.409,116.567 141.272 C 117.657 141.135,118.595 140.949,118.651 140.859 C 118.711 140.761,120.470 140.673,123.017 140.639 C 126.369 140.595,127.343 140.533,127.564 140.350 C 127.726 140.215,128.381 140.081,129.102 140.035 C 130.091 139.972,130.400 139.888,130.553 139.644 C 130.671 139.455,130.943 139.332,131.248 139.330 C 131.524 139.328,131.938 139.179,132.167 139.000 C 132.396 138.821,132.700 138.672,132.844 138.670 C 132.987 138.668,133.265 138.517,133.462 138.333 C 133.658 138.150,133.898 138.000,133.993 138.000 C 134.089 138.000,134.167 137.912,134.167 137.806 C 134.167 137.699,134.213 137.658,134.271 137.715 C 134.535 137.979,137.855 134.999,138.332 134.069 C 138.469 133.802,138.743 133.433,138.940 133.250 C 139.247 132.965,139.522 132.487,140.342 130.815 C 141.864 127.711,142.135 122.015,140.918 118.667 C 140.668 117.979,140.397 117.392,140.315 117.361 C 140.233 117.331,140.167 117.117,140.167 116.887 C 140.167 116.657,140.019 116.260,139.837 116.006 C 139.656 115.752,139.433 115.346,139.342 115.105 C 139.250 114.864,139.103 114.667,139.015 114.667 C 138.928 114.667,138.807 114.512,138.746 114.322 C 138.600 113.861,135.407 110.667,135.093 110.667 C 134.956 110.667,134.765 110.518,134.668 110.335 C 134.570 110.153,134.305 109.957,134.079 109.901 C 133.852 109.844,133.667 109.739,133.667 109.669 C 133.667 109.598,133.423 109.443,133.125 109.323 C 132.827 109.204,132.415 108.978,132.210 108.822 C 132.004 108.665,131.558 108.485,131.218 108.422 C 130.878 108.358,130.449 108.199,130.263 108.070 C 130.078 107.940,129.603 107.833,129.208 107.833 C 128.813 107.833,128.210 107.707,127.870 107.552 C 127.180 107.239,121.692 107.083,119.738 107.321 M235.583 168.333 C 235.527 168.425,234.931 168.500,234.261 168.500 C 233.418 168.500,232.981 168.572,232.847 168.734 C 232.740 168.862,232.471 169.013,232.247 169.069 C 231.156 169.343,228.961 171.350,228.725 172.289 C 228.673 172.497,228.576 172.667,228.509 172.667 C 228.309 172.667,228.000 173.479,228.000 174.004 C 228.000 174.273,227.880 174.794,227.733 175.161 C 227.563 175.586,227.498 176.085,227.554 176.539 C 227.720 177.866,228.082 179.269,228.375 179.713 C 228.535 179.956,228.667 180.216,228.667 180.292 C 228.667 180.674,231.383 183.500,231.751 183.500 C 231.860 183.500,232.078 183.643,232.236 183.818 C 232.395 183.993,232.719 184.186,232.957 184.245 C 233.196 184.305,233.575 184.499,233.801 184.677 C 234.027 184.855,234.342 185.000,234.502 185.000 C 234.662 185.000,234.882 185.108,234.991 185.239 C 235.100 185.371,235.428 185.530,235.720 185.593 C 236.011 185.656,236.456 185.854,236.707 186.031 C 236.959 186.209,237.230 186.314,237.310 186.264 C 237.390 186.215,237.586 186.319,237.745 186.494 C 237.904 186.670,238.261 186.864,238.538 186.925 C 238.815 186.986,239.296 187.186,239.607 187.370 C 239.919 187.553,240.319 187.666,240.498 187.619 C 240.717 187.562,240.854 187.636,240.922 187.850 C 240.989 188.061,241.239 188.201,241.675 188.271 C 242.033 188.328,242.411 188.476,242.514 188.600 C 242.616 188.723,242.955 188.872,243.267 188.931 C 243.578 188.989,243.833 189.092,243.833 189.158 C 243.833 189.328,244.616 189.667,245.008 189.667 C 245.187 189.667,245.333 189.736,245.333 189.821 C 245.333 190.021,246.293 190.500,246.692 190.500 C 246.862 190.500,247.000 190.569,247.000 190.654 C 247.000 190.738,247.281 190.898,247.625 191.008 C 247.969 191.119,248.362 191.303,248.500 191.418 C 248.637 191.533,248.938 191.684,249.167 191.753 C 249.396 191.822,249.762 192.019,249.981 192.190 C 250.199 192.360,250.546 192.500,250.752 192.500 C 250.958 192.500,251.219 192.612,251.333 192.750 C 251.447 192.887,251.672 193.000,251.831 193.000 C 251.991 193.000,252.306 193.145,252.532 193.323 C 252.758 193.501,253.162 193.698,253.430 193.762 C 253.698 193.826,254.043 193.988,254.198 194.122 C 254.352 194.256,254.550 194.322,254.636 194.269 C 254.723 194.215,255.067 194.357,255.401 194.584 C 255.735 194.810,256.213 195.044,256.463 195.104 C 256.712 195.163,257.029 195.308,257.167 195.426 C 257.304 195.544,257.641 195.697,257.915 195.765 C 258.189 195.834,258.513 195.989,258.635 196.111 C 258.757 196.233,258.987 196.333,259.146 196.333 C 259.305 196.333,259.689 196.521,260.000 196.750 C 260.311 196.979,260.729 197.167,260.929 197.167 C 261.129 197.167,261.386 197.279,261.500 197.417 C 261.614 197.554,261.800 197.667,261.912 197.667 C 262.025 197.667,262.470 197.854,262.901 198.083 C 263.332 198.313,263.856 198.500,264.066 198.500 C 264.276 198.500,264.583 198.649,264.747 198.830 C 264.911 199.012,265.293 199.206,265.595 199.263 C 265.897 199.320,266.180 199.462,266.225 199.579 C 266.270 199.696,266.580 199.843,266.914 199.905 C 267.899 200.090,267.619 200.350,265.302 201.403 C 264.781 201.640,264.284 201.833,264.198 201.833 C 264.111 201.833,263.951 201.941,263.842 202.073 C 263.733 202.204,263.405 202.363,263.113 202.425 C 262.822 202.486,262.451 202.654,262.290 202.796 C 262.128 202.939,261.792 203.077,261.543 203.104 C 261.293 203.130,261.008 203.263,260.909 203.398 C 260.810 203.534,260.509 203.697,260.240 203.761 C 259.970 203.826,259.637 203.972,259.500 204.087 C 259.362 204.202,259.001 204.349,258.697 204.414 C 258.393 204.479,258.104 204.635,258.056 204.761 C 258.007 204.888,257.703 205.041,257.379 205.101 C 257.033 205.166,256.760 205.327,256.717 205.492 C 256.664 205.694,256.512 205.753,256.172 205.703 C 255.853 205.656,255.591 205.742,255.367 205.967 C 255.184 206.150,254.806 206.349,254.528 206.410 C 254.250 206.471,253.940 206.621,253.839 206.743 C 253.738 206.865,253.402 207.012,253.094 207.070 C 252.786 207.128,252.442 207.286,252.330 207.421 C 252.218 207.556,252.052 207.667,251.962 207.667 C 251.872 207.667,251.425 207.854,250.969 208.083 C 250.513 208.313,250.033 208.500,249.903 208.500 C 249.773 208.500,249.528 208.638,249.359 208.807 C 249.190 208.976,248.803 209.164,248.499 209.225 C 248.195 209.286,247.849 209.475,247.729 209.646 C 247.589 209.846,247.375 209.930,247.126 209.882 C 246.878 209.835,246.629 209.932,246.428 210.154 C 246.256 210.344,245.932 210.500,245.708 210.500 C 245.485 210.500,245.102 210.641,244.859 210.813 C 244.616 210.985,244.179 211.177,243.889 211.239 C 243.599 211.302,243.324 211.451,243.278 211.570 C 243.233 211.689,242.897 211.834,242.532 211.892 C 242.168 211.950,241.826 212.111,241.773 212.249 C 241.720 212.387,241.487 212.500,241.255 212.500 C 241.023 212.500,240.683 212.650,240.500 212.833 C 240.317 213.017,239.980 213.167,239.751 213.167 C 239.517 213.167,239.246 213.312,239.128 213.500 C 239.013 213.683,238.760 213.833,238.566 213.833 C 238.371 213.833,238.021 213.983,237.788 214.167 C 237.555 214.350,237.211 214.500,237.023 214.500 C 236.835 214.500,236.405 214.688,236.067 214.917 C 235.730 215.146,235.326 215.333,235.169 215.333 C 235.013 215.333,234.749 215.483,234.583 215.667 C 234.417 215.850,234.112 216.000,233.904 216.000 C 233.367 216.000,233.000 216.168,233.000 216.414 C 233.000 216.530,232.784 216.668,232.520 216.721 C 232.256 216.774,231.934 216.923,231.804 217.053 C 231.674 217.183,231.403 217.342,231.201 217.406 C 230.999 217.470,230.833 217.630,230.833 217.761 C 230.833 217.893,230.755 218.000,230.658 218.000 C 230.419 218.000,229.333 219.072,229.333 219.309 C 229.333 219.414,229.257 219.500,229.163 219.500 C 229.069 219.500,228.905 219.706,228.798 219.958 C 228.690 220.210,228.499 220.541,228.372 220.694 C 228.146 220.965,227.730 222.490,227.557 223.680 C 227.509 224.008,227.590 224.678,227.735 225.169 C 227.881 225.659,228.000 226.316,228.000 226.629 C 228.000 226.945,228.148 227.386,228.333 227.621 C 228.517 227.854,228.667 228.150,228.667 228.279 C 228.667 228.408,228.967 228.816,229.333 229.186 C 229.700 229.557,230.000 229.926,230.000 230.007 C 230.000 230.089,230.167 230.244,230.372 230.354 C 230.576 230.463,230.844 230.653,230.967 230.776 C 231.090 230.899,231.286 231.000,231.403 231.000 C 231.519 231.000,231.747 231.146,231.908 231.324 C 232.069 231.502,232.437 231.695,232.726 231.753 C 233.014 231.811,233.512 231.980,233.833 232.129 C 234.641 232.505,237.868 232.511,238.583 232.139 C 238.858 231.996,239.409 231.838,239.808 231.787 C 240.207 231.736,240.699 231.538,240.902 231.347 C 241.105 231.156,241.426 231.000,241.615 231.000 C 241.804 231.000,242.053 230.887,242.167 230.750 C 242.281 230.612,242.509 230.500,242.674 230.500 C 242.839 230.500,243.197 230.313,243.470 230.083 C 243.742 229.854,244.151 229.667,244.379 229.667 C 244.606 229.667,244.882 229.559,244.991 229.427 C 245.100 229.296,245.428 229.136,245.720 229.072 C 246.011 229.009,246.429 228.816,246.647 228.645 C 246.866 228.474,247.175 228.333,247.333 228.333 C 247.492 228.333,247.812 228.183,248.045 228.000 C 248.279 227.817,248.617 227.667,248.798 227.667 C 248.978 227.667,249.209 227.566,249.311 227.444 C 249.413 227.321,249.788 227.133,250.145 227.026 C 250.502 226.919,250.887 226.720,251.001 226.583 C 251.114 226.445,251.353 226.333,251.532 226.333 C 251.710 226.333,252.101 226.146,252.402 225.917 C 252.702 225.688,253.029 225.500,253.127 225.500 C 253.280 225.500,253.699 225.300,255.167 224.525 C 256.502 223.821,257.208 223.500,257.422 223.500 C 257.562 223.500,257.720 223.387,257.773 223.250 C 257.826 223.112,258.038 223.000,258.245 223.000 C 258.452 223.000,258.821 222.844,259.063 222.653 C 259.306 222.461,259.767 222.233,260.086 222.145 C 260.405 222.056,260.667 221.913,260.667 221.825 C 260.667 221.738,260.854 221.667,261.083 221.667 C 261.313 221.667,261.642 221.524,261.816 221.350 C 261.990 221.176,262.369 220.982,262.658 220.919 C 262.946 220.855,263.270 220.663,263.378 220.491 C 263.510 220.279,263.691 220.208,263.942 220.271 C 264.191 220.334,264.407 220.251,264.609 220.015 C 264.773 219.824,265.068 219.667,265.265 219.667 C 265.461 219.667,265.806 219.521,266.032 219.344 C 266.258 219.166,266.640 218.971,266.881 218.911 C 267.122 218.850,267.407 218.695,267.514 218.567 C 267.620 218.438,267.771 218.333,267.849 218.333 C 267.927 218.333,268.400 218.146,268.901 217.917 C 269.402 217.688,269.861 217.500,269.921 217.500 C 269.982 217.500,270.221 217.350,270.455 217.167 C 270.688 216.983,271.008 216.833,271.167 216.833 C 271.325 216.833,271.646 216.683,271.879 216.500 C 272.112 216.317,272.459 216.167,272.651 216.167 C 272.843 216.167,273.150 216.017,273.333 215.833 C 273.517 215.650,273.807 215.500,273.978 215.500 C 274.148 215.500,274.467 215.360,274.686 215.188 C 274.904 215.017,275.332 214.822,275.636 214.756 C 275.940 214.690,276.230 214.530,276.279 214.401 C 276.329 214.272,276.538 214.167,276.745 214.167 C 276.952 214.167,277.312 214.017,277.545 213.833 C 277.779 213.650,278.079 213.500,278.212 213.500 C 278.346 213.500,278.646 213.350,278.879 213.167 C 279.112 212.983,279.412 212.833,279.545 212.833 C 279.679 212.833,279.967 212.693,280.186 212.522 C 280.404 212.350,280.832 212.156,281.136 212.089 C 281.440 212.023,281.730 211.863,281.779 211.734 C 281.829 211.605,281.992 211.499,282.143 211.498 C 282.293 211.496,282.604 211.389,282.833 211.260 C 283.063 211.131,283.569 210.874,283.958 210.689 C 284.348 210.504,284.667 210.273,284.667 210.176 C 284.667 210.079,284.880 210.000,285.141 210.000 C 285.403 210.000,285.750 209.851,285.917 209.667 C 286.083 209.483,286.401 209.333,286.625 209.333 C 286.848 209.333,287.221 209.183,287.455 209.000 C 287.688 208.817,288.007 208.667,288.163 208.667 C 288.320 208.667,288.584 208.517,288.750 208.333 C 288.916 208.150,289.178 208.000,289.333 208.000 C 289.488 208.000,289.751 207.850,289.917 207.667 C 290.083 207.483,290.348 207.333,290.507 207.333 C 290.902 207.333,293.311 204.895,293.446 204.359 C 293.506 204.121,293.701 203.679,293.879 203.376 C 294.380 202.527,294.359 197.990,293.850 197.155 C 293.658 196.840,293.501 196.466,293.501 196.323 C 293.500 195.986,291.212 193.500,290.903 193.500 C 290.773 193.500,290.667 193.421,290.667 193.325 C 290.667 193.228,290.393 193.035,290.059 192.896 C 289.725 192.756,289.344 192.535,289.214 192.404 C 289.083 192.274,288.864 192.167,288.726 192.167 C 288.589 192.167,288.360 192.050,288.218 191.908 C 288.076 191.766,287.748 191.608,287.488 191.556 C 287.229 191.504,286.889 191.320,286.733 191.148 C 286.576 190.975,286.247 190.833,286.000 190.833 C 285.753 190.833,285.416 190.683,285.250 190.500 C 285.084 190.317,284.738 190.167,284.480 190.167 C 284.182 190.167,283.947 190.045,283.833 189.833 C 283.720 189.621,283.484 189.500,283.187 189.500 C 282.929 189.500,282.583 189.350,282.417 189.167 C 282.251 188.983,281.920 188.833,281.681 188.833 C 281.427 188.833,281.160 188.695,281.039 188.500 C 280.924 188.317,280.700 188.164,280.540 188.161 C 280.221 188.156,278.654 187.411,278.005 186.955 C 277.778 186.797,277.452 186.667,277.281 186.667 C 277.109 186.667,276.779 186.517,276.545 186.333 C 276.312 186.150,275.993 186.000,275.837 186.000 C 275.680 186.000,275.416 185.850,275.250 185.667 C 275.084 185.483,274.803 185.333,274.625 185.333 C 274.448 185.333,274.112 185.183,273.879 185.000 C 273.646 184.817,273.327 184.667,273.170 184.667 C 273.013 184.667,272.749 184.517,272.583 184.333 C 272.417 184.150,272.080 184.000,271.833 184.000 C 271.587 184.000,271.249 183.850,271.083 183.667 C 270.917 183.483,270.586 183.333,270.348 183.333 C 270.094 183.333,269.827 183.195,269.705 183.000 C 269.564 182.774,269.317 182.667,268.935 182.667 C 268.501 182.667,268.351 182.585,268.279 182.311 C 268.210 182.048,268.096 181.980,267.837 182.047 C 267.606 182.108,267.339 182.002,267.053 181.736 C 266.814 181.515,266.446 181.333,266.235 181.333 C 266.025 181.333,265.806 181.257,265.749 181.165 C 265.660 181.021,264.435 180.399,263.115 179.826 C 262.914 179.739,262.637 179.598,262.500 179.514 C 261.953 179.178,260.495 178.500,260.320 178.500 C 260.218 178.500,259.916 178.344,259.648 178.154 C 259.381 177.963,259.069 177.839,258.956 177.879 C 258.843 177.918,258.538 177.774,258.279 177.559 C 258.020 177.343,257.698 177.167,257.564 177.167 C 257.429 177.167,257.158 177.017,256.962 176.833 C 256.765 176.650,256.438 176.500,256.236 176.500 C 256.034 176.500,255.826 176.387,255.773 176.250 C 255.717 176.105,255.468 176.000,255.178 176.000 C 254.853 176.000,254.617 175.886,254.504 175.674 C 254.407 175.493,254.073 175.300,253.754 175.240 C 253.437 175.180,253.096 175.032,252.994 174.910 C 252.893 174.788,252.591 174.640,252.324 174.581 C 252.056 174.522,251.799 174.413,251.753 174.339 C 251.659 174.186,249.786 173.269,249.208 173.092 C 249.002 173.029,248.833 172.908,248.833 172.822 C 248.833 172.737,248.750 172.667,248.649 172.667 C 248.548 172.667,248.092 172.479,247.636 172.250 C 247.179 172.021,246.740 171.833,246.660 171.833 C 246.580 171.833,246.239 171.646,245.901 171.417 C 245.563 171.188,245.156 171.000,244.997 171.000 C 244.838 171.000,244.614 170.887,244.500 170.750 C 244.386 170.612,244.145 170.500,243.964 170.500 C 243.784 170.500,243.445 170.350,243.212 170.167 C 242.979 169.983,242.659 169.833,242.500 169.833 C 242.341 169.833,242.020 169.683,241.786 169.499 C 241.552 169.314,241.131 169.118,240.851 169.062 C 240.570 169.006,240.255 168.856,240.150 168.730 C 240.016 168.568,239.548 168.500,238.573 168.500 C 237.810 168.500,237.140 168.425,237.083 168.333 C 237.027 168.242,236.689 168.167,236.333 168.167 C 235.977 168.167,235.640 168.242,235.583 168.333 M239.413 182.937 C 239.662 183.186,239.656 183.226,239.334 183.452 C 238.911 183.748,238.500 183.624,238.500 183.200 C 238.500 182.614,238.959 182.482,239.413 182.937 M173.001 227.222 C 172.377 227.384,172.162 227.555,171.705 228.250 C 170.946 229.405,170.745 230.381,171.371 229.876 C 171.488 229.782,171.827 229.653,172.125 229.589 C 172.423 229.526,172.667 229.408,172.667 229.328 C 172.667 229.248,172.910 229.062,173.208 228.915 C 173.812 228.617,174.883 227.382,174.739 227.150 C 174.617 226.952,173.926 226.981,173.001 227.222 " stroke="none" fill="#f44334" fill-rule="evenodd"></path><path id="path2" d="M238.500 183.063 C 238.500 183.489,238.913 183.684,239.264 183.425 C 239.527 183.230,239.545 183.151,239.365 182.970 C 239.185 182.788,239.165 182.797,239.250 183.020 C 239.311 183.182,239.251 183.329,239.098 183.388 C 238.812 183.498,238.593 183.254,238.750 183.000 C 238.807 182.908,238.774 182.833,238.677 182.833 C 238.579 182.833,238.500 182.937,238.500 183.063 " stroke="none" fill="#c45c4c" fill-rule="evenodd"></path><path id="path3" d="M274.875 107.621 C 275.219 107.657,275.781 107.657,276.125 107.621 C 276.469 107.585,276.188 107.556,275.500 107.556 C 274.813 107.556,274.531 107.585,274.875 107.621 M282.875 107.782 C 283.035 107.823,283.298 107.823,283.458 107.782 C 283.619 107.740,283.487 107.705,283.167 107.705 C 282.846 107.705,282.715 107.740,282.875 107.782 M285.240 108.089 C 285.418 108.223,285.718 108.330,285.907 108.327 C 286.160 108.322,286.103 108.256,285.689 108.077 C 284.983 107.770,284.825 107.774,285.240 108.089 M258.557 123.917 C 258.558 124.650,258.587 124.929,258.622 124.537 C 258.657 124.145,258.657 123.545,258.621 123.204 C 258.585 122.863,258.557 123.183,258.557 123.917 M343.167 137.027 C 343.167 137.077,343.392 137.353,343.667 137.640 C 343.942 137.928,344.167 138.103,344.167 138.030 C 344.167 137.956,343.942 137.680,343.667 137.417 C 343.392 137.153,343.167 136.978,343.167 137.027 M280.000 140.833 C 280.000 140.925,280.169 140.999,280.375 140.997 C 280.678 140.995,280.702 140.964,280.500 140.833 C 280.177 140.625,280.000 140.625,280.000 140.833 M359.377 161.150 C 359.519 161.529,359.601 161.612,359.641 161.414 C 359.673 161.256,359.580 161.008,359.434 160.863 C 359.193 160.621,359.188 160.646,359.377 161.150 M169.698 169.319 C 169.737 169.449,169.952 169.669,170.176 169.809 C 170.492 170.006,170.527 170.009,170.333 169.823 C 170.196 169.691,169.981 169.471,169.856 169.333 C 169.673 169.132,169.642 169.129,169.698 169.319 M228.944 170.444 C 228.695 170.694,228.822 171.050,229.083 170.833 C 229.221 170.719,229.333 170.560,229.333 170.480 C 229.333 170.307,229.103 170.286,228.944 170.444 M363.264 170.833 C 363.387 171.298,363.466 171.423,363.570 171.319 C 363.608 171.281,363.530 171.062,363.396 170.833 L 363.153 170.417 363.264 170.833 M172.008 174.348 C 172.110 174.539,172.227 174.662,172.267 174.621 C 172.384 174.505,172.148 174.000,171.976 174.000 C 171.891 174.000,171.905 174.156,172.008 174.348 M172.250 175.417 C 172.250 175.737,172.306 176.000,172.375 176.000 C 172.444 176.000,172.500 175.737,172.500 175.417 C 172.500 175.096,172.444 174.833,172.375 174.833 C 172.306 174.833,172.250 175.096,172.250 175.417 M238.741 183.015 C 238.679 183.114,238.694 183.261,238.774 183.341 C 238.971 183.538,239.405 183.251,239.262 183.019 C 239.116 182.783,238.885 182.781,238.741 183.015 M334.003 190.625 C 334.010 190.990,334.328 191.233,334.331 190.875 C 334.332 190.669,334.258 190.500,334.167 190.500 C 334.075 190.500,334.001 190.556,334.003 190.625 M368.060 200.500 C 368.060 201.371,368.088 201.727,368.123 201.292 C 368.157 200.856,368.157 200.144,368.123 199.708 C 368.088 199.273,368.060 199.629,368.060 200.500 M367.578 208.917 C 367.535 209.054,367.463 209.283,367.419 209.425 C 367.374 209.568,367.402 209.644,367.482 209.594 C 367.562 209.545,367.663 209.316,367.707 209.086 C 367.794 208.630,367.704 208.513,367.578 208.917 M367.209 211.417 C 367.211 211.783,367.245 211.914,367.285 211.706 C 367.324 211.499,367.323 211.199,367.281 211.040 C 367.239 210.880,367.207 211.050,367.209 211.417 M172.056 222.061 C 172.056 222.211,172.116 222.333,172.189 222.333 C 172.263 222.333,172.288 222.675,172.246 223.092 C 172.198 223.570,172.230 223.814,172.335 223.749 C 172.576 223.600,172.537 222.447,172.278 222.093 C 172.085 221.830,172.056 221.826,172.056 222.061 M171.417 226.333 C 171.251 226.517,171.199 226.667,171.302 226.667 C 171.404 226.667,171.569 226.517,171.667 226.333 C 171.765 226.150,171.817 226.000,171.782 226.000 C 171.747 226.000,171.583 226.150,171.417 226.333 M357.249 243.668 C 357.083 243.852,356.986 244.041,357.034 244.090 C 357.082 244.138,357.246 243.987,357.398 243.755 C 357.730 243.248,357.664 243.209,357.249 243.668 M348.252 257.620 L 347.960 258.083 348.346 257.713 C 348.558 257.509,348.690 257.301,348.638 257.249 C 348.587 257.198,348.413 257.365,348.252 257.620 M336.810 269.661 C 336.594 269.841,336.499 269.991,336.599 269.994 C 336.700 269.998,336.917 269.850,337.083 269.667 C 337.469 269.240,337.319 269.237,336.810 269.661 M258.553 276.500 C 258.553 277.096,258.584 277.340,258.621 277.042 C 258.658 276.744,258.658 276.256,258.621 275.958 C 258.584 275.660,258.553 275.904,258.553 276.500 M259.833 282.958 C 259.833 283.038,259.942 283.249,260.075 283.426 C 260.308 283.739,260.313 283.737,260.222 283.372 C 260.127 282.996,259.833 282.683,259.833 282.958 M288.394 292.203 C 288.283 292.384,288.697 292.362,288.998 292.171 C 289.191 292.049,289.161 292.021,288.860 292.044 C 288.648 292.060,288.438 292.131,288.394 292.203 " stroke="none" fill="#648c7c" fill-rule="evenodd"></path><path id="path4" d="" stroke="none" fill="#cc544c" fill-rule="evenodd">
    </path></g></svg>