<?xml version="1.0" encoding="UTF-8"?>
<svg id="Layer_1" data-name="Layer 1" xmlns="http://www.w3.org/2000/svg" viewBox="0 0 477.87 477.85">
  <path d="M176.47,0c41.1,0,82.21,0,123.31,0,5.22,.63,10.43,1.35,15.66,1.89,22.12,2.26,44.43,3.33,66.33,6.93,37.37,6.15,67.95,23.17,80.54,61.47,5.79,17.61,10.29,36.28,11.33,54.7,2.72,48.03,4.68,96.21,4.12,144.29-.43,37.37-3.5,74.9-8.35,111.98-4.96,37.92-22.99,68.7-61.82,81.27-17.64,5.71-36.31,10.17-54.73,11.15-50.16,2.67-100.45,4.57-150.66,4.07-35.23-.35-70.64-3.58-105.58-8.36-37.49-5.12-68.06-22.82-80.58-61.2-5.85-17.95-8.85-36.99-11.6-55.76C1.9,335.05,1.4,317.35,0,299.78c0-40.4,0-80.79,0-121.19,.65-6.28,1.32-12.57,1.96-18.85,2.22-21.77,3.17-43.77,6.94-65.26C15.32,57.93,32.6,28.2,70.12,16.12c17.99-5.79,37-8.84,55.76-11.67C142.58,1.92,159.59,1.4,176.47,0Zm-46.26,331.95c21.41,18.67,60.77,30.76,87.5,26.63,8.66-1.34,17.59-3.02,25.53-6.52,20.69-9.1,32.98-24.58,33.54-48.23,.56-24.08-12.8-38.27-33.41-46.41-16.66-6.58-34.04-11.35-51.06-17.04-8-2.68-15.88-6.31-15.1-16.42,.76-9.78,8.02-14.44,16.85-16.64,3.04-.76,6.48-1.7,9.37-1.02,17.85,4.23,35.6,8.89,54.56,13.72,3.73-6.58,8.88-15.67,15.12-26.67-14.88-5.8-28.23-12.55-42.37-16.17-21.96-5.62-44.23-5.58-64.88,5.86-19.01,10.53-28.24,26.97-27.66,48.81,.54,20.42,12.66,32.39,30.06,39.67,11,4.6,22.69,7.53,34.04,11.31,8.34,2.78,16.83,5.24,24.87,8.73,6.86,2.97,12.82,8.89,10.38,16.44-1.9,5.87-7.23,12.24-12.73,14.92-6.24,3.04-14.38,3.03-21.66,2.91-20.46-.34-37.99-9.52-55.48-20.56-6.02,9.2-11.77,17.99-17.47,26.69ZM348.2,119.91h-40.77v238.57h40.77V119.91Z"/>
</svg>