<?xml version="1.0" encoding="UTF-8"?>
<svg id="Layer_1" data-name="Layer 1" xmlns="http://www.w3.org/2000/svg" viewBox="0 0 391.14 206">
  <path d="M117.84,140.78c-3.95,.93-7.88,1.97-11.86,2.74-3.97,.78-8,1.29-12.99,2.07,4.84-3.61,9.98-5.79,12.34-9.66,2.39-3.92,3.22-9.67,2.59-14.33-.92-6.82-3.76-13.37-6.95-20.13-1.21,4.21-2.47,8.41-3.61,12.64-4.3,15.92-8.31,31.93-13.08,47.71-.92,3.04-4.4,6.6-7.42,7.49-17.62,5.2-35.43,9.79-53.25,14.3-3.53,.89-8.03,2.14-9.5-3.49-1.68-6.42,.19-10.26,6.07-11.87,11.15-3.06,22.29-6.19,33.54-8.82,5.23-1.22,7.73-3.77,9.2-9.01,6.39-22.65,13.1-45.21,20.2-67.65,.96-3.02,4.39-6.13,7.44-7.45,5.44-2.36,11.45-3.46,17.26-4.94,7.02-1.79,9.75-.31,12.19,6.61,8.9,25.26,17.75,50.53,26.63,75.8,.56,1.58,1.24,3.12,2.18,5.47,1.26-4.5,2.64-8.1,3.23-11.83,1.2-7.54,5.51-11.08,12.87-12.96,58.84-15.07,117.6-30.47,176.4-45.7,2.23-.58,4.63-.52,6.95-.76,2.64,8.14,.91,12.2-6.08,14.03-28.47,7.47-56.95,14.93-85.43,22.38-26.39,6.91-52.78,13.86-79.2,20.66-4.43,1.14-6.93,3.51-8.24,7.95-2.48,8.45-5.3,16.81-8.35,25.07-.82,2.22-2.58,5.12-4.52,5.71-8.16,2.5-16.55,4.23-24.86,6.25-4.93-13.82-9.98-27.6-14.64-41.51-.49-1.46,1.33-3.69,2.07-5.56,.45-.57,.91-1.15,1.36-1.72-.85,.17-1.69,.34-2.54,.51Z" style="fill: #1c79bc;"/>
  <path d="M176.7,105.11c-12.91,1.87-12.84,1.87-12.95,13.7-.04,4.27,1.43,9.02-5.15,10.79-8.89,2.4-8.32,2.6-11.85-5.77-6.65-15.8-2.8-32.24-3.69-48.39-.07-1.25,1.54-3.5,2.74-3.78,14.07-3.34,28.11-6.97,42.37-9.26,6.64-1.07,9.33,2.52,9.13,9.36-.19,6.63-.96,13.25-1.6,21.39,3.25,3.05,6.23,16.9,3.55,23.14-1.64,3.82-17.21,8.7-20.35,6.02-1.36-1.16-1.94-3.69-2.11-5.66-.32-3.79-.09-7.63-.09-11.53Zm-3.29-25.94c-9.64,.73-11.24,3.03-8.64,12.46,10.02-1.98,10.45-2.6,8.64-12.46Z" style="fill: #1d7cbd;"/>
  <path d="M258.28,88.83c13.17-2.85,13.53-3.17,12.12-11.29-6.01,1.52-11.98,3.05-17.95,4.56-9.83,2.49-14.84-1.39-14.87-11.5,0-3.89,.24-7.79-.05-11.65-.57-7.51,3.3-11.88,9.96-13.86,10.46-3.11,20.96-6.23,31.62-8.51,9.38-2.01,15.77,5.7,12.94,14.91-.39,1.28-1.59,2.86-2.78,3.26-4.03,1.39-8.17,2.91-12.35,3.17-2.27,.14-4.7-2.15-8.47-4.06q-10.38,2.51-9.45,10.77c5.76-1.44,11.47-2.83,17.16-4.29,10.7-2.75,16.05,1.24,16.05,12.01,0,2.81,0,5.61,0,8.42,0,9.1-3.67,14.6-12.41,17.11-9.43,2.71-18.99,5.03-28.59,7.11-10.25,2.23-16.45-4.67-13.5-14.65,.18-.61,.34-1.29,.72-1.77,3.44-4.31,16.1-4.13,19.82,.26Z" style="fill: #1d7cbe;"/>
  <path d="M321.38,72.13c9.91-.75,18.64-7.32,28.77-4.3,1.48,10.8,1.22,11.17-9.11,13.94-10.53,2.83-21.04,5.74-31.59,8.52-7.46,1.97-10.12-.03-10.14-7.56-.04-14.66,.19-29.32-.11-43.98-.12-5.77,2-8.47,7.65-9.73,11.44-2.56,22.7-5.99,34.16-8.41,2.5-.53,7.51,1.12,8,2.76,1.13,3.78,1.7,8.77-4.41,10.29-5.81,1.44-11.48,3.66-17.36,4.63-6.06,1-7.49,3.94-5.75,9.95,3.38-.79,6.61-1.65,9.89-2.29,3.73-.72,8.01-2.35,9.42,3.29,1.59,6.37-.32,9.9-5.95,11.52-2.66,.77-5.3,1.79-8.02,2.12-5.85,.69-7.02,3.93-5.46,9.25Z" style="fill: #227ebf;"/>
  <path d="M207.55,114.18c-.7-2.11-1.98-4.22-2.01-6.34-.17-15.24,.02-30.49-.16-45.73-.05-4.64,1.42-7.3,6.29-7.89,4.39-.53,8.73-1.45,13.09-2.19,.02,13.14,.04,26.29,.05,39.43q0,17.76-17.26,22.72Z" style="fill: #1f77ba;"/>
  <path d="M131.59,189.06c8.31-2.02,16.7-3.76,24.86-6.25,1.94-.59,3.71-3.49,4.52-5.71,3.04-8.26,5.87-16.62,8.35-25.07,1.31-4.45,3.8-6.81,8.24-7.95,26.42-6.81,52.81-13.75,79.2-20.66,28.48-7.45,56.95-14.91,85.43-22.38,6.99-1.83,8.71-5.89,6.08-14.03,5.77,.25,3.63,4.68,4,7.68,.52,4.22-1.15,6.81-5.59,7.95-15.97,4.09-31.86,8.47-47.8,12.66-39.34,10.36-78.67,20.78-118.08,30.87-4.46,1.14-6.45,3.32-7.69,7.35-2.59,8.41-5.05,16.9-8.44,24.99-1.32,3.14-4.57,6.36-7.73,7.64-5.89,2.39-12.3,3.68-18.61,4.81-2.07,.37-4.49-1.2-6.74-1.89Z" style="fill: #2b9cd4;"/>
  <path d="M207.55,114.18q17.27-4.96,17.26-22.72c0-13.14-.03-26.29-.05-39.43,1.31,1.45,3.74,2.88,3.77,4.35,.27,16.73,.22,33.46,.09,50.2-.01,1.53-.72,4.03-1.75,4.43-6.17,2.41-12.22,6.27-19.32,3.17Z" style="fill: #259bd4;"/>
  <path d="M117.84,140.78c.85-.17,1.69-.34,2.54-.51-.45,.57-.91,1.15-1.36,1.72-.39-.4-.78-.81-1.18-1.21Z" style="fill: #fefeff;"/>
  <path d="M173.41,79.17c1.81,9.86,1.38,10.48-8.64,12.46-2.6-9.43-1-11.73,8.64-12.46Z" style="fill: #eff6fa;"/>
</svg>