<svg id="Layer_1" data-name="Layer 1" xmlns="http://www.w3.org/2000/svg" viewBox="0 0 527.87 123.31">

	<path
		d="M536.92,509.78l-1.22-.37c1.13-4.13,2.32-8.25,3.37-12.41a2.21,2.21,0,0,1,2.8-1.91v6.58c-.37,1.2-.83,2.37-1.1,3.59-.41,1.93-.7,3.88-1,5.82l-.79.08a.83.83,0,0,1-.05-.35c.21-2.14.43-4.29.64-6.44l-1.06-.21Q537.69,507,536.92,509.78Z"
		transform="translate(-14 -390.69)" style="fill:#a0d1b1" />
	<path
		d="M541.87,495.09a2.21,2.21,0,0,0-2.8,1.91c-1.05,4.16-2.24,8.28-3.37,12.41l-.87-.21q.75-2.74,1.49-5.49,1.57-5.81,3.14-11.59l2.41,2.15Z"
		transform="translate(-14 -390.69)" style="fill:#81c399" />
	<path
		d="M18.49,468.28c8.69,0,17.06,0,25.44,0,1.17,0,1.47.47,1.64,1.53a12.61,12.61,0,0,0,19,8.67c2-1.21,3.6-2.84,3.55-5.38a5.31,5.31,0,0,0-3.78-4.94,44.53,44.53,0,0,0-7.91-2.1c-6-1.06-12-2.34-17.59-4.89C23.64,454.25,20,437,31.14,424.49c5.41-6.06,12.4-9.39,20.14-11.28,11.19-2.74,22.3-2.72,33.21,1.38,12.41,4.66,20,15.39,19.87,28.16,0,.4,0,.8-.06,1.12H76.83c-2.76-8.36-9.16-11.71-17.21-9.09a11.94,11.94,0,0,0-4.47,2.76c-2.06,2-1.74,4.72.84,6a26.66,26.66,0,0,0,7.4,2.25c7.47,1.27,14.89,2.65,21.68,6.18,14.13,7.33,17.54,22.83,7.88,35.55-5.48,7.22-13,11.27-21.56,13.5-11.24,2.92-22.54,3.37-33.69-.48-8.06-2.79-14.47-7.72-18.52-15.39a4,4,0,0,1-.66-1.69C18.47,478.47,18.49,473.48,18.49,468.28Z"
		transform="translate(-14 -390.69)" style="fill:#20602d" />
	<path
		d="M179,411.44c.67,28.12,1.33,56,2,84.06h-30.2V479.91h-4.05c-4.26,0-8.51,0-12.77,0a2,2,0,0,0-2.36,1.65c-1.36,4.23-2.79,8.45-4.33,12.62a2.48,2.48,0,0,1-1.76,1.41c-9.33.09-18.67.06-28,.05a5.17,5.17,0,0,1-.76-.15c.15-.54.26-1,.44-1.53q15.34-40.44,30.69-80.86c.42-1.12.85-1.79,2.28-1.79,15.79.06,31.58,0,47.36.05C177.92,411.33,178.32,411.39,179,411.44Zm-28.42,48.67V426.7l-.32-.05c-3.74,11.09-7.49,22.18-11.3,33.46Z"
		transform="translate(-14 -390.69)" style="fill:#20602d" />
	<path
		d="M291.47,442.81h30.2c-1.31,7.23-2.58,14.26-3.89,21.47H287.94c-.55,3.27-1.07,6.35-1.64,9.77h20.33c-1,7.27-2,14.22-3,21.4H252.5c1-6.07,2-12.07,3-18.07q5.27-31.92,10.51-63.85c.27-1.64.71-2.26,2.53-2.26,20.25.08,40.51.05,60.76.05h2.31c-.67,3.79-1.3,7.34-1.94,10.89-.53,3-1.16,5.91-1.59,8.89-.2,1.43-.86,1.71-2.17,1.7-10.23,0-20.47,0-30.7-.06-1.68,0-2.27.53-2.45,2.12C292.43,437.42,291.93,440,291.47,442.81Z"
		transform="translate(-14 -390.69)" style="fill:#20602d" />
	<path
		d="M214,495.5h-30.3q7-42.18,14-84.1h65a8.11,8.11,0,0,1,0,1.21c-1.12,6.34-2.3,12.67-3.35,19-.24,1.44-.76,1.88-2.24,1.87-10.3-.07-20.6,0-30.9-.07-1.42,0-2,.31-2.22,1.84-.84,5.74-1.85,11.46-2.85,17.44h31.27c-.72,4.16-1.38,8.05-2.06,11.94-.49,2.76-1.11,5.51-1.46,8.29-.19,1.5-.79,1.89-2.24,1.88-8.86-.06-17.71,0-26.57,0h-2.56C216.38,481.68,215.22,488.52,214,495.5Z"
		transform="translate(-14 -390.69)" style="fill:#20602d" />
	<path
		d="M331.76,466.38c1-6.61,2-13,3-19.42,1.72-11.09,3.49-22.18,5.17-33.27.21-1.45.56-2.1,2.24-2.11,11.6,0,23.2-.16,34.8-.25,6.53-.05,12.89.77,18.8,3.73,9.37,4.69,14.49,14.59,13.29,25.26-1.33,11.7-6.81,20.78-16.8,27.11-.34.22-.67.46-1.1.76.12.33.22.63.34.93s.19.49.3.78l-5.18,1.26c-3.42-6-7.65-7.64-14.51-5.62a4.11,4.11,0,0,1-2.13-.16c-4.38-1.25-8.43-1-11.82,2.44a10.59,10.59,0,0,0-1.43,2c-.48.76-.78,2.15-1.36,2.26-1.43.27-3.27.49-4.41-.18A12,12,0,0,0,340.5,471C339.55,465.82,335.52,466.45,331.76,466.38ZM364.3,451.5c1.75,0,3.25.07,4.74,0,6.69-.35,11.12-5.15,11-11.84-.07-3.8-2.23-6.63-6-7.22a44,44,0,0,0-6.81-.07Z"
		transform="translate(-14 -390.69)" style="fill:#20602d" />
	<path
		d="M318.42,484c-.6,3.52-1.19,7-1.8,10.61h-8.33c1.24-7.82,2.46-15.52,3.7-23.41,2.66,0,5.19-.08,7.71.07.52,0,1.17.8,1.47,1.38,1.35,2.65,2.6,5.36,3.89,8.05l.52-.07c.52-3.05,1-6.1,1.58-9.29h8.44c-1.27,7.75-2.53,15.47-3.82,23.36-2.58,0-5,.07-7.48-.06a2.28,2.28,0,0,1-1.48-1.29c-1.12-2.5-2.09-5.06-3.12-7.59-.25-.61-.55-1.2-.82-1.79Z"
		transform="translate(-14 -390.69)" style="fill:#256330" />
	<path
		d="M490.8,513.53h-3.68c-.43-2.34-.92-4.67-1.26-7-1-7.07-2-14.14-3-21.21,0-.11-.29-.19-.69-.44-.23,3.05-.45,5.9-.67,8.76a4,4,0,0,1-1-2.06c-1.95-9.13-3.95-18.23-4.27-27.62,0-.87-1.63-1.69-2.51-2.54-.37.82-1.09,1.65-1.06,2.45.31,7.15.56,14.31,1.2,21.43.57,6.3,1.57,12.55,2.47,18.81.45,3.16,1.07,6.3,1.62,9.45h-2.45a6.75,6.75,0,0,0-.08-1.43c-2.56-9.76-2.77-19.82-3.58-29.79-.61-7.54-1-15.11-1.43-22.66l1-.32.27-.14-.31-.25a1.76,1.76,0,0,0-.3-.1l0-1.45,1.11-.13,1.61-.11c-2-2-3.75-3.91-5.55-5.77q-1.62-4.27-3.23-8.56c0-1.18,0-2.37,0-3.55l.63-.85,1.22-.06h0c.3,1.66,1.16,2.59,3,2.25l1.15.14.77,1.76-5.46-1a34.17,34.17,0,0,0,4.6,10.26,6.29,6.29,0,0,0,6.63,3.09,14.71,14.71,0,0,0,8.84-3.91c1.69-1.62,3.47-3.17,5.21-4.75l-3.87,5.17-.49.58-7.37,5.23,1.53.76-.63.9-1.55.47-3.07.32,1.17,2,2-1.62a18.55,18.55,0,0,1,.36,2.56c.06,3.19.05,6.39.06,9.58l.08,5.31.4,3,.61,0-.27-2.93c.08-1.79.15-3.58.23-5.38l.51-4.9.5,0,.75-.43c.1,1,.14,2,.31,3,1.13,6.84,2.21,13.7,3.46,20.52C487.71,498.06,489.29,505.79,490.8,513.53Z"
		transform="translate(-14 -390.69)" style="fill:#d69a72" />
	<path
		d="M406.61,477c-1,6-2,11.73-2.93,17.57h-8.29c.05-.74.1-1.47.16-2.46-1.15,1.08-2.06,2.09-3.11,2.9-4.61,3.56-9.59,1.83-10.67-3.87a14.31,14.31,0,0,1,5.33-14.44c3.79-3.11,7.24-2.32,10.49,2.22.27-2.15,1.74-2,3.21-1.93C402.64,477,404.48,477,406.61,477Zm-9.74,7a8.62,8.62,0,0,0-1.75-2.67c-.56-.45-2-.26-2.82.14-2.25,1.11-3.53,4.72-2.74,7.11a2.72,2.72,0,0,0,4.37,1.57C395.83,488.88,396.66,487,396.87,484Z"
		transform="translate(-14 -390.69)" style="fill:#256330" />
	<path
		d="M350.77,479l.63-1.94h8.3c-1,5.89-1.94,11.66-2.91,17.52h-8.31c0-.77.1-1.44.17-2.43-.5.43-.82.69-1.12,1a26.47,26.47,0,0,1-2.78,2.42c-4.08,2.65-8.3,1.07-9.73-3.59-1.59-5.2,1-12.43,5.52-15.54C344.43,473.73,347.53,474.45,350.77,479Zm-.26,5.89c-.88-1.47-1.33-2.87-2.3-3.58-.62-.46-2.15-.18-3,.28-2,1.08-3.19,4.44-2.61,6.66.67,2.52,3,3.38,4.85,1.51C348.71,488.47,349.43,486.66,350.51,484.89Z"
		transform="translate(-14 -390.69)" style="fill:#256330" />
	<path
		d="M460.28,398.15,480,401.84l-1,21.82a1.23,1.23,0,0,0-.14.31c-2.38.87-4.37,2.82-7.16,2.55-1.89.07-2.23.41-1.7,1.67l-1.4.67c-.15-2.44-.3-4.89-.43-7.33-.08-1.63-.12-3.27-.21-4.9s-.3-3-.24-4.56c.08-2,.11-3.83-1.63-5.55-.27.88-.45,1.48-.82,2.71l-6.46-8.67Z"
		transform="translate(-14 -390.69)" style="fill:#1da756" />
	<path
		d="M500.67,408c4,1.53,8.08,3.13,10.46,7a8.17,8.17,0,0,1,.91,4.22c0,2.22-.43,4.44-.67,6.66l-.66,6.42c-.06.94-.11,1.88-.17,2.82l-.24,1.29c-.05.8-.1,1.61-.14,2.41-.1.57-.2,1.13-.29,1.7l-.13,2.41-.3,2.52-.12,1.59-1.24,3.66-.69-.47-.13-.66c.13-2.64.1-5.31.45-7.93a21.49,21.49,0,0,0-1.44-12.1,4.9,4.9,0,0,0-1.39-1.7c-1.05.6-2.41,1.21-2.87,2.2-1.54,3.29-2.72,6.74-4.09,10.1-.19.46-.69.79-1.05,1.19a3.48,3.48,0,0,1-.31-.72q-.92-5.18-1.81-10.36c.7-2.8,1.41-5.61,2.1-8.41.15-.61.24-1.24.43-1.83.27-.87.64-1.71.9-2.58s.39-1.66.61-2.49Q499.72,411.42,500.67,408Z"
		transform="translate(-14 -390.69)" style="fill:#f4f5f5" />
	<path
		d="M478,513.55c-.55-3.15-1.17-6.29-1.62-9.45-.9-6.26-1.9-12.51-2.47-18.81-.64-7.12-.89-14.28-1.2-21.43,0-.8.69-1.63,1.06-2.45.88.85,2.48,1.67,2.51,2.54.32,9.39,2.32,18.49,4.27,27.62a4,4,0,0,0,1,2.06c.22-2.86.44-5.71.67-8.76.4.25.67.33.69.44,1,7.07,2,14.14,3,21.21.34,2.35.83,4.68,1.26,7Z"
		transform="translate(-14 -390.69)" style="fill:#fad6b6" />
	<path
		d="M460.28,398.15l-1.53,2.41,6.46,8.67c.37-1.23.55-1.83.82-2.71,1.74,1.72,1.71,3.59,1.63,5.55-.06,1.52.17,3,.24,4.56s.13,3.27.21,4.9c.13,2.44.28,4.89.43,7.33l-.72.18-2.53,1.54c-1.87-.39-1.63-2.11-2.12-3.37a56.36,56.36,0,0,0-2.73-6.93c-1.45-2.68-3.51-5-5-7.69-1.74-3.15-3.15-6.47-4.64-9.75-.89-2-1.66-4-2.49-6l3-.06.71.14,2.52.31,2.81.44,1.63.19Z"
		transform="translate(-14 -390.69)" style="fill:#17a451" />
	<path
		d="M451.22,452.76c3.36,1.51,6.83,2.85,10.06,4.61,1.76,1,2.15,3,1.86,5-.19,1.33-.26,2.68-.39,4-.15.49-.3,1-.46,1.47l-1.94.81-1.29.11-3.29.68-2.16.92-2.08.4-2,1.11-2.48,2.59,0,0c-.05.14-.11.27-.16.4l.3,4.52,0,.44c-.19,1.1-.38,2.19-.58,3.29l-5.68-.42a12.79,12.79,0,0,1,.45-2.57c.44-1.11.85-2.51,1.73-3.09,1.13-.74,1.3-1.1.53-2.15-1.11-1.53-.79-2.41,1-2.87,1.18-.3,1.48-.8.79-1.87-1.21-1.88.09-5.22,2.15-6a2.9,2.9,0,0,0,1.58-1.61c.68-2.32,1.17-4.7,1.67-7.06C451,454.64,451.09,453.69,451.22,452.76Z"
		transform="translate(-14 -390.69)" style="fill:#f4f5f5" />
	<path
		d="M500.67,408q-.94,3.46-1.88,6.93c-.22.83-.36,1.68-.61,2.49s-.63,1.71-.9,2.58c-.19.59-.28,1.22-.43,1.83-.69,2.8-1.4,5.61-2.1,8.41l-1.5-1.18H492l-1.64-.11-.39-.43c0-.27-.06-.54-.08-.81l-.36-1.63a4.79,4.79,0,0,0-4.53-3.2l-1.22-.83c-.26.59-.53,1.18-.8,1.77a.3.3,0,0,1-.25.22c-1.84-1.24-2.05-2.71-.7-4.47a3.13,3.13,0,0,0,.39-1.15c.89-3.64,3.25-6,6.31-8.07,1.85-1.23,4.22-2.6,3.27-5.63Z"
		transform="translate(-14 -390.69)" style="fill:#f1f1f1" />
	<path
		d="M430.2,447.84l10.81,2q-1.11,16.22-2.24,32.43l-4.89.33-1.2-.17c.27-6.26.82-12.53.72-18.79-.07-4.16.19-8.68-3.9-11.73-.89-.65-1-2,.62-2.51C431.42,449,430.77,448.4,430.2,447.84Z"
		transform="translate(-14 -390.69)" style="fill:#1da756" />
	<path
		d="M508.58,513.49H506.1q-.94-6.42-1.88-12.85l-.49,0-.56,5.51-.91,0c-1.08-7.52-2.23-15-3.19-22.56-.22-1.81-.82-2.74-3.19-3,.28,6,.42,11.82.88,17.62.4,5.08,1.16,10.12,1.77,15.18l-1.11,0-1.59-4.89a6.59,6.59,0,0,0,.25-1.56c-.4-6.43-.8-12.86-1.28-19.28-.2-2.69-.61-5.37-.92-8.05l.42-1.51,3-1.23-4.71-4.21-.07-.05-2.61-6.87-.09-1.21.71-2.77h.11l.08-.06,1.71,1.54.86.35c.95.36,2.34.17,2.3,1.8l-4.54-1A21.27,21.27,0,0,0,494.7,473a4.54,4.54,0,0,0,5,2.36,64.25,64.25,0,0,0,6.3-2.17,4.1,4.1,0,0,1,1.22-.06l-5.18,4.16.56,1.31-.71.2-3,.47c.87,1.37.87,1.37,2.7.63,0,3.28.05,6.55.08,9.83.07,1.93.14,3.87.22,5.8l.65,0V489.7l.36-3.93.81-.9c.91,5.56,1.81,11.17,2.75,16.77C507.16,505.6,507.88,509.54,508.58,513.49Z"
		transform="translate(-14 -390.69)" style="fill:#d69a72" />
	<path
		d="M380.5,478.74c-.86,5.17-1.56,10.11-2.51,15-1.19,6.16-5.66,9-12.76,8.26l1.14-6.07c2.71.18,3.23-1.57,3.54-3.74.59-4.26,1.35-8.51,2-12.76a6.33,6.33,0,0,1,.2-.7Z"
		transform="translate(-14 -390.69)" style="fill:#256330" />
	<path
		d="M438.77,482.3q1.13-16.21,2.24-32.43l10.21,2.89c-.13.93-.19,1.88-.39,2.8-.5,2.36-1,4.74-1.67,7.06a2.9,2.9,0,0,1-1.58,1.61c-2.06.76-3.36,4.1-2.15,6,.69,1.07.39,1.57-.79,1.87-1.81.46-2.13,1.34-1,2.87.77,1.05.6,1.41-.53,2.15-.88.58-1.29,2-1.73,3.09a12.79,12.79,0,0,0-.45,2.57h-2.06Z"
		transform="translate(-14 -390.69)" style="fill:#eaedec" />
	<path
		d="M470.42,459.66c.47,7.55.82,15.12,1.43,22.66.81,10,1,20,3.58,29.79a6.75,6.75,0,0,1,.08,1.43h-7c.26-10.7.62-21.39.75-32.09.08-6.33-.2-12.67-.33-19C468.93,461.22,469,460.07,470.42,459.66Z"
		transform="translate(-14 -390.69)" style="fill:#8e583b" />
	<path
		d="M430.2,447.84c.57.56,1.22,1.17-.08,1.59-1.62.53-1.51,1.86-.62,2.51,4.09,3.05,3.83,7.57,3.9,11.73.1,6.26-.45,12.53-.72,18.79l-2.51,0,0-.49h0c.27-.39.79-.79.78-1.17a92.28,92.28,0,0,0-.54-10.4,24.57,24.57,0,0,0-2.25-7.35c-2.08-4.2-4.59-8.18-6.8-12.32a18.51,18.51,0,0,1-1.08-3.69l.45-.5,1.14-.14.47.24,7,1.18Z"
		transform="translate(-14 -390.69)" style="fill:#17a451" />
	<path
		d="M520.52,478.41l1.18.24c-.22,4.71-.36,9.42-.68,14.13-.18,2.56-.64,5.11-1,7.67l-1.24,0-2.49-.1-.82-.29c0-2.41.19-4.85,0-7.24A18.33,18.33,0,0,0,514,487c-1.52-3.24-3.41-6.31-5.2-9.42-.18-.31-.77-.37-1.18-.54,0-.15.05-.3.07-.44l.44-.22,2,.21.9.2,6.54,1Z"
		transform="translate(-14 -390.69)" style="fill:#1da756" />
	<path
		d="M495.83,508.66l1.59,4.89-2.09,0c-1.86-5.59-3.95-11.1-5.51-16.77-1.61-5.84-2.83-11.8-4-17.75-1-5.28-1.66-10.63-2.52-15.94a7.23,7.23,0,0,0-.86-1.8l-.83.12c-.05,1.27-.1,2.55-.16,3.82,0,.37-.07.73-.11,1.1l-.1.83-.51,4.9-1.05,0c0-3.19,0-6.39-.06-9.58a18.55,18.55,0,0,0-.36-2.56l-.06-.65,1.55-.47a7.45,7.45,0,0,0,1.82.06,5.83,5.83,0,0,0,1.49-.76l-.54-1,4.3-4.17c.06.27.13.54.19.82a34.76,34.76,0,0,0-2.08,4.84c-1.22,4.56.26,9.05.62,13.57l.12,1.1c1.54,8.31,2.27,16.79,5,24.85.27-7.88.53-15.73-1.53-23.41l.6-.63,2.82,3.06-.08.05.79,1-.42,1.51c-.31.55-.91,1.11-.91,1.66,0,6.27.27,12.55.24,18.82A15.9,15.9,0,0,0,495.83,508.66Z"
		transform="translate(-14 -390.69)" style="fill:#261c18" />
	<path
		d="M498.53,513.51c-.61-5.06-1.37-10.1-1.77-15.18-.46-5.8-.6-11.63-.88-17.62,2.37.22,3,1.15,3.19,3,1,7.53,2.11,15,3.19,22.56l.91,0,.56-5.51.49,0q.94,6.42,1.88,12.85Z"
		transform="translate(-14 -390.69)" style="fill:#fad6b6" />
	<path
		d="M523.85,449.53c-.56,2.71-1.2,5.4-1.67,8.12-.76,4.49-1.4,9-2.12,13.51-.27,1.67-.6,3.33-.91,5l-.75,0-.18-1.49.45-3.63c.45-3.63,1.05-7.25,1.29-10.89.1-1.5-.58-3.05-.91-4.57l-.83-.1c-.52,1-1,2.07-1.56,3.09s-1.08,1.88-1.61,2.83l-1-5.7c.29-.36.73-.67.85-1.08.79-2.66,1.49-5.34,2.24-8a53.32,53.32,0,0,1,1.77-5.85,12.94,12.94,0,0,1,2.15-2.76c.62.91,1.65,1.77,1.78,2.74.31,2.33.15,4.72.28,7.07A5.4,5.4,0,0,0,523.85,449.53Z"
		transform="translate(-14 -390.69)" style="fill:#a0d1b1" />
	<path
		d="M371.3,472.69c1.8-3.12,5.44-4.32,8.36-2.52a3.71,3.71,0,0,1-.06,6.68c-2.89,1.73-6.41.56-8.39-2.52-1.44,3.22-4.15,3.49-7.07,3a3.89,3.89,0,0,1-3.51-3.92,4,4,0,0,1,3.41-3.82C367.2,468.89,369.44,469.8,371.3,472.69Z"
		transform="translate(-14 -390.69)" style="fill:#256330" />
	<path
		d="M492,404.68c.95,3-1.42,4.4-3.27,5.63-3.06,2-5.42,4.43-6.31,8.07a3.13,3.13,0,0,1-.39,1.15c-1.35,1.76-1.14,3.23.7,4.47l-3.8-.34,1-21.82L490,404.23Z"
		transform="translate(-14 -390.69)" style="fill:#eaedec" />
	<path d="M358.4,494.54c.88-5.34,1.74-10.52,2.61-15.81h8.42l-2.58,15.81Z"
		transform="translate(-14 -390.69)" style="fill:#256330" />
	<path
		d="M454.05,513.53h-1.22c0-.68,0-1.36,0-2q-.6-9.24-1.22-18.47l.26-.34.19-1.29.35-.06h2.19L450,487.23h0c-.21-.64-.38-1.3-.64-1.92a11.25,11.25,0,0,1-.93-7l.64,0,2.53,1.54,1.24,1.63-3.52-.89-.56.66c1,2,2,4.1,3.1,6.09a4,4,0,0,0,5,2.18,60,60,0,0,0,5.83-2.27c0,.49-.09,1-.13,1.48l-4.5,2.24,1,1.28-1.71.41-1.66.46.28.73,1.37-.59a11.69,11.69,0,0,1,.45,2.06c.07,2.1,0,4.2.07,6.3l.09,2.43.36,2.76.62-.06c-.07-.91-.15-1.81-.23-2.71l.06-2.45c.07-.8.13-1.6.19-2.41l.93-.67c.83,5.11,1.64,10.05,2.45,15h-4.11c-.84-5.72-1.63-11.44-2.57-17.14-.13-.76-1-1.4-1.51-2.09-.32.69-.94,1.38-.92,2.06C453.47,502.08,453.78,507.8,454.05,513.53Z"
		transform="translate(-14 -390.69)" style="fill:#d69a72" />
	<path
		d="M520,500.45c.34-2.56.8-5.11,1-7.67.32-4.71.46-9.42.68-14.13l8.64,2.88a10.7,10.7,0,0,1-.3,2.2c-1.93,5.58-3.92,11.13-5.89,16.7Z"
		transform="translate(-14 -390.69)" style="fill:#eaedec" />
	<path
		d="M470.42,459.66c-1.45.41-1.49,1.56-1.47,2.77.13,6.34.41,12.68.33,19-.13,10.7-.49,21.39-.75,32.09h-1.85l-.54-2.2.3-5.13c.09-2.58.17-5.15.26-7.73.06-.31.11-.62.17-.94l.09-.8.3-6.18a25.87,25.87,0,0,0,.3-3.38,8.86,8.86,0,0,0-.66-2.23l.72-3.05-.39-7.36v-1.91l.06-.56.21-3.13a69.65,69.65,0,0,0-2.61-16.6c-.14-.53-.22-1.07-.33-1.6l.7-.09,1.33.84-.6.85c.31,2.5,1.72,3.78,4.44,4.16a7,7,0,0,1,1.78.78l-1.11.13-2,.1-.12.61,2.07.74a1.76,1.76,0,0,1,.3.1,1.72,1.72,0,0,0,0,.39Z"
		transform="translate(-14 -390.69)" style="fill:#261c18" />
	<path
		d="M481.47,465.21c.06-1.27.11-2.55.16-3.82l.83-.12a7.23,7.23,0,0,1,.86,1.8c.86,5.31,1.51,10.66,2.52,15.94,1.15,5.95,2.37,11.91,4,17.75,1.56,5.67,3.65,11.18,5.51,16.77H490.8c-1.51-7.74-3.09-15.47-4.52-23.23-1.25-6.82-2.33-13.68-3.46-20.52-.17-1-.21-2-.31-3C483.29,465.46,482.6,465.19,481.47,465.21Z"
		transform="translate(-14 -390.69)" style="fill:#8e583b" />
	<path
		d="M508.08,450.65l1.24-3.66c.65-.47,1.52-.8,1.89-1.43a19.54,19.54,0,0,0,1.53-3.75c1.38-4.3,2.7-8.62,4-12.94l3.59,2.61q-3.48,11.68-7,23.38l-2.13,0-1.13-.09c-.27-.72-.54-1.43-.82-2.14Z"
		transform="translate(-14 -390.69)" style="fill:#50b47f" />
	<path
		d="M524.15,500.43c2-5.57,4-11.12,5.89-16.7a10.7,10.7,0,0,0,.3-2.2c4.36.76,5.76,2.73,5.77,8.12-.09.31-.18.62-.26.92,0,.69-.07,1.38-.1,2.07l-.15-.05c-.1.42-.19.85-.29,1.28l-.18,1.64c-.36-.43-.89-.82-1-1.31-.39-1.18-.6-2.42-.88-3.63h-.91l-3.6,10.29-1.12.44Z"
		transform="translate(-14 -390.69)" style="fill:#f4f5f5" />
	<path
		d="M429.78,482.42l-1.65,0c-1.16-4.09-1.82-8.42-3.61-12.23-2.19-4.68-5-9.05-6-14.24-.11-.55-.71-1-1.09-1.52,0-1.91,0-3.83,0-5.75a14.66,14.66,0,0,1,1.64,2.33c1.84,4.14,3.54,8.35,5.38,12.49,1.16,2.6,2.82,5,3.62,7.72a106.74,106.74,0,0,1,2.12,10.74h0Z"
		transform="translate(-14 -390.69)" style="fill:#04964b" />
	<path
		d="M417.43,454.4c.38.51,1,1,1.09,1.52,1,5.19,3.81,9.56,6,14.24,1.79,3.81,2.45,8.14,3.61,12.23l-2.87.06a59.51,59.51,0,0,0-2.4-7.89c-2-4.41-4.86-8.46-5.13-13.52,0-.17-.39-.32-.59-.47,0-1.5,0-3,0-4.51Z"
		transform="translate(-14 -390.69)" style="fill:#028f45" />
	<path
		d="M507.65,477c.41.17,1,.23,1.18.54,1.79,3.11,3.68,6.18,5.2,9.42a18.33,18.33,0,0,1,1.42,5.82c.23,2.39,0,4.83,0,7.24l-.47.23-1.19-.28c-.09-1.14-.17-2.29-.27-3.44-.4-4.85-4-8.29-5.58-12.65-.12-.33-.74-.48-1.13-.72l0,0-.12-.85v-2.46l.11-.88.27-1.56Z"
		transform="translate(-14 -390.69)" style="fill:#009d4b" />
	<path
		d="M516.79,428.87c-1.35,4.32-2.67,8.64-4,12.94a19.54,19.54,0,0,1-1.53,3.75c-.37.63-1.24,1-1.89,1.43l.12-1.59.3-2.52c0-.8.08-1.61.13-2.41.09-.57.19-1.13.29-1.7,0-.8.09-1.61.14-2.41l.24-1.29c.06-.94.11-1.88.17-2.82.37-2.07.73-4.13,1.1-6.19l4.5,2.48.47.34Z"
		transform="translate(-14 -390.69)" style="fill:#1da756" />
	<path
		d="M513.43,454.86q3.48-11.7,7-23.38c2.72,2.07,5.45,4.13,5.25,8.09l-.21.86c-.52,3-1,6.07-1.57,9.1a5.4,5.4,0,0,1-.71-1.7c-.13-2.35,0-4.74-.28-7.07-.13-1-1.16-1.83-1.78-2.74a12.94,12.94,0,0,0-2.15,2.76,53.32,53.32,0,0,0-1.77,5.85c-.75,2.66-1.45,5.34-2.24,8-.12.41-.56.72-.85,1.08C513.86,455.43,513.65,455.14,513.43,454.86Z"
		transform="translate(-14 -390.69)" style="fill:#81c399" />
	<path
		d="M507.07,477.45,506.8,479c0,.29-.08.58-.11.88v2.46l.12.85,0,0-.06.81c0,.41.06.83.1,1.24s.08.56.11.84l.33,2.44.15.8c.07.56.15,1.12.23,1.68l.14.79c0,.73,0,1.47.13,2.2.27,2.14.58,4.27.87,6.4l.57,2.95.28.84-.89,1.33a3,3,0,0,1-.32-.73c-1.11-6.74-2.18-13.49-3.32-20.22-.22-1.32-.69-2.6-1-3.9l-.92.08c-.1,1.68-.19,3.37-.28,5l-.36,3.93-.87,0c0-3.28-.06-6.55-.08-9.83.1-.37.2-.74.31-1.1l.71-.2L505,478l-.6-.78,2.81-2.06v1.08Z"
		transform="translate(-14 -390.69)" style="fill:#261c18" />
	<path
		d="M454.05,513.53c-.27-5.73-.58-11.45-.77-17.18,0-.68.6-1.37.92-2.06.52.69,1.38,1.33,1.51,2.09.94,5.7,1.73,11.42,2.57,17.14Z"
		transform="translate(-14 -390.69)" style="fill:#fad6b6" />
	<path
		d="M417.14,460.57c.2.15.58.3.59.47.27,5.06,3.12,9.11,5.13,13.52a59.51,59.51,0,0,1,2.4,7.89l-2,.2-.45-.32c-1.35-3.09-2.69-6.18-4.09-9.24-.13-.3-.62-.43-.95-.64-.11-1.27-.24-2.54-.35-3.81-.15-1.73-.28-3.46-.41-5.18v-.82Z"
		transform="translate(-14 -390.69)" style="fill:#0a8642" />
	<path
		d="M445.34,444.16l0-3.32a10,10,0,0,0,.41-1.91c.06-1.71,0-3.41,0-5.11.28.16.72.25.82.49,2,4.9,3.93,9.82,5.89,14.74l-4.53.54-2.19-.06C445.61,447.74,445.48,446,445.34,444.16Z"
		transform="translate(-14 -390.69)" style="fill:#0b7c" />
	<path
		d="M502.93,485.77c.09-1.68.18-3.37.28-5l.92-.08c.35,1.3.82,2.58,1,3.9,1.14,6.73,2.21,13.48,3.32,20.22a3,3,0,0,0,.32.73q1.08,4,2.17,8l-2.4,0c-.7-3.95-1.42-7.89-2.09-11.85-.94-5.6-1.84-11.21-2.75-16.77Z"
		transform="translate(-14 -390.69)" style="fill:#8e583b" />
	<path
		d="M457.92,501.64c0-2.1,0-4.2-.07-6.3a11.69,11.69,0,0,0-.45-2.06c0-.2,0-.4,0-.6l1.71-.41c.9,0,1.87.24,2.12-1.18.07-.39,1-.62,1.57-.92-.12,2.24-.23,4.47-.35,6.7.09,1.09.17,2.18.26,3.27l-.1.06.12,0c.66,4.38,1.32,8.77,2,13.31h-1.16c-1.79-6.27-1.26-13-3.48-19.2l-.9.05c-.06,1.61-.13,3.21-.19,4.82-.06.81-.12,1.61-.19,2.41Z"
		transform="translate(-14 -390.69)" style="fill:#261c18" />
	<path
		d="M445.75,433.82c0,1.7,0,3.4,0,5.11a10,10,0,0,1-.41,1.91c-.16-2.57-.42-5.14-.46-7.72-.21-11.68-.36-23.36-.52-35,0-.67.07-1.33.12-2.25l3.56.48-.18.23h-2.78v2.77l.33,9.43c0,3.84,0,7.68,0,11.51Q445.57,427,445.75,433.82Z"
		transform="translate(-14 -390.69)" style="fill:#50b47f" />
	<path
		d="M451.6,493q.61,9.24,1.22,18.47c.05.68,0,1.36,0,2l-2.45,0c0-5.81,0-11.62.05-17.43C450.43,495,449.89,493.54,451.6,493Z"
		transform="translate(-14 -390.69)" style="fill:#865439" />
	<path
		d="M451.6,493c-1.71.51-1.17,1.93-1.17,3.06-.05,5.81,0,11.62-.05,17.43l-.19.05-.19-.06-.33-.35c0-.68,0-1.35,0-2l0-.44q0-6.37,0-12.75l-.12-.86c-.4-2.44-.8-4.87-1.19-7.31l.79-.83c.64.55,1.27,1.12,1.94,1.62a12,12,0,0,0,1.36.77l-.35.06-1.35.31,1.16,1Z"
		transform="translate(-14 -390.69)" style="fill:#261c18" />
	<path
		d="M459,499.2c.06-1.61.13-3.21.19-4.82l.9-.05c2.22,6.18,1.69,12.93,3.48,19.2h-1.19c-.81-4.94-1.62-9.88-2.45-15Z"
		transform="translate(-14 -390.69)" style="fill:#8e583b" />
	<path
		d="M535.85,490.57c.08-.3.17-.61.26-.92.81.6,1.63,1.19,2.45,1.78-.88,3.16-1.74,6.34-2.66,9.49-.06.22-.56.3-.86.45-.08-.32-.16-.63-.23-.94l.12-2.44.24-1.3.19-.36c.11-.83.22-1.66.32-2.5,0-.41,0-.83-.08-1.24l.15.05C535.78,492,535.81,491.26,535.85,490.57Z"
		transform="translate(-14 -390.69)" style="fill:#1da756" />
	<path
		d="M535,501.37c.3-.15.8-.23.86-.45.92-3.15,1.78-6.33,2.66-9.49l.9.69q-1.58,5.79-3.14,11.59-.74,2.75-1.49,5.49l-.75.1c0-.23,0-.46-.05-.69,0-.81,0-1.62,0-2.43,0-.55,0-1.09,0-1.63l.06-.6c.13-.36.27-.71.4-1.07l.05-.8Z"
		transform="translate(-14 -390.69)" style="fill:#50b47f" />
	<path
		d="M466.87,497.53c-.06.32-.11.63-.17.94L462.75,497a.42.42,0,0,1,0-.22c.51-.5,1.27-.92,1.48-1.52.77-2.16,1.36-4.39,2.15-7.05.41,1.17.63,1.77.85,2.38l-.3,6.18Z"
		transform="translate(-14 -390.69)" style="fill:#c7e3cf" />
	<path
		d="M534,506.18c0,.81,0,1.62,0,2.43l-1.41.24-2-.3c-2-.33-2.85-1.57-2.68-3.55l.14,0,.15,0c.2.24.38.67.61.69C530.57,505.91,532.29,506,534,506.18Z"
		transform="translate(-14 -390.69)" style="fill:#1da756" />
	<path d="M467.5,468.93l-.21,3.13-1.67,0h0l-1.26-2.59-2.09-1.62.46-1.47Z"
		transform="translate(-14 -390.69)" style="fill:#1da756" />
	<path
		d="M417,463.46c.13,1.72.26,3.45.41,5.18.11,1.27.24,2.54.35,3.81q0,5,.07,10a1.06,1.06,0,0,0,.05.31l0,.15-.43-.11c-.11-1.34-.27-2.68-.33-4-.15-3.87-.26-7.75-.39-11.62C416.8,465.93,416.89,464.69,417,463.46Z"
		transform="translate(-14 -390.69)" style="fill:#50b47f" />
	<path d="M511,513.53q-1.1-4-2.17-8l.89-1.33q.69,2.44,1.37,4.89c.16.53.33,1.06.49,1.58l.7,2.84Z"
		transform="translate(-14 -390.69)" style="fill:#513728" />
	<path
		d="M449.1,489l-.79.83q-.85-3.3-1.72-6.6c.2-1.1.39-2.19.58-3.29.25,1.5.51,3,.74,4.5.2,1.34.21,2.79,2.12,2.85h0Z"
		transform="translate(-14 -390.69)" style="fill:#6e5d52" />
	<path
		d="M462.46,496.87c.12-2.23.23-4.46.35-6.7l0,0,1.25-1.66,0,0,.44-.85,0,.05.42.17-2.05,8.82a.42.42,0,0,0,0,.22A.27.27,0,0,1,462.46,496.87Z"
		transform="translate(-14 -390.69)" style="fill:#81c399" />
	<path
		d="M536.92,509.78q.76-2.8,1.55-5.62l1.06.21c-.21,2.15-.43,4.3-.64,6.44C538.23,510.47,537.57,510.13,536.92,509.78Z"
		transform="translate(-14 -390.69)" style="fill:#c7e3cf" />
	<path d="M447.93,449.59l4.53-.54,4.12,0,4.52,0,2.67,0,.27.12-.06.4Z"
		transform="translate(-14 -390.69)" style="fill:#50b47f" />
	<path
		d="M417.43,454.4l-.3,1.66-.21-1.82-.12-8.14L419,446l1.69.18,0,.32-.45.5-2.78-.49c0,1-.07,1.55-.09,2.14C417.44,450.57,417.43,452.49,417.43,454.4Z"
		transform="translate(-14 -390.69)" style="fill:#1da756" />
	<path
		d="M528.25,505l-.15,0-.14,0-.39-3.71,1.12-.44,2.5,1.13-2.89-.21v2.36C528.28,504.42,528.27,504.72,528.25,505Z"
		transform="translate(-14 -390.69)" style="fill:#c7e3cf" />
	<path d="M466.44,506.2l-.3,5.13Z" transform="translate(-14 -390.69)" style="fill:#a0d1b1" />
	<path d="M445.34,444.16c.14,1.79.27,3.58.4,5.37C445.61,447.74,445.48,446,445.34,444.16Z"
		transform="translate(-14 -390.69)" style="fill:#50b47f" />
	<path d="M429.4,447.78l-7-1.18Z" transform="translate(-14 -390.69)" style="fill:#1da756" />
	<path d="M417,463.46c-.1,1.23-.19,2.47-.29,3.71,0-1.52,0-3-.07-4.56l.35,0Z"
		transform="translate(-14 -390.69)" style="fill:#eaedec" />
	<path d="M511.81,426.06c-.37,2.06-.73,4.12-1.1,6.19l.66-6.42Z"
		transform="translate(-14 -390.69)" style="fill:#50b47f" />
	<path
		d="M417,462.64l-.35,0q.15-4.19.29-8.37l.21,1.82c0,1.5,0,3,0,4.51C417.09,461.26,417,462,417,462.64Z"
		transform="translate(-14 -390.69)" style="fill:#50b47f" />
	<path d="M518.4,476.17l.75,0,1.37,2.26-2.94-.67C517.85,477.22,518.13,476.7,518.4,476.17Z"
		transform="translate(-14 -390.69)" style="fill:#c7e3cf" />
	<path d="M513.83,500l1.19.28-5.72.6c-.08-.14-.16-.28-.23-.42l1.85-.46Z"
		transform="translate(-14 -390.69)" style="fill:#eaedec" />
	<path d="M417.87,482.78a1.06,1.06,0,0,1-.05-.31l5-.14.45.32Z" transform="translate(-14 -390.69)"
		style="fill:#81c399" />
	<path d="M509.07,500.44c.07.14.15.28.23.42l.12,2.46-.57-2.95A.57.57,0,0,0,509.07,500.44Z"
		transform="translate(-14 -390.69)" style="fill:#513728" />
	<path d="M438.77,482.3l.08.46-5-.13Z" transform="translate(-14 -390.69)" style="fill:#81c399" />
	<path d="M516.31,500.32l2.49.1Z" transform="translate(-14 -390.69)" style="fill:#eaedec" />
	<path d="M419,446l-2.24.1C417.18,445.31,417.18,445.31,419,446Z"
		transform="translate(-14 -390.69)" style="fill:#eaedec" />
	<path d="M464,449.49l.06-.4.85.37c.13.39.25.79.37,1.18l-.7.09Z"
		transform="translate(-14 -390.69)" style="fill:#5e4a40" />
	<path d="M451.32,396.8l-3,.06-.49-.31.18-.23Z" transform="translate(-14 -390.69)"
		style="fill:#50b47f" />
	<path d="M454.55,397.25l-2.52-.31Z" transform="translate(-14 -390.69)" style="fill:#50b47f" />
	<path d="M532.62,508.85l1.41-.24c0,.23,0,.46.05.69Z" transform="translate(-14 -390.69)"
		style="fill:#81c399" />
	<path
		d="M538.94,511.16l.79-.08c-.12.46-.23.93-.35,1.39l-.31,0C539,512,539,511.59,538.94,511.16Z"
		transform="translate(-14 -390.69)" style="fill:#c7e3cf" />
	<path d="M459,397.88l-1.63-.19Z" transform="translate(-14 -390.69)" style="fill:#1da756" />
	
	<path d="M449.5,497.09l.12.86Z" transform="translate(-14 -390.69)" style="fill:#6e5d52" />
	<path d="M525.42,440.43l.21-.86Z" transform="translate(-14 -390.69)" style="fill:#a0d1b1" />
	
	<polygon points="448.74 109.53 448.62 109.5 448.72 109.45 448.81 109.48 448.74 109.53"
		style="fill:#81c399" />
	<path d="M516.78,428.88l-.47-.34Z" transform="translate(-14 -390.69)" style="fill:#50b47f" />
	
	<path d="M429.78,482.42l.42-.48,0,.49Z" transform="translate(-14 -390.69)" style="fill:#1da756" />
	<path d="M449.66,510.7l0,.44c0-.1-.07-.19-.09-.29S449.64,510.75,449.66,510.7Z"
		transform="translate(-14 -390.69)" style="fill:#6e5d52" />
	<path d="M449.67,513.16l.33.35Z" transform="translate(-14 -390.69)" style="fill:#6e5d52" />
	
	
	<path
		d="M491.6,446.16c-1.74,1.58-3.52,3.13-5.21,4.75a14.71,14.71,0,0,1-8.84,3.91,6.29,6.29,0,0,1-6.63-3.09,34.17,34.17,0,0,1-4.6-10.26l5.46,1,.75,2,1.74-1.12,2.29,2.42.6,3.23.77,1.85.58-.24c-.13-.54-.27-1.08-.4-1.61v-.8c.32-1.36.65-2.71,1-4.16l4.52-.33c1.2-1.51,1.7-1.64,3.8-.5a2.93,2.93,0,0,0,3.6-.5L489.39,441l2-.38c-.47-3-.38-3.38,1.12-4.29.11.25.23.47.31.71,1,3,.33,5.87-.85,8.68Z"
		transform="translate(-14 -390.69)" style="fill:#fad6b6" />
	<path
		d="M489.9,427.67c0,.27.05.54.08.81s-.07.29-.1.44l-.77.29-.43-.16a.32.32,0,0,0-.29-.16l-.86-.1a.26.26,0,0,0-.25-.08l-3.11-1c.1,1.17.19,2.34.29,3.5a1.07,1.07,0,0,0,.09.19c.78,2.7,3,3.67,5.39,4.47-.15.59-.53,1.23-.41,1.76.36,1.48-.29,2.41-1.47,3.42l-.32-1.36c-.09-.4-.07-.92-.31-1.18a5.27,5.27,0,0,0-1.35-.79l.22-.45c-2.06-.8-3.06.68-4.17,1.93l-3.77-.51,1.29,2-5.51-.24-.59,2.63c-.8-1.2-.5-3.26-2.54-2.32l-1.16-.14-3-2.25h0l-1.25-.34-.4-.08.82-.82.17.1-.17-.09-1.46-1,.22,1.41-.74.38c-1.94-1.34,1.06-2.46.19-3.45l1.86.54.83.77a2.81,2.81,0,0,0,3.68,2c.82-.36,1.18-.94.17-1.58.19-.81.39-1.62.58-2.42h.86c.27,1.5-.1,3.47,2.43,3.33l-1,.7a3.31,3.31,0,0,0,2.58.4c.39-.15.47-1.13.68-1.73.08-.22.16-.43.23-.64l1.19,0a.88.88,0,0,1,.19.24c.4,2.09,1.33,2.33,3.29.81l-1.76-.64c2.53-1,3-2.21,1.92-5.39l-.34-5.63,1.69-.36c.18.37.28,1,.56,1.08,1.66.59,3.36,1,5.05,1.56Z"
		transform="translate(-14 -390.69)" style="fill:#261c18" />
	<path
		d="M471,440.76c2-.94,1.74,1.12,2.54,2.32l.59-2.63,5.51.24-1.29-2,3.77.51v.42c-1.21.74-2.51,2.19-3.62,2.06-2-.22-3,.76-4.25,1.71l-1.74,1.12-.75-2C471.52,441.93,471.26,441.35,471,440.76Z"
		transform="translate(-14 -390.69)" style="fill:#7f533a" />
	<path
		d="M472.21,457.27a7,7,0,0,0-1.78-.78c-2.72-.38-4.13-1.66-4.43-4.16l2.08-.78.19-.16c1.8,1.86,3.59,3.73,5.55,5.77Z"
		transform="translate(-14 -390.69)" style="fill:#8e583b" />
	<path
		d="M487.84,453l-4.3,4.17.54,1a5.83,5.83,0,0,1-1.49.76,7.45,7.45,0,0,1-1.82-.06l.63-.9-1.53-.76,7.37-5.23Z"
		transform="translate(-14 -390.69)" style="fill:#865439" />
	<path
		d="M465.26,450.64c-.12-.39-.24-.79-.37-1.18l-.39-6.55.54-.08q1.6,4.29,3.23,8.56l-.19.16-1.49-.07Z"
		transform="translate(-14 -390.69)" style="fill:#8e583b" />
	<path
		d="M491.6,446.16c.12-.14.25-.27.38-.4,2.43-1.23,2-3.73,2.65-5.79,1.12,1.74.84,3.59-.66,5.26-.7.79-2.11,1.33-1.29,2.84a.16.16,0,0,1-.16-.18l-.43.44v0l-.43.43.16,0v.17c-1.47-.41-1.58.37-1.31,1.49l.07.05-2.86.86Z"
		transform="translate(-14 -390.69)" style="fill:#865439" />
	<path d="M479.7,472.06l1.05,0c-.08,1.8-.15,3.59-.23,5.38l-.74-.05Z"
		transform="translate(-14 -390.69)" style="fill:#513728" />
	<path d="M479.22,459.27l.06.65-2,1.62-1.17-2Z" transform="translate(-14 -390.69)"
		style="fill:#513728" />
	<path
		d="M487.73,451.33l2.86-.86L488,453.8c-.06-.28-.13-.55-.19-.82l-.6-1.07C487.41,451.72,487.57,451.53,487.73,451.33Z"
		transform="translate(-14 -390.69)" style="fill:#513728" />
	<path d="M479.78,477.37l.74.05.27,2.93-.61,0Z" transform="translate(-14 -390.69)"
		style="fill:#7f533a" />
	<path d="M466.88,438.37l3,2.25C468,441,467.18,440,466.88,438.37Z"
		transform="translate(-14 -390.69)" style="fill:#7f533a" />
	<path d="M471.07,458.85l-2.07-.74.12-.61,2-.1Z" transform="translate(-14 -390.69)"
		style="fill:#8e583b" />
	<path
		d="M481.47,465.21c1.13,0,1.82.25,1,1.52l-.75.43-.4-.85C481.4,465.94,481.44,465.58,481.47,465.21Z"
		transform="translate(-14 -390.69)" style="fill:#c6906d" />
	<path d="M465,442.83l-.54.08c0-1.24,0-2.49.05-3.74l.48.11C465,440.46,465,441.65,465,442.83Z"
		transform="translate(-14 -390.69)" style="fill:#7f533a" />
	<path d="M465,439.28l-.48-.11-.06-.8c.11-.12.21-.25.31-.37l.43-.05.4.08,0,.4Z"
		transform="translate(-14 -390.69)" style="fill:#8e583b" />
	<path d="M481.36,466.31l.4.85-.5,0C481.29,466.87,481.33,466.59,481.36,466.31Z"
		transform="translate(-14 -390.69)" style="fill:#8e583b" />
	<path d="M465.66,438.43l0-.4,1.25.34Z" transform="translate(-14 -390.69)" style="fill:#7f533a" />
	<path d="M471.41,459.34a1.72,1.72,0,0,1,0-.39l.31.25Z" transform="translate(-14 -390.69)"
		style="fill:#8e583b" />
	<path
		d="M396.87,484c-.21,3-1,4.9-2.94,6.15a2.72,2.72,0,0,1-4.37-1.57c-.79-2.39.49-6,2.74-7.11.8-.4,2.26-.59,2.82-.14A8.62,8.62,0,0,1,396.87,484Z"
		transform="translate(-14 -390.69)" style="fill:#f4f5f5" />
	<path
		d="M350.51,484.89c-1.08,1.77-1.8,3.58-3.06,4.87-1.83,1.87-4.18,1-4.85-1.51-.58-2.22.6-5.58,2.61-6.66.85-.46,2.38-.74,3-.28C349.18,482,349.63,483.42,350.51,484.89Z"
		transform="translate(-14 -390.69)" style="fill:#f4f5f5" />
	<path
		d="M467.82,429l.72-.18,1.4-.67,1.7-1.67c2.79.27,4.78-1.68,7.16-2.55l-.37.87c-1.19.57-2,1.37-1.57,2.82l-1.07.52c-2.79-1.76-3.81-1.54-5.2,1.14Z"
		transform="translate(-14 -390.69)" style="fill:#5e4a40" />
	<path
		d="M478.43,424.84l.37-.87a1.23,1.23,0,0,1,.14-.31l3.8.34a.3.3,0,0,0,.25-.22l2-.94a4.79,4.79,0,0,1,4.53,3.2l-.6.56c-1.9-3.1-3.09-3.45-5.57-1.64l-1.69.36Z"
		transform="translate(-14 -390.69)" style="fill:#6e5d52" />
	<path d="M471.64,426.52l-1.7,1.67C469.41,426.93,469.75,426.59,471.64,426.52Z"
		transform="translate(-14 -390.69)" style="fill:#17a451" />
	<path
		d="M496.87,441.28c.36-.4.86-.73,1.05-1.19,1.37-3.36,2.55-6.81,4.09-10.1.46-1,1.82-1.6,2.87-2.2a4.9,4.9,0,0,1,1.39,1.7,21.49,21.49,0,0,1,1.44,12.1c-.35,2.62-.32,5.29-.45,7.93l-1.87.59-1.41.55a5.18,5.18,0,0,0-5.74,1.16,5.6,5.6,0,0,1-.89.61l-2.45-.76.85-6.64C496.12,443.78,496.5,442.53,496.87,441.28Z"
		transform="translate(-14 -390.69)" style="fill:#fdfefe" />
	<path
		d="M496.87,441.28c-.37,1.25-.75,2.5-1.12,3.75l-3.07,3c-.82-1.51.59-2.05,1.29-2.84,1.5-1.67,1.78-3.52.66-5.26-.17-2.06-.35-4.13-.52-6.2l-.5-1.16-.05-.41c0-.25,0-.51,0-.76-.22-1.9-1.67-1.5-2.89-1.54l-.75-.2a.22.22,0,0,0-.32-.08l-.51-.41.77-.29h.49L492,429h1.24l1.5,1.18q.9,5.19,1.81,10.36A3.48,3.48,0,0,0,496.87,441.28Z"
		transform="translate(-14 -390.69)" style="fill:#513728" />
	<path
		d="M504,450.66l1.41-.55,2,.07.69.47,1.27,2c-1.84,1-3.93.33-5.36-1.61A2.38,2.38,0,0,1,504,450.66Z"
		transform="translate(-14 -390.69)" style="fill:#e1b593" />
	<path d="M507.39,450.18l-2-.07,1.87-.59C507.3,449.74,507.35,450,507.39,450.18Z"
		transform="translate(-14 -390.69)" style="fill:#926e58" />
	<path d="M509.74,442.88l-.3,2.52Z" transform="translate(-14 -390.69)" style="fill:#50b47f" />
	<path d="M510.16,438.77c-.1.57-.2,1.13-.29,1.7C510,439.9,510.06,439.34,510.16,438.77Z"
		transform="translate(-14 -390.69)" style="fill:#50b47f" />
	<path d="M510.54,435.07l-.24,1.29Z" transform="translate(-14 -390.69)" style="fill:#50b47f" />
	<path
		d="M447.84,396.55l.49.31c.83,2,1.6,4,2.49,6,1.49,3.28,2.9,6.6,4.64,9.75,1.47,2.67,3.53,5,5,7.69a56.36,56.36,0,0,1,2.73,6.93c.49,1.26.25,3,2.12,3.37,0,.2,0,.39,0,.58l-.87,1c-.36.28-1,.56-1,.85,0,1.93-1.2,3.81-.15,5.81a8.59,8.59,0,0,1,.45,2.48c-.72-1.28-1.87-2.51-2.07-3.87a33,33,0,0,0-4.25-11.58c-4.14-7.22-8.4-14.35-10-22.72-.26-1.35-1.52-2.52-2.32-3.77v-2.77Z"
		transform="translate(-14 -390.69)" style="fill:#009d4b" />
	<path
		d="M465.28,431.17c0-.2,0-.39,0-.59l2.53-1.54,2.77.28,2,4.55a.73.73,0,0,0-.36,0h-.86l-.44,0-1.62-3.25-.75-.54a.35.35,0,0,0-.34,0l-.54.12-.79.44Z"
		transform="translate(-14 -390.69)" style="fill:#513728" />
	<path
		d="M464.38,469.51l1.26,2.59a27.76,27.76,0,0,0-3.22-.74c-.39-.05-.83.44-1.25.69.23,2.41,2.08,3.28,4.06,4.07-.24,1.39-.46,2.7-.58,3.44l-5.54-.22-1.31-.7v-1.2c1.3-.58,2.45-1.25,1.83-3l-.57-5.63,1.29-.11,3.14,2.48C464,470.31,464.16,469.91,464.38,469.51Z"
		transform="translate(-14 -390.69)" style="fill:#513728" />
	<path
		d="M453.61,470.41l2.16-.92c.46,1.92.91,3.83,1.37,5.74-.05.45-.11.91-.16,1.36-1.3,1.06-2.58,2.52-4,.08-.1-.16-.64-.07-1-.1a5.67,5.67,0,0,0-.35-2,11.8,11.8,0,0,0-1.79-2L448.3,475l-1.22-.46,2.48-2.59h1.66c.81,1.37,1.59,2.76,2.47,4.09a4.28,4.28,0,0,0,1.17.9c.29-.4.75-.76.84-1.2A4.63,4.63,0,0,0,453.61,470.41Z"
		transform="translate(-14 -390.69)" style="fill:#926e58" />
	<path d="M457.14,475.23c-.46-1.91-.91-3.82-1.37-5.74l3.29-.68.57,5.63Z"
		transform="translate(-14 -390.69)" style="fill:#f0caaa" />
	<path
		d="M453.61,470.41a4.63,4.63,0,0,1,2.09,5.31c-.09.44-.55.8-.84,1.2a4.28,4.28,0,0,1-1.17-.9c-.88-1.33-1.66-2.72-2.47-4.09.1-.37.2-.74.31-1.12Z"
		transform="translate(-14 -390.69)" style="fill:#f0caaa" />
	<path
		d="M450,487.24c-1.91-.06-1.92-1.51-2.12-2.85-.23-1.5-.49-3-.74-4.5l0-.44,1.26-1.1a11.25,11.25,0,0,0,.93,7C449.65,485.94,449.82,486.6,450,487.24Z"
		transform="translate(-14 -390.69)" style="fill:#8e583b" />
	<path d="M448.46,478.35l-1.26,1.1-.3-4.52.16-.4,0,0,1.22.46,1.31,1.57v.79l-.52,1Z"
		transform="translate(-14 -390.69)" style="fill:#5e4a40" />
	<path d="M464.38,469.51c-.22.4-.43.8-.89,1.67l-3.14-2.48,1.94-.81Z"
		transform="translate(-14 -390.69)" style="fill:#e1b593" />
	<path d="M451.53,470.81c-.11.38-.21.75-.31,1.12h-1.66Z" transform="translate(-14 -390.69)"
		style="fill:#eaedec" />
	<path d="M447.06,474.53l-.16.4Z" transform="translate(-14 -390.69)" style="fill:#926e58" />
	<path d="M485,422.84l-2,.94c.27-.59.54-1.18.8-1.77Z" transform="translate(-14 -390.69)"
		style="fill:#eaedec" />
	<path d="M488.94,426.6l.6-.56.36,1.63-.92-.07C489,427.27,489,426.94,488.94,426.6Z"
		transform="translate(-14 -390.69)" style="fill:#513728" />
	<path d="M493.25,429h0Z" transform="translate(-14 -390.69)" style="fill:#6e5d52" />
	<path d="M490.37,428.91h-.49c0-.15.06-.29.1-.44Z" transform="translate(-14 -390.69)"
		style="fill:#6e5d52" />
	<path
		d="M507.26,473.08a4.1,4.1,0,0,0-1.22.06,64.25,64.25,0,0,1-6.3,2.17,4.54,4.54,0,0,1-5-2.36,21.27,21.27,0,0,1-3.64-8.42l4.54,1,.56.76-.85,1.22.48.27.7-1.54h0l.5-.25,0-.1.77.14,2.57,6a11.14,11.14,0,0,0,.35-1.26c.31-3.76.31-3.75,3.92-4.5.27-.06.48-.43.71-.65,1-.26,1.82-.58,2.82.31.49.44,1.69.08,2.81.08-.51-.81-.83-1.29-1.14-1.78l.51,0,1.48-4.37c1.18,2.85,1.16,3.33,0,8l-.37.45L510.11,470l-.39.73-1.51,1.57h-.15Z"
		transform="translate(-14 -390.69)" style="fill:#fad6b6" />
	<path
		d="M496.16,466.32l-.56-.76c0-1.63-1.35-1.44-2.3-1.8l-.86-.35-1.71-1.54.48-1.39a9.89,9.89,0,0,0,2.23,1.25c1.13.3,1.64-.36,1.42-1.58l.19-1.6.78-.13c.12.43.23.87.35,1.3l.36.82.45.37,1.35,1.28,1.41-2.08.82-.72.89,1.19c0,.85.26,1.26,1.23.86s1.06-.77.23-1.38l.85-1.05.05-1.76-.46-5.59L504,451c1.43,1.94,3.52,2.56,5.36,1.61.28.71.55,1.42.82,2.14l-4.12-1.12c-1.54-.32-1.47.82-1.11,1.54a21.44,21.44,0,0,0,2.24,3l2.56,2.34c-.21,1.2.72,2.83-1.29,3.34-.57-1-.93-2.39-1.75-2.74-1.71-.71-2.85,2.34-4.93,1.21,0,0-.45.69-.69,1.06h0a5.25,5.25,0,0,1-1.79.28c-1.92-.38-2.5.48-2.32,2.2l0,.1-.5.25h0A.22.22,0,0,0,496.16,466.32Z"
		transform="translate(-14 -390.69)" style="fill:#261c18" />
	<path
		d="M495.83,508.66a15.9,15.9,0,0,1-2.62-8.41c0-6.27-.2-12.55-.24-18.82,0-.55.6-1.11.91-1.66.31,2.68.72,5.36.92,8.05.48,6.42.88,12.85,1.28,19.28A6.59,6.59,0,0,1,495.83,508.66Z"
		transform="translate(-14 -390.69)" style="fill:#8e583b" />
	<path
		d="M491.21,460.48l-.48,1.39-.08.06h-.12c-1.93.49-.82,1.75-.7,2.77l.09,1.21c0,1.49-.11,3,0,4.48a2.34,2.34,0,0,0,2.65,2.39l.06.05-1.82,1.3-.6.63c-1.12-3.15-2.06-6.32-1.52-9.75a10.7,10.7,0,0,0-.17-2.92c-.23-2-.46-4,1.08-5.62l1.75,3.49Z"
		transform="translate(-14 -390.69)" style="fill:#5e4a40" />
	<path d="M490.77,474.12l1.82-1.3,4.72,4.21-3,1.23-.79-1,.08-.05Z"
		transform="translate(-14 -390.69)" style="fill:#8e583b" />
	<path d="M507.26,473.08l.8-.73-.81,2.81-2.81,2.06.6.78-2.4.55c-.22-.52-.44-1-.56-1.31Z"
		transform="translate(-14 -390.69)" style="fill:#8e583b" />
	<path d="M492.53,472.77a2.34,2.34,0,0,1-2.65-2.39c-.07-1.49,0-3,0-4.48Z"
		transform="translate(-14 -390.69)" style="fill:#8e583b" />
	<path d="M501.7,489.68l.87,0v5.75l-.65,0C501.84,493.55,501.77,491.61,501.7,489.68Z"
		transform="translate(-14 -390.69)" style="fill:#5e4a40" />
	<path d="M501.93,478.75c-.11.36-.21.73-.31,1.1-1.83.74-1.83.74-2.7-.63Z"
		transform="translate(-14 -390.69)" style="fill:#5e4a40" />
	<path d="M489.83,464.69c-.12-1-1.23-2.28.7-2.77C490.3,462.84,490.06,463.76,489.83,464.69Z"
		transform="translate(-14 -390.69)" style="fill:#8e583b" />
	<path d="M492.44,463.41l.86.35Z" transform="translate(-14 -390.69)" style="fill:#8e583b" />
	<path
		d="M417.44,448.65c0-.59.05-1.18.09-2.14l2.78.49a18.51,18.51,0,0,0,1.08,3.69c2.21,4.14,4.72,8.12,6.8,12.32a24.57,24.57,0,0,1,2.25,7.35,92.28,92.28,0,0,1,.54,10.4c0,.38-.51.78-.78,1.17a106.74,106.74,0,0,0-2.12-10.74c-.8-2.69-2.46-5.12-3.62-7.72-1.84-4.14-3.54-8.35-5.38-12.49A14.66,14.66,0,0,0,417.44,448.65Z"
		transform="translate(-14 -390.69)" style="fill:#009d4b" />
	<path
		d="M518.4,476.17c-.27.53-.55,1.05-.82,1.57l-6.54-1-.9-.2-2-.21-.15-.66,4.09-4.91c2.65.35,4.46,2,6.12,3.9Z"
		transform="translate(-14 -390.69)" style="fill:#fdfefe" />
	<path
		d="M507.07,477.45l.18-1.21a1.37,1.37,0,0,1,.29,0,1.16,1.16,0,0,1,.18.35c0,.14,0,.29-.07.44Z"
		transform="translate(-14 -390.69)" style="fill:#0b7c" />
	<path d="M510.14,476.56l.9.2Z" transform="translate(-14 -390.69)" style="fill:#c7e3cf" />
	<path d="M507.72,476.57a1.16,1.16,0,0,0-.18-.35c.15-.18.31-.35.47-.53l.15.66Z"
		transform="translate(-14 -390.69)" style="fill:#c7e3cf" />
	<path
		d="M489.56,456.46c-1.54,1.65-1.31,3.63-1.08,5.62a10.7,10.7,0,0,1,.17,2.92c-.54,3.43.4,6.6,1.52,9.75,2.06,7.68,1.8,15.53,1.53,23.41-2.74-8.06-3.47-16.54-5-24.85l-.12-1.1c-.36-4.52-1.84-9-.62-13.57A34.76,34.76,0,0,1,488,453.8l2.56-3.33-.07-.05c.43-.5.87-1,1.31-1.49v-.17l-.17,0c.15-.14.3-.28.44-.43v0l.43-.44a.16.16,0,0,0,.16.18l3.07-3c-.29,2.21-.57,4.43-.85,6.64-.27.18-.75.35-.76.55-.15,1.9-.93,3-3,2.68-.2,0-.49.54-.73.83l-.85.74Z"
		transform="translate(-14 -390.69)" style="fill:#eaedec" />
	<path d="M486.57,472.21l.12,1.1Z" transform="translate(-14 -390.69)" style="fill:#5e4a40" />
	<path
		d="M518.22,474.68c-1.66-1.9-3.47-3.55-6.12-3.9l-.15-.38c2.91-2.35,4.38-5.2,3.1-9,.53-1,1.09-1.88,1.61-2.83s1-2.06,1.56-3.09l.83.1c.33,1.52,1,3.07.91,4.57-.24,3.64-.84,7.26-1.29,10.89Z"
		transform="translate(-14 -390.69)" style="fill:#c7e3cf" />
	<path
		d="M515.05,461.41c1.28,3.79-.19,6.64-3.1,9l-1-.68.38-.52a5.1,5.1,0,0,0,2.3-7.07c-.07-1.22-.14-2.43-.2-3.65l-.71-.85c.87-1.63-.67-2-1.45-2.75l2.13,0c.22.28.43.57.64.85C514.4,457.61,514.72,459.51,515.05,461.41Z"
		transform="translate(-14 -390.69)" style="fill:#513728" />
	<path
		d="M462.72,487.27a60,60,0,0,1-5.83,2.27,4,4,0,0,1-5-2.18c-1.1-2-2.07-4.05-3.1-6.09l.56-.66,3.52.89.45.43-.82,1c2.71-.95,2.69-.95,3.3,1.85a10.17,10.17,0,0,0,.63,1.54c.7-1.3.53-3.12,1.27-3.64,1.39-1,3.4-.84,5.1-1.45.68-.24,1.62.26,2.23.38l1.11-4.54.79.09V482Z"
		transform="translate(-14 -390.69)" style="fill:#fad6b6" />
	<path
		d="M449.1,478.33l.52-1c1.07.62,2.31,1.76,2.39-.75h0c.33,0,.87-.06,1,.1,1.41,2.44,2.69,1,4-.08.28.28.55.57.82.85v1.2c-1.42,1.69-3.79,1.8-6,.21,0,.37-.1.7-.14,1Z"
		transform="translate(-14 -390.69)" style="fill:#261c18" />
	<path
		d="M451.63,479.87c0-.32.09-.65.14-1,2.24,1.59,4.61,1.48,6-.21l1.31.7a7.32,7.32,0,0,1-1.65,1.29c-1.35.53-2.76.88-4.14,1.3l-.45-.43Z"
		transform="translate(-14 -390.69)" style="fill:#7f533a" />
	<path
		d="M449.1,489l.93-1.72,4.56,4.11H452.4a12,12,0,0,1-1.36-.77C450.37,490.07,449.74,489.5,449.1,489Z"
		transform="translate(-14 -390.69)" style="fill:#8e583b" />
	<path
		d="M462.72,487.27l4.21-5.3.69-.08-.72,3.05v-.11l-.85,1.05-.33.6-.49.43,0,0-.44.44,0,0-.44.46,0-.05-.44.85,0,0-1.2.45-.23-.24Z"
		transform="translate(-14 -390.69)" style="fill:#7f533a" />
	<path
		d="M462.81,490.17c-.55.3-1.5.53-1.57.92-.25,1.42-1.22,1.15-2.12,1.18l-1-1.28,4.5-2.24.23.23c0,.4,0,.8-.05,1.21Z"
		transform="translate(-14 -390.69)" style="fill:#7f533a" />
	<path d="M457.92,501.64l.9,0-.06,2.45H458Z" transform="translate(-14 -390.69)"
		style="fill:#5e4a40" />
	<path d="M458,504.07h.75c.08.9.16,1.8.23,2.71l-.62.06Z" transform="translate(-14 -390.69)"
		style="fill:#8e583b" />
	<path d="M457.41,492.68c0,.2,0,.4,0,.6l-1.37.59-.28-.73Z" transform="translate(-14 -390.69)"
		style="fill:#5e4a40" />
	<path d="M451.86,492.69l-1.16-1,1.35-.31C452,491.83,451.92,492.26,451.86,492.69Z"
		transform="translate(-14 -390.69)" style="fill:#8e583b" />
	<path
		d="M467.62,481.89l-.69.08v-4.79l-.79-.09L465,481.63c-.61-.12-1.55-.62-2.23-.38-1.7.61-3.71.47-5.1,1.45-.74.52-.57,2.34-1.27,3.64a10.17,10.17,0,0,1-.63-1.54c-.61-2.8-.59-2.8-3.3-1.85l.82-1c1.38-.42,2.79-.77,4.14-1.3a7.32,7.32,0,0,0,1.65-1.29l5.54.22c.12-.74.34-2.05.58-3.44-2-.79-3.83-1.66-4.06-4.07l2.63.76c.43,1.86.43,1.86,3.43,1.72Z"
		transform="translate(-14 -390.69)" style="fill:#c6906d" />
	<path
		d="M465.73,486.48l.33-.6.85-1.05v.11a8.86,8.86,0,0,1,.66,2.23,25.87,25.87,0,0,1-.3,3.38c-.22-.61-.44-1.21-.85-2.38-.79,2.66-1.38,4.89-2.15,7.05-.21.6-1,1-1.48,1.52.68-2.94,1.37-5.88,2.05-8.82l0-.63,0,0,.44-.44,0,0Z"
		transform="translate(-14 -390.69)" style="fill:#a0d1b1" />
	<path
		d="M467.23,474.53c-3,.14-3,.14-3.43-1.72l-2.63-.76c.42-.25.86-.74,1.25-.69a27.76,27.76,0,0,1,3.22.74h0l1.61.53Z"
		transform="translate(-14 -390.69)" style="fill:#e1b593" />
	<path d="M466.59,451.48l1.49.07-2.08.78Z" transform="translate(-14 -390.69)"
		style="fill:#5e4a40" />
	<path d="M467.23,472.62l-1.61-.53,1.67,0Z" transform="translate(-14 -390.69)"
		style="fill:#513728" />
	<path d="M466.87,497.53l.09-.8Z" transform="translate(-14 -390.69)" style="fill:#a0d1b1" />
	<path
		d="M511.3,454.88c.78.76,2.32,1.12,1.45,2.75l-.61.46c-1.91,0-3.84,0-3.79-2.87l-.55.54-1.75-2.09,4.12,1.12Z"
		transform="translate(-14 -390.69)" style="fill:#e1b593" />
	<path
		d="M531.19,502l-2.5-1.13,3.6-10.29h.91c.28,1.21.49,2.45.88,3.63.16.49.69.88,1,1.31.08.27.16.55.23.82l-.19.36-.24,1.3-.12,2.44c-.12.55-.23,1.1-.34,1.65,0,.27,0,.54-.05.8l-2-.37a.54.54,0,0,1-.36-.16l-.46-.25A.58.58,0,0,1,531.19,502Z"
		transform="translate(-14 -390.69)" style="fill:#fdfefe" />
	<path d="M535.6,492.59c0,.41.06.83.08,1.24l-.37,0C535.41,493.44,535.5,493,535.6,492.59Z"
		transform="translate(-14 -390.69)" style="fill:#c7e3cf" />
	<path d="M535.31,493.87l.37,0c-.1.84-.21,1.67-.32,2.5-.07-.27-.15-.55-.23-.82Z"
		transform="translate(-14 -390.69)" style="fill:#50b47f" />
	<path d="M535.85,490.57c0,.69-.07,1.38-.1,2.07C535.78,492,535.81,491.26,535.85,490.57Z"
		transform="translate(-14 -390.69)" style="fill:#50b47f" />
	<path
		d="M513.83,500h-2.91q-1.55-4.1-3.07-8.21l-.15-.79c-.07-.56-.15-1.12-.22-1.68l-.15-.8-.33-2.44c0-.28-.07-.56-.11-.84s-.07-.83-.1-1.24l.06-.81c.39.24,1,.39,1.13.72,1.54,4.36,5.18,7.8,5.58,12.65C513.66,497.69,513.74,498.84,513.83,500Z"
		transform="translate(-14 -390.69)" style="fill:#028f45" />
	<path d="M506.81,483.2l-.12-.85Z" transform="translate(-14 -390.69)" style="fill:#0b7c" />
	<path d="M506.69,479.89c0-.3.07-.59.11-.88C506.76,479.3,506.72,479.59,506.69,479.89Z"
		transform="translate(-14 -390.69)" style="fill:#0b7c" />
	<path
		d="M507.85,491.77q1.53,4.11,3.07,8.21l-1.85.46a.57.57,0,0,1-.22-.07c-.29-2.13-.6-4.26-.87-6.4C507.89,493.24,507.89,492.5,507.85,491.77Z"
		transform="translate(-14 -390.69)" style="fill:#0b7c" />
	<path
		d="M511,469.72l1,.68.15.38L508,475.69c-.16.18-.32.35-.47.53a1.37,1.37,0,0,0-.29,0v-1.08l.81-2.81.15,0c1.31.25,1.56-.52,1.51-1.57l.39-.74Z"
		transform="translate(-14 -390.69)" style="fill:#5e4a40" />
	<path d="M507,486.06l.33,2.44Z" transform="translate(-14 -390.69)" style="fill:#0b7c" />
	<path d="M507.48,489.3c.07.56.15,1.12.22,1.68Z" transform="translate(-14 -390.69)"
		style="fill:#0b7c" />
	<path d="M506.79,484c0,.41.06.83.1,1.24C506.85,484.81,506.82,484.39,506.79,484Z"
		transform="translate(-14 -390.69)" style="fill:#0b7c" />
	<path
		d="M422.79,482.33l-5,.14q0-5-.07-10c.33.21.82.34.95.64C420.1,476.15,421.44,479.24,422.79,482.33Z"
		transform="translate(-14 -390.69)" style="fill:#0b7c" />
	<path
		d="M456.58,449l-4.12,0c-2-4.92-3.9-9.84-5.89-14.74-.1-.24-.54-.33-.82-.49q-.18-6.78-.35-13.56a26.75,26.75,0,0,1,1.27,2.72c1,3.13,1.82,6.37,3.06,9.41,1.54,3.76,3.52,7.33,5.14,11.06A50,50,0,0,1,456.58,449Z"
		transform="translate(-14 -390.69)" style="fill:#0a8642" />
	<path
		d="M445.06,399.32c.8,1.25,2.06,2.42,2.32,3.77,1.58,8.37,5.84,15.5,10,22.72a33,33,0,0,1,4.25,11.58c.2,1.36,1.35,2.59,2.07,3.87l.09,7.71-2.67,0c-.74-2.95-1.48-5.89-2.21-8.84-1.3-5.24-4.24-9.7-6.84-14.32a16,16,0,0,1-1.5-2.9c-1.35-4.17-2.56-8.39-3.9-12.57-.2-.61-.83-1.08-1.26-1.62Z"
		transform="translate(-14 -390.69)" style="fill:#04964b" />
	<path
		d="M445.39,408.75c.43.54,1.06,1,1.26,1.62,1.34,4.18,2.55,8.4,3.9,12.57a16,16,0,0,0,1.5,2.9c2.6,4.62,5.54,9.08,6.84,14.32.73,2.95,1.47,5.89,2.21,8.84l-4.52,0a50,50,0,0,0-1.71-5.58c-1.62-3.73-3.6-7.3-5.14-11.06-1.24-3-2-6.28-3.06-9.41a26.75,26.75,0,0,0-1.27-2.72C445.4,416.43,445.39,412.59,445.39,408.75Z"
		transform="translate(-14 -390.69)" style="fill:#028f45" />
	<path d="M534.47,502.08c.11-.55.22-1.1.34-1.65.07.31.15.62.23.94Z"
		transform="translate(-14 -390.69)" style="fill:#c7e3cf" />
	<path d="M534.93,498l.24-1.3Z" transform="translate(-14 -390.69)" style="fill:#c7e3cf" />
	<path
		d="M528.25,505c0-.29,0-.59,0-.88a2.13,2.13,0,0,1,2.76-.31,12.45,12.45,0,0,0,2.9.73c0,.54,0,1.08,0,1.63-1.72-.15-3.44-.27-5.15-.48C528.63,505.68,528.45,505.25,528.25,505Z"
		transform="translate(-14 -390.69)" style="fill:#0a8642" />
	<path
		d="M534,504.55a12.45,12.45,0,0,1-2.9-.73,2.13,2.13,0,0,0-2.76.31v-2.36l2.89.21a.58.58,0,0,0,.36.12l.46.25a.54.54,0,0,0,.36.16L534,504Z"
		transform="translate(-14 -390.69)" style="fill:#0b7c" />
	<path d="M534,504l-1.65-1.44,2,.37C534.29,503.24,534.15,503.59,534,504Z"
		transform="translate(-14 -390.69)" style="fill:#c7e3cf" />
	<path d="M462.77,490.19c0-.41,0-.81.05-1.21l1.2-.45Z" transform="translate(-14 -390.69)"
		style="fill:#261c18" />
	<path d="M464,488.55l.44-.85Z" transform="translate(-14 -390.69)" style="fill:#261c18" />
	<path d="M464.85,487.29l0,.63-.42-.17Z" transform="translate(-14 -390.69)" style="fill:#261c18" />
	<path
		d="M463.77,449l-.09-7.71a8.59,8.59,0,0,0-.45-2.48c-1.05-2,.16-3.88.15-5.81,0-.29.67-.57,1-.85l1.71,2.93-1.86-.54c.87,1-2.13,2.11-.19,3.45l.42.41.06.8c0,1.25,0,2.5-.05,3.74l.39,6.55-.85-.37Z"
		transform="translate(-14 -390.69)" style="fill:#513728" />
	<path
		d="M494.11,433.77c.17,2.07.35,4.14.52,6.2-.6,2.06-.22,4.56-2.65,5.79,1.18-2.81,1.82-5.66.85-8.68-.08-.24-.2-.46-.31-.71-1.5.91-1.59,1.27-1.12,4.29l-2,.38,1.64,1.74a2.93,2.93,0,0,1-3.6.5c-2.1-1.14-2.6-1-3.8.5l-4.52.33c-.35,1.45-.68,2.8-1,4.16-.14-1.16-.27-2.32-.41-3.48-.07-.57-.16-1.14-.24-1.7l-.52,0c-.13.91-.26,1.82-.38,2.73l-2.29-2.42c1.25-.95,2.29-1.93,4.25-1.71,1.11.13,2.41-1.32,3.62-2.06.43.84.85,1.68,1.31,2.59.64-2.05,2.68-1.9,4.29-2.52l.32,1.36c1.18-1,1.83-1.94,1.47-3.42-.12-.53.26-1.17.41-1.76,0-.39.12-1,0-1.11-.77-.39-1.64-.57-2.42-.93-1-.48-1.64-1.2-.93-2.39.37-.06,1-.27,1.06-.17,1.21,2.28,3.39,1.58,5.27,1.77Z"
		transform="translate(-14 -390.69)" style="fill:#d69a72" />
	<path
		d="M476.56,445.84c.12-.91.25-1.82.38-2.73l.52,0c.08.56.17,1.13.24,1.7.14,1.16.27,2.32.41,3.48v.8h-.95Z"
		transform="translate(-14 -390.69)" style="fill:#926e58" />
	<path d="M477.16,449.07h.95c.13.53.27,1.07.4,1.61l-.58.24Z" transform="translate(-14 -390.69)"
		style="fill:#d69a72" />
	<path
		d="M478.43,424.84l3.25.48c.11,1.88.22,3.76.34,5.63-.23.28-.58.53-.67.85-.61,2.14-1,2.37-3.15,1.6-.45-1.91-.89-3.83-1.34-5.74C476.46,426.21,477.24,425.41,478.43,424.84Z"
		transform="translate(-14 -390.69)" style="fill:#fad6b6" />
	<path
		d="M492.88,433.07c-1.88-.19-4.06.51-5.27-1.77-.05-.1-.69.11-1.06.17l-.68-.14L485,428.6l2.33.11a.26.26,0,0,1,.25.08l.9.41a.23.23,0,0,0,.25-.15l.43.16.51.41.11.29.21-.21.75.2,2.89,1.54c0,.25,0,.51,0,.76s-.17.3-.25.45Z"
		transform="translate(-14 -390.69)" style="fill:#f0caaa" />
	<path
		d="M466.12,435.05l-1.71-2.93.87-1,1.62-.58c-.19,1.6.18,3.05,1.77,3.66.61.24,1.5-.24,2.27-.4l.44,0c-.19.8-.39,1.61-.58,2.42l-3.85-.46Z"
		transform="translate(-14 -390.69)" style="fill:#d69a72" />
	<path
		d="M487.74,439.72c-1.61.62-3.65.47-4.29,2.52-.46-.91-.88-1.75-1.31-2.59v-.42c1.11-1.25,2.11-2.73,4.17-1.93l-.22.45a5.27,5.27,0,0,1,1.35.79C487.67,438.8,487.65,439.32,487.74,439.72Z"
		transform="translate(-14 -390.69)" style="fill:#865439" />
	<path
		d="M488.94,426.6c0,.34,0,.67,0,1-1.69-.51-3.39-1-5.05-1.56-.28-.1-.38-.71-.56-1.08C485.85,423.15,487,423.5,488.94,426.6Z"
		transform="translate(-14 -390.69)" style="fill:#e1b593" />
	<path
		d="M478.2,433.4c2.12.77,2.54.54,3.15-1.6.09-.32.44-.57.67-.85,1.05,3.18.61,4.42-1.92,5.39l-1.53-.17a.88.88,0,0,0-.19-.24Z"
		transform="translate(-14 -390.69)" style="fill:#d69a72" />
	<path
		d="M474.67,437.18c-2.53.14-2.16-1.83-2.43-3.33a.73.73,0,0,1,.36,0c1.39,2,2.7,1,4-.09.2.71.39,1.42.58,2.13-.07.21-.15.42-.23.64Z"
		transform="translate(-14 -390.69)" style="fill:#d69a72" />
	<path
		d="M477.19,435.91l-.57-2.13c-.28-1.87-.56-3.73-.83-5.6l1.07-.52c.45,1.91.89,3.83,1.34,5.74l.18,2.53Z"
		transform="translate(-14 -390.69)" style="fill:#7f533a" />
	<path
		d="M485.87,431.33l.68.14c-.71,1.19-.1,1.91.93,2.39.78.36,1.65.54,2.42.93.16.08,0,.72,0,1.11-2.38-.8-4.61-1.77-5.39-4.47Z"
		transform="translate(-14 -390.69)" style="fill:#8e583b" />
	<path d="M467,435.82l3.85.46c1,.64.65,1.22-.17,1.58A2.81,2.81,0,0,1,467,435.82Z"
		transform="translate(-14 -390.69)" style="fill:#8e583b" />
	<path
		d="M485.87,431.33l-1.32.1a1.07,1.07,0,0,1-.09-.19c-.1-1.16-.19-2.33-.29-3.5l3.11,1L485,428.6Z"
		transform="translate(-14 -390.69)" style="fill:#c6906d" />
	<path d="M474.67,437.18l2.29-.63c-.21.6-.29,1.58-.68,1.73a3.31,3.31,0,0,1-2.58-.4Z"
		transform="translate(-14 -390.69)" style="fill:#7f533a" />
	<path d="M478.57,436.17l1.53.17,1.76.64C479.9,438.5,479,438.26,478.57,436.17Z"
		transform="translate(-14 -390.69)" style="fill:#865439" />
	<path d="M465.23,438l-.43.05c0-.14,0-.28,0-.42l-.22-1.41,1.46,1h0Z"
		transform="translate(-14 -390.69)" style="fill:#513728" />
	<path d="M464.81,437.58c0,.14,0,.28,0,.42s-.2.25-.31.37l-.42-.41Z"
		transform="translate(-14 -390.69)" style="fill:#7f533a" />
	<path d="M488.43,429.2l-.9-.41.86.1A1.65,1.65,0,0,1,488.43,429.2Z"
		transform="translate(-14 -390.69)" style="fill:#c6906d" />
	<path d="M466.05,437.14l.17.09-.17-.1Z" transform="translate(-14 -390.69)" style="fill:#513728" />
	<path d="M488.43,429.2a1.65,1.65,0,0,0,0-.31.32.32,0,0,1,.29.16A.23.23,0,0,1,488.43,429.2Z"
		transform="translate(-14 -390.69)" style="fill:#513728" />
	<path d="M491.83,448.93c-.44.5-.88,1-1.31,1.49C490.25,449.3,490.36,448.52,491.83,448.93Z"
		transform="translate(-14 -390.69)" style="fill:#513728" />
	<path d="M492.52,447.89l-.43.44Z" transform="translate(-14 -390.69)" style="fill:#513728" />
	<path d="M492.1,448.3c-.14.15-.29.29-.44.43C491.81,448.59,492,448.45,492.1,448.3Z"
		transform="translate(-14 -390.69)" style="fill:#513728" />
	<path
		d="M475.79,428.18c.27,1.87.55,3.73.83,5.6-1.32,1.13-2.63,2.13-4,.09l-2-4.55C472,426.64,473,426.42,475.79,428.18Z"
		transform="translate(-14 -390.69)" style="fill:#f0caaa" />
	<path
		d="M500.57,459.39l-.81.72-.47-.07a14.92,14.92,0,0,0-.14-2.42c-.37-1.77.4-4.13-2.33-4.77l.53-.42a5.6,5.6,0,0,0,.89-.61,5.18,5.18,0,0,1,5.74-1.16,2.38,2.38,0,0,0,0,.38l-.63.62a11.26,11.26,0,0,0-3.35.15c-.3.1-.18,1.74-.1,2.66C500.07,456.11,500.35,457.75,500.57,459.39Z"
		transform="translate(-14 -390.69)" style="fill:#926e58" />
	<path
		d="M497.35,452.43l-.53.42h-.56l-.54.29c-1.32.76-1.63,1.68-.72,3a10.3,10.3,0,0,1,.83,2.26l-.78.13-.55-.48c-.95-2.57-1.42-2.84-3.56-2l-.61-.29.05,0c.24-.29.53-.85.73-.83,2.1.28,2.88-.78,3-2.68,0-.2.49-.37.76-.55Z"
		transform="translate(-14 -390.69)" style="fill:#6e5d52" />
	<path d="M493.58,431.44l-2.89-1.54C491.91,429.94,493.36,429.54,493.58,431.44Z"
		transform="translate(-14 -390.69)" style="fill:#c6906d" />
	<path d="M492.88,433.07l.43-.42a1,1,0,0,0,.3,0l.5,1.16Z" transform="translate(-14 -390.69)"
		style="fill:#865439" />
	<path d="M489.94,429.7l-.21.21-.11-.29A.22.22,0,0,1,489.94,429.7Z"
		transform="translate(-14 -390.69)" style="fill:#c6906d" />
	<path
		d="M493.61,432.61a1,1,0,0,1-.3,0c.08-.15.16-.3.25-.45C493.57,432.34,493.59,432.47,493.61,432.61Z"
		transform="translate(-14 -390.69)" style="fill:#c6906d" />
	<path
		d="M470.94,433.84c-.77.16-1.66.64-2.27.4-1.59-.61-2-2.06-1.77-3.66l.79-.44.54-.12a.35.35,0,0,1,.34,0l.75.54Z"
		transform="translate(-14 -390.69)" style="fill:#fad6b6" />
	<path d="M469.32,430.59l-.75-.54Z" transform="translate(-14 -390.69)" style="fill:#d69a72" />
	<path d="M468.23,430l-.54.12Z" transform="translate(-14 -390.69)" style="fill:#d69a72" />
	<path
		d="M457.8,477.44c-.27-.28-.54-.57-.82-.85,0-.45.11-.91.16-1.36l2.49-.79C460.25,476.19,459.1,476.86,457.8,477.44Z"
		transform="translate(-14 -390.69)" style="fill:#c6906d" />
	<path d="M449.61,476.54,448.3,475l1.58-2.34a11.8,11.8,0,0,1,1.79,2,5.67,5.67,0,0,1,.35,2h0Z"
		transform="translate(-14 -390.69)" style="fill:#e1b593" />
	<path
		d="M449.61,476.54l2.4,0c-.08,2.51-1.32,1.37-2.39.75C449.62,477.07,449.62,476.81,449.61,476.54Z"
		transform="translate(-14 -390.69)" style="fill:#926e58" />
	<path
		d="M506.05,453.67l1.75,2.09.55-.54c-.05,2.89,1.88,2.86,3.79,2.87l1.32.39c.06,1.22.13,2.43.2,3.65a8.55,8.55,0,0,1-.24,2.17c-.46,1.24-1.11,2.41-1.68,3.61,1.19-4.68,1.21-5.16,0-8l-1.48,4.37-.51,0c.31.49.63,1,1.14,1.78-1.12,0-2.32.36-2.81-.08-1-.89-1.85-.57-2.82-.31,0-.48,0-1-.05-1.46l3.21-.26c2-.51,1.08-2.14,1.29-3.34.63-.44,1.21-.92.08-1.41-.85-.38-1.75-.63-2.64-.93a21.44,21.44,0,0,1-2.24-3C504.58,454.49,504.51,453.35,506.05,453.67Z"
		transform="translate(-14 -390.69)" style="fill:#d69a72" />
	<path
		d="M508.45,463.91l-3.21.26c-.69-.93-1.22-1.26-2.43-.37-1.53,1.12-3,2.1-3.31,4.14v-2.79l.15-.27-.27.16-1.64,1-.77-.14c-.18-1.72.4-2.58,2.32-2.2a5.25,5.25,0,0,0,1.79-.28h0c.24-.37.66-1.08.69-1.06,2.08,1.13,3.22-1.92,4.93-1.21C507.52,461.52,507.88,463,508.45,463.91Z"
		transform="translate(-14 -390.69)" style="fill:#7f533a" />
	<path
		d="M499.5,465.16v2.78c.32-2,1.78-3,3.31-4.14,1.21-.89,1.74-.56,2.43.37,0,.49,0,1,.05,1.46-.23.22-.44.59-.71.65-3.61.75-3.61.74-3.92,4.5a11.14,11.14,0,0,1-.35,1.26l-2.57-6,1.64-1Z"
		transform="translate(-14 -390.69)" style="fill:#c6906d" />
	<path
		d="M511.74,467.91c.57-1.2,1.22-2.37,1.68-3.61a8.55,8.55,0,0,0,.24-2.17,5.1,5.1,0,0,1-2.3,7.07c0-.28,0-.56,0-.84Z"
		transform="translate(-14 -390.69)" style="fill:#8e583b" />
	<path d="M509.72,470.76c0,1.05-.2,1.82-1.51,1.57Z" transform="translate(-14 -390.69)"
		style="fill:#8e583b" />
	<path d="M511.37,468.36c0,.28,0,.56,0,.84l-.38.52-.87.3Z" transform="translate(-14 -390.69)"
		style="fill:#d69a72" />
	<path d="M496.16,466.32a.22.22,0,0,1,.33-.05c-.23.51-.46,1-.7,1.54l-.48-.27Z"
		transform="translate(-14 -390.69)" style="fill:#c6906d" />
	<path d="M496.5,466.27l.5-.25Z" transform="translate(-14 -390.69)" style="fill:#c6906d" />
	<path
		d="M500.57,459.39c-.22-1.64-.5-3.28-.66-4.92-.08-.92-.2-2.56.1-2.66a11.26,11.26,0,0,1,3.35-.15c.15,1.87.31,3.73.46,5.59,0,.59,0,1.17-.05,1.76l-.85,1.05-1.46.52Z"
		transform="translate(-14 -390.69)" style="fill:#f0caaa" />
	<path
		d="M496.26,452.84h.56c2.73.64,2,3,2.33,4.77a14.92,14.92,0,0,1,.14,2.42l-2.3.87-.45-.37-.36-.82c-.12-.43-.23-.87-.35-1.3a10.3,10.3,0,0,0-.83-2.26c-.91-1.35-.6-2.27.72-3Z"
		transform="translate(-14 -390.69)" style="fill:#f0caaa" />
	<path
		d="M490.33,455.78l.61.29c.75,2.83,1.95,3.51,3.56,2l.55.48c-.06.53-.13,1.07-.19,1.6l-3.55-.2-1.75-3.49h0Z"
		transform="translate(-14 -390.69)" style="fill:#c6906d" />
	<path d="M491.31,460l3.55.2c.22,1.22-.29,1.88-1.42,1.58a9.89,9.89,0,0,1-2.23-1.25Z"
		transform="translate(-14 -390.69)" style="fill:#7f533a" />
	<path d="M497,460.91l2.3-.87.47.07c-.48.69-.95,1.38-1.42,2.08Z"
		transform="translate(-14 -390.69)" style="fill:#865439" />
	<path d="M507.18,458.23c.89.3,1.79.55,2.64.93,1.13.49.55,1-.08,1.41Z"
		transform="translate(-14 -390.69)" style="fill:#7f533a" />
	<path d="M501.46,460.58l1.46-.52c.83.61.72,1-.23,1.38S501.47,461.43,501.46,460.58Z"
		transform="translate(-14 -390.69)" style="fill:#7f533a" />
	<path d="M503.77,459c0-.59,0-1.17.05-1.76C503.81,457.84,503.79,458.42,503.77,459Z"
		transform="translate(-14 -390.69)" style="fill:#7f533a" />
	<path d="M496.18,459.72l.36.82Z" transform="translate(-14 -390.69)" style="fill:#6e5d52" />
	<path d="M490.33,455.78l-.8.69.85-.74Z" transform="translate(-14 -390.69)" style="fill:#5e4a40" />
	<path d="M513.46,458.48l-1.32-.39.61-.46Z" transform="translate(-14 -390.69)"
		style="fill:#8e583b" />
	<path d="M466.91,484.83l-.85,1.05Z" transform="translate(-14 -390.69)" style="fill:#261c18" />
	<path d="M465.73,486.48l-.49.43Z" transform="translate(-14 -390.69)" style="fill:#261c18" />
	<path d="M465.26,486.88l-.44.44Z" transform="translate(-14 -390.69)" style="fill:#261c18" />
	<path d="M532,502.35l-.46-.25Z" transform="translate(-14 -390.69)" style="fill:#c7e3cf" />
	<path d="M494.5,458.07c-1.61,1.51-2.81.83-3.56-2C493.08,455.23,493.55,455.5,494.5,458.07Z"
		transform="translate(-14 -390.69)" style="fill:#f0caaa" />
	<path d="M496.26,452.84l-.54.29Z" transform="translate(-14 -390.69)" style="fill:#926e58" />
	<path d="M501.08,463.44h0c.29.23.14.12,0,0Z" transform="translate(-14 -390.69)"
		style="fill:#261c18" />
	<path d="M499.38,465l.27-.16-.15.27Z" transform="translate(-14 -390.69)" style="fill:#c6906d" />
</svg>