<?xml version="1.0" encoding="UTF-8"?>
<svg id="Layer_1" data-name="Layer 1" xmlns="http://www.w3.org/2000/svg" viewBox="0 0 537.76 121.83">
  <path d="M414.84,98.9c-12.98,6.35-28.16,2.47-36.39-8.96-3.48-4.83-5.32-10.25-5.42-16.18-.11-7.11-.1-14.22-.03-21.34,.04-3.81,2.88-6.9,6.53-7.37,3.74-.49,7.56,1.7,8.55,5.01,.29,.96,.36,2.02,.36,3.04,.05,7.06-.06,14.13,.11,21.19,.16,6.36,5.64,11.8,11.97,12.21,6.91,.45,13.06-4.15,14.17-10.63,.15-.86,.13-1.76,.13-2.64,.01-6.87-.03-13.73,.02-20.6,.02-3.6,2.31-6.51,5.63-7.36,3.48-.9,7.26,.52,8.88,3.57,.59,1.12,.92,2.51,.92,3.78,.06,19.87,.01,39.73,.06,59.6,.01,5.07-4.15,7.71-7.72,7.8-4.25,.11-7.7-3.3-7.77-7.74-.07-4.41-.01-8.82-.01-13.37Z" style="fill: #e99528;"/>
  <path d="M151.63,72.98c4.52,4.6,8.89,9.04,13.25,13.48,.93,.94,1.91,1.85,2.75,2.86,2.61,3.17,2.34,7.73-.58,10.52-2.99,2.86-7.76,3.16-10.68,.38-5.68-5.42-11.2-11-16.78-16.53-.41-.41-.73-.92-1.1-1.38-.12,.06-.24,.13-.36,.19-.03,.35-.09,.69-.09,1.04,0,3.38-.11,6.77,.02,10.15,.18,4.6-3.85,8.4-7.88,8.41-4.42,0-8.07-3.71-8.08-8.38-.02-19.52-.02-39.03,0-58.55,0-3.96,2.76-7.41,6.36-8.14,3.72-.76,7.4,.99,8.84,4.44,.53,1.26,.69,2.76,.7,4.14,.06,9.41,.03,18.82,.03,28.57,.54-.49,.92-.82,1.27-1.17,5.35-5.34,10.69-10.69,16.05-16.01,2.83-2.81,6.03-3.51,9.23-2.08,5.32,2.37,6.51,8.67,2.36,12.88-4.72,4.79-9.5,9.51-14.27,14.26-.35,.35-.73,.65-1.05,.93Z" style="fill: #e99528;"/>
  <path d="M326.59,98.61c-3.78,2.09-8.22,3.38-12.96,3.45-11.52,.16-20.05-5.03-25.74-14.83-4.52-7.78-5.07-16.08-1.48-24.29,4.72-10.8,13.01-17.05,25.02-17.81,16.47-1.05,30.06,12.49,29.97,28.8-.04,6.82,.04,13.63-.02,20.45-.04,5.13-5.05,8.94-9.84,7.34-1.68-.56-3.09-1.91-4.94-3.11Zm-.7-24.84c.14-6.99-6.03-13.29-13.11-13.39-6.73-.1-12.97,6.12-13.14,13.09-.16,6.72,6.06,13.13,12.92,13.32,7.16,.19,13.18-5.69,13.33-13.02Z" style="fill:#e99528;"/>
  <path d="M501.67,43.82h13.41c2.95,0,5.89,0,8.84,0,4.76,.01,8.04,3.23,8.04,7.86,0,4.25-3.64,7.87-8.03,7.9-6.83,.04-13.66,.01-20.48,.01-.53,0-1.06,0-1.72,0,0,4.67-.02,9.21,.02,13.75,0,.92,.12,1.87,.35,2.76,2.72,10.76,14.76,12.91,21.4,7.42,4.35-3.59,8.76-3.42,12.14,.33,2.6,2.89,2.46,7.58-.38,10.24-8.21,7.68-17.87,9.78-28.5,6.7-10.93-3.17-17.82-10.5-20.39-21.62-.54-2.32-.7-4.76-.72-7.15-.07-12.21,.08-24.42-.08-36.63-.07-5.56,3.97-8.42,7.94-8.56,4.47-.16,8.04,3.52,8.17,8.42,.07,2.79,.01,5.59,.01,8.57Z" style="fill: #e99528;"/>
  <path d="M250.04,43.82h1.71c6.83,0,13.66,.1,20.48-.03,5.39-.11,8.09,4.2,8.12,7.85,.04,3.92-3.63,8.05-8.17,7.99-6.78-.09-13.56-.02-20.34-.02h-1.74c-.03,.49-.08,.92-.07,1.34,.07,4.75-.21,9.54,.31,14.24,.79,7.03,7.17,11.72,14.18,11.18,3.25-.25,5.84-1.62,8.33-3.58,3.58-2.83,8.04-2.32,11.09,1.04,2.61,2.88,2.47,7.54-.31,10.24-15.21,14.77-41.53,8.34-48.09-11.87-1-3.07-1.45-6.43-1.5-9.67-.17-12.55,.04-25.11-.11-37.67-.08-6.52,7.19-9.91,12.06-6.91,2.67,1.64,3.96,4.15,4.02,7.26,.05,2.79,.01,5.59,.01,8.63Z" style="fill: #e99528;"/>
  <path d="M454.32,102.11c-3.24,0-6.49,.01-9.73,0-4.85-.02-7.97-2.93-8.01-7.47-.04-4.42,3.45-7.95,8.03-8,6.04-.05,12.09-.01,18.13-.02,.54,0,1.08-.01,1.62-.06,1.72-.17,2.63-1.14,2.62-2.75-.01-1.58-.96-2.57-2.75-2.6-3.78-.07-7.57,.1-11.35-.09-2.61-.13-5.37-.27-7.77-1.17-7.83-2.94-12.36-11.28-11.07-19.69,1.29-8.34,8.05-14.88,16.45-15.24,7.55-.33,15.12-.19,22.68-.02,3.71,.08,6.86,4,6.66,7.66-.23,4.01-3.54,7.33-7.41,7.34-6.34,.02-12.68,0-19.02,.02-.68,0-1.38,.05-2.04,.2-1.41,.31-2.14,1.32-2.11,2.76,.04,1.43,.82,2.41,2.22,2.69,.57,.12,1.17,.16,1.75,.16,3.88,.01,7.77,.1,11.64-.01,8.4-.24,15.09,5.59,17.11,13.45,3.02,11.77-5.18,22.48-17.34,22.78-3.44,.08-6.88,.01-10.32,.01,0,.01,0,.03,0,.04Z" style="fill: #e99528;"/>
  <path d="M213.96,98.65c-3.25,1.02-6.25,2.28-9.37,2.9-15.22,3.01-30.51-7.56-33.29-22.87-2.84-15.63,7.87-30.79,23.54-33.32,17.08-2.76,32.58,9.89,33.1,27.17,.22,7.3,.09,14.61,.05,21.91-.02,3.34-2.14,6.11-5.31,7.2-2.99,1.04-6.11,.09-8.31-2.52-.22-.26-.44-.51-.42-.49Zm-14.43-42.45c-9.61-.06-17.54,7.7-17.59,17.23-.06,9.54,7.77,17.4,17.37,17.45,9.62,.05,17.5-7.66,17.6-17.23,.1-9.5-7.77-17.4-17.37-17.45Z" style="fill: #e99528;"/>
  <path d="M344.67,58.99c0-7.94-.04-15.89,.01-23.83,.04-6,6.65-9.92,11.63-6.9,2.75,1.67,3.95,4.26,3.95,7.42,0,14.95-.01,29.91,.03,44.86,0,1.19,.18,2.47,.64,3.56,.89,2.1,2.7,2.93,4.95,3.04,3.84,.2,6.76,2.67,7.41,6.16,.82,4.34-2.64,8.6-7.06,8.87-11.5,.7-21.29-8.94-21.52-20.1-.16-7.69-.03-15.39-.03-23.09,0,0-.01,0-.02,0Z" style="fill: #e99528;"/>
  <path d="M84.01,98.96c-13.83,2.52-27.63,5.03-41.49,7.55-.11-.16-.28-.3-.3-.47-.66-4.84-3.63-8.34-6.81-11.72-3.83-4.07-7.89-7.96-11.39-12.3-6.64-8.25-10.22-17.67-9.23-28.43,.71-7.72,3.77-14.55,8.78-20.43,6.5-7.61,14.57-12.69,24.54-14.47,8.11-1.45,15.91-.2,23.4,3.02,10.87,4.67,18.46,12.48,21.78,23.91,2.74,9.41,1.49,18.72-2.04,27.74-1.81,4.63-3.88,9.16-5.85,13.73-1.63,3.77-2.19,7.67-1.4,11.87Zm-4.72-3.49c.07-1.03,.09-1.96,.21-2.88,.58-4.53,2.54-8.6,4.39-12.68,3.1-6.83,5.83-13.69,6.3-21.35,.39-6.33-.31-12.33-3.45-17.85-7.03-12.35-18.19-17.91-31.97-18.27-10.57-.28-19.38,4.24-26.58,11.85-6.23,6.58-9.58,14.39-9.29,23.52,.31,9.66,4.69,17.66,10.93,24.71,3.22,3.63,6.84,6.91,10.09,10.51,1.72,1.91,3.19,4.09,4.52,6.3,1.35,2.25,1.22,2.37,3.76,1.9,10.34-1.9,20.68-3.83,31.09-5.76Z" style="fill: #e99528;"/>
  <path d="M47.25,121.56c-1.76,.02-3.06-1.07-3.2-2.57-.15-1.48,.59-2.43,2.34-2.76,9.91-1.88,19.82-3.72,29.74-5.58,1.88-.35,3.75-.7,5.63-1.05,.24-.04,.48-.1,.72-.13,2.13-.27,3.62,.57,3.89,2.18,.25,1.5-.85,2.88-2.86,3.27-5.96,1.15-11.94,2.22-17.91,3.32-5.78,1.07-11.55,2.14-17.33,3.2-.38,.07-.78,.08-1.02,.11Z" style="fill: #e99528;"/>
  <path d="M45.9,113.62c-1.91,.07-3.06-.87-3.3-2.5-.2-1.35,.55-2.48,2.17-2.81,4.65-.94,9.31-1.8,13.97-2.65,7.36-1.35,14.72-2.69,22.09-3.98,.79-.14,1.69-.17,2.42,.09,1.17,.41,1.64,1.47,1.65,2.7,0,1.27-.76,2.05-1.88,2.32-2.42,.57-4.87,1.04-7.32,1.49-9.52,1.73-19.05,3.45-28.58,5.16-.48,.09-.97,.16-1.21,.2Z" style="fill: #e99528;"/>
  <path d="M93.01,84.07c.33,.08,.72,.07,.98,.25,2.53,1.74,5.17,3.36,7.52,5.32,1.58,1.32,1.09,3.32-.76,3.96-.64,.22-1.63,.13-2.2-.23-2.39-1.52-4.72-3.16-7-4.84-.99-.73-1.43-1.91-.85-3,.39-.74,1.33-1.18,2.02-1.76,.1,.1,.19,.2,.29,.3Z" style="fill: #e99528;"/>
  <path d="M107.56,50.46c2.34-.12,3.52,.48,3.73,1.97,.22,1.56-.8,2.69-3,3.14-2.2,.45-4.43,.8-6.64,1.18-.29,.05-.59,.03-.88,.03-1.39,.03-2.38-.55-2.73-1.94-.31-1.2,.44-2.45,1.91-2.89,1.54-.46,3.14-.73,4.72-1.04,.96-.19,1.93-.3,2.9-.45Z" style="fill: #e99528;"/>
  <path d="M43.03,3.79c-.07-2.06,.65-3.2,1.91-3.46,1.21-.25,2.58,.55,2.93,2.08,.63,2.75,1.12,5.53,1.5,8.33,.19,1.41-.92,2.64-2.19,2.87-1.02,.18-2.19-.71-2.67-2.06-.11-.32-.21-.65-.27-.98-.43-2.39-.86-4.79-1.21-6.77Z" style="fill: #e99528;"/>
  <path d="M9.24,24.93c.83,.36,1.41,.52,1.89,.84,1.99,1.33,3.98,2.68,5.91,4.1,.57,.42,1.05,1.03,1.42,1.64,.51,.85,.69,1.93-.2,2.52-.72,.48-1.92,.92-2.61,.65-1.56-.62-2.98-1.63-4.39-2.59-1.25-.86-2.42-1.83-3.57-2.82-.82-.7-1.16-1.74-.55-2.63,.5-.73,1.42-1.18,2.1-1.71Z" style="fill: #e99528;"/>
  <path d="M25.06,107.44c-2.01,.03-3.35-1.81-2.44-3.31,1.66-2.74,3.6-5.31,5.56-7.85,.7-.91,1.88-1.06,2.91-.3,.98,.72,1.45,1.77,.77,2.82-1.74,2.69-3.59,5.31-5.48,7.89-.33,.45-1.06,.61-1.32,.74Z" style="fill: #e99528;"/>
  <path d="M10.56,68.15c1.7,.03,2.77,.82,2.99,2,.26,1.42-.49,2.38-1.71,2.68-2.88,.71-5.79,1.34-8.72,1.76-1.3,.19-2.35-.76-2.72-2.04-.39-1.32,.48-2.25,1.59-2.59,1.94-.6,3.96-.96,5.95-1.38,.95-.2,1.92-.31,2.61-.42Z" style="fill: #e99528;"/>
  <path d="M82.79,21.68c.48-1.02,.68-1.81,1.15-2.38,1.64-2,3.33-3.97,5.09-5.88,1.2-1.3,2.43-1.34,3.6-.29,1.1,.98,1.14,2.36,.06,3.64-1.77,2.09-3.57,4.16-5.37,6.21-.77,.87-1.81,1.13-2.77,.57-.7-.41-1.16-1.22-1.75-1.88Z" style="fill: #e99528;"/>
  <path d="M289.71,38.1c.94,.51,1.66,.74,2.17,1.21,1.26,1.16,2.44,2.41,3.61,3.66,1.16,1.24,1.2,2.87,.15,3.95-1.09,1.12-2.78,1.08-4.05-.16-1.26-1.23-2.49-2.49-3.68-3.79-.8-.87-1.1-1.98-.41-2.96,.53-.76,1.43-1.25,2.22-1.9Z" style="fill: #e99527;"/>
  <path d="M323.2,43.48c-2.32,0-3.63-2.17-2.58-3.88,1-1.61,2.16-3.14,3.35-4.63,.86-1.08,2.36-1.18,3.44-.41,1.03,.74,1.47,2.15,.77,3.25-1.08,1.68-2.26,3.3-3.52,4.85-.38,.48-1.15,.65-1.46,.81Z" style="fill: #e99527;"/>
  <path d="M310.95,39.41c0,1.37-.9,2.48-2.1,2.59-1.28,.11-2.27-.46-2.54-1.73-.37-1.77-.66-3.57-.74-5.37-.06-1.23,.73-2.12,2.05-2.27,1.29-.15,2.27,.44,2.54,1.7,.37,1.72,.54,3.47,.78,5.08Z" style="fill: #e99528;"/>

  <path d="M195.25,66.42c-.02-.39-.04-.77-.07-1.37-.93,1.33-1.85,.86-2.64,.12-.85-.8-1.14-1.83-.66-2.95,.5-1.17,1.43-1.68,2.69-1.63,1.21,.05,1.95,.72,2.15,1.84,.39,2.11,1.03,4.25,.94,6.35-.18,3.9-3.27,6.39-7.9,6.81-.99,.09-1.99,.01-3.34,.01,2.8,2.26,8.76-.36,11.88-4.94,.55,3.01,1.09,5.81,1.58,8.62,.25,1.44,.57,2.89,.61,4.35,.07,2.32-1.82,3.94-4.36,3.91-2.23-.02-4.08-1.9-4.11-4.18-.03-2.18,1.74-4.15,3.86-4.27,.63-.03,1.26,0,1.92,0-.65-.92-1.99-1.04-3.48-.37-2.62,1.18-3.32,3.27-2.47,7.33-2.29-.19-3.39-1.58-3.86-5.15-.34,.62-.54,.98-.91,1.67-.31-.78-.54-1.36-.77-1.94,.05-.05,.11-.1,.16-.15,1.5,.43,2.78-.08,4.02-.87,.49-.31,1.06-.48,1.61-.71-.27-.4-.62-.94-.98-1.47-.5,1.71-2.46,2.78-4.24,2.3-1.59-.43-2.42-2.2-1.99-4.04,.12-.51-.03-1.09-.01-1.63,.03-.87,.11-1.73,.35-2.66,1.6,1.48,3.26,1.5,5.07,1.02,.55-.14,1.21,.17,1.83,.22,.51,.04,1.03,0,1.54,0,.02-.12,.05-.24,.07-.36-.5-.12-1-.22-1.5-.37-1.51-.44-2.01-1.86-1.04-2.95,.02-.11,.04-.22,.07-.34-.1,.04-.2,.07-.3,.11-.62,.04-1.25,.09-1.66,.12,.33,.83,.69,1.71,1.04,2.59-1.95,.88-3.71,.49-4.5-.89-.81-1.41-.39-2.74,1.24-4.02,.26-.2,.5-.46,.65-.74,.92-1.75,1.03-1.86,3.12-2.53,.4,2.28,1.74,3.51,4.14,3.37,.15,.13,.3,.26,.45,.39-.06-.21-.13-.42-.19-.63Z" style="fill: #e99528;"/>
  <path d="M204.22,77.11c1.34,.93,2.52,.64,3.57-.22,.66-.54,1.24-.59,2.09-.55,1.28,.06,2.58-.4,4.07-.67-.04,.46-.09,1.18-.16,2.06-.52-.44-.87-.74-1.22-1.03,.82,2.54,.32,4.53-2.02,6.21-.29-2.24-.32-4.35-2.64-5.34-.19,.83-.34,1.49-.49,2.15,.1,.09,.19,.18,.29,.27,.27-.36,.54-.71,.8-1.06,1.4,1.61,1.57,3.78,.37,5.3-1.21,1.54-4.22,2.29-5.73,1.16-.82-.61-1.5-1.74-1.73-2.75-.92-4.05-1.63-8.15-2.42-12.23,1.27,.83,2.42,1.78,3.73,2.38,1.29,.6,2.75,.92,4.19-.05-.49-.04-.97-.09-1.77-.16,.59-.46,.97-.98,1.44-1.08,3.95-.79,4.15-1.82,5.14-4.73,.17,.12,.39,.2,.44,.33,.66,1.81,1.58,3.58,1.86,5.45,.3,2.04-1.89,3.63-3.98,3.08-1.05-.27-1.68-.17-2.57,.55-.76,.61-2.02,.61-3.24,.92Z" style="fill: #e99528;"/>
  <path d="M206.22,68.08c-.51,.11-1.01,.21-1.54,.32,1.14,.78,1.46,1.79,.88,2.73-.67,1.07-1.9,1.45-3.04,.85-2.14-1.12-3.67-2.76-4.15-5.2-.28-1.44-.59-2.88-.77-4.33-.19-1.61,.51-2.54,1.91-2.81,1.51-.29,2.73,.43,3.19,1.9,.4,1.3-.19,2.51-1.51,3.12-.37,.17-.71,.4-1,.7,2.34,.13,3.29-1.15,3.28-4.26,1.16-.43,2.14,.03,3.12,.61,.73,.43,1.46,.89,2.24,1.22,2.18,.93,2.78,4.67,.89,6.41-.74,.69-1.79,1.04-2.98,1.71-.11-1.17-.18-1.93-.26-2.69,.1-.1,.19-.2,.29-.31,.03-.1,.06-.2,.08-.29-.11,.02-.23,.04-.34,.06-.09,.09-.18,.18-.27,.27Z" style="fill: #e99528;"/>
  <path d="M186.3,80.64c-.05-.05-.11-.11-.16-.16,.11,0,.21,0,.32,.01-.05,.05-.1,.1-.16,.15Z" style="fill: #e99528;"/>
  <path d="M39.88,82.56c-1.15-.23-1.94-.26-2.64-.54-3.18-1.27-6.67-5.39-5.64-9.02,.09-.3-.37-.75-.57-1.14-.31,.26-.77,.47-.89,.8-.24,.68-.29,1.42-.8,2.3-.76-1.49-1.52-2.98-2.27-4.48,.09-.11,.19-.21,.28-.32,3.7,1.77,6.68,.06,9.57-1.89,.92-.62,1.7-1.31,2.79-.39,.1,.08,.36-.03,.59-.06-.99-1.37-1.93-2.67-2.87-3.98-.09,.02-.18,.03-.28,.05,.05,.68,.09,1.36,.17,2.46-1.39,.76-2.96,1.88-4.7,2.51-2.5,.9-4.9,.38-6.67-1.74-1.79-2.13-2.2-4.59-1.03-7.14,.4-.87,.37-1.43-.06-2.26-1.14-2.23-.61-4.34,.66-6.32,.2,.01,.33-.01,.37,.03,2.54,2.91,5.69,3.42,9.24,2.34,1.44-.44,2.76-.67,4.21,.17,.78,.45,1.9,.41,2.87,.42,.39,0,.78-.45,1.17-.7-.36-.25-.68-.57-1.08-.72-.4-.15-.87-.14-1.31-.2-2.62-.32-3.59-1.21-4.24-3.73-.29-1.11-.38-2,.99-2.42,.25-.08,.38-.55,.44-1.04-1.6,.82-3.11,1.2-4.69,.1l-.31,.44c.29,.32,.53,.84,.88,.93,.85,.21,.96,.71,1.06,1.48,.14,1.1,.54,2.16,.83,3.27-2.48,1.89-7.29,1.05-9.11-1.64-1.89-2.79-.99-6.8,2.05-8.56,.97-.56,1.52-1.18,1.87-2.23,.85-2.54,2.48-3.77,6.26-4.95,.23,.73,.45,1.46,.7,2.18,1.18,3.38,3.28,4.85,6.84,4.95,.51,.01,1,.48,1.5,.73,.38,.19,.76,.36,1.09,.52-.4-1.59-.75-3.04-1.18-4.76-.41,.7-.74,1.28-1.1,1.89-2.43,.22-4.42-.87-5.45-3.03-1.06-2.22-.67-4.77,.98-6.4,1.69-1.68,4.43-2.16,6.55-1.16,1.41,.67,2.2,1.88,2.49,3.29,.79,3.88,1.74,7.77,2.05,11.71,.55,6.89-4.41,13.15-11.61,15.03-3.12,.82-6.3,1.53-9.59,1.02-.79-.12-1.74-.28-1.94,1.28,4.99,1.14,9.74,.02,14.3-1.71,4.77-1.8,7.98-5.35,9.98-10.19,.39,1.99,.81,3.98,1.18,5.98,1.19,6.5,2.44,12.99,3.51,19.52,.82,4.98-1.86,8.87-6.5,9.78-5.44,1.07-9.67-1.46-10.95-6.53-1.14-4.53,1.55-9.3,6.15-10.57,1.32-.36,2.81-.12,4.21-.21,.56-.04,1.12-.23,1.67-.35-.51-.4-.97-1.06-1.54-1.16-4.29-.77-7.74,.73-10.29,4.19-2.54,3.45-2.6,7.16-.79,10.97,.12,.25,.26,.5,.61,1.19Z" style="fill: #e99426;"/>
  <path d="M72.04,64.4c.86,1.98,.48,3.35-.87,4.48q1.15,.31,2.61-2.04c4.01,3.38,3.59,10.34-.75,13.23-2.92,1.94-6.08,1.99-9.32,1.27-1.7-.38-2.9-1.63-3.42-3.2-.96-2.91-1.81-5.88-2.42-8.89-1.3-6.43-2.41-12.89-3.59-19.35-.06-.32-.05-.64-.08-1.04,1.26,1.15,2.38,2.29,3.62,3.29,3.06,2.48,6.64,3.49,10.53,3.5,.34,0,.73,.05,1.02-.09,.52-.25,.98-.63,1.47-.96-.51-.18-1-.44-1.52-.52-.57-.08-1.17,.01-1.76,.01-.08,0-.15-.08-.35-.19,1.22-1.26,2.24-2.36,4.29-2.56,3.69-.35,7.77-2.7,8.66-7.93,.1-.62,.25-1.24,.39-1.95,2.14,1.46,3.06,3.38,2.53,5.83-.18,.84-.04,1.36,.58,1.91,3.06,2.68,2.44,6.05,1.05,8.23-1.68,2.65-5.32,3.97-8.28,2.79-1.62-.64-2.68-.74-3.87,.85-1.28,1.71-3.22,2.28-5.42,1.77-.65-.15-1.38,.02-2.35,.06,1.29,1.67,3.63,2.18,5.64,1.3,1.23-.54,2.26-1.5,3.41-2.24,.37-.24,.91-.57,1.24-.46,3.73,1.27,7.06,.76,10-2.28,.66,2.08,.56,3.81-.44,5.65-.49-.72-.83-1.35-1.31-1.86-.24-.25-.73-.25-1.1-.36,0,.38-.16,.84,0,1.13,1.85,3.5,.97,6.67-1.25,9.58-.69,.9-1.77,1.51-2.84,2.11,.16-4.23-.68-7.88-3.96-10.58-.43-.35-1.18-.3-2.15-.52Z" style="fill: #e99426;"/>
  <path d="M58.01,37.71c-.59-.62-1.09-1.15-1.72-1.82,.23,1.92,.43,3.51,.62,5.11,.05,0,.21,.02,.21,0,.51-1.51,1.85-2,3.11-2.7,2.71-1.51,3.75-3.99,3.25-7.1-.07-.43-.1-.87-.14-1.28,2.42-.95,5.98,.15,7.85,2.33,.35,.41,.89,.92,1.36,.95,4.37,.26,6.44,4.12,6.38,8.13-.07,4.86-4.15,8.88-8.66,8.56-.2-1.32-.47-2.66-.58-4.01-.03-.33,.46-.68,.64-1.06,.17-.36,.24-.77,.12-1.34-1.2,1.76-2.94,1.59-4.63,1.52-.03,.16-.06,.33-.09,.49,.69,.25,1.38,.49,2.16,.77,1.76,3.8-.23,5.87-3.19,6.99-.78,.3-1.97,.02-2.79-.38-5.14-2.49-8.43-6.45-9.36-12.19-.45-2.8-.97-5.6-1.27-8.42-.22-2.11,.27-4.1,2.49-5.01,2.2-.9,4.46-1,6.35,.73,1.8,1.65,2.52,3.73,1.77,6.13-.61,1.95-2.23,2.85-3.9,3.6Z" style="fill: #e99426;"/>
  <path d="M195.25,66.42c.06,.21,.13,.42,.19,.63-.15-.13-.3-.26-.45-.39,.09-.08,.17-.16,.26-.24Z" style="fill: #faf6f2;"/>
  <path d="M190.96,68.76c.1-.04,.2-.07,.3-.11-.02,.11-.04,.22-.07,.34-.08-.07-.16-.15-.24-.22Z" style="fill: #faf6f2;"/>
  <path d="M206.5,67.8c.11-.02,.23-.04,.34-.06-.03,.1-.06,.2-.08,.29-.09-.08-.17-.16-.26-.24Z" style="fill: #faf6f2;"/>
  <path d="M206.22,68.08c.09-.09,.18-.18,.27-.27,.09,.08,.17,.16,.26,.24-.1,.1-.19,.2-.29,.31-.08-.09-.16-.18-.24-.27Z" style="fill: #faf6f2;"/>
</svg>