<svg id="Layer_1" data-name="Layer 1" xmlns="http://www.w3.org/2000/svg" viewBox="0 0 428.91 241.26">
	
	<path
		d="M150.39,445l-1.07,10.81c-.86.11-1.63.27-2.4.3-5.64.19-11.29.24-16.93-.12-1.13-.07-1.8-.46-2-1.58-.16-.81-.44-1.6-.56-2.42a4.27,4.27,0,0,1,.53-2.79,2.47,2.47,0,0,1,2.31-1.41c3.2,0,6.39-.16,9.58-.26.39,0,.77-.07,1.3-.11l.34-11.18,19.28-.49c.15-1.3.25-2.47.41-3.63a47.48,47.48,0,0,1,5.9-17.82c1.39-2.33,3-4.54,4.3-6.91a36.18,36.18,0,0,0,4.86-16.19,27.53,27.53,0,0,0-7.37-20.44,31.16,31.16,0,0,0-42.71-3.93,28.46,28.46,0,0,0-9.86,13,28.82,28.82,0,0,0-1,16.67A43.23,43.23,0,0,0,122,411.78c4.2,6.11,6.32,12.92,7.35,20.15.19,1.34.4,2.67.63,4.15l6.58.23v7.94c-.19.17-.25.27-.32.28a30.33,30.33,0,0,1-9.27.11c-.35-.06-.68-.17-1-.26a5.59,5.59,0,0,1-4.39-4.56c-.47-2.26-.74-4.57-1-6.87a42.17,42.17,0,0,0-3.21-12.13,51.79,51.79,0,0,0-4.42-7.59,49.85,49.85,0,0,1-4.55-8,34,34,0,0,1-2.51-10.82,39.13,39.13,0,0,1,4.42-21.84c6-11.12,15.15-18.08,27.59-20.4s23.65.9,33.32,9a39.58,39.58,0,0,1,12.45,40.23,45.76,45.76,0,0,1-5.11,10.9c-.8,1.31-1.64,2.59-2.49,3.87A39.84,39.84,0,0,0,170,432.29c-.35,2.2-.63,4.42-1.07,6.6a16,16,0,0,1-1.17,3.6,3.6,3.6,0,0,1-3.55,2.21c-4.24,0-8.49.11-12.73.19C151.17,444.89,150.83,444.94,150.39,445Z"
		transform="translate(-80.24 -285.01)" style="fill:#e99415" />
	<path
		d="M225.11,401.28c-1.36,1.52-2.61,2.85-3.76,4.27A2.5,2.5,0,0,0,221,407c0,2.75,0,5.51,0,8.27,0,1.49-.11,1.62-1.65,1.65-2.45.05-4.9.07-7.35.08-1.2,0-1.25,0-1.32-1.25-.15-2.39-.28-4.79-.35-7.19-.07-2.58,0-5.16-.08-7.74,0-3.06-.12-6.12-.18-9.18s-.15-6.37-.16-9.56c0-1.66.1-3.32.2-5,.09-1.46.29-1.68,1.74-1.71,2.7,0,5.4,0,8.11,0,.91,0,1,.16,1,1.11,0,4.11-.09,8.22-.14,12.33,0,.9,0,1.81,0,2.65.65.29.87-.08,1.11-.38,2.32-2.84,4.62-5.7,7-8.54,1.78-2.15,3.63-4.25,5.4-6.41a1.64,1.64,0,0,1,1.95-.64c2.2.7,4.42,1.38,6.59,2.16,1.18.43,1.31.94.56,2-1.43,2-2.91,4-4.41,6-1.78,2.37-3.62,4.71-5.42,7.07-.75,1-.74,1-.07,2.07,3.71,5.89,7.05,12,10.3,18.12l.25.47c.41.91.33,1.25-.56,1.67a35.71,35.71,0,0,1-7.35,2.33,2.08,2.08,0,0,1-2.45-1.27c-1.58-2.82-3.18-5.63-4.77-8.44-1-1.83-2.06-3.66-3.1-5.49A10.32,10.32,0,0,0,225.11,401.28Z"
		transform="translate(-80.24 -285.01)" style="fill:#e99518" />
	<path
		d="M491.2,414.54c-.3.08-.46.08-.54.15-3.87,3.36-10.88,2.94-15.18-.3a13.06,13.06,0,0,1-5.43-10.56A17.68,17.68,0,0,1,471,397a13.42,13.42,0,0,1,15.5-8.7,11.41,11.41,0,0,1,5.07,2.36,1.44,1.44,0,0,0,.59-1.54,1,1,0,0,1,1.06-1.2c1.22-.07,2.45-.13,3.67-.13a17.27,17.27,0,0,1,2.48.2c1.06.16,1.08.21,1.13,1.22.06,1.4.15,2.79.17,4.19.1,6.82.22,13.64.24,20.46a20.73,20.73,0,0,1-2.12,9.25,11.73,11.73,0,0,1-8.4,6.53,21.61,21.61,0,0,1-14.9-2l-.45-.26c-1.85-1.17-1.77-1.66-1.07-3s1.12-2.57,1.76-3.8c.54-1,.71-1.05,1.73-.5a17.28,17.28,0,0,0,4.75,1.84,9.66,9.66,0,0,0,4.92-.11,5.54,5.54,0,0,0,3.6-3.53A5.84,5.84,0,0,0,491.2,414.54ZM480,403.21l.14,0c0,.26,0,.52.07.79.24,4.81,5.22,6.2,8.35,4.46,2.51-1.4,3.4-4.18,2.88-7A5.13,5.13,0,0,0,487.4,397a6.73,6.73,0,0,0-1.95-.14,4.89,4.89,0,0,0-4.75,3.27A21.63,21.63,0,0,0,480,403.21Z"
		transform="translate(-80.24 -285.01)" style="fill:#e99518" />
	<path
		d="M357.5,402.94c.15-.29.33-.57.45-.87q2.49-6.27,5-12.55c.88-2.22,1-2.27,3.28-1.77,1.66.36,3.33.7,5,1.13s1.85.65,1.18,2.33c-.94,2.35-1.85,4.72-2.86,7q-4.71,10.81-9.48,21.6c-1.36,3.08-2.82,6.11-4.26,9.15-.6,1.26-1.07,1.51-2.38,1q-3.08-1.12-6.06-2.48c-1.21-.55-1.24-.78-.68-2,1.45-3.23,2.92-6.44,4.37-9.67.18-.39.31-.82.5-1.21a1.87,1.87,0,0,0,0-1.63q-3.76-9.22-7.46-18.47a44.3,44.3,0,0,1-1.39-4.22c-.27-.95-.06-1.33.89-1.52,2.31-.46,4.64-.84,7-1.23a1.27,1.27,0,0,1,1.5,1c.79,2.13,1.63,4.24,2.39,6.38s1.46,4.39,2.2,6.58c.16.49.37,1,.56,1.44Z"
		transform="translate(-80.24 -285.01)" style="fill:#e99519" />
	<path
		d="M446.87,390.56l1.25-.88a11.62,11.62,0,0,1,12.17-1c2.56,1.24,3.88,3.58,4.72,6.2a15.33,15.33,0,0,1,.7,5c-.09,4.85-.16,9.7-.24,14.56a9.22,9.22,0,0,1-.09,1.17c-.17,1.34-.23,1.44-1.63,1.49-2.1.08-4.2.1-6.3.11-1.09,0-1.4-.28-1.45-1.4s0-2.54,0-3.8c0-3,.15-6,.18-9.05a27.39,27.39,0,0,0-.16-3.39c-.41-3.66-4.23-4.73-7-2.91a4.63,4.63,0,0,0-2.18,3.69c0,.56-.05,1.13-.05,1.7,0,3.55,0,7.09,0,10.63,0,1.14-.13,2.27-.2,3.4,0,.51-.29.83-.82.82l-7.21-.19a.9.9,0,0,1-1-.95c0-.43-.15-.86-.15-1.29q-.06-12.07-.1-24.15a5.62,5.62,0,0,1,0-.92c.13-.81.42-1.16,1.27-1.24,2.17-.19,4.35-.37,6.54-.44,1.4,0,1.63.28,1.63,1.71C446.78,389.74,446.82,390,446.87,390.56Z"
		transform="translate(-80.24 -285.01)" style="fill:#e9951a" />
	<path
		d="M315,414.79l-1.11.77a10.67,10.67,0,0,1-8.36,1.74,10.8,10.8,0,0,1-2-.52,7.16,7.16,0,0,1-4.81-6.59,8.54,8.54,0,0,1,.93-5.46A8.89,8.89,0,0,1,304.2,401a13.57,13.57,0,0,1,7.22-.65,22.41,22.41,0,0,1,2.73.81,3.93,3.93,0,0,0-3.08-5.32,7,7,0,0,0-5.91,1.47c-1.66,1.39-1.76,1.37-3.36-.1-.71-.65-1.39-1.33-2.05-2s-.83-1.24-.22-2.21a7.82,7.82,0,0,1,1.13-1.43,13.41,13.41,0,0,1,8.78-4,14.82,14.82,0,0,1,8.52,1.57,10.78,10.78,0,0,1,5.66,8.5,63.6,63.6,0,0,1,.1,11.38c-.1,1.79-.08,3.59-.11,5.38,0,.26,0,.53,0,.79-.07,1.59-.27,1.79-1.87,1.78s-3,0-4.46-.1-1.51-.12-1.95-1.57A3.15,3.15,0,0,0,315,414.79Zm-4.68-3.09,0-.11c.35,0,.7,0,1-.06a3.07,3.07,0,0,0,2.64-2.38,3,3,0,0,0-1.78-3.41,4.32,4.32,0,0,0-4.14.19,2.87,2.87,0,0,0-1.54,2.56,2.81,2.81,0,0,0,1.76,2.68A14.55,14.55,0,0,0,310.31,411.7Z"
		transform="translate(-80.24 -285.01)" style="fill:#e9951a" />
	<path
		d="M262.4,414.78l-1.21.8a11.1,11.1,0,0,1-10.26,1.23,6.67,6.67,0,0,1-4.5-4.6c-.87-2.88-.85-5.7,1-8.26a8.39,8.39,0,0,1,4.22-3,12.4,12.4,0,0,1,9.22.06,4.13,4.13,0,0,0,.5.15.59.59,0,0,0,.24-.07c.66-3-1.24-5-3.13-5.27a7.07,7.07,0,0,0-6,1.52c-1.55,1.34-1.67,1.31-3.15,0a30.94,30.94,0,0,1-2.27-2.16c-.86-.95-.86-1.26-.16-2.32a11,11,0,0,1,5.06-4,15.25,15.25,0,0,1,13.19.3A10.36,10.36,0,0,1,270.6,396a14.93,14.93,0,0,1,.52,3.88c0,4.85-.06,9.7-.13,14.56,0,2.45-.16,2.57-2.61,2.56-1.36,0-2.72,0-4.07-.11-1.2-.06-1.21-.11-1.58-1.31C262.67,415.35,262.56,415.16,262.4,414.78Zm-4.62-3.1,0-.13c.26,0,.53,0,.79,0a3.33,3.33,0,0,0,2.82-2.38,3.17,3.17,0,0,0-1.93-3.5,4.79,4.79,0,0,0-3.21-.15,3.17,3.17,0,0,0-2.36,2.69,2.86,2.86,0,0,0,1.74,3A8.62,8.62,0,0,0,257.78,411.68Z"
		transform="translate(-80.24 -285.01)" style="fill:#e9961b" />
	<path
		d="M376.75,407.84c1.23.67,2.24,1.27,3.29,1.78a10.19,10.19,0,0,0,5.69,1.25,4.42,4.42,0,0,0,1.83-.58,1.6,1.6,0,0,0,0-2.67,8.3,8.3,0,0,0-3.32-1.13,17.4,17.4,0,0,1-6.73-2.38,7.11,7.11,0,0,1-3.23-6,10.66,10.66,0,0,1,1.11-5.7,9.13,9.13,0,0,1,5.54-4.31,18.34,18.34,0,0,1,6.63-.55,24.22,24.22,0,0,1,7.41,1.61,9.31,9.31,0,0,1,1.07.49,1,1,0,0,1,.57,1.31c-.68,1.75-1.34,3.5-2.1,5.2-.36.8-.6.77-1.48.42-1.34-.54-2.67-1.08-4-1.54a6.29,6.29,0,0,0-3.62-.2,3.37,3.37,0,0,0-1.17.54,1.59,1.59,0,0,0,.33,2.84,29.71,29.71,0,0,0,4.19,1,18.84,18.84,0,0,1,4.63,1.38,7.3,7.3,0,0,1,4.42,7,10.14,10.14,0,0,1-1.63,6.09,9.57,9.57,0,0,1-5.92,3.82,21.81,21.81,0,0,1-12-.79,25.91,25.91,0,0,1-3.15-1.27c-1.07-.53-1.26-1-.87-2.13.49-1.4,1-2.78,1.63-4.14A8.71,8.71,0,0,1,376.75,407.84Z"
		transform="translate(-80.24 -285.01)" style="fill:#e9961b" />
	<path
		d="M404.14,395.41l-2.39-.06c-1.44,0-1.68-.2-1.74-1.66s-.08-3.15,0-4.73c0-1,.24-1.17,1.29-1.2.65,0,1.31,0,2,0,1.09,0,1.31-.27,1.31-1.32,0-1.31,0-2.62,0-3.93s.35-1.82,1.73-1.95c2.13-.2,4.27-.36,6.41-.46,1.19-.06,1.33.1,1.31,1.24,0,1.65-.1,3.31-.23,5-.09,1.25.12,1.51,1.42,1.55,1.53,0,3.06.08,4.58.22,1.09.1,1.28.3,1.32,1.41.06,1.69,0,3.4,0,5.1a.82.82,0,0,1-.77.89,7.08,7.08,0,0,1-1.3.14c-1.44,0-2.89,0-4.33,0-1,0-1.15.19-1.17,1.16,0,3-.11,6-.12,9.06,0,2.39,1.46,3.53,3.79,3a14.05,14.05,0,0,0,2.07-.8c1-.39,1.48-.25,1.77.67.5,1.62.9,3.28,1.34,4.92a1.57,1.57,0,0,1-.74,1.8,11.5,11.5,0,0,1-5.36,2,14.38,14.38,0,0,1-7.23-.7,7.62,7.62,0,0,1-5.13-7.24c-.17-3.05,0-6.12.06-9.19C404,398.74,404.08,397.22,404.14,395.41Z"
		transform="translate(-80.24 -285.01)" style="fill:#e9951a" />
	<path
		d="M339.07,382.9c0,2.54,0,5.07,0,7.61q-.1,6.89-.26,13.76-.1,4.32-.26,8.64c0,1.22-.14,2.44-.19,3.66,0,.67-.36.91-1,.91-2.06,0-4.12,0-6.17,0-1.24,0-1.51-.34-1.53-1.59l-.09-6.95c0-3.67-.15-7.34-.13-11,0-6,.13-12.07.23-18.1,0-1.74.18-3.49.3-5.23.09-1.25.3-1.48,1.59-1.62a29.14,29.14,0,0,1,6.4-.1c1,.1,1.18.35,1.19,1.51,0,2.85,0,5.69,0,8.53Z"
		transform="translate(-80.24 -285.01)" style="fill:#e9961b" />
	<path
		d="M147.76,432.11c-.15-1.68-.4-3.24-.41-4.79,0-4.55.06-9.1.09-13.64,0-2.36,0-4.72,0-7.08a112.8,112.8,0,0,1,.11-13.76,29.55,29.55,0,0,1,.71-3.73c.14-.58.35-1.22,1.14-1.26a1.86,1.86,0,0,1,1.9.91,6.28,6.28,0,0,1,.6,2,16.73,16.73,0,0,1,0,2.35c0,6.78.06,13.55.05,20.33a131.31,131.31,0,0,1-.58,16.11c-.09.69-.24,1.37-.4,2.06-.09.4-.28.74-.79.71Z"
		transform="translate(-80.24 -285.01)" style="fill:#ea961d" />
	<path
		d="M139.35,387.81c.87,0,1.52,0,2.17,0,.93,0,1,.1,1.15,1.07.19,1.78.38,3.56.42,5.35q.47,18.38-.12,36.73c0,.35-.07.68-.12,1.14a31,31,0,0,1-3.93-.13C139.06,417.23,139.21,402.6,139.35,387.81Z"
		transform="translate(-80.24 -285.01)" style="fill:#ea961d" />
	<path
		d="M278.7,395.48c-1,0-1.78,0-2.56,0-1.31,0-1.64-.33-1.68-1.62,0-1.57,0-3.14,0-4.72,0-1.3.36-1.59,1.67-1.61.66,0,1.32,0,2,0,.86,0,.93-.2.93-1,0-1.57.05-3.13.13-4.7a1.36,1.36,0,0,1,1.33-1.36,39.54,39.54,0,0,1,7-.54c1.25.05,1.46.2,1.43,1.47,0,1.62-.13,3.23-.19,4.84-.05,1.4.05,1.51,1.43,1.52h3a5.25,5.25,0,0,1,1.05.07c1.47.26,1.78.56,1.82,2.06s0,3.06-.05,4.59c0,.92-.42,1.27-1.45,1.3-1.4.05-2.8,0-4.2,0-1.92,0-1.9,0-1.93,2,0,2.62-.13,5.24-.16,7.86a5.49,5.49,0,0,0,.23,1.55,2,2,0,0,0,2,1.58,11.17,11.17,0,0,0,2.41-.47,9.09,9.09,0,0,0,1-.43c1.07-.4,1.7-.16,2.06.92.52,1.57.94,3.18,1.38,4.78a1.38,1.38,0,0,1-.52,1.63,14.56,14.56,0,0,1-2.56,1.53,15.62,15.62,0,0,1-9.39.55,8.07,8.07,0,0,1-6.47-8.14c-.07-2.66,0-5.33,0-8C278.45,399.32,278.59,397.54,278.7,395.48Zm16.69-.42c-.1-2,.43-3.74,0-5.53-.2-.94-.24-1.08-1.26-1.1-1.57,0-3.15,0-4.72,0-1.1,0-1.43-.32-1.4-1.42a38.39,38.39,0,0,1,.26-4.16c.31-2.34-.2-2.83-2.53-2.39-1.11.21-2.25.26-3.38.36-.47.05-1,0-1.43.07s-1.15.29-1.1.94c.09,1.3-.58,2.58-.09,3.89a2.24,2.24,0,0,1,0,.78c0,1.15-.52,1.64-1.68,1.7-.74,0-1.47.11-2.21.19a.81.81,0,0,0-.8.87,25.44,25.44,0,0,0,.07,4.19c.23,1.38-.13,1.65,1.9,1.61.3,0,.61,0,.91,0,1.18,0,1.3.14,1.3,1.27q0,3.22,0,6.43a5.58,5.58,0,0,1-.13.9,12,12,0,0,0-.32,1.63,18.58,18.58,0,0,0,0,2.89,12.72,12.72,0,0,0,.63,3.56c1.22,3,3.36,5.15,7.39,5.15.31,0,.69-.08.9.07.72.54,1.4.27,2.11.05a2.29,2.29,0,0,1,.77-.12,6,6,0,0,0,3-.57,22,22,0,0,0,2.38-1.31,1.17,1.17,0,0,0,.5-1.47c-.39-1.38-.63-2.8-1-4.18a3.66,3.66,0,0,0-.7-1.09c-1.21.36-2.18.73-3.19.95a3.19,3.19,0,0,1-4.08-2.91,30,30,0,0,1,.06-5.76,31.5,31.5,0,0,0,.38-3.76c0-1.45.24-1.69,1.66-1.7,1.06,0,2.11,0,3.16,0Z"
		transform="translate(-80.24 -285.01)" style="fill:#f3c075" />
	<path
		d="M115.32,359.63c0,1.66-.41,2.16-2,2.51a3.5,3.5,0,0,1-3.09-.65,21.12,21.12,0,0,1-1.64-1.5c-1.08-1.08-2.15-2.17-3.23-3.24-.47-.46-1-.89-1.42-1.36a4.12,4.12,0,0,1-.71-4.86,1.56,1.56,0,0,1,.87-.65,4.24,4.24,0,0,1,4.24,1.07c.55.5,1,1.09,1.53,1.62,1.35,1.36,2.72,2.71,4.08,4.06A4,4,0,0,1,115.32,359.63Z"
		transform="translate(-80.24 -285.01)" style="fill:#e9961b" />
	<path
		d="M187.69,432c0,1.72-.43,2.22-2.13,2.55a3.45,3.45,0,0,1-3.29-.86c-2.17-2.22-4.35-4.44-6.36-6.79-1.35-1.59-1.16-3.16.17-4.31a2.16,2.16,0,0,1,2.54-.45,10,10,0,0,1,2.16,1.45c1.77,1.63,3.49,3.31,5.2,5C187.3,429.86,187.69,430.69,187.69,432Z"
		transform="translate(-80.24 -285.01)" style="fill:#e9951a" />
	<path
		d="M195.68,388.8a32.91,32.91,0,0,1,7.39,1.1c1.12.3,1.19.45,1,1.57a4.1,4.1,0,0,0-.14.9c.08,1.43-.75,2-2,2.32a21.76,21.76,0,0,1-11.16-.07,2.28,2.28,0,0,1-1.92-2.18,2.46,2.46,0,0,1,1.44-2.58,10.13,10.13,0,0,1,2.48-.8C193.75,388.89,194.72,388.88,195.68,388.8Z"
		transform="translate(-80.24 -285.01)" style="fill:#e9961b" />
	<path
		d="M148.41,342c-.17,1.25-.35,3.3-.77,5.29a2.26,2.26,0,0,1-3.89,1,4,4,0,0,1-1.24-2.65,35.32,35.32,0,0,1-.25-8.09,10,10,0,0,1,.68-2.38,2.79,2.79,0,0,1,2.06-1.67c1.56-.34,2.16,0,2.64,1.49C148.29,337,148.28,339.05,148.41,342Z"
		transform="translate(-80.24 -285.01)" style="fill:#e9961b" />
	<path
		d="M101.66,389.83v3.61c0,.61-.43.86-.92,1a29.69,29.69,0,0,1-3.85.73,41.23,41.23,0,0,1-9.15-.4,1.45,1.45,0,0,1-1.31-1.2,4.55,4.55,0,0,1,.79-3.85c.31-.52.84-.37,1.31-.36l9.57.31c.78,0,1.57,0,2.36.07C100.84,389.72,101.21,389.78,101.66,389.83Z"
		transform="translate(-80.24 -285.01)" style="fill:#ea961d" />
	<path
		d="M113.05,421.8a2.79,2.79,0,0,1,.5.24c2.14,2.08,2.38,1.42.72,4.37a20,20,0,0,1-5.58,6.34,8.53,8.53,0,0,1-4.3,1.77c-1.14.1-1.43-.16-1.42-1.29a6.57,6.57,0,0,1,1.2-3.55,20.28,20.28,0,0,1,5-5.15C110.42,423.56,111.77,422.69,113.05,421.8Z"
		transform="translate(-80.24 -285.01)" style="fill:#ea961c" />
	<path
		d="M185.48,349.89c1.64,0,2.27.58,2.24,1.81a5.13,5.13,0,0,1-1.49,3.54c-1.92,2-3.85,3.91-5.83,5.82a3.18,3.18,0,0,1-4.07.61,1.1,1.1,0,0,1-.7-1.26,8.73,8.73,0,0,1,.58-2.12,18.22,18.22,0,0,1,7.32-7.64A11,11,0,0,1,185.48,349.89Z"
		transform="translate(-80.24 -285.01)" style="fill:#ea961c" />
	<path
		d="M153.9,456.2c-.43-3-.88-5.84.24-8.67.37,0,.67,0,1,0,2,.13,3.92.29,5.89.39a1.55,1.55,0,0,1,1.49,1,6.09,6.09,0,0,1-.25,6A2.05,2.05,0,0,1,160.7,456a8.15,8.15,0,0,1-1.3.19C157.62,456.23,155.83,456.21,153.9,456.2Z"
		transform="translate(-80.24 -285.01)" style="fill:#e99519" />
	<path
		d="M431.61,416.36a11.77,11.77,0,0,1-5.34-.1c0-1.34,0-2.73,0-4.12a.67.67,0,0,1,.75-.72h4.38A11.79,11.79,0,0,1,431.61,416.36Z"
		transform="translate(-80.24 -285.01)" style="fill:#eb9a26" />
	<path
		d="M498,445.45a13.07,13.07,0,0,1-1.9.15c-1.84-.1-2.6-1.44-2.59-3.28a2.66,2.66,0,0,1,2.78-2.68c.9-.05,1.75.47,2.69.1.36-.15.61.29.6.67,0,1.88,0,3.75-.17,5.62a2.12,2.12,0,0,1-1.73,2,3,3,0,0,1-3.26-.72c-.11-.13-.28-.27-.3-.41a1.16,1.16,0,0,1,.12-.7c.06-.09.43-.09.58,0a8,8,0,0,1,.92.73,1.41,1.41,0,0,0,1.71.06C498.09,446.7,498.18,446.42,498,445.45Zm-1.44-.78a2.1,2.1,0,0,0,0-4.17,2.1,2.1,0,0,0,0,4.17Zm2.59-4.4c-.72.64-.79.68-.59,1.09a2.94,2.94,0,0,1-.16,2.82l.75,1.11Z"
		transform="translate(-80.24 -285.01)" style="fill:#f5c582" />
	<path
		d="M448.77,445.35c-1,0-.94-1.15-1.7-1.64-.29.31-.57.61-.83.93a2.94,2.94,0,0,1-3.34.83A2.73,2.73,0,0,1,441,442.9a3,3,0,0,1,1.5-3,3.46,3.46,0,0,1,3.74.6c.25.28.47.6.7.91.65-.36-.09-1.33.77-1.51.16,1.46-.37,3,.51,4.66l.29-.73.81.8C448.85,444.65,448.75,445,448.77,445.35Zm-4.86-.68a2,2,0,0,0,2-2,2.1,2.1,0,0,0-2-2.15,1.91,1.91,0,0,0-1.69,2C442.17,443.74,442.88,444.65,443.91,444.67Z"
		transform="translate(-80.24 -285.01)" style="fill:#f5c582" />
	<path
		d="M477.66,439.77l2.93-.06a13.84,13.84,0,0,1,1.44,0,1.94,1.94,0,0,1,1.82,1.42c.17,1.16.22,2.34.28,3.51,0,.48-.21.95-.73.87-.25,0-.57-.53-.61-.85-.09-.82,0-1.66-.05-2.49,0-1-.47-1.5-1.25-1.51a1.6,1.6,0,0,0-1.54,1.49c-.05.65,0,1.31,0,2a2.72,2.72,0,0,1-.07.91c-.08.21-.36.52-.52.5a1,1,0,0,1-.68-.47,4.28,4.28,0,0,1-.11-1.15,16.36,16.36,0,0,0-.15-3.41l-1.77.55-.54-1.1,1.06-.12.2.31Z"
		transform="translate(-80.24 -285.01)" style="fill:#f5c37f" />
	<path
		d="M432.54,443.35a2.82,2.82,0,0,1-2.4,2.2h-.57l-1.18-.18-.45-.36-.12.46c0,.65,0,1.3-.08,1.94,0,.22-.33.41-.51.61-.17-.21-.48-.41-.49-.63-.06-1.12,0-2.25,0-3.38s0-2.25,0-3.38c0-.65.27-1,.95-.88.4.59.53.59,1,0,.26,0,.51-.06.77-.06,1.82-.07,2.39.31,3.09,2.08Zm-1.05-.85a1.83,1.83,0,0,0-1.79-2,2,2,0,0,0-1.94,2.07,2,2,0,0,0,1.86,2.12C430.82,444.69,431.51,443.89,431.49,442.5Z"
		transform="translate(-80.24 -285.01)" style="fill:#f4c078" />
	<path
		d="M425.26,439.82v5.45c-.83.12-1.59.28-2.35.34-1.8.16-2.47-.38-2.91-2.57a12.06,12.06,0,0,1,0-2.48c0-.52.21-.87.77-.83s.6.43.6.85c0,.79,0,1.57,0,2.36a1.63,1.63,0,0,0,1.28,1.71,1.56,1.56,0,0,0,1.48-1.54c.08-.83,0-1.66.07-2.49S424.25,439.88,425.26,439.82Z"
		transform="translate(-80.24 -285.01)" style="fill:#f5c37f" />
	<path
		d="M487.2,442.63v-2.09c0-.52.24-.82.79-.82.83,0,1.65-.06,2.48,0a1.89,1.89,0,0,1,2,1.78,27.37,27.37,0,0,1,.06,3.39c0,.23-.3.44-.47.66-.21-.19-.55-.34-.61-.57a5.11,5.11,0,0,1-.08-1.3c0-.48,0-1,0-1.44-.07-1-.6-1.58-1.4-1.57a1.71,1.71,0,0,0-1.55,1.51c-.07.74,0,1.49,0,2.23,0,.44.17,1.1-.53,1.12s-.68-.63-.68-1.16v-1.7Z"
		transform="translate(-80.24 -285.01)" style="fill:#f4c17a" />
	<path
		d="M435.19,440.08c.56-.51,1-.53,1.31.11s.61,1.42.92,2.13c.11.27.25.52.46.95a3.75,3.75,0,0,0,.64-.73c.25-.59.37-1.25.67-1.81s.38-1.26,1.44-.85a12.71,12.71,0,0,1-.35,1.32c-.77,2-1.57,4-2.36,5.95a1.15,1.15,0,0,1-.32.55,2.8,2.8,0,0,1-.79.24c-.07-.26-.3-.63-.19-.79,1.1-1.63.25-3.07-.38-4.55C435.89,441.77,435.55,440.93,435.19,440.08Z"
		transform="translate(-80.24 -285.01)" style="fill:#f5c582" />
	<path
		d="M467.39,444.64c-.9,1-2.08.92-3.26.78l-.25-.05a2.94,2.94,0,0,1-1.62-3.27,2.72,2.72,0,0,1,2.21-2.42,2.75,2.75,0,0,1,3.23,1.54c.07.51.13,1,.19,1.53l-.54.26h-.12a19.3,19.3,0,0,0-3.65.12,1.18,1.18,0,0,0,.86,1.41,1.42,1.42,0,0,0,1.58-.18c.29-.26.6-.49.91-.73l.49,0Zm-2.3-4.28a8.12,8.12,0,0,0-1.28.73,1,1,0,0,0-.22.8c0,.15.39.31.62.33a11.6,11.6,0,0,0,1.56,0c.42,0,1,.12,1-.46,0-.33-.36-.74-.66-1A3.88,3.88,0,0,0,465.09,440.36Z"
		transform="translate(-80.24 -285.01)" style="fill:#f4c17a" />
	<path
		d="M403.54,442.63c-.09.13-.17.26-.25.39l-.35.05-3.42,0c-.54.27-.54.55,0,.85.94.83,1.89,1.05,2.88.09a1.64,1.64,0,0,1,.35-.18l.65.07-.55,1.05-.57.42a9.69,9.69,0,0,1-2.15,0,2.24,2.24,0,0,1-1.77-1.5V441.5a2.33,2.33,0,0,1,2.35-1.85,2.46,2.46,0,0,1,2.87,1.68C403.55,441.76,403.54,442.19,403.54,442.63Zm-.57-.74a10.18,10.18,0,0,0-1-1.07,1.72,1.72,0,0,0-2.43.38c-.32.47-.19,1,.33,1A5.56,5.56,0,0,0,403,441.89Z"
		transform="translate(-80.24 -285.01)" style="fill:#f4c17a" />
	<path
		d="M409.32,443.42a1.75,1.75,0,0,1-1.34,2c-1.93.42-3.64-.56-3.66-2.52.1-.56.2-1.12.31-1.68a1.59,1.59,0,0,1,1.08-1.2,3.11,3.11,0,0,1,3.45.56,1.9,1.9,0,0,1,.19,2.45,9.37,9.37,0,0,0-4.08.13c.5,1.79,1.58,2.15,2.89,1A10.14,10.14,0,0,1,409.32,443.42Zm-.47-1.41a1.9,1.9,0,0,0-1.58-1.52,1.79,1.79,0,0,0-1.63.67c-.32.38-.28.91.11,1A6,6,0,0,0,408.85,442Z"
		transform="translate(-80.24 -285.01)" style="fill:#f4c078" />
	<path
		d="M472.37,445.39a3.43,3.43,0,0,1-3.82-1.31c-.07-.43-.13-.86-.2-1.3l.35-1.57a2.77,2.77,0,0,1,3.42-1.45,5.72,5.72,0,0,0,1.24,0c.28,0,.64-.22.71.28l-1,1.33-.53-.38a1.89,1.89,0,0,0-2.69.22,2.77,2.77,0,0,0,.15,2.94,1.82,1.82,0,0,0,2.28.26c.29-.19.55-.42.83-.63.08.38.15.76.23,1.15C472.93,444.91,472.49,444.84,472.37,445.39Z"
		transform="translate(-80.24 -285.01)" style="fill:#f4c27c" />
	<path
		d="M393.93,439.74a9.8,9.8,0,0,1,1.53,0,2.47,2.47,0,0,1,2.05,1.83c0,.68,0,1.36,0,2-.84,1.86-1.45,2.13-3.86,1.78-.12-.47-.48-.49-.86-.46v-1.82c.09.14.19.28.27.43a2,2,0,0,0,2,1.17,1.8,1.8,0,0,0,1.55-1.4,2.08,2.08,0,0,0-.53-2.29,1.49,1.49,0,0,0-1.91-.29,11.44,11.44,0,0,0-1.37,1.33c0-.54,0-1.07,0-1.61Z"
		transform="translate(-80.24 -285.01)" style="fill:#f4c27c" />
	<path
		d="M415.39,444.94l-1.28.61-.56,0a5.07,5.07,0,0,1-1.25-.29,2.6,2.6,0,0,1-1.45-2.53,2.87,2.87,0,0,1,1.4-2.86,6.84,6.84,0,0,1,2.54-.15l.09.45,0,.58a8.7,8.7,0,0,0-.88-.22,1.74,1.74,0,0,0-1.88,1.07,2.44,2.44,0,0,0,.43,2.57,1.78,1.78,0,0,0,2.4.06,1,1,0,0,1,.24-.09Z"
		transform="translate(-80.24 -285.01)" style="fill:#f5c582" />
	<path
		d="M456.93,440c-.2.23-.36.6-.61.69-1.05.34-1.17,1.19-1.23,2.08,0,.65,0,1.3,0,2,0,.36-.1.79-.54.71a1,1,0,0,1-.64-.67c-.06-1.48-.05-3,0-4.44,0-.21.26-.56.41-.57.84-.06,1.68,0,2.52,0Z"
		transform="translate(-80.24 -285.01)" style="fill:#f4c17a" />
	<path
		d="M389.1,443.1c-.49-.17-1-.35-1.48-.5a1.31,1.31,0,0,1-1-1.07,1.67,1.67,0,0,1,.73-1.59,3.35,3.35,0,0,1,3,.09,2,2,0,0,1,.57.84.45.45,0,0,1-.61.56c-.24-.08-.42-.3-.65-.4a2.21,2.21,0,0,0-.95-.31c-.22,0-.5.32-.6.55s.2.46.39.58a10.38,10.38,0,0,0,1.18.53l0,.43v.28Z"
		transform="translate(-80.24 -285.01)" style="fill:#f5c582" />
	<path
		d="M486.48,442.5c0,.74,0,1.49,0,2.23,0,.42-.22.84-.69.75a1,1,0,0,1-.62-.7c-.06-1.48-.06-3,0-4.45,0-.21.42-.53.69-.58s.61.27.62.66c0,.7,0,1.39,0,2.09Z"
		transform="translate(-80.24 -285.01)" style="fill:#f4c17a" />
	<path
		d="M414.85,440.77l0-.58.56.07.33.1-.07-.43c0-.52,0-1,0-1.56l.77,0c.1,2.32.06,4.63,0,6.86a.8.8,0,0,1-1.16-.25c-.08-.26-.15-.52-.23-.78l.47-1.08c.37-.26.38-.52,0-.8Z"
		transform="translate(-80.24 -285.01)" style="fill:#f2b766" />
	<path
		d="M392.81,443.08v1.82c0,.19,0,.38.07.57l-.09,2.06-.69,0-.05-7.57h.75l.05.48c0,.54,0,1.07,0,1.61Z"
		transform="translate(-80.24 -285.01)" style="fill:#efab4a" />
	<path
		d="M409.32,443.42a10.14,10.14,0,0,0-1.16.77c-1.31,1.12-2.39.76-2.89-1a9.37,9.37,0,0,1,4.08-.13Z"
		transform="translate(-80.24 -285.01)" style="fill:#fef5e9" />
	<path
		d="M460.94,438.25c0,2.12.1,4.24.12,6.36,0,.46-.24.73-.76.59,0-1.94,0-3.89,0-5.84C460.33,438.87,460.31,438.39,460.94,438.25Z"
		transform="translate(-80.24 -285.01)" style="fill:#f0b158" />
	<path
		d="M473.33,444.92c-.08-.39-.15-.77-.23-1.15l.18-.66c.58-.28.59-.56,0-.85l-.24-.9,1-1.33c0,1.61.1,3.21.11,4.81,0,.58-.4.58-.83.44C473.34,445.16,473.34,445,473.33,444.92Z"
		transform="translate(-80.24 -285.01)" style="fill:#eea640" />
	<path
		d="M450.22,444.81a3.08,3.08,0,0,0,1.26-3,5.64,5.64,0,0,1,0-1.3c0-.2.27-.37.41-.56,0,1,0,1.95,0,2.92a6.8,6.8,0,0,0-.21,1.25c0,.43-.1,1,.69.84,0,.16-.06.45-.1.46-.65,0-1.31,0-2,.06Z"
		transform="translate(-80.24 -285.01)" style="fill:#f5c582" />
	<path
		d="M460.94,438.25c-.63.14-.61.62-.61,1.11,0,1.95,0,3.9,0,5.84-.15-.22-.43-.44-.43-.66,0-1.86,0-3.71,0-5.57a2.22,2.22,0,0,1,.28-1C460.39,437.55,460.6,437.62,460.94,438.25Z"
		transform="translate(-80.24 -285.01)" style="fill:#f7d09b" />
	<path
		d="M392.05,439.94q0,3.78.05,7.57c0,.09,0,.18-.05.27l-.08.08c-.15-.19-.42-.38-.42-.57,0-2.25,0-4.51,0-6.76C391.55,440.33,391.87,440.13,392.05,439.94Z"
		transform="translate(-80.24 -285.01)" style="fill:#fbe4c5" />
	<path
		d="M476.13,445.18c-.35.67-.67.31-.95,0-.1-.11-.08-.33-.08-.5,0-1.42,0-2.85,0-4.28,0-.28,0-.67.48-.49,0,1.45,0,2.89,0,4.33C475.56,444.63,475.48,445.12,476.13,445.18Z"
		transform="translate(-80.24 -285.01)" style="fill:#f5c37f" />
	<path
		d="M476.13,445.18c-.65-.06-.57-.55-.57-1,0-1.44,0-2.88,0-4.33l.51,0,.54,1.1a.43.43,0,0,1-.12.23l-.36.67C476.14,443,476.13,444.09,476.13,445.18Z"
		transform="translate(-80.24 -285.01)" style="fill:#f4c078" />
	<path
		d="M448.52,443.84l-.29.73c-.88-1.66-.35-3.2-.51-4.66.68-.13.69.41.71.81C448.49,441.76,448.49,442.8,448.52,443.84Z"
		transform="translate(-80.24 -285.01)" style="fill:#f4c27c" />
	<path
		d="M388.35,445.43a1.72,1.72,0,0,1-1.72-1c-.05-.17,0-.5.12-.57s.55-.2.69-.09a8,8,0,0,1,1,1Z"
		transform="translate(-80.24 -285.01)" style="fill:#f6cb8f" />
	<path
		d="M486.53,438.12c0,.69-.37.77-.75.75s-.71-.13-.67-.6a.61.61,0,0,1,.8-.62C486.18,437.71,486.39,438,486.53,438.12Z"
		transform="translate(-80.24 -285.01)" style="fill:#f6cb8f" />
	<path d="M397.53,443.58c0-.68,0-1.36,0-2l.82,0v2.37Z" transform="translate(-80.24 -285.01)"
		style="fill:#fbe4c5" />
	<path d="M389.66,443.09v-.28l1,.53c0,.43,0,.86,0,1.3l-1,.28h0l0-.49c0-.28,0-.57,0-.85Z"
		transform="translate(-80.24 -285.01)" style="fill:#f2b766" />
	<path d="M501.49,444.92l-.75.65c-.2-.25-.51-.47-.56-.74s.33-.42.51-.63Z"
		transform="translate(-80.24 -285.01)" style="fill:#f7d09b" />
	<path d="M451.93,442.83c0-1,0-1.95,0-2.92.48-.05.57.27.57.64,0,.76-.05,1.52-.07,2.27Z"
		transform="translate(-80.24 -285.01)" style="fill:#f4c27c" />
	<path d="M468.35,442.78c.07.44.13.87.2,1.3l-1.16.56,0-1c0-.2-.05-.39-.07-.59l.54-.26Z"
		transform="translate(-80.24 -285.01)" style="fill:#fffbf7" />
	<path d="M451.93,442.83h.49c0,.7,0,1.4,0,2.1-.79.2-.7-.41-.69-.84A6.8,6.8,0,0,1,451.93,442.83Z"
		transform="translate(-80.24 -285.01)" style="fill:#efab4a" />
	<path d="M404.63,441.22c-.11.56-.21,1.12-.31,1.68l-.78-.27c0-.44,0-.87,0-1.3Z"
		transform="translate(-80.24 -285.01)" style="fill:#f7d09b" />
	<path
		d="M415.44,440.26l-.56-.07-.09-.45a9.73,9.73,0,0,0,.35-1.25c.05-.39.14-.65.58-.64,0,.18,0,.35,0,.52,0,.52,0,1,0,1.56Z"
		transform="translate(-80.24 -285.01)" style="fill:#fef5e9" />
	<path
		d="M468.35,442.78l-.46,0c-.06-.51-.12-1-.19-1.53h1C468.58,441.74,468.47,442.26,468.35,442.78Z"
		transform="translate(-80.24 -285.01)" style="fill:#fbe4c5" />
	<path d="M450.22,444.81l.13.63-1.58-.09c0-.4.08-.7.56-.71Z"
		transform="translate(-80.24 -285.01)" style="fill:#f4c27c" />
	<path d="M432.54,443.35l0-1.59C433.19,442.31,433.2,442.76,432.54,443.35Z"
		transform="translate(-80.24 -285.01)" style="fill:#fdf0df" />
	<path d="M389.67,444.92l1-.28c-.17.67-.54,1-1.28.81Z" transform="translate(-80.24 -285.01)"
		style="fill:#f6cb8f" />
	<path
		d="M390.69,443.34l-1-.53,0-.43c.37.15.75.29,1.1.47C390.79,442.88,390.71,443.17,390.69,443.34Z"
		transform="translate(-80.24 -285.01)" style="fill:#f7d09b" />
	<path d="M389.67,444.92l-.27.53-1,0,.09-.63H389l.63.1Z" transform="translate(-80.24 -285.01)"
		style="fill:#f2b766" />
	<path d="M392.85,440.42l-.05-.48,1.13-.2Z" transform="translate(-80.24 -285.01)"
		style="fill:#fbe4c5" />
	<path
		d="M403.37,443.87l-.65-.07c.07-.24.14-.49.22-.73l.35-.05C403.32,443.3,403.34,443.58,403.37,443.87Z"
		transform="translate(-80.24 -285.01)" style="fill:#f7d09b" />
	<path d="M415.74,438.37c0-.17,0-.34,0-.52.39,0,.76-.07.79.48Z"
		transform="translate(-80.24 -285.01)" style="fill:#f5c582" />
	<path d="M428.65,439.74c-.47.59-.6.59-1,0Z" transform="translate(-80.24 -285.01)"
		style="fill:#fdf0df" />
	<path d="M392.88,445.47c0-.19-.05-.38-.07-.57.38,0,.74,0,.86.46Z"
		transform="translate(-80.24 -285.01)" style="fill:#fbe4c5" />
	<path d="M473.33,444.92c0,.12,0,.24,0,.36l-1,.11C472.49,444.84,472.93,444.91,473.33,444.92Z"
		transform="translate(-80.24 -285.01)" style="fill:#fbe4c5" />
	<path d="M392.83,447.81c-.28.61-.45.62-.86.05l.08-.08Z" transform="translate(-80.24 -285.01)"
		style="fill:#fbe4c5" />
	<path d="M402.25,445.34l.57-.42Z" transform="translate(-80.24 -285.01)" style="fill:#f7d09b" />
	<path d="M427.82,445.46l.12-.46.45.36Z" transform="translate(-80.24 -285.01)"
		style="fill:#fdf0df" />
	<path d="M389.66,444.91l-.63-.1.65-.39C389.67,444.58,389.67,444.75,389.66,444.91Z"
		transform="translate(-80.24 -285.01)" style="fill:#f6cb8f" />
	<path d="M389.66,443.09l0,.48-.59-.47Z" transform="translate(-80.24 -285.01)"
		style="fill:#f7d09b" />
	<path d="M413.55,445.57l.56,0C413.94,446,413.75,446,413.55,445.57Z"
		transform="translate(-80.24 -285.01)" style="fill:#fef5e9" />
	<path d="M429.57,445.54h.57C430,446,429.76,446,429.57,445.54Z"
		transform="translate(-80.24 -285.01)" style="fill:#fdf0df" />
	<path d="M477.66,439.77l-.31.33-.2-.31Z" transform="translate(-80.24 -285.01)"
		style="fill:#f4c078" />
	<path d="M476.15,441.91l.36-.67Z" transform="translate(-80.24 -285.01)" style="fill:#f5c37f" />
	<path d="M392.83,447.81l-.78,0c0-.09,0-.18.05-.27l.69,0A2.7,2.7,0,0,0,392.83,447.81Z"
		transform="translate(-80.24 -285.01)" style="fill:#f4c27c" />
	<path
		d="M480,403.21a21.63,21.63,0,0,1,.68-3,4.89,4.89,0,0,1,4.75-3.27,6.73,6.73,0,0,1,1.95.14,5.13,5.13,0,0,1,4.06,4.44c.52,2.82-.37,5.6-2.88,7-3.13,1.74-8.11.35-8.35-4.46,0-.27-.05-.53-.07-.79Z"
		transform="translate(-80.24 -285.01)" style="fill:#fffbf7" />
	<path
		d="M310.31,411.7a14.55,14.55,0,0,1-2-.53,2.81,2.81,0,0,1-1.76-2.68,2.87,2.87,0,0,1,1.54-2.56,4.32,4.32,0,0,1,4.14-.19,3,3,0,0,1,1.78,3.41,3.07,3.07,0,0,1-2.64,2.38c-.34.05-.69,0-1,.06Z"
		transform="translate(-80.24 -285.01)" style="fill:#fef9f2" />
	<path
		d="M257.78,411.68a8.62,8.62,0,0,1-2.13-.51,2.86,2.86,0,0,1-1.74-3,3.17,3.17,0,0,1,2.36-2.69,4.79,4.79,0,0,1,3.21.15,3.17,3.17,0,0,1,1.93,3.5,3.33,3.33,0,0,1-2.82,2.38c-.26,0-.53,0-.79,0Z"
		transform="translate(-80.24 -285.01)" style="fill:#fef9f2" />
	<path
		d="M295.39,395.06h-2.56c-1.05,0-2.1,0-3.16,0-1.42,0-1.67.25-1.66,1.7a31.5,31.5,0,0,1-.38,3.76,30,30,0,0,0-.06,5.76,3.19,3.19,0,0,0,4.08,2.91c1-.22,2-.59,3.19-.95a3.66,3.66,0,0,1,.7,1.09c.39,1.38.63,2.8,1,4.18a1.17,1.17,0,0,1-.5,1.47,22,22,0,0,1-2.38,1.31,6,6,0,0,1-3,.57,2.29,2.29,0,0,0-.77.12c-.71.22-1.39.49-2.11-.05-.21-.15-.59-.07-.9-.07-4,0-6.17-2.13-7.39-5.15a12.72,12.72,0,0,1-.63-3.56,18.58,18.58,0,0,1,0-2.89,12,12,0,0,1,.32-1.63,5.58,5.58,0,0,0,.13-.9q0-3.21,0-6.43c0-1.13-.12-1.24-1.3-1.27-.3,0-.61,0-.91,0-2,0-1.67-.23-1.9-1.61a25.44,25.44,0,0,1-.07-4.19.81.81,0,0,1,.8-.87c.74-.08,1.47-.15,2.21-.19,1.16-.06,1.66-.55,1.68-1.7a2.24,2.24,0,0,0,0-.78c-.49-1.31.18-2.59.09-3.89-.05-.65.59-.83,1.1-.94s1,0,1.43-.07c1.13-.1,2.27-.15,3.38-.36,2.33-.44,2.84.05,2.53,2.39a38.39,38.39,0,0,0-.26,4.16c0,1.1.3,1.4,1.4,1.42,1.57,0,3.15,0,4.72,0,1,0,1.06.16,1.26,1.1C295.82,391.32,295.29,393.07,295.39,395.06Z"
		transform="translate(-80.24 -285.01)" style="fill:#e99211" />
	<path d="M496.6,444.67a2.1,2.1,0,0,1,0-4.17,2.1,2.1,0,0,1,0,4.17Z"
		transform="translate(-80.24 -285.01)" style="fill:#fef9f2" />
	<path
		d="M499.19,440.27v5l-.75-1.11a2.94,2.94,0,0,0,.16-2.82C498.4,441,498.47,440.91,499.19,440.27Z"
		transform="translate(-80.24 -285.01)" style="fill:#eea640" />
	<path
		d="M443.91,444.67c-1,0-1.74-.93-1.7-2.19a1.91,1.91,0,0,1,1.69-2,2.1,2.1,0,0,1,2,2.15A2,2,0,0,1,443.91,444.67Z"
		transform="translate(-80.24 -285.01)" style="fill:#fef9f3" />
	<path
		d="M431.49,442.5c0,1.39-.67,2.19-1.87,2.19a2,2,0,0,1-1.86-2.12,2,2,0,0,1,1.94-2.07A1.83,1.83,0,0,1,431.49,442.5Z"
		transform="translate(-80.24 -285.01)" style="fill:#fef9f2" />
	<path
		d="M465.09,440.36a3.88,3.88,0,0,1,1.06.42c.3.26.67.67.66,1,0,.58-.62.45-1,.46a11.6,11.6,0,0,1-1.56,0c-.23,0-.59-.18-.62-.33a1,1,0,0,1,.22-.8A8.12,8.12,0,0,1,465.09,440.36Z"
		transform="translate(-80.24 -285.01)" style="fill:#fef5e9" />
	<path
		d="M466.93,443.64c-.31.24-.62.47-.91.73a1.42,1.42,0,0,1-1.58.18,1.18,1.18,0,0,1-.86-1.41,19.3,19.3,0,0,1,3.65-.12Z"
		transform="translate(-80.24 -285.01)" style="fill:#fffbf7" />
	<path d="M466.93,443.64l.3-.62h.12c0,.2,0,.39.07.59Z" transform="translate(-80.24 -285.01)"
		style="fill:#fbe4c5" />
	<path
		d="M403,441.89a5.56,5.56,0,0,1-3.08.3c-.52,0-.65-.52-.33-1a1.72,1.72,0,0,1,2.43-.38A10.18,10.18,0,0,1,403,441.89Z"
		transform="translate(-80.24 -285.01)" style="fill:#fef5e9" />
	<path
		d="M402.94,443.07c-.08.24-.15.49-.22.73a1.64,1.64,0,0,0-.35.18c-1,1-1.94.74-2.87-.09,0-.28,0-.57,0-.85Z"
		transform="translate(-80.24 -285.01)" style="fill:#fffffe" />
	<path d="M399.52,443c0,.28,0,.57,0,.85C399,443.59,399,443.31,399.52,443Z"
		transform="translate(-80.24 -285.01)" style="fill:#f7d09b" />
	<path
		d="M408.85,442a6,6,0,0,1-3.1.13c-.39-.07-.43-.6-.11-1a1.79,1.79,0,0,1,1.63-.67A1.9,1.9,0,0,1,408.85,442Z"
		transform="translate(-80.24 -285.01)" style="fill:#fef5e9" />
	<path
		d="M473.28,443.11l-.18.66c-.28.21-.54.44-.83.63a1.82,1.82,0,0,1-2.28-.26,2.77,2.77,0,0,1-.15-2.94,1.89,1.89,0,0,1,2.69-.22l.53.38.24.9C473.29,442.54,473.29,442.82,473.28,443.11Z"
		transform="translate(-80.24 -285.01)" style="fill:#fef9f2" />
	<path
		d="M392.81,443.08V442a11.44,11.44,0,0,1,1.37-1.33,1.49,1.49,0,0,1,1.91.29,2.08,2.08,0,0,1,.53,2.29,1.8,1.8,0,0,1-1.55,1.4,2,2,0,0,1-2-1.17C393,443.36,392.9,443.22,392.81,443.08Z"
		transform="translate(-80.24 -285.01)" style="fill:#fef9f3" />
	<path
		d="M414.85,440.77c.27.5.53,1,.79,1.51,0,.27,0,.54,0,.8l-.47,1.08a1,1,0,0,0-.24.09,1.78,1.78,0,0,1-2.4-.06,2.44,2.44,0,0,1-.43-2.57,1.74,1.74,0,0,1,1.88-1.07A8.7,8.7,0,0,1,414.85,440.77Z"
		transform="translate(-80.24 -285.01)" style="fill:#fef9f3" />
	<path d="M415.63,443.08c0-.26,0-.53,0-.8C416,442.56,416,442.82,415.63,443.08Z"
		transform="translate(-80.24 -285.01)" style="fill:#f6cb8f" />
	<path d="M415.44,440.26l.26-.33c0,.15.05.29.07.43Z" transform="translate(-80.24 -285.01)"
		style="fill:#f5c582" />
	<path d="M473.28,443.11c0-.29,0-.57,0-.85C473.87,442.55,473.86,442.83,473.28,443.11Z"
		transform="translate(-80.24 -285.01)" style="fill:#f4c27c" />
</svg>