<svg version="1.1" id="Layer_1" xmlns="http://www.w3.org/2000/svg" xmlns:xlink="http://www.w3.org/1999/xlink" x="0px" y="0px"
	 width="100%" viewBox="0 0 1280 1280" enable-background="new 0 0 1280 1280" xml:space="preserve">

<path fill="#E9920F" opacity="1.000000" stroke="none" 
	d="
M55.804527,774.586792 
	C58.191086,774.963440 60.339222,774.981812 62.487385,774.986145 
	C68.050430,774.997437 71.269524,772.728821 72.960190,767.283508 
	C73.678642,764.969543 75.360474,766.291626 76.589203,766.009338 
	C78.771645,765.508057 82.339340,767.608215 82.166420,762.863281 
	C82.157280,762.612366 82.883606,762.077209 83.224525,762.110779 
	C86.769287,762.460327 89.869446,762.093628 91.198692,758.041016 
	C91.265999,757.835693 92.447021,757.995728 93.540024,757.949280 
	C95.369904,757.105896 96.923080,757.716736 98.665237,757.191528 
	C98.783157,754.500671 100.701439,754.023987 101.991684,752.670349 
	C104.895592,749.623596 107.639198,748.655029 111.402039,748.683105 
	C112.183441,748.688965 112.003395,747.632141 112.002579,747.010437 
	C111.998962,744.241150 113.655495,743.921387 115.969963,743.907959 
	C118.097298,743.895691 121.148994,745.293213 121.268867,740.929382 
	C121.314095,739.282898 123.478355,740.269470 124.666290,740.018616 
	C126.850388,739.557495 128.963348,740.835815 130.671295,737.025818 
	C131.660873,734.818115 134.839874,728.620850 140.806274,730.925903 
	C141.924301,731.357849 143.108505,730.815063 143.013321,729.136414 
	C142.986984,728.671936 143.304657,727.773804 143.332565,727.779053 
	C148.609985,728.767578 151.205643,722.566895 156.266968,722.976257 
	C158.249039,723.136597 160.241745,723.422302 160.143402,720.150696 
	C160.078217,717.981506 162.255447,717.541748 163.871140,718.062378 
	C168.963623,719.703369 172.039291,714.030762 172.420502,712.681824 
	C173.592209,708.535645 176.127121,710.221252 178.078506,710.087708 
	C180.390137,709.929504 182.434418,710.152405 182.062881,706.821655 
	C181.770554,704.200928 183.794693,705.296997 185.085342,705.048035 
	C187.409409,704.599731 191.084320,706.753418 191.325851,701.914185 
	C191.367065,701.088135 192.608337,701.067505 193.441895,701.015198 
	C195.998932,700.854736 199.005814,701.924255 199.800400,697.785950 
	C200.051407,696.478577 202.157074,697.033325 203.442993,697.018982 
	C205.907196,696.991394 208.780762,697.634521 207.998505,693.445984 
	C207.815842,692.467957 208.424469,691.942932 209.439941,691.965759 
	C209.772507,691.973267 210.142136,691.870728 210.432571,691.981567 
	C214.355179,693.478882 211.626602,686.998840 215.554626,687.831909 
	C217.491364,688.242676 221.188202,689.798157 221.269058,684.958008 
	C221.294250,683.449402 223.171432,684.257141 224.200790,683.997009 
	C226.638306,683.381042 230.120239,684.278687 230.017868,679.958191 
	C229.994934,678.990723 230.830658,679.173767 231.458969,679.089844 
	C234.613785,678.668457 238.884842,680.658142 239.812164,675.237305 
	C239.848022,675.027771 241.358109,674.940674 242.160782,675.015564 
	C244.970505,675.277893 246.291290,674.330322 248.134598,671.731201 
	C249.888565,669.258057 252.115021,664.906677 256.982880,665.966187 
	C258.473999,666.290588 259.863312,666.008423 260.382233,664.063416 
	C260.811676,662.453857 262.083618,661.854431 263.792847,661.974365 
	C266.551239,662.168030 269.519012,662.618225 269.433228,658.267517 
	C269.418640,657.528748 270.368195,657.008301 271.319794,656.974365 
	C274.293762,656.867981 277.940826,658.297119 278.841522,653.374146 
	C278.919434,652.948242 282.246094,652.893372 284.028015,653.056213 
	C286.550476,653.286865 287.344971,652.247375 287.030518,649.501221 
	C288.606476,646.736267 291.744019,647.534790 293.531219,645.757446 
	C290.908997,645.497559 288.931732,646.853027 286.737671,648.397705 
	C280.879272,650.020325 275.221405,648.517334 269.646362,649.002502 
	C267.609619,649.179810 264.658752,647.872925 264.937378,651.999084 
	C265.034851,653.442566 263.492065,652.970581 262.606567,652.991333 
	C260.274811,653.045959 257.900116,653.282593 255.615509,652.948181 
	C249.218307,652.012024 245.545685,655.480042 243.152634,660.643188 
	C242.429993,662.202271 241.567032,662.045349 240.518692,662.046387 
	C235.187866,662.051514 229.856964,661.994263 224.526169,661.950623 
	C223.549774,661.942627 221.743195,662.027527 221.880890,661.272766 
	C222.657318,657.016968 216.420547,657.747070 216.890869,653.915222 
	C209.526917,651.581238 214.065979,645.557556 213.151016,641.282776 
	C212.703491,639.191956 211.672943,636.050476 216.229019,635.608154 
	C217.877548,635.448059 216.747864,632.035706 217.007568,630.124756 
	C217.215454,628.595093 216.385300,626.895264 219.264252,626.892639 
	C222.301575,626.889954 220.789139,624.177979 220.974808,622.643616 
	C221.246140,620.401123 220.491470,617.665588 224.281998,617.934631 
	C224.713348,617.965271 225.561859,617.535461 225.557678,617.521851 
	C223.913147,612.174194 230.311798,609.673645 230.039978,604.817688 
	C229.935760,602.955872 229.339951,600.983093 232.627762,600.837585 
	C235.072708,600.729492 233.857101,598.246521 233.928101,596.797974 
	C234.043198,594.449768 233.577850,591.882202 237.196838,591.955322 
	C239.794342,592.007812 238.784271,589.996765 238.989288,588.730225 
	C239.373123,586.358826 237.873367,583.006531 242.239487,582.766357 
	C242.492325,582.752502 242.994690,581.910095 242.893768,581.626831 
	C241.082870,576.543213 245.808502,572.416443 247.863846,571.493408 
	C254.343933,568.583374 250.446091,563.346985 252.193390,559.788940 
	C253.889343,556.335510 256.975037,553.591614 256.357635,549.239258 
	C261.741180,549.225830 259.248047,543.502014 261.250183,542.119812 
	C265.415436,539.244263 265.134491,535.648865 265.042114,531.710388 
	C270.528381,531.138184 268.751678,526.901123 269.132507,523.718079 
	C269.169739,523.407043 269.790710,522.965332 270.174805,522.927124 
	C274.356262,522.511414 272.963562,518.700562 274.297302,516.725342 
	C276.757538,513.081787 278.694763,509.724945 278.371368,505.288239 
	C283.647369,505.358978 281.650238,501.278931 282.048798,498.666290 
	C282.211914,497.596924 282.397034,496.251160 283.351898,496.287079 
	C287.999603,496.461700 286.922974,493.207092 287.018829,490.592285 
	C287.054626,489.614441 286.762054,488.071014 287.701447,487.850342 
	C292.525970,486.717102 290.812012,482.953033 290.993835,480.031342 
	C291.135559,477.753632 290.517609,475.396301 293.721832,474.528168 
	C295.198456,474.128082 295.151672,472.395996 295.071747,471.073944 
	C294.898529,468.210297 295.655640,466.063049 298.733490,465.204926 
	C301.335388,464.479492 299.613983,462.331818 299.944702,460.875336 
	C300.329468,459.181091 298.971313,456.559143 302.509674,456.894012 
	C302.907867,456.931702 303.733246,456.420166 303.712982,456.349823 
	C302.267731,451.331818 306.989594,448.472046 307.874115,444.303497 
	C308.076843,443.348145 307.758942,442.149506 308.828278,441.652985 
	C313.081177,439.678314 313.465515,436.092102 313.045959,432.080383 
	C313.011902,431.755066 313.576782,431.040070 313.810760,431.062225 
	C318.194153,431.477081 316.975220,428.292725 316.942017,426.072479 
	C316.905151,423.601898 317.216827,421.701111 320.359192,421.929413 
	C320.779083,421.959900 321.615051,421.471558 321.606995,421.448059 
	C319.743073,416.041931 326.608643,413.705231 326.068695,408.710083 
	C325.907867,407.221954 325.086761,405.014740 328.182068,404.789062 
	C329.523132,404.691284 330.089111,403.159943 330.037201,401.643433 
	C329.941620,398.850952 329.323639,395.772766 333.862946,395.816895 
	C335.575043,395.833527 335.135376,393.958893 334.939819,393.031677 
	C333.850128,387.865326 338.858246,386.342346 340.789795,383.005981 
	C341.066132,382.528625 342.388489,382.274292 342.353729,382.055511 
	C341.560211,377.063599 345.447235,374.318298 348.148438,371.606934 
	C352.909119,366.828156 352.439728,358.120667 360.273254,355.849518 
	C360.511993,355.780304 360.885315,355.349487 360.838501,355.239929 
	C358.721527,350.283325 364.278931,348.470947 365.153717,344.741241 
	C365.286896,344.173431 365.837494,343.522217 366.368469,343.257690 
	C370.795624,341.052032 374.788971,338.575348 373.974976,332.644531 
	C373.783875,331.252289 375.102478,331.349701 375.639679,330.725616 
	C379.294189,326.480011 384.071686,323.449554 387.375397,318.654144 
	C389.139648,316.093323 391.619476,311.782410 396.570312,312.932220 
	C397.684875,313.191101 398.800507,312.975311 399.647797,311.835083 
	C403.799011,306.248688 414.321808,306.277191 418.038940,311.905884 
	C418.460327,312.543976 418.862518,313.074188 419.469635,312.910309 
	C424.627075,311.517944 426.643890,316.346985 430.004089,318.364685 
	C432.245605,319.710693 430.802490,322.658875 430.997498,324.874451 
	C431.219147,327.392334 430.260803,330.140259 434.201843,330.937683 
	C436.364624,331.375244 435.935486,333.777710 435.936249,335.592651 
	C435.942230,350.054169 435.959595,364.515717 436.008331,378.977142 
	C436.014435,380.793427 435.243195,382.927612 438.485718,383.233795 
	C440.330505,383.407959 439.986938,385.544769 439.985382,387.000671 
	C439.965393,405.837219 439.921387,424.673798 439.892059,443.510345 
	C439.888702,445.667877 440.287567,447.878113 436.996490,448.187897 
	C435.482025,448.330475 436.031250,450.035370 436.024200,451.077911 
	C435.924408,465.812378 435.766998,480.547913 435.887482,495.281036 
	C435.910309,498.074646 435.746033,500.454285 432.767242,500.987671 
	C430.536285,501.387115 431.359436,502.974548 431.333832,503.806763 
	C431.100037,511.408295 431.044434,519.016174 431.014130,526.622437 
	C431.005920,528.684937 431.272766,530.758179 428.381134,531.023376 
	C426.526093,531.193542 427.057343,532.659241 427.045380,533.679260 
	C426.986816,538.664307 427.018860,543.650391 427.018860,548.768921 
	C427.755280,548.718750 428.595917,548.769287 428.622894,548.644226 
	C429.861023,542.905823 437.710602,545.692810 439.400391,540.326965 
	C439.603912,539.680664 441.969177,539.742554 443.320190,539.423950 
	C445.418579,538.929016 448.297028,539.663757 448.521057,536.124634 
	C448.543884,535.764282 449.162109,535.154419 449.514648,535.146667 
	C453.061066,535.069397 456.913513,535.766663 458.359955,531.107971 
	C464.138916,532.100281 466.762634,524.408142 472.775177,525.877197 
	C473.803497,526.128418 473.908966,525.010498 473.994568,524.152832 
	C474.127899,522.816895 474.986725,522.244629 476.266998,521.957458 
	C480.957703,520.905273 482.810364,519.531799 487.093262,514.600586 
	C487.629028,513.983643 488.825836,513.939941 489.717163,513.632812 
	C492.242249,512.762634 496.653137,514.766113 496.294800,509.352814 
	C496.290192,509.282898 497.791016,509.121521 498.586823,508.988831 
	C501.194427,508.554047 505.079224,510.635773 505.342407,505.461731 
	C505.365723,505.003845 506.986877,504.334625 507.901947,504.269531 
	C510.661591,504.073212 512.835571,501.823212 514.846863,501.386963 
	C519.128052,500.458405 523.558289,498.220459 524.930908,495.562134 
	C527.473450,490.638000 533.857056,492.985687 535.841125,488.089081 
	C536.202942,487.196014 539.130981,487.108154 540.882263,487.075897 
	C542.790955,487.040710 544.219543,486.846436 544.050232,484.503693 
	C543.974915,483.461670 544.388794,482.872131 545.408630,482.983948 
	C551.333557,483.633270 554.357605,479.776733 557.202698,475.547241 
	C557.529785,475.061035 558.319946,474.542969 558.847290,474.589111 
	C563.025940,474.954742 566.791199,473.001709 568.354736,469.864410 
	C570.661560,465.235809 573.980957,464.949768 578.187134,464.697266 
	C579.481750,464.619598 581.126526,461.567535 581.398193,460.809021 
	C582.680664,457.228851 586.367004,456.171082 588.505615,453.997101 
	C591.417419,451.037140 590.971619,447.958984 592.391968,445.320435 
	C593.298828,443.635773 595.334656,440.569550 597.710083,439.809662 
	C600.789062,438.824707 601.321899,437.155304 601.033569,434.480591 
	C600.821655,432.514313 601.018555,431.220856 603.666199,430.746216 
	C605.829468,430.358429 606.319946,427.302551 607.800232,425.619171 
	C611.108826,421.856628 615.363342,419.111877 618.511292,415.024475 
	C620.427673,412.536285 622.749146,407.772034 628.443298,408.267975 
	C630.779907,408.471466 633.635681,404.664856 635.976379,402.394867 
	C639.178101,399.289886 641.138611,394.327728 646.871460,395.325562 
	C648.000977,395.522156 648.771912,394.936676 648.781250,394.462036 
	C648.864624,390.227448 652.043762,390.603027 654.444641,391.070587 
	C658.179626,391.798004 656.380859,385.700287 660.496155,386.817352 
	C662.738708,387.426086 666.481384,388.342072 666.212219,383.500824 
	C666.203369,383.340363 666.986633,382.991058 667.411072,382.972839 
	C674.127930,382.684296 679.059631,375.864532 686.540405,377.936157 
	C688.732422,378.543182 691.972290,379.074097 692.483154,375.025482 
	C692.535034,374.614349 693.488220,374.026245 694.036682,374.011261 
	C705.914307,373.686646 717.962097,372.027344 729.564148,374.491089 
	C732.795898,375.177338 737.324341,377.243469 740.302124,379.497711 
	C743.173767,381.671631 746.627014,385.238739 745.144958,390.457794 
	C744.484863,392.782227 743.829346,396.191711 748.423645,396.418701 
	C749.801331,396.486755 750.076965,398.241058 750.066895,399.683960 
	C750.015015,407.173920 750.051147,414.664673 749.960083,422.153961 
	C749.947083,423.220764 750.492188,424.761749 749.152222,425.321411 
	C742.627686,428.046417 745.733765,433.751709 744.958679,438.279022 
	C744.574829,440.521362 747.017639,444.229156 741.821960,444.315399 
	C740.438416,444.338379 741.295105,446.627869 740.993103,447.844421 
	C740.159729,451.201538 743.500183,455.905548 737.465393,457.811737 
	C736.622742,458.077881 736.886414,462.465912 736.987610,464.931580 
	C737.094604,467.539917 736.647766,469.606049 733.705078,470.018677 
	C730.895508,470.412689 732.185303,472.511169 732.020874,473.894470 
	C731.757446,476.111084 732.584290,478.741272 729.041199,479.126831 
	C727.606018,479.283051 728.084473,480.628845 728.038208,481.527344 
	C727.904236,484.128693 728.685181,487.024078 724.838135,487.943390 
	C723.655762,488.225922 724.066345,489.985870 723.957214,491.112762 
	C723.723938,493.520508 723.386292,495.083893 720.458374,496.468689 
	C718.560730,497.366272 715.062988,500.871002 715.305664,503.315369 
	C715.887878,509.181030 710.370483,510.185791 708.249939,513.770874 
	C706.309753,517.051208 701.098816,518.291870 701.918457,523.538757 
	C702.147217,525.002808 701.011719,525.705200 700.183228,526.327209 
	C697.238770,528.537842 695.145264,532.825745 692.690979,533.820557 
	C688.092957,535.684265 689.405090,538.562012 688.979980,541.444580 
	C688.892822,542.035400 688.348328,543.066589 688.078857,543.046265 
	C684.188354,542.751465 684.624084,548.502075 680.699951,548.249329 
	C679.879272,548.196533 679.714905,550.033813 680.078857,550.320190 
	C682.379639,552.130249 683.062927,555.822876 686.207458,556.384399 
	C689.556458,556.982422 693.041260,556.804993 696.464172,557.009399 
	C698.795959,557.148682 701.504028,556.239380 702.245300,559.993225 
	C702.604248,561.811401 704.808105,560.964661 706.117798,561.037964 
	C713.950989,561.476501 721.794556,561.729187 729.634460,562.050232 
	C730.281860,562.076721 731.455322,562.027649 731.497681,562.214539 
	C733.021057,568.938721 738.394104,564.897034 741.717285,565.445984 
	C747.694092,566.433167 753.927551,565.869995 760.053955,565.943542 
	C760.898865,565.953674 762.065918,565.892334 762.252563,566.721863 
	C763.346802,571.585632 767.162659,569.774841 770.073975,569.963806 
	C772.895630,570.146912 775.778870,569.710510 778.562195,570.086182 
	C784.919067,570.944153 788.503967,567.745544 792.822510,563.403931 
	C795.653870,560.557373 797.205688,558.516724 797.198059,554.805847 
	C797.192932,552.306396 800.205811,552.980652 801.467773,550.896179 
	C803.458862,547.607483 807.210938,545.428772 806.290161,540.738281 
	C811.609009,540.061157 808.928589,535.540222 810.216187,532.940186 
	C811.351257,530.648376 813.474854,528.411377 815.728638,527.248230 
	C817.477722,526.345459 819.075928,526.089783 819.000916,523.764648 
	C818.995544,523.598755 818.986206,523.294922 819.030579,523.284912 
	C824.048645,522.151001 822.818909,518.126709 822.990356,514.753967 
	C827.057312,515.035828 826.510559,509.634735 829.841248,509.153900 
	C831.494385,508.915283 832.492798,508.191010 831.944946,506.660736 
	C830.080383,501.452698 835.404236,497.803131 837.180176,497.123016 
	C840.701233,495.774597 840.063232,490.552521 844.275635,490.979523 
	C844.473206,490.999573 844.977966,490.212952 844.958130,489.821320 
	C844.643433,483.607635 848.913757,480.968994 853.082642,477.441284 
	C855.109375,475.726227 859.644470,473.511902 858.244873,468.467133 
	C857.347656,465.233337 863.500366,465.908386 862.977905,462.138000 
	C867.161804,462.044525 866.522522,456.376495 870.307617,455.763184 
	C870.582581,455.718628 870.945312,454.989227 870.934021,454.587646 
	C870.763611,448.551514 875.312378,446.433105 879.104370,443.033264 
	C880.937927,441.389282 885.744873,439.037262 884.054932,434.181885 
	C883.532288,432.680084 884.250610,430.747437 881.635925,430.936737 
	C880.680237,431.005951 879.932251,430.571960 880.036377,429.548950 
	C880.343384,426.533966 878.296448,426.969116 876.483276,427.019470 
	C873.896545,427.091278 871.374573,427.046692 871.008667,423.595032 
	C870.934265,422.893219 870.752686,422.055298 870.026917,422.130157 
	C865.973694,422.548004 862.645874,421.711243 860.085327,418.101501 
	C859.630188,417.459930 857.847595,417.519653 857.990479,415.805359 
	C858.127686,414.158112 857.011597,414.158905 855.749817,413.997131 
	C852.832031,413.623077 848.992676,414.774078 848.744385,409.628510 
	C848.692444,408.551331 846.370850,409.110718 845.089172,408.998566 
	C843.137268,408.827759 840.886108,409.815887 840.733337,406.151703 
	C840.642029,403.960938 837.970947,405.173492 836.507385,405.095917 
	C834.239136,404.975616 832.050842,405.212830 832.013489,401.976349 
	C832.006836,401.397583 831.444885,400.304657 831.387390,400.321014 
	C826.288757,401.772186 823.444580,396.355133 819.265259,396.165375 
	C814.382446,395.943726 812.391113,392.246063 810.291504,389.465485 
	C809.088989,387.872986 808.552734,386.850037 806.647156,386.996613 
	C804.066711,387.195068 801.668762,387.190887 800.863586,383.974640 
	C800.773254,383.613708 800.103577,383.038452 799.927612,383.110657 
	C795.012390,385.128143 793.358643,379.256256 789.477112,378.799316 
	C789.064026,378.750702 788.357117,378.184845 788.378723,377.904602 
	C788.762390,372.929077 785.072327,374.430359 782.418335,373.891205 
	C779.316223,373.261017 777.484985,370.335571 775.189514,368.486755 
	C771.649658,365.635834 770.641479,359.743774 764.041321,360.815613 
	C761.248047,361.269226 761.158691,357.272308 758.759460,355.795685 
	C755.448242,353.757782 751.676697,350.468658 750.018250,347.416718 
	C748.506104,344.634125 743.533875,344.686615 744.670776,340.443054 
	C741.093323,340.252930 740.692017,335.806427 737.690857,335.125549 
	C736.066345,334.756989 736.015808,334.102539 735.969666,332.836945 
	C735.856323,329.725403 737.393555,325.626068 731.902161,325.455048 
	C732.241760,320.852142 728.325195,318.084412 727.081238,314.207001 
	C726.382141,312.027679 727.064331,310.385284 723.953796,308.419739 
	C720.585876,306.291626 715.675720,301.957275 717.851746,295.549316 
	C718.560120,293.463379 717.946716,290.931427 717.953186,288.603516 
	C717.961609,285.578644 717.194031,282.534973 721.887695,281.572113 
	C723.361511,281.269775 725.343628,278.524719 726.800293,276.819550 
	C730.851257,272.077301 737.532227,271.908844 741.142883,277.107330 
	C742.232056,278.675629 743.844543,277.710327 745.194153,278.009888 
	C748.331482,278.706268 752.864197,275.869354 754.118958,281.495270 
	C754.171692,281.731781 754.981262,281.907684 755.445801,281.926666 
	C758.742188,282.061676 761.659363,282.040680 763.999451,285.577118 
	C765.016357,287.114044 769.177246,286.586090 771.914978,286.961304 
	C773.032715,287.114471 774.841675,286.489075 775.125549,287.631805 
	C776.380676,292.683777 780.339722,290.900513 783.395386,291.062653 
	C785.922485,291.196716 788.301819,290.820465 789.200500,294.145966 
	C789.627686,295.727020 791.437683,294.849670 792.625610,295.103699 
	C794.103394,295.419769 796.517456,295.583405 796.825867,296.431519 
	C798.395996,300.749695 802.250671,299.139069 805.043457,299.871429 
	C807.535645,300.524933 810.746094,298.921448 811.361206,303.397522 
	C811.530823,304.632019 814.065002,303.977020 815.505127,303.955688 
	C818.815186,303.906555 821.998352,304.090271 824.054443,307.196869 
	C824.923401,308.509705 826.245667,307.527039 827.210327,307.997498 
	C828.469910,308.611847 830.341858,307.716187 831.091858,309.121552 
	C833.668152,313.949341 838.100769,313.035889 842.265076,312.950409 
	C843.709106,312.920746 845.534119,313.742188 845.613464,314.441040 
	C845.990845,317.767242 848.927795,316.253784 850.185425,317.267670 
	C854.820557,321.004639 862.731079,319.301361 865.131104,322.488312 
	C868.405823,326.836578 875.179443,323.637421 876.399841,329.589722 
	C876.468933,329.926636 878.545349,329.832581 879.683228,329.973846 
	C881.922974,330.251953 884.952454,328.999634 885.142578,333.113922 
	C885.200500,334.367645 886.620667,333.974335 887.604126,334.024689 
	C890.404785,334.167999 893.416931,333.698334 894.179688,337.857574 
	C894.595764,340.126282 896.979492,338.706085 898.451233,338.964813 
	C901.708923,339.537537 905.969788,337.347656 907.506836,342.599274 
	C907.674011,343.170410 909.830322,343.349121 911.070435,343.372955 
	C913.039734,343.410767 914.804199,343.200043 915.120117,346.007690 
	C915.267029,347.313049 917.200012,346.865448 918.005737,347.407135 
	C919.993408,348.743439 924.588989,346.045105 924.113831,351.216095 
	C924.094971,351.421661 924.594299,351.903625 924.751404,351.863434 
	C929.830872,350.563171 932.575073,354.710388 936.335754,356.572571 
	C937.846924,357.320892 939.516113,357.211945 941.303162,354.480133 
	C944.518066,349.565918 945.687317,342.317657 950.383789,339.859680 
	C954.712097,337.594391 952.835632,334.697510 954.262207,332.612946 
	C955.872681,330.259552 957.452820,327.105133 960.709106,326.146118 
	C961.828003,325.816589 963.253296,325.889404 962.974548,324.239746 
	C962.028687,318.641968 966.107727,316.127045 969.570740,313.215912 
	C969.932556,312.911774 970.725891,312.623627 970.695312,312.423218 
	C969.998840,307.857727 972.467041,305.267670 975.847900,302.650757 
	C980.990967,298.669769 982.770020,290.270447 991.461609,290.941620 
	C991.893738,290.974976 992.651245,290.713593 992.762573,290.408752 
	C995.408447,283.165039 1001.341919,288.660858 1005.432861,287.105072 
	C1006.070251,290.383514 1010.916382,290.137878 1011.083862,293.847168 
	C1011.101318,294.233765 1011.498962,294.903900 1011.775269,294.933838 
	C1017.635376,295.568207 1015.867371,300.023529 1015.970520,303.414429 
	C1016.096985,307.576324 1016.020569,311.746399 1015.948792,315.911530 
	C1015.900940,318.689697 1017.145569,322.355713 1012.128296,322.103638 
	C1011.822510,325.897125 1006.655762,326.129669 1006.543701,331.096222 
	C1006.457520,334.915802 1003.937927,340.039948 1001.307373,342.964142 
	C999.291443,345.205048 997.671692,346.590820 997.948914,349.593475 
	C998.097168,351.198975 997.005554,352.041870 995.863464,352.671204 
	C994.817749,353.247467 994.020203,353.635498 993.925720,355.105835 
	C993.763489,357.629517 995.469971,361.232147 990.490845,361.443878 
	C989.379395,361.491150 990.100647,363.504517 989.974670,364.600769 
	C989.681580,367.151703 990.721313,370.175568 986.151489,370.240784 
	C983.900085,370.272949 985.415894,372.961365 985.023010,374.394775 
	C984.520691,376.227570 986.579102,379.456696 982.232056,379.139313 
	C980.776428,379.033051 981.124878,380.467896 981.012695,381.379242 
	C980.476013,385.737793 984.495178,390.466400 988.978271,391.056000 
	C991.360413,391.369293 994.442139,391.174072 994.101868,395.099182 
	C998.131531,394.265289 997.046631,400.202209 1001.088501,400.181091 
	C1003.344482,400.169281 1003.646545,404.638214 1006.664062,405.102325 
	C1005.697754,408.998688 1011.735901,408.153809 1011.334534,412.174469 
	C1011.179016,413.731842 1018.779480,413.612854 1018.951721,411.723938 
	C1019.203003,408.968140 1021.011780,408.862305 1022.617126,408.757751 
	C1027.471680,408.441681 1030.068970,402.178101 1035.627319,403.954803 
	C1036.960571,398.380280 1044.022827,401.726105 1046.669434,396.571442 
	C1047.994507,393.990570 1051.856567,388.861328 1057.466064,390.921936 
	C1060.485229,385.185333 1065.911255,387.331360 1070.554932,386.944427 
	C1071.606689,386.856781 1071.900635,386.317505 1071.972656,385.354126 
	C1072.031006,384.575653 1072.398926,383.133026 1072.513062,383.144470 
	C1078.489380,383.744415 1081.974609,377.224030 1088.102417,377.901917 
	C1092.699707,378.410461 1097.396484,378.010681 1102.048950,378.034821 
	C1104.437500,378.047180 1106.953857,378.631531 1107.660645,375.097504 
	C1108.016968,373.315826 1109.847412,374.073975 1111.090820,374.066254 
	C1116.583496,374.032104 1122.076904,374.008728 1127.569458,374.046204 
	C1129.902344,374.062134 1132.808105,373.024078 1133.148682,377.033295 
	C1133.267212,378.426636 1134.662842,377.926178 1135.570923,377.963684 
	C1137.730469,378.053009 1139.911011,378.291931 1142.047119,378.090363 
	C1143.792480,377.925659 1145.840210,379.111420 1145.858032,379.720612 
	C1145.994507,384.382233 1150.545654,387.046692 1150.943481,391.368195 
	C1151.278076,395.002655 1150.692139,398.728333 1151.101074,402.347229 
	C1151.380127,404.816162 1148.630981,408.933380 1154.468750,409.350098 
	C1155.715576,409.439117 1154.544556,413.351227 1155.069824,415.409698 
	C1155.562866,417.342957 1153.546265,420.583252 1156.104370,421.037994 
	C1159.843750,421.702698 1164.934570,423.081909 1167.447144,420.211060 
	C1170.217896,417.045074 1173.244629,417.540100 1176.238159,417.084747 
	C1179.306274,416.618042 1182.507202,417.051514 1185.649780,417.033203 
	C1186.632324,417.027466 1188.193115,417.186035 1188.505249,416.671906 
	C1191.390991,411.919617 1196.065063,413.276306 1200.238037,413.055023 
	C1203.479614,412.883179 1205.778320,412.311707 1208.673218,409.706421 
	C1211.363525,407.285187 1217.344360,407.194763 1221.937744,408.117584 
	C1225.063477,408.745575 1227.498291,408.925018 1229.675293,405.919189 
	C1230.892700,404.238159 1233.292725,403.927063 1235.563721,403.963501 
	C1242.214478,404.070190 1248.870850,404.128204 1255.519287,403.968231 
	C1258.882935,403.887329 1261.869019,404.439423 1265.280151,401.335358 
	C1268.865723,398.072449 1275.037964,400.239258 1280.545410,400.127899 
	C1281.000000,414.354218 1281.000000,428.708466 1281.000000,443.531342 
	C1273.833862,444.001068 1266.667358,443.967743 1259.501831,444.032135 
	C1258.056641,444.045105 1256.303955,443.269104 1255.928955,446.076202 
	C1255.560059,448.836517 1252.815430,447.964020 1250.971558,447.970367 
	C1235.140015,448.024719 1219.307983,447.988281 1203.476196,448.017242 
	C1201.351196,448.021118 1198.762817,447.117676 1198.886230,451.106384 
	C1198.954834,453.323303 1196.501831,452.994720 1194.927124,453.007904 
	C1188.931763,453.058167 1182.935181,452.978943 1176.939453,453.002228 
	C1175.807739,453.006622 1173.733765,453.109467 1173.684937,453.418274 
	C1172.632324,460.076324 1167.537842,456.473969 1164.400024,456.825226 
	C1161.225952,457.180542 1159.760742,457.459595 1159.848267,461.219177 
	C1160.123291,473.038239 1159.952271,484.867340 1159.990967,496.692413 
	C1159.997559,498.692963 1159.241211,500.913422 1162.752808,501.289795 
	C1164.896851,501.519562 1163.893188,504.109436 1163.903931,505.585693 
	C1164.009888,520.082642 1163.980469,534.580505 1164.006958,549.078064 
	C1164.010376,550.963135 1163.427979,552.942688 1166.620483,553.256958 
	C1168.928345,553.484192 1167.958984,555.970764 1167.970703,557.452087 
	C1168.051758,567.616638 1168.006226,577.782227 1167.997803,587.947449 
	C1167.995972,590.061157 1167.485840,592.288147 1171.020996,592.137634 
	C1172.891235,592.057922 1172.993652,593.996338 1172.991333,595.549927 
	C1172.984985,599.881042 1172.870239,604.217468 1173.052612,608.541077 
	C1173.148193,610.806213 1171.578003,614.015442 1176.066406,614.403015 
	C1177.538818,614.530212 1176.974487,616.693359 1176.988525,617.932129 
	C1177.057739,624.097290 1176.998047,630.263733 1177.017822,636.429565 
	C1177.023315,638.156982 1176.684082,639.535889 1179.411377,640.305542 
	C1182.558350,641.193481 1180.904419,644.966675 1181.331909,647.377441 
	C1181.906372,650.617004 1181.151123,654.072571 1181.494263,657.380676 
	C1181.683350,659.203247 1180.520020,662.427185 1184.708984,662.075806 
	C1186.754883,661.904236 1185.857422,664.130432 1185.877808,665.152039 
	C1186.028320,672.645447 1185.955200,680.143005 1186.028320,687.638550 
	C1186.047241,689.579834 1185.029175,692.212219 1188.787964,692.058472 
	C1190.706665,691.979980 1189.902100,693.718567 1189.904053,694.698364 
	C1189.938477,711.860718 1189.922607,729.023132 1189.943726,746.185547 
	C1189.945557,747.681396 1190.330566,748.900635 1187.924561,749.141235 
	C1185.055908,749.427979 1184.576172,752.892883 1182.542358,754.646851 
	C1178.994751,757.706360 1174.494629,760.435913 1172.862427,765.429871 
	C1172.772705,765.704285 1172.049438,765.796509 1171.607422,765.927124 
	C1168.292358,766.907349 1164.437500,766.616516 1162.281494,770.244812 
	C1161.472900,771.605530 1159.852051,771.017639 1158.578125,771.076416 
	C1156.843628,771.156433 1154.676880,770.402222 1154.926636,773.478333 
	C1154.950073,773.767883 1154.666748,774.352478 1154.577271,774.342407 
	C1148.805786,773.692566 1145.853149,780.396973 1139.840088,779.810242 
	C1137.533325,779.585205 1133.286255,778.406250 1132.776245,783.428345 
	C1132.677979,784.396423 1130.716064,783.768127 1129.629150,783.966553 
	C1127.658447,784.326294 1124.779663,782.909485 1124.867432,787.017517 
	C1124.906494,788.848328 1122.511353,787.360291 1121.606079,788.067566 
	C1119.752686,789.515747 1116.220947,787.758545 1115.469849,791.563843 
	C1115.276367,792.544373 1113.174561,793.086426 1111.593384,793.094849 
	C1109.489624,793.106018 1107.302124,792.304382 1106.426270,795.829590 
	C1105.818970,798.274597 1102.563843,796.507935 1100.599487,797.054443 
	C1098.162231,797.732483 1093.703125,794.548767 1093.791138,800.438416 
	C1093.793945,800.620117 1092.679810,800.740417 1092.157349,801.021362 
	C1089.815308,802.280823 1085.705566,800.429871 1085.212769,804.947571 
	C1078.853271,804.007751 1075.253906,811.931091 1068.511230,810.093079 
	C1066.683472,809.594849 1064.453857,809.591736 1063.874268,812.456482 
	C1063.749756,813.071289 1062.701050,813.935730 1062.068970,813.943542 
	C1055.757568,814.021301 1050.546021,817.801819 1044.585571,818.993896 
	C1043.819458,819.147217 1042.412476,818.615540 1042.369751,819.463135 
	C1042.083862,825.135864 1037.681519,822.025085 1035.226440,823.077087 
	C1032.966797,824.045227 1029.202515,821.772705 1028.402832,826.724731 
	C1028.143921,828.328491 1023.821594,827.855347 1021.282349,828.040588 
	C1019.191711,828.192993 1016.132019,826.441650 1015.564148,830.565186 
	C1015.490784,831.097229 1013.642090,831.738770 1012.620056,831.731384 
	C1002.612244,831.659546 992.321472,833.751526 982.702637,830.705444 
	C977.426880,829.034729 971.838257,826.455688 967.614868,822.203491 
	C966.335938,820.915894 967.344727,819.341919 967.109924,817.913818 
	C966.810120,816.091003 967.632874,813.664062 964.368530,813.873657 
	C964.100098,813.890869 963.549011,813.491211 963.568054,813.435791 
	C965.751465,807.072388 956.772644,805.226501 957.843872,799.049377 
	C958.294189,796.452759 959.602539,792.343750 954.492676,791.692505 
	C954.231567,791.659241 954.012329,790.186401 954.016541,789.385071 
	C954.031006,786.629700 953.819885,784.601257 951.005310,782.503479 
	C948.603088,780.713074 949.512878,776.271484 949.011414,773.013062 
	C948.559265,770.075195 950.203125,766.872070 945.852417,765.036133 
	C943.914856,764.218506 945.394714,760.706543 944.984863,758.474365 
	C944.591797,756.332947 946.766418,752.711304 941.863037,752.864990 
	C940.580078,752.905212 941.206299,751.287964 941.075500,750.407715 
	C940.444092,746.157410 942.655151,741.515686 937.266357,738.078735 
	C934.373718,736.233826 936.078979,731.239746 935.973083,727.660828 
	C935.904785,725.349670 936.344116,722.957947 933.391785,722.186462 
	C931.438232,721.675964 932.038696,720.150085 932.013184,719.012634 
	C931.920166,714.851074 932.091797,710.682556 931.960632,706.523071 
	C931.887390,704.198486 933.224670,701.225464 929.083435,700.456787 
	C927.543335,700.170898 927.995972,697.882568 927.988342,696.422485 
	C927.961426,691.257263 928.013123,686.091614 927.984314,680.926392 
	C927.968872,678.159180 928.822144,675.108093 924.646912,674.100464 
	C922.931763,673.686646 922.983765,671.575623 923.000183,669.826111 
	C923.081360,661.197388 923.068298,652.567322 923.024536,643.938110 
	C923.015320,642.115723 923.665405,640.058655 920.467712,639.683105 
	C918.339172,639.433044 919.040222,637.047119 919.038696,635.448669 
	C919.027832,623.622925 919.050720,611.797058 919.000977,599.971558 
	C918.993469,598.183655 919.846863,595.918884 916.419983,595.843201 
	C914.243042,595.795166 914.921021,593.436646 915.076050,592.198364 
	C915.547424,588.434875 913.780212,587.656128 910.508728,587.959839 
	C908.034851,588.189453 905.514221,587.875488 903.028320,588.029114 
	C900.873535,588.162170 898.238831,586.821350 897.570312,590.988586 
	C897.237000,593.066284 893.697754,592.121887 891.732239,591.889465 
	C885.961304,591.207092 884.033630,595.369141 880.737915,598.787170 
	C877.818176,601.815308 875.173096,604.101318 875.576965,608.530029 
	C870.261475,610.045532 869.797485,617.544739 863.731262,618.134399 
	C864.335205,621.926697 858.665466,621.278137 858.928162,624.906799 
	C858.966980,625.443237 858.443726,626.370361 857.972534,626.540466 
	C852.046448,628.679565 850.308228,635.301636 845.659973,638.266724 
	C842.580200,640.231384 841.065552,645.525452 835.907227,644.030884 
	C835.300598,643.855103 834.007568,644.013306 834.001465,644.092224 
	C833.708191,647.851929 829.931091,648.383667 828.100830,650.633850 
	C826.151733,653.030090 823.621460,654.805359 821.710938,657.094299 
	C818.960693,660.389526 816.255920,663.029785 811.593079,662.224548 
	C812.670837,666.915222 806.108459,664.979858 805.952148,668.739380 
	C805.902161,669.941833 804.616333,669.968323 803.579834,670.003540 
	C800.844971,670.096130 797.216980,668.861938 797.853760,673.971802 
	C798.003357,675.172668 796.642456,674.605469 796.031433,674.939148 
	C792.668396,676.775452 790.133179,680.547668 785.498413,679.359619 
	C784.799438,684.445374 780.844604,682.717712 777.856323,683.009583 
	C777.048035,683.088623 776.369995,683.085632 776.030579,684.181213 
	C774.159668,690.221069 770.083557,692.764465 763.729614,692.077332 
	C761.485718,691.834656 758.425659,691.025208 757.963928,694.904541 
	C757.865601,695.730286 757.270081,695.958191 756.574890,695.962952 
	C751.576233,695.997253 746.577454,696.022705 741.578674,696.023560 
	C740.958130,696.023682 740.396118,695.989136 740.015015,695.199158 
	C738.396973,691.844177 736.333618,688.979797 732.513489,687.663025 
	C731.796021,687.415710 731.346497,685.468506 731.321777,684.294128 
	C731.213867,679.177551 731.258606,674.055664 731.378479,668.938721 
	C731.398621,668.076416 731.849243,666.707886 732.460632,666.459961 
	C736.297119,664.903687 737.743896,660.463257 740.491516,658.766663 
	C746.099426,655.303894 743.385559,650.013611 745.385254,646.290710 
	C747.152771,642.999939 749.663147,640.325378 749.328918,636.282471 
	C754.137573,637.626953 752.349731,629.299561 757.303772,630.832825 
	C757.381287,630.856812 757.645508,630.613892 757.627808,630.562256 
	C755.793823,625.201355 762.485840,622.863037 762.074158,617.994202 
	C761.914185,616.102783 762.145142,614.737488 764.506165,613.838806 
	C768.037354,612.494812 765.347229,608.666138 766.620850,606.023865 
	C767.358704,604.493103 764.093811,605.284485 762.662170,605.032837 
	C760.596619,604.669800 757.888123,605.943787 757.809998,601.970154 
	C757.777832,600.337402 755.599609,601.051392 754.409668,601.045349 
	C744.078552,600.993042 733.747070,601.042419 723.415649,601.035095 
	C720.979797,601.033386 718.035889,601.836731 718.064331,597.709717 
	C718.078003,595.723633 716.492249,595.997498 715.186462,595.996460 
	C711.020447,595.993042 706.849182,596.110657 702.690491,595.934143 
	C700.386658,595.836304 697.044861,597.426208 696.811218,592.870605 
	C696.751709,591.710022 695.202148,592.045715 694.268616,592.031189 
	C691.104065,591.981934 687.935486,592.071960 684.774292,591.953186 
	C682.365417,591.862793 679.522583,593.172546 678.650024,588.898254 
	C678.249146,586.934509 675.140686,588.139648 673.271790,588.025635 
	C670.081909,587.830872 666.634094,588.890747 665.676697,583.929749 
	C665.295410,581.953979 662.464905,583.298462 660.773682,583.017151 
	C659.118591,582.741882 656.835815,583.699341 657.075806,580.571899 
	C657.109558,580.131348 656.734436,579.255554 656.587097,579.263794 
	C652.636292,579.486816 649.772949,578.329224 646.726379,575.260193 
	C645.150208,573.672424 644.018555,572.774109 643.979797,570.589355 
	C643.941589,568.434753 644.891907,565.674561 640.949951,565.822571 
	C639.455139,565.878662 640.026672,564.352661 640.008484,563.517273 
	C639.950500,560.855225 640.000854,558.189392 640.075745,555.526855 
	C640.097900,554.738098 640.292786,553.280823 640.487000,553.267456 
	C647.238464,552.801880 643.054504,547.768616 643.809326,544.962830 
	C644.436401,542.631958 643.447815,539.681885 647.429626,539.925171 
	C648.154358,539.969482 649.033569,539.637695 648.856018,538.966553 
	C647.640808,534.373230 650.090149,530.159058 653.150940,528.664490 
	C658.237610,526.180786 654.756775,518.080872 661.532227,517.646729 
	C660.525879,513.643372 667.846558,514.523438 666.000488,510.027618 
	C669.236694,509.825012 669.418640,506.099701 671.881958,504.927216 
	C672.972168,504.408325 675.021301,504.160156 674.836182,502.815765 
	C673.994873,496.703796 678.327209,494.063416 682.235291,491.103485 
	C683.367249,490.246124 682.972046,488.972839 683.307312,487.928925 
	C683.992981,485.793823 683.415100,483.844238 686.710388,482.350739 
	C688.567871,481.508850 693.488464,478.313812 692.091858,473.372559 
	C691.801392,472.344757 691.189636,469.955841 692.973511,470.137512 
	C698.198120,470.669556 696.880676,467.157013 697.070801,464.411346 
	C697.124023,463.643494 697.282959,462.332672 697.667419,462.221893 
	C702.283386,460.891785 700.720642,457.165680 701.025940,454.112305 
	C701.278748,451.583710 699.817017,448.049408 704.438293,447.692932 
	C704.707397,447.672150 705.013000,445.926178 705.015564,444.982300 
	C705.045166,434.011292 704.962280,423.039673 705.054016,412.069427 
	C705.073975,409.685822 704.326599,408.847229 701.930237,408.954895 
	C698.271423,409.119324 694.583740,408.783783 690.938354,409.058594 
	C688.139832,409.269501 684.047119,407.131287 683.388977,412.496490 
	C683.327454,412.997986 681.795715,413.468079 680.882874,413.687012 
	C678.546997,414.247192 675.574036,413.579803 675.169495,417.340179 
	C675.080444,418.168610 673.750854,417.853149 672.949890,417.967926 
	C670.421753,418.330109 666.546326,416.442871 666.784302,421.561035 
	C662.585938,420.884430 662.098633,425.204041 659.654846,426.905273 
	C656.815491,428.881927 657.313293,433.361786 660.368408,435.175446 
	C661.494202,435.843781 662.946228,436.644073 662.962097,437.959167 
	C663.025879,443.267487 663.932800,448.942871 662.353699,453.771606 
	C661.141357,457.478821 656.837524,460.197388 657.574219,465.044586 
	C651.853271,466.574219 654.397095,471.221313 654.086121,474.683990 
	C653.958069,476.109100 653.612366,477.940155 652.755676,478.159637 
	C648.642517,479.213531 649.982117,482.273193 649.406677,484.972595 
	C648.867676,487.501556 650.488220,491.321350 645.643616,492.513153 
	C643.934387,492.933624 645.317505,497.073242 645.025757,499.496277 
	C644.754089,501.753326 646.085449,504.858795 642.022339,505.066162 
	C642.420898,510.514465 636.998047,513.297668 636.052612,518.074768 
	C635.606079,520.330627 636.659790,523.909119 635.465332,524.811035 
	C630.659241,528.439819 632.253784,533.246948 631.984131,537.769958 
	C631.956726,538.229004 631.758118,538.986633 631.473206,539.075684 
	C626.137939,540.743896 629.124084,545.611328 627.655029,548.519104 
	C625.489929,552.804871 623.820007,557.579590 620.506897,561.149292 
	C618.966675,562.808838 619.212219,564.365784 618.999634,566.105469 
	C618.585449,569.495605 620.720459,573.664246 615.460144,575.570435 
	C614.106262,576.061096 615.064331,578.970764 615.036926,580.767334 
	C614.988647,583.928833 615.024902,586.911072 611.127991,588.239014 
	C608.881775,589.004517 610.376099,591.409241 609.946899,593.021423 
	C609.170837,595.936951 612.194763,600.361389 606.528503,601.422485 
	C606.158752,601.491699 606.099243,603.526611 605.998779,604.656372 
	C605.827698,606.580383 606.312927,608.806824 603.329163,609.076782 
	C601.132263,609.275513 601.906311,611.084656 602.072327,612.150391 
	C602.522522,615.039368 600.872681,617.594238 601.013855,620.404846 
	C601.035583,620.838440 600.742920,621.670044 600.574951,621.675415 
	C594.776489,621.862915 597.515076,626.242920 597.067505,628.938965 
	C596.634705,631.546509 598.301697,634.949768 593.935913,635.834412 
	C593.517212,635.919250 593.141663,637.225586 593.100159,637.984314 
	C592.940247,640.906616 593.729675,644.264526 588.916626,644.174011 
	C587.666870,644.150513 588.046326,645.736633 588.022522,646.645264 
	C587.957153,649.142456 588.014954,651.642761 587.971375,654.140869 
	C587.957275,654.952454 587.858948,656.449585 587.666992,656.471436 
	C581.704529,657.149597 584.563416,661.771790 584.022705,664.735535 
	C583.602661,667.038025 584.739441,669.842407 580.802856,670.224304 
	C579.459106,670.354675 580.335144,672.300476 579.861450,673.285767 
	C578.830139,675.430969 580.345703,679.071838 575.847351,679.284180 
	C574.283752,679.357971 575.465454,681.928955 574.989380,683.226135 
	C573.864685,686.291077 577.908630,691.058960 571.527344,692.643311 
	C570.116882,692.993469 571.189514,696.949036 570.996887,699.236572 
	C570.794617,701.637146 572.302185,704.829712 567.862122,705.130981 
	C566.697388,705.209961 567.142090,706.753357 567.040222,707.698181 
	C566.741638,710.467590 567.235718,713.700195 563.028259,714.102905 
	C561.610962,714.238525 562.170471,715.604126 561.966980,716.486694 
	C561.081665,720.326477 564.621216,725.571228 558.291443,727.820801 
	C557.757935,728.010437 558.215942,730.643433 557.985840,732.105469 
	C557.504089,735.165466 559.004272,739.067444 554.357849,740.499939 
	C553.819275,740.666016 554.065186,742.867310 553.633911,744.006348 
	C552.924561,745.879639 553.829651,748.651489 550.342224,749.051025 
	C547.882935,749.332886 549.491821,751.781555 549.007690,753.170776 
	C547.940247,756.234070 551.873230,761.232422 545.486755,762.351624 
	C545.179321,762.405518 544.981567,764.175110 545.057312,765.119629 
	C545.277954,767.870422 544.993286,769.852783 541.849426,771.212341 
	C539.252380,772.335388 540.136658,776.247864 540.354980,777.974670 
	C541.028381,783.300903 536.798157,785.014771 534.335815,787.718872 
	C531.715637,790.596252 528.748169,793.300415 523.918030,793.548157 
	C522.559448,793.617859 520.180664,797.491455 516.799622,797.042114 
	C516.310120,796.977173 515.370972,797.115601 515.363037,797.058655 
	C514.472595,790.696472 505.648590,795.453247 504.609741,789.378662 
	C500.544983,789.545349 500.463745,784.641113 497.196350,783.579895 
	C495.599487,783.061218 495.972778,781.026245 495.969635,779.549927 
	C495.960052,775.052307 495.985443,770.554626 496.003815,766.056946 
	C496.011963,764.063171 495.028076,761.669312 498.805695,761.827698 
	C500.653870,761.905151 499.917816,759.743652 499.924042,758.578674 
	C499.981232,747.924194 499.982391,737.269104 499.926544,726.614563 
	C499.915619,724.530273 499.556580,722.519287 502.777496,722.953979 
	C505.597198,723.334412 504.968811,721.131287 504.982910,719.602661 
	C505.041412,713.271545 504.986298,706.939087 505.082672,700.608765 
	C505.107086,699.006165 504.322327,696.778015 507.511871,696.916809 
	C509.587433,697.007141 508.957825,695.054138 508.982422,693.881714 
	C509.076630,689.384827 508.972473,684.883057 509.106873,680.388062 
	C509.174164,678.137573 508.086609,675.270386 512.115662,674.811340 
	C513.779053,674.621887 512.977356,672.555664 512.994629,671.359131 
	C513.080994,665.378479 512.967163,659.394653 513.080322,653.414856 
	C513.120239,651.306091 512.722839,648.656189 516.382996,648.936829 
	C518.552124,649.103210 517.955994,647.247314 517.970703,646.067322 
	C518.037292,640.735229 518.054199,635.402100 518.028381,630.069580 
	C518.020142,628.371094 517.711426,626.722473 520.373596,626.927795 
	C522.597168,627.099426 521.961243,625.211243 521.982971,624.051453 
	C522.060730,619.888306 521.826050,615.711243 522.084473,611.562744 
	C522.243958,609.002563 520.072937,605.155701 525.349060,604.658691 
	C526.329529,604.566345 525.822693,602.269470 525.926575,600.966187 
	C526.320374,596.026611 524.093140,590.129639 527.234619,586.351868 
	C531.179504,581.608093 531.066895,576.793335 531.010010,571.532898 
	C531.005066,571.073975 531.245239,570.223328 531.427856,570.207581 
	C537.754456,569.661987 534.331726,564.849548 534.889709,561.956970 
	C535.356140,559.538269 534.575623,556.770691 538.496887,556.939087 
	C540.332764,557.018005 539.953247,555.476318 539.978333,554.403320 
	C540.036865,551.905090 539.987183,549.404480 540.014954,546.905212 
	C540.025757,545.935791 539.724060,544.150513 540.493469,544.170837 
	C545.997009,544.316650 543.391113,540.243713 543.978027,537.853516 
	C544.627808,535.207214 541.850708,530.930054 547.457886,530.537354 
	C547.698425,530.520508 548.009460,528.751709 547.956665,527.817688 
	C547.789612,524.862305 547.848816,522.173035 551.771057,521.864014 
	C553.285278,521.744751 552.916016,520.528442 552.965637,519.609558 
	C553.019958,518.605347 552.470337,518.061646 551.483459,518.060425 
	C550.556396,518.059265 549.089905,517.696289 549.155701,519.095642 
	C549.350464,523.236328 546.373779,521.885437 544.365051,521.961914 
	C542.031250,522.050781 539.489685,521.550598 539.890198,525.249939 
	C539.961182,525.904968 539.855225,527.032654 539.305603,526.884216 
	C534.830688,525.675659 532.202637,528.618164 529.113220,530.885864 
	C528.277039,531.499634 526.874023,531.326843 526.975037,532.878784 
	C527.106934,534.906616 525.697693,534.929749 524.342834,534.946167 
	C521.616760,534.979187 518.628906,534.472412 518.166077,538.470215 
	C518.130310,538.778748 517.826660,539.337463 517.756714,539.320801 
	C512.425476,538.053162 509.711426,543.970276 504.871796,544.000183 
	C502.940369,544.012146 501.009521,543.464722 500.878662,546.758057 
	C500.782318,549.182739 498.176147,548.017151 496.833557,547.901611 
	C494.303375,547.683838 493.450470,549.110413 491.933319,550.740601 
	C489.460236,553.397827 487.962128,557.932373 482.804291,557.053528 
	C480.980591,556.742798 478.613129,556.376526 478.934326,559.746582 
	C479.071320,561.183655 477.384399,561.572693 476.522461,561.777588 
	C473.899475,562.401184 470.444366,561.186829 469.765015,565.401611 
	C464.163910,564.054443 461.264709,570.838867 455.817505,570.028748 
	C454.190399,569.786682 452.785095,570.028381 453.020935,572.284363 
	C453.133667,573.362549 452.508484,574.724976 451.680756,574.689087 
	C447.736053,574.518066 444.438446,575.612671 442.216370,578.954285 
	C439.660309,582.798096 436.037018,583.593201 431.768738,583.290588 
	C430.859497,583.226135 431.125031,584.619202 431.055908,585.395325 
	C430.961060,586.460144 430.273193,587.934753 429.617920,587.724609 
	C424.943481,586.225525 423.070801,590.988342 419.608215,591.906677 
	C417.535492,592.456421 418.258148,593.762085 418.002167,594.916809 
	C417.177399,598.637329 420.123871,603.249512 414.410706,606.018982 
	C413.030518,606.688049 414.106598,612.264343 413.905273,615.575073 
	C413.742767,618.247498 415.326569,621.874084 410.544037,622.363464 
	C410.262085,622.392273 409.976685,623.466431 409.882233,624.083130 
	C408.715881,631.700073 402.465546,635.293945 397.836365,640.382080 
	C395.182861,643.298706 393.038300,644.137573 389.714081,644.028503 
	C388.831360,643.999451 388.001160,644.246338 388.064545,645.351501 
	C388.131104,646.512756 387.577026,647.480042 386.678711,647.797485 
	C382.932648,649.121399 379.108856,649.925415 375.924194,652.822388 
	C374.301941,654.298096 369.838501,651.076050 369.546844,656.510132 
	C369.488190,657.603455 365.265747,656.729187 362.985809,657.013245 
	C360.455475,657.328369 356.620850,655.350403 356.762970,660.580872 
	C356.788330,661.513855 355.579407,662.094360 354.447113,662.036072 
	C351.674774,661.893188 349.878784,663.004150 347.494446,664.771423 
	C344.595581,666.920044 340.249847,667.240234 336.839752,669.766785 
	C334.923798,671.186340 330.635681,668.800781 330.450562,673.941528 
	C330.391693,675.575562 327.919006,674.770874 326.510223,675.009521 
	C323.041199,675.597290 318.348755,672.815491 316.599640,678.565125 
	C316.466461,679.002869 314.451874,678.923645 313.306458,678.985840 
	C311.293243,679.095276 308.696259,678.225403 308.939392,681.809875 
	C308.949921,681.965088 308.808960,682.268372 308.805420,682.267334 
	C302.803864,680.563049 300.831940,688.300415 295.390839,687.987122 
	C293.873535,687.899719 292.311951,687.503784 291.893402,690.179565 
	C291.485321,692.788513 288.694611,691.825867 286.822083,691.978821 
	C284.941223,692.132446 283.126007,691.475159 282.672211,694.691833 
	C282.360260,696.903259 279.083344,696.675293 277.090881,696.979736 
	C275.333313,697.248291 274.024261,697.171631 273.620331,699.364502 
	C273.336060,700.907837 271.887085,700.972046 270.448090,701.057007 
	C268.154755,701.192444 264.743134,699.595642 264.743591,704.114929 
	C259.221619,703.153625 256.933411,709.048767 252.360397,709.954041 
	C250.408264,710.340454 248.032516,709.238159 247.720734,712.635742 
	C247.601471,713.935425 246.004852,713.870667 244.817795,713.974365 
	C242.375153,714.187622 239.078781,713.000977 238.912827,717.331421 
	C238.904572,717.546814 238.161621,717.918274 237.769531,717.907104 
	C231.821320,717.738647 228.548050,721.467163 225.811325,726.013977 
	C225.654099,726.275269 225.312943,726.699280 225.172760,726.657776 
	C219.558685,724.995911 217.122910,731.464783 212.338867,731.663452 
	C210.381897,731.744751 209.799698,733.132141 208.633713,733.927124 
	C205.498322,736.065125 203.953659,741.177551 198.809128,739.993835 
	C198.651871,739.957642 198.361496,739.940247 198.326950,740.009949 
	C195.967621,744.773071 190.211685,744.092346 186.603546,747.290100 
	C184.158142,749.457336 182.380829,753.504883 177.765869,753.254944 
	C176.217575,753.171021 173.862747,753.805664 172.893341,756.051331 
	C172.559830,756.823914 171.294067,757.877991 170.690369,757.743469 
	C164.949677,756.464111 163.491943,761.809448 160.472015,764.467712 
	C159.271255,765.524658 158.047806,766.148132 156.793076,766.450134 
	C152.229233,767.548706 148.576157,769.592468 146.879623,774.254150 
	C146.601608,775.018005 145.868790,774.921509 145.215363,774.983154 
	C142.193115,775.268433 139.891953,777.264343 137.366287,778.347168 
	C132.135422,780.589905 127.046707,782.222412 124.625397,787.920593 
	C118.845207,786.382080 115.367966,791.638672 110.939941,793.475342 
	C107.101501,795.067566 101.419891,795.219727 99.007523,799.894897 
	C98.352806,801.163696 97.435257,800.697571 96.615051,801.025024 
	C93.996201,802.070374 90.626625,800.959778 89.015205,805.017334 
	C88.145798,807.206604 84.404327,805.572876 82.005554,806.009827 
	C79.955788,806.383362 77.556496,804.785278 76.559891,808.978699 
	C75.986649,811.390869 70.757828,810.045837 67.675117,810.709167 
	C65.872681,811.097107 64.766197,810.738708 63.865395,812.851379 
	C63.133873,814.566895 60.883183,815.073975 58.968075,814.996094 
	C53.235634,814.762939 47.501289,815.612366 41.740372,814.174561 
	C39.527866,813.622375 38.092297,813.766541 37.403809,811.054688 
	C36.955456,809.288696 34.478230,809.918518 32.902988,810.045654 
	C29.794384,810.296631 28.616686,809.005737 28.917936,805.978882 
	C29.156393,803.582886 29.253569,801.307922 25.864590,800.807922 
	C24.348495,800.584290 25.143866,798.873291 25.014427,797.826233 
	C24.716530,795.416626 26.145174,792.273560 21.815538,791.810486 
	C20.417730,791.660889 21.041615,789.846741 21.025120,788.784119 
	C20.776825,772.788208 19.871881,756.824036 20.339495,740.784912 
	C20.605171,731.672180 20.821804,722.410278 19.956572,713.242981 
	C19.866337,712.286804 19.880726,710.611694 19.492208,710.499756 
	C13.998061,708.916260 15.989364,704.435181 15.986881,701.080505 
	C15.924791,617.149414 15.980968,533.218262 15.947714,449.287140 
	C15.946842,447.087463 17.515656,443.597931 12.724502,443.836273 
	C11.635750,443.890381 11.991841,442.224243 11.990279,441.302063 
	C11.969113,428.809723 11.955811,416.317291 12.002606,403.825104 
	C12.006341,402.828400 11.325269,401.454498 13.053246,400.954041 
	C16.552711,399.940491 17.251511,395.975128 20.373459,393.949127 
	C23.058359,392.206787 25.249443,391.069550 28.207348,390.968781 
	C31.201075,390.866821 34.202824,391.017822 37.198345,390.945526 
	C39.623386,390.886993 41.974422,390.694763 42.150398,394.149445 
	C42.176903,394.669891 43.045547,395.647522 43.313255,395.579681 
	C46.691994,394.723297 46.146202,398.260468 47.317657,399.037018 
	C54.123608,403.548553 50.830017,410.069031 50.840385,415.466095 
	C51.055485,527.458496 50.990627,639.451416 51.074226,751.444153 
	C51.076149,754.020081 49.097179,757.951111 54.432365,758.460449 
	C55.567570,758.568787 54.770065,760.850098 55.053654,762.537292 
	C55.980797,766.687988 55.210400,770.478821 55.804527,774.586792 
z"/>
<path fill="#FFFF00" opacity="1.000000" stroke="none" 
	d="
M56.023670,774.498779 
	C53.837799,771.432495 55.517532,767.557739 55.059929,763.424438 
	C57.105495,766.519104 55.477272,770.371460 56.023670,774.498779 
z"/>
<path fill="#FFFF00" opacity="1.000000" stroke="none" 
	d="
M98.561623,756.971680 
	C97.853683,758.543579 96.190353,757.809021 94.357620,757.941650 
	C95.048500,756.130676 96.789658,757.383423 98.561623,756.971680 
z"/>

<path fill="#FFFF00" opacity="1.000000" stroke="none" 
	d="
M884.385864,526.386475 
	C883.415894,523.545776 884.533936,521.870239 887.953247,521.422974 
	C888.635559,523.969238 884.184631,523.360107 884.385864,526.386475 
z"/>
<path fill="#FFFF00" opacity="1.000000" stroke="none" 
	d="
M1024.721924,505.320374 
	C1024.943970,507.290741 1024.852783,509.497498 1024.386719,511.878906 
	C1024.144165,509.887970 1024.276489,507.722382 1024.721924,505.320374 
z"/>
<path fill="#FFFF00" opacity="1.000000" stroke="none" 
	d="
M1071.402100,757.944946 
	C1072.686035,756.119751 1074.754150,757.201416 1076.861816,757.566467 
	C1075.298950,757.933044 1073.566528,757.952271 1071.402100,757.944946 
z"/>
</svg>